<?xml version="1.0" encoding="UTF-8"?>
<!DOCTYPE svg PUBLIC "-//W3C//DTD SVG 1.1//EN" "http://www.w3.org/Graphics/SVG/1.1/DTD/svg11.dtd">
<!-- Created HDS 2004.1a -->


<svg xmlns="http://www.w3.org/2000/svg" xmlns:xlink="http://www.w3.org/1999/xlink" version="1.1">
<script xlink:href="../../scripts/SVGPan.js" />
<g id="viewport" transform="translate(0,-100)">


<title>SVG Image</title>
<desc></desc>


<defs>
<!-- section for CSS stylesheet definitions -->
<style type="text/css"><![CDATA[
.allText {font-family:Sans-Serif;fill:darkcyan;}
.subTitleText {font-size:20;font-weight:bold;}
.normalText {font-size:15;}
.smallText {font-size:12;}
.boldText {font-weight:bold;}
.rightText {text-anchor:end;}
.centerText {text-anchor:middle;}
.dragRect {fill:darkcyan;stroke:none;opacity:0.4;}
]]></style>
<symbol id="upArrow" overflow="visible" style="stroke:darkcyan;fill:darkcyan;stroke-width:1;" pointer-events="none">
<polygon points="5,0 10,5 0,5 5,0" />
</symbol>
<symbol id="leftArrow" overflow="visible" style="stroke:darkcyan;fill:darkcyan;stroke-width:1;" pointer-events="none">
<polygon points="0,5 5,0 5,10 0,5" />
</symbol>
<symbol id="rightArrow" overflow="visible" style="stroke:darkcyan;fill:darkcyan;stroke-width:1;" pointer-events="none">
<polygon points="5,0 10,5 5,10 5,0" />
</symbol>
<symbol id="downArrow" overflow="visible" style="stroke:darkcyan;fill:darkcyan;stroke-width:1;" pointer-events="none">
<polygon points="0,0 5,5 10,0 0,0" />
</symbol>

</defs>
<svg id="mainMap" x="0" y="150" viewBox="0 0 911 617" width="912" height="512">


<clipPath id="SVG_Clip">
<rect x="0" y="0" width="911" height="617" />
</clipPath>
<g id="hds_models" style="clip-path:url(#SVG_Clip)">
<polyline id="r0"  stroke="rgb(102,102,102)" fill="none" stroke-width="3px" stroke-dasharray="" points="81, 112,56, 112" /> 
<polyline id="r0"  stroke="rgb(102,102,102)" fill="none" stroke-width="3px" stroke-dasharray="" points="56, 100,56, 125" /> 
<polyline id="r0"  stroke="rgb(0,0,127)" fill="rgb(0,0,127)" stroke-width="1px" stroke-dasharray="" points="19, 270,31, 270,37, 275,31, 280,19, 280,19, 270" /> 
<polyline id="r0"  stroke="rgb(0,0,0)" fill="none" stroke-width="1px" stroke-dasharray="" points="19, 270,31, 270,37, 275,31, 280,19, 280,19, 270" /> 
<polyline id="r0"  stroke="rgb(0,0,127)" fill="rgb(0,0,127)" stroke-width="1px" stroke-dasharray="" points="19, 270,31, 270,37, 275,31, 280,19, 280,19, 270" /> 
<polyline id="r0"  stroke="rgb(0,0,0)" fill="none" stroke-width="1px" stroke-dasharray="" points="19, 270,31, 270,37, 275,31, 280,19, 280,19, 270" /> 
<polyline id="r0"  stroke="rgb(0,0,0)" fill="none" stroke-width="1px" stroke-dasharray="" points="37, 275,44, 275" /> 
<polyline id="r0"  stroke="rgb(0,0,127)" fill="rgb(0,0,127)" stroke-width="1px" stroke-dasharray="" points="787, 320,800, 320,806, 325,800, 330,787, 330,787, 320" /> 
<polyline id="r0"  stroke="rgb(0,0,0)" fill="none" stroke-width="1px" stroke-dasharray="" points="787, 320,800, 320,806, 325,800, 330,787, 330,787, 320" /> 
<polyline id="r0"  stroke="rgb(0,0,127)" fill="rgb(0,0,127)" stroke-width="1px" stroke-dasharray="" points="787, 320,800, 320,806, 325,800, 330,787, 330,787, 320" /> 
<polyline id="r0"  stroke="rgb(0,0,0)" fill="none" stroke-width="1px" stroke-dasharray="" points="787, 320,800, 320,806, 325,800, 330,787, 330,787, 320" /> 
<polyline id="r0"  stroke="rgb(0,0,0)" fill="none" stroke-width="1px" stroke-dasharray="" points="781, 325,787, 325" /> 
<rect id="r0"  stroke="rgb(254,254,179)" fill="rgb(254,254,179)" stroke-width="1px" stroke-dasharray="" y="600px" x="443px" width="213px" height="12px" rx="0" ry="0" />
<rect id="r0"  stroke="rgb(0,0,0)" fill="none" stroke-width="1px" stroke-dasharray="" y="600px" x="443px" width="213px" height="12px" rx="0" ry="0" />
<rect id="r0"  stroke="rgb(254,254,179)" fill="rgb(254,254,179)" stroke-width="1px" stroke-dasharray="" y="550px" x="656px" width="50px" height="12px" rx="0" ry="0" />
<rect id="r0"  stroke="rgb(0,0,0)" fill="none" stroke-width="1px" stroke-dasharray="" y="550px" x="656px" width="50px" height="12px" rx="0" ry="0" />
<rect id="r0"  stroke="rgb(254,254,179)" fill="rgb(254,254,179)" stroke-width="1px" stroke-dasharray="" y="575px" x="443px" width="213px" height="12px" rx="0" ry="0" />
<rect id="r0"  stroke="rgb(0,0,0)" fill="none" stroke-width="1px" stroke-dasharray="" y="575px" x="443px" width="213px" height="12px" rx="0" ry="0" />
<rect id="r0"  stroke="rgb(254,254,179)" fill="rgb(254,254,179)" stroke-width="1px" stroke-dasharray="" y="575px" x="393px" width="50px" height="12px" rx="0" ry="0" />
<rect id="r0"  stroke="rgb(0,0,0)" fill="none" stroke-width="1px" stroke-dasharray="" y="575px" x="393px" width="50px" height="12px" rx="0" ry="0" />
<rect id="r0"  stroke="rgb(254,254,179)" fill="rgb(254,254,179)" stroke-width="1px" stroke-dasharray="" y="562px" x="656px" width="250px" height="50px" rx="0" ry="0" />
<rect id="r0"  stroke="rgb(0,0,0)" fill="none" stroke-width="1px" stroke-dasharray="" y="562px" x="656px" width="250px" height="50px" rx="0" ry="0" />
<rect id="r0"  stroke="rgb(254,254,179)" fill="rgb(254,254,179)" stroke-width="1px" stroke-dasharray="" y="550px" x="706px" width="200px" height="12px" rx="0" ry="0" />
<rect id="r0"  stroke="rgb(0,0,0)" fill="none" stroke-width="1px" stroke-dasharray="" y="550px" x="706px" width="200px" height="12px" rx="0" ry="0" />
<rect id="r0"  stroke="rgb(254,254,179)" fill="rgb(254,254,179)" stroke-width="1px" stroke-dasharray="" y="550px" x="393px" width="263px" height="25px" rx="0" ry="0" />
<rect id="r0"  stroke="rgb(0,0,0)" fill="none" stroke-width="1px" stroke-dasharray="" y="550px" x="393px" width="263px" height="25px" rx="0" ry="0" />
<rect id="r0"  stroke="rgb(254,254,179)" fill="rgb(254,254,179)" stroke-width="1px" stroke-dasharray="" y="587px" x="393px" width="50px" height="13px" rx="0" ry="0" />
<rect id="r0"  stroke="rgb(0,0,0)" fill="none" stroke-width="1px" stroke-dasharray="" y="587px" x="393px" width="50px" height="13px" rx="0" ry="0" />
<rect id="r0"  stroke="rgb(254,254,179)" fill="rgb(254,254,179)" stroke-width="1px" stroke-dasharray="" y="600px" x="393px" width="50px" height="12px" rx="0" ry="0" />
<rect id="r0"  stroke="rgb(0,0,0)" fill="none" stroke-width="1px" stroke-dasharray="" y="600px" x="393px" width="50px" height="12px" rx="0" ry="0" />
<rect id="r0"  stroke="rgb(254,254,179)" fill="rgb(254,254,179)" stroke-width="1px" stroke-dasharray="" y="587px" x="443px" width="213px" height="13px" rx="0" ry="0" />
<rect id="r0"  stroke="rgb(0,0,0)" fill="none" stroke-width="1px" stroke-dasharray="" y="587px" x="443px" width="213px" height="13px" rx="0" ry="0" />
<a xlink:href='javascript:parent.location.href="../../alien_game_lib/c1_t1_half_adder/struct_bd.htm"'>
<rect id="r0"  stroke="rgb(0,255,0)" fill="rgb(0,255,0)" stroke-width="1px" stroke-dasharray="" y="101px" x="144px" width="137px" height="136px" rx="0" ry="0" />
</a>
<rect id="r0"  stroke="rgb(0,128,0)" fill="none" stroke-width="3px" stroke-dasharray="" y="101px" x="144px" width="137px" height="136px" rx="0" ry="0" />
<a xlink:href='javascript:parent.location.href="../../alien_game_lib/c1_t1_half_adder/struct_bd.htm"'>
<image xlink:href="BlockDiagram.png" x="147" y="216" width="18" height="18" />
</a>
<a xlink:href='javascript:parent.location.href="../../alien_game_lib/c1_t1_half_adder/struct_bd.htm"'>
<rect id="r0"  stroke="rgb(0,255,0)" fill="rgb(0,255,0)" stroke-width="1px" stroke-dasharray="" y="101px" x="407px" width="136px" height="136px" rx="0" ry="0" />
</a>
<rect id="r0"  stroke="rgb(0,128,0)" fill="none" stroke-width="3px" stroke-dasharray="" y="101px" x="407px" width="136px" height="136px" rx="0" ry="0" />
<a xlink:href='javascript:parent.location.href="../../alien_game_lib/c1_t1_half_adder/struct_bd.htm"'>
<image xlink:href="BlockDiagram.png" x="409" y="216" width="19" height="18" />
</a>
<a xlink:href='javascript:parent.location.href="../../alien_game_lib/c1_t1_half_adder/struct_bd.htm"'>
<rect id="r0"  stroke="rgb(0,255,0)" fill="rgb(0,255,0)" stroke-width="1px" stroke-dasharray="" y="101px" x="669px" width="137px" height="136px" rx="0" ry="0" />
</a>
<rect id="r0"  stroke="rgb(0,128,0)" fill="none" stroke-width="3px" stroke-dasharray="" y="101px" x="669px" width="137px" height="136px" rx="0" ry="0" />
<a xlink:href='javascript:parent.location.href="../../alien_game_lib/c1_t1_half_adder/struct_bd.htm"'>
<image xlink:href="BlockDiagram.png" x="672" y="216" width="18" height="18" />
</a>
<polyline id="r0"  stroke="rgb(0,0,0)" fill="none" stroke-width="1px" stroke-dasharray="" points="37, 275,44, 275" /> 
<polyline id="r0"  stroke="rgb(0,0,0)" fill="none" stroke-width="1px" stroke-dasharray="" points="781, 325,787, 325" /> 
<a xlink:href='javascript:parent.location.href="../../alien_game_lib/c1_t1_half_adder/struct_bd.htm"'>
<polyline id="r0"  stroke="rgb(0,255,0)" fill="rgb(0,255,0)" stroke-width="1px" stroke-dasharray="" points="143, 162,134, 167,134, 158,143, 162" /> 
</a>
<polyline id="r0"  stroke="rgb(0,0,0)" fill="none" stroke-width="1px" stroke-dasharray="" points="143, 162,134, 167,134, 158,143, 162" /> 
<a xlink:href='javascript:parent.location.href="../../alien_game_lib/c1_t1_half_adder/struct_bd.htm"'>
<polyline id="r0"  stroke="rgb(0,255,0)" fill="rgb(0,255,0)" stroke-width="1px" stroke-dasharray="" points="143, 112,134, 117,134, 108,143, 112" /> 
</a>
<polyline id="r0"  stroke="rgb(0,0,0)" fill="none" stroke-width="1px" stroke-dasharray="" points="143, 112,134, 117,134, 108,143, 112" /> 
<a xlink:href='javascript:parent.location.href="../../alien_game_lib/c1_t1_half_adder/struct_bd.htm"'>
<polyline id="r0"  stroke="rgb(0,255,0)" fill="rgb(0,255,0)" stroke-width="1px" stroke-dasharray="" points="290, 112,281, 117,281, 108,290, 112" /> 
</a>
<polyline id="r0"  stroke="rgb(0,0,0)" fill="none" stroke-width="1px" stroke-dasharray="" points="290, 112,281, 117,281, 108,290, 112" /> 
<a xlink:href='javascript:parent.location.href="../../alien_game_lib/c1_t1_half_adder/struct_bd.htm"'>
<polyline id="r0"  stroke="rgb(0,255,0)" fill="rgb(0,255,0)" stroke-width="1px" stroke-dasharray="" points="181, 247,176, 237,186, 237,181, 247" /> 
</a>
<polyline id="r0"  stroke="rgb(0,0,0)" fill="none" stroke-width="1px" stroke-dasharray="" points="181, 247,176, 237,186, 237,181, 247" /> 
<polyline id="r0"  stroke="rgb(0,0,0)" fill="none" stroke-width="1px" stroke-dasharray="" points="81, 112,81, 112" /> 
<a xlink:href='javascript:parent.location.href="../../alien_game_lib/c1_t1_half_adder/struct_bd.htm"'>
<polyline id="r0"  stroke="rgb(0,255,0)" fill="rgb(0,255,0)" stroke-width="1px" stroke-dasharray="" points="406, 162,397, 167,397, 158,406, 162" /> 
</a>
<polyline id="r0"  stroke="rgb(0,0,0)" fill="none" stroke-width="1px" stroke-dasharray="" points="406, 162,397, 167,397, 158,406, 162" /> 
<a xlink:href='javascript:parent.location.href="../../alien_game_lib/c1_t1_half_adder/struct_bd.htm"'>
<polyline id="r0"  stroke="rgb(0,255,0)" fill="rgb(0,255,0)" stroke-width="1px" stroke-dasharray="" points="406, 112,397, 117,397, 108,406, 112" /> 
</a>
<polyline id="r0"  stroke="rgb(0,0,0)" fill="none" stroke-width="1px" stroke-dasharray="" points="406, 112,397, 117,397, 108,406, 112" /> 
<a xlink:href='javascript:parent.location.href="../../alien_game_lib/c1_t1_half_adder/struct_bd.htm"'>
<polyline id="r0"  stroke="rgb(0,255,0)" fill="rgb(0,255,0)" stroke-width="1px" stroke-dasharray="" points="553, 112,543, 117,543, 108,553, 112" /> 
</a>
<polyline id="r0"  stroke="rgb(0,0,0)" fill="none" stroke-width="1px" stroke-dasharray="" points="553, 112,543, 117,543, 108,553, 112" /> 
<a xlink:href='javascript:parent.location.href="../../alien_game_lib/c1_t1_half_adder/struct_bd.htm"'>
<polyline id="r0"  stroke="rgb(0,255,0)" fill="rgb(0,255,0)" stroke-width="1px" stroke-dasharray="" points="443, 247,439, 237,448, 237,443, 247" /> 
</a>
<polyline id="r0"  stroke="rgb(0,0,0)" fill="none" stroke-width="1px" stroke-dasharray="" points="443, 247,439, 237,448, 237,443, 247" /> 
<a xlink:href='javascript:parent.location.href="../../alien_game_lib/c1_t1_half_adder/struct_bd.htm"'>
<polyline id="r0"  stroke="rgb(0,255,0)" fill="rgb(0,255,0)" stroke-width="1px" stroke-dasharray="" points="668, 162,659, 167,659, 158,668, 162" /> 
</a>
<polyline id="r0"  stroke="rgb(0,0,0)" fill="none" stroke-width="1px" stroke-dasharray="" points="668, 162,659, 167,659, 158,668, 162" /> 
<a xlink:href='javascript:parent.location.href="../../alien_game_lib/c1_t1_half_adder/struct_bd.htm"'>
<polyline id="r0"  stroke="rgb(0,255,0)" fill="rgb(0,255,0)" stroke-width="1px" stroke-dasharray="" points="668, 112,659, 117,659, 108,668, 112" /> 
</a>
<polyline id="r0"  stroke="rgb(0,0,0)" fill="none" stroke-width="1px" stroke-dasharray="" points="668, 112,659, 117,659, 108,668, 112" /> 
<a xlink:href='javascript:parent.location.href="../../alien_game_lib/c1_t1_half_adder/struct_bd.htm"'>
<polyline id="r0"  stroke="rgb(0,255,0)" fill="rgb(0,255,0)" stroke-width="1px" stroke-dasharray="" points="815, 112,806, 117,806, 108,815, 112" /> 
</a>
<polyline id="r0"  stroke="rgb(0,0,0)" fill="none" stroke-width="1px" stroke-dasharray="" points="815, 112,806, 117,806, 108,815, 112" /> 
<a xlink:href='javascript:parent.location.href="../../alien_game_lib/c1_t1_half_adder/struct_bd.htm"'>
<polyline id="r0"  stroke="rgb(0,255,0)" fill="rgb(0,255,0)" stroke-width="1px" stroke-dasharray="" points="706, 247,701, 237,711, 237,706, 247" /> 
</a>
<polyline id="r0"  stroke="rgb(0,0,0)" fill="none" stroke-width="1px" stroke-dasharray="" points="706, 247,701, 237,711, 237,706, 247" /> 
<circle id="r0"  stroke="rgb(255,255,255)" fill="rgb(255,255,255)" stroke-width="1px" stroke-dasharray="" cx="642" cy="274" r="4"/> 
<circle stroke="rgb(255,0,0)" fill="none" stroke-width="1px" stroke-dasharray="" cx="643" cy="275" r="5"/> 
<line id="r0" stroke="rgb(0,0,0)" x1="56" y1="275" x2="68" y2="262" stroke-width="1px" />
<line id="r0" stroke="rgb(0,0,0)" x1="356" y1="275" x2="343" y2="262" stroke-width="1px" />
<line id="r0" stroke="rgb(0,0,0)" x1="631" y1="275" x2="618" y2="262" stroke-width="1px" />
<circle id="r0"  stroke="rgb(255,255,255)" fill="rgb(255,255,255)" stroke-width="1px" stroke-dasharray="" cx="43" cy="324" r="4"/> 
<circle stroke="rgb(255,0,0)" fill="none" stroke-width="1px" stroke-dasharray="" cx="44" cy="325" r="5"/> 
<line id="r0" stroke="rgb(0,0,0)" x1="206" y1="325" x2="193" y2="312" stroke-width="1px" />
<line id="r0" stroke="rgb(0,0,0)" x1="456" y1="325" x2="443" y2="312" stroke-width="1px" />
<line id="r0" stroke="rgb(0,0,0)" x1="718" y1="325" x2="706" y2="312" stroke-width="1px" />
<text x="56" y="9" font-family="courier" fill="rgb(0,0,0)" font-weight="800" font-size="10" text-anchor="start">Package List</text>
<text x="56" y="21" font-family="courier" fill="rgb(0,0,0)" font-size="10" text-anchor="start">LIBRARY ieee;</text>
<text x="56" y="32" font-family="courier" fill="rgb(0,0,0)" font-size="10" text-anchor="start">USE ieee.std_logic_1164.all;</text>
<text x="56" y="44" font-family="courier" fill="rgb(0,0,0)" font-size="10" text-anchor="start">USE ieee.std_logic_arith.all;</text>
<text x="6" y="277" font-family="courier" fill="rgb(0,0,0)" font-size="10" text-anchor="end">x</text>
<text x="183" y="184" font-family="courier" fill="rgb(0,0,0)" font-weight="800" font-size="10" text-anchor="start">alien_game_lib</text>
<text x="183" y="196" font-family="courier" fill="rgb(0,0,0)" font-weight="800" font-size="10" text-anchor="start">c1_t1_half_adder</text>
<text x="183" y="209" font-family="courier" fill="rgb(0,0,0)" font-weight="800" font-size="10" text-anchor="start">U_8</text>
<text x="156" y="165" font-family="courier" fill="rgb(0,0,0)" font-size="10" text-anchor="start">sw0</text>
<text x="156" y="115" font-family="courier" fill="rgb(0,0,0)" font-size="10" text-anchor="start">sw1</text>
<text x="268" y="115" font-family="courier" fill="rgb(0,0,0)" font-size="10" text-anchor="end">carry</text>
<text x="168" y="221" font-family="courier" fill="rgb(0,0,0)" font-size="10" text-anchor="start">sum</text>
<text x="48" y="135" font-family="courier" fill="rgb(0,0,0)" font-size="10" text-anchor="start">constval</text>
<text x="48" y="147" font-family="courier" fill="rgb(0,0,0)" font-size="10" text-anchor="start">U_9</text>
<text x="315" y="109" font-family="courier" fill="rgb(0,0,0)" font-size="10" text-anchor="start">carry</text>
<text x="97" y="159" font-family="courier" fill="rgb(0,0,0)" font-size="10" text-anchor="start">x(0)</text>
<text x="359" y="159" font-family="courier" fill="rgb(0,0,0)" font-size="10" text-anchor="start">x(1)</text>
<text x="0" y="0" font-family="courier" fill="rgb(0,0,0)" transform="translate(168,294) rotate(270)" font-size="10" >y(0)</text>
<text x="446" y="171" font-family="courier" fill="rgb(0,0,0)" font-weight="800" font-size="10" text-anchor="start">alien_game_lib</text>
<text x="446" y="184" font-family="courier" fill="rgb(0,0,0)" font-weight="800" font-size="10" text-anchor="start">c1_t1_half_adder</text>
<text x="446" y="196" font-family="courier" fill="rgb(0,0,0)" font-weight="800" font-size="10" text-anchor="start">U_10</text>
<text x="418" y="165" font-family="courier" fill="rgb(0,0,0)" font-size="10" text-anchor="start">sw0</text>
<text x="418" y="115" font-family="courier" fill="rgb(0,0,0)" font-size="10" text-anchor="start">sw1</text>
<text x="531" y="115" font-family="courier" fill="rgb(0,0,0)" font-size="10" text-anchor="end">carry</text>
<text x="431" y="221" font-family="courier" fill="rgb(0,0,0)" font-size="10" text-anchor="start">sum</text>
<text x="708" y="171" font-family="courier" fill="rgb(0,0,0)" font-weight="800" font-size="10" text-anchor="start">alien_game_lib</text>
<text x="708" y="184" font-family="courier" fill="rgb(0,0,0)" font-weight="800" font-size="10" text-anchor="start">c1_t1_half_adder</text>
<text x="708" y="196" font-family="courier" fill="rgb(0,0,0)" font-weight="800" font-size="10" text-anchor="start">U_11</text>
<text x="681" y="165" font-family="courier" fill="rgb(0,0,0)" font-size="10" text-anchor="start">sw0</text>
<text x="681" y="115" font-family="courier" fill="rgb(0,0,0)" font-size="10" text-anchor="start">sw1</text>
<text x="793" y="115" font-family="courier" fill="rgb(0,0,0)" font-size="10" text-anchor="end">carry</text>
<text x="693" y="221" font-family="courier" fill="rgb(0,0,0)" font-size="10" text-anchor="start">sum</text>
<text x="578" y="109" font-family="courier" fill="rgb(0,0,0)" font-size="10" text-anchor="start">carry1</text>
<text x="622" y="159" font-family="courier" fill="rgb(0,0,0)" font-size="10" text-anchor="start">x(2)</text>
<text x="0" y="0" font-family="courier" fill="rgb(0,0,0)" transform="translate(431,294) rotate(270)" font-size="10" >y(1)</text>
<text x="0" y="0" font-family="courier" fill="rgb(0,0,0)" transform="translate(693,294) rotate(270)" font-size="10" >y(2)</text>
<text x="19" y="446" font-family="courier" fill="rgb(0,0,0)" font-weight="800" font-size="10" text-anchor="start">Declarations</text>
<text x="19" y="459" font-family="courier" fill="rgb(0,0,0)" font-weight="800" font-size="10" text-anchor="start">Ports:</text>
<text x="19" y="491" font-family="courier" fill="rgb(0,0,0)" font-weight="800" font-size="10" text-anchor="start">Diagram Signals:</text>
<text x="44" y="524" font-family="courier" fill="rgb(0,0,0)" font-size="10" text-anchor="start">SIGNAL dout   : std_logic</text>
<text x="44" y="504" font-family="courier" fill="rgb(0,0,0)" font-size="10" text-anchor="start">SIGNAL carry  : std_logic</text>
<text x="44" y="514" font-family="courier" fill="rgb(0,0,0)" font-size="10" text-anchor="start">SIGNAL carry1 : std_logic</text>
<text x="44" y="471" font-family="courier" fill="rgb(0,0,0)" font-size="10" text-anchor="start">x      : std_logic_vector(2 downto 0)</text>
<text x="44" y="481" font-family="courier" fill="rgb(0,0,0)" font-size="10" text-anchor="start">y      : std_logic_vector(2 downto 0)</text>
<text x="818" y="327" font-family="courier" fill="rgb(0,0,0)" font-size="10" text-anchor="start">y</text>
<text x="446" y="610" font-family="courier" fill="rgb(0,0,127)" font-size="12" text-anchor="start">by bbhiwa on 26 syys 2022</text>
<text x="658" y="560" font-family="courier" fill="rgb(0,0,127)" font-size="12" text-anchor="start">  &#0060;&#0060;--</text>
<text x="446" y="585" font-family="courier" fill="rgb(0,0,127)" font-size="12" text-anchor="start">&#0060;enter diagram title here&#0062;</text>
<text x="396" y="585" font-family="courier" fill="rgb(0,0,127)" font-size="12" text-anchor="start">Title:</text>
<text x="658" y="575" font-family="courier" fill="rgb(0,0,127)" font-size="12" text-anchor="start">&#0060;enter comments here&#0062;</text>
<text x="708" y="560" font-family="courier" fill="rgb(0,0,127)" font-size="12" text-anchor="start">alien_game</text>
<text x="525" y="566" font-family="courier" fill="rgb(127,0,0)" font-size="12" text-anchor="middle">&#0060;company name&#0062;</text>
<text x="396" y="597" font-family="courier" fill="rgb(0,0,127)" font-size="12" text-anchor="start">Path:</text>
<text x="396" y="610" font-family="courier" fill="rgb(0,0,127)" font-size="12" text-anchor="start">  &#0060;&#0060;--</text>
<text x="446" y="597" font-family="courier" fill="rgb(0,0,127)" font-size="12" text-anchor="start">  &#0060;&#0060;-- more --&#0062;&#0062;</text>
<g id="carry_net" stroke="rgb(0,0,0)" stroke-width="1px"  >
<polyline id="r0"  fill="none"  stroke-dasharray="" points="290, 112,397, 112" /> 
</g>
<g id="carry1_net" stroke="rgb(0,0,0)" stroke-width="1px"  >
<polyline id="r0"  fill="none"  stroke-dasharray="" points="553, 112,659, 112" /> 
</g>
<g id="dout_net" stroke="rgb(0,0,0)" stroke-width="1px"  >
<polyline id="r0"  fill="none"  stroke-dasharray="" points="81, 112,134, 112" /> 
</g>
<g id="x_net" stroke="rgb(0,0,0)" stroke-width="3px"  >
<polyline id="r0"  fill="none"  stroke-dasharray="" points="44, 275,643, 275" /> 
<polyline id="r0"  fill="none"  stroke-dasharray="" points="134, 162,68, 162,68, 262" /> 
<polyline id="r0"  fill="none"  stroke-dasharray="" points="397, 162,343, 162,343, 262" /> 
<polyline id="r0"  fill="none"  stroke-dasharray="" points="659, 162,618, 162,618, 262" /> 
</g>
<g id="y_net" stroke="rgb(0,0,0)" stroke-width="3px"  >
<polyline id="r0"  fill="none"  stroke-dasharray="" points="781, 325,44, 325" /> 
<polyline id="r0"  fill="none"  stroke-dasharray="" points="181, 247,181, 312,193, 312" /> 
<polyline id="r0"  fill="none"  stroke-dasharray="" points="443, 247,443, 312" /> 
<polyline id="r0"  fill="none"  stroke-dasharray="" points="706, 247,706, 312" /> 
</g>
</g>
</svg>
<!-- Create a "titlebox" group so we can reposition it when the SVG moves -->
<g id="titlebox">
<g id="genTime" class="allText normalText">
  <text class="allText smallText" x="300" y="123">Generated on: 11/05/22 at: 10:15 PM</text>
</g>

<rect stroke="none" fill="rgb(200,230,240)" opacity="0.4" y="112" x="0" width="914" height="15" />
<!-- Close the "titlebox" group -->
</g>

</g>
</svg>
