<?xml version="1.0" encoding="UTF-8"?>
<!DOCTYPE svg PUBLIC "-//W3C//DTD SVG 1.1//EN" "http://www.w3.org/Graphics/SVG/1.1/DTD/svg11.dtd">
<!-- Created HDS 2004.1a -->


<svg xmlns="http://www.w3.org/2000/svg" xmlns:xlink="http://www.w3.org/1999/xlink" version="1.1">
<script xlink:href="../../scripts/SVGPan.js" />
<g id="viewport" transform="translate(0,-100)">


<title>SVG Image</title>
<desc></desc>


<defs>
<!-- section for CSS stylesheet definitions -->
<style type="text/css"><![CDATA[
.allText {font-family:Sans-Serif;fill:darkcyan;}
.subTitleText {font-size:20;font-weight:bold;}
.normalText {font-size:15;}
.smallText {font-size:12;}
.boldText {font-weight:bold;}
.rightText {text-anchor:end;}
.centerText {text-anchor:middle;}
.dragRect {fill:darkcyan;stroke:none;opacity:0.4;}
]]></style>
<symbol id="upArrow" overflow="visible" style="stroke:darkcyan;fill:darkcyan;stroke-width:1;" pointer-events="none">
<polygon points="5,0 10,5 0,5 5,0" />
</symbol>
<symbol id="leftArrow" overflow="visible" style="stroke:darkcyan;fill:darkcyan;stroke-width:1;" pointer-events="none">
<polygon points="0,5 5,0 5,10 0,5" />
</symbol>
<symbol id="rightArrow" overflow="visible" style="stroke:darkcyan;fill:darkcyan;stroke-width:1;" pointer-events="none">
<polygon points="5,0 10,5 5,10 5,0" />
</symbol>
<symbol id="downArrow" overflow="visible" style="stroke:darkcyan;fill:darkcyan;stroke-width:1;" pointer-events="none">
<polygon points="0,0 5,5 10,0 0,0" />
</symbol>

</defs>
<svg id="mainMap" x="0" y="150" viewBox="0 0 981 704" width="912" height="512">


<clipPath id="SVG_Clip">
<rect x="0" y="0" width="981" height="704" />
</clipPath>
<g id="hds_models" style="clip-path:url(#SVG_Clip)">
<polyline id="r0"  stroke="rgb(0,255,255)" fill="rgb(0,255,255)" stroke-width="1px" stroke-dasharray="" points="389, 249,439, 249,439, 324,389, 324,389, 249,389, 249" /> 
<polyline id="r0"  stroke="rgb(102,102,102)" fill="none" stroke-width="1px" stroke-dasharray="" points="389, 249,439, 249,439, 324,389, 324,389, 249,389, 249" /> 
<polyline id="r0"  stroke="rgb(0,255,255)" fill="rgb(0,255,255)" stroke-width="1px" stroke-dasharray="" points="701, 349,751, 349,751, 424,701, 424,701, 349,701, 349" /> 
<polyline id="r0"  stroke="rgb(102,102,102)" fill="none" stroke-width="1px" stroke-dasharray="" points="701, 349,751, 349,751, 424,701, 424,701, 349,701, 349" /> 
<polyline id="r0"  stroke="rgb(0,0,0)" fill="none" stroke-width="1px" stroke-dasharray="" points="564, 399,564, 399" /> 
<polyline id="r0"  stroke="rgb(0,0,0)" fill="none" stroke-width="1px" stroke-dasharray="" points="564, 349,564, 349" /> 
<polyline id="r0"  stroke="rgb(0,255,255)" fill="rgb(0,255,255)" stroke-width="1px" stroke-dasharray="" points="589, 399,564, 399,564, 349,589, 349,589, 399" /> 
<polyline id="r0"  stroke="rgb(102,102,102)" fill="none" stroke-width="1px" stroke-dasharray="" points="589, 399,564, 399,564, 349,589, 349" /> 
<path stroke="rgb(0,255,255)" fill="rgb(0,255,255)" stroke-width="1px" stroke-dasharray="" transform="translate(589,374) rotate(0.000000)"
d="M 0.00000 -25.00000 A 25 25 0 0 1 0.00000 25.00000 " /> 
<path stroke="rgb(102,102,102)" fill="none" stroke-width="1px" stroke-dasharray="" transform="translate(589,374) rotate(0.000000)"
d="M 0.00000 -25.00000 A 25 25 0 0 1 0.00000 25.00000 " /> 
<polyline id="r0"  stroke="rgb(0,0,128)" fill="rgb(0,0,128)" stroke-width="1px" stroke-dasharray="" points="102, 395,114, 395,120, 399,114, 404,102, 404,102, 395" /> 
<polyline id="r0"  stroke="rgb(0,0,0)" fill="none" stroke-width="1px" stroke-dasharray="" points="102, 395,114, 395,120, 399,114, 404,102, 404,102, 395" /> 
<polyline id="r0"  stroke="rgb(0,0,128)" fill="rgb(0,0,128)" stroke-width="1px" stroke-dasharray="" points="102, 395,114, 395,120, 399,114, 404,102, 404,102, 395" /> 
<polyline id="r0"  stroke="rgb(0,0,0)" fill="none" stroke-width="1px" stroke-dasharray="" points="102, 395,114, 395,120, 399,114, 404,102, 404,102, 395" /> 
<polyline id="r0"  stroke="rgb(0,0,0)" fill="none" stroke-width="1px" stroke-dasharray="" points="120, 399,127, 399" /> 
<polyline id="r0"  stroke="rgb(0,0,128)" fill="rgb(0,0,128)" stroke-width="1px" stroke-dasharray="" points="102, 457,114, 457,120, 462,114, 467,102, 467,102, 457" /> 
<polyline id="r0"  stroke="rgb(0,0,0)" fill="none" stroke-width="1px" stroke-dasharray="" points="102, 457,114, 457,120, 462,114, 467,102, 467,102, 457" /> 
<polyline id="r0"  stroke="rgb(0,0,128)" fill="rgb(0,0,128)" stroke-width="1px" stroke-dasharray="" points="102, 457,114, 457,120, 462,114, 467,102, 467,102, 457" /> 
<polyline id="r0"  stroke="rgb(0,0,0)" fill="none" stroke-width="1px" stroke-dasharray="" points="102, 457,114, 457,120, 462,114, 467,102, 467,102, 457" /> 
<polyline id="r0"  stroke="rgb(0,0,0)" fill="none" stroke-width="1px" stroke-dasharray="" points="120, 462,127, 462" /> 
<polyline id="r0"  stroke="rgb(0,0,128)" fill="rgb(0,0,128)" stroke-width="1px" stroke-dasharray="" points="177, 257,189, 257,195, 262,189, 267,177, 267,177, 257" /> 
<polyline id="r0"  stroke="rgb(0,0,0)" fill="none" stroke-width="1px" stroke-dasharray="" points="177, 257,189, 257,195, 262,189, 267,177, 267,177, 257" /> 
<polyline id="r0"  stroke="rgb(0,0,128)" fill="rgb(0,0,128)" stroke-width="1px" stroke-dasharray="" points="177, 257,189, 257,195, 262,189, 267,177, 267,177, 257" /> 
<polyline id="r0"  stroke="rgb(0,0,0)" fill="none" stroke-width="1px" stroke-dasharray="" points="177, 257,189, 257,195, 262,189, 267,177, 267,177, 257" /> 
<polyline id="r0"  stroke="rgb(0,0,0)" fill="none" stroke-width="1px" stroke-dasharray="" points="195, 262,202, 262" /> 
<polyline id="r0"  stroke="rgb(0,0,128)" fill="rgb(0,0,128)" stroke-width="1px" stroke-dasharray="" points="164, 495,177, 495,183, 499,177, 504,164, 504,164, 495" /> 
<polyline id="r0"  stroke="rgb(0,0,0)" fill="none" stroke-width="1px" stroke-dasharray="" points="164, 495,177, 495,183, 499,177, 504,164, 504,164, 495" /> 
<polyline id="r0"  stroke="rgb(0,0,128)" fill="rgb(0,0,128)" stroke-width="1px" stroke-dasharray="" points="164, 495,177, 495,183, 499,177, 504,164, 504,164, 495" /> 
<polyline id="r0"  stroke="rgb(0,0,0)" fill="none" stroke-width="1px" stroke-dasharray="" points="164, 495,177, 495,183, 499,177, 504,164, 504,164, 495" /> 
<polyline id="r0"  stroke="rgb(0,0,0)" fill="none" stroke-width="1px" stroke-dasharray="" points="183, 499,189, 499" /> 
<polyline id="r0"  stroke="rgb(0,0,128)" fill="rgb(0,0,128)" stroke-width="1px" stroke-dasharray="" points="833, 357,845, 357,851, 362,845, 367,833, 367,833, 357" /> 
<polyline id="r0"  stroke="rgb(0,0,0)" fill="none" stroke-width="1px" stroke-dasharray="" points="833, 357,845, 357,851, 362,845, 367,833, 367,833, 357" /> 
<polyline id="r0"  stroke="rgb(0,0,128)" fill="rgb(0,0,128)" stroke-width="1px" stroke-dasharray="" points="833, 357,845, 357,851, 362,845, 367,833, 367,833, 357" /> 
<polyline id="r0"  stroke="rgb(0,0,0)" fill="none" stroke-width="1px" stroke-dasharray="" points="833, 357,845, 357,851, 362,845, 367,833, 367,833, 357" /> 
<polyline id="r0"  stroke="rgb(0,0,0)" fill="none" stroke-width="1px" stroke-dasharray="" points="826, 362,833, 362" /> 
<polyline id="r0"  stroke="rgb(0,0,128)" fill="rgb(0,0,128)" stroke-width="1px" stroke-dasharray="" points="364, 195,377, 195,383, 199,377, 204,364, 204,364, 195" /> 
<polyline id="r0"  stroke="rgb(0,0,0)" fill="none" stroke-width="1px" stroke-dasharray="" points="364, 195,377, 195,383, 199,377, 204,364, 204,364, 195" /> 
<polyline id="r0"  stroke="rgb(0,0,128)" fill="rgb(0,0,128)" stroke-width="1px" stroke-dasharray="" points="364, 195,377, 195,383, 199,377, 204,364, 204,364, 195" /> 
<polyline id="r0"  stroke="rgb(0,0,0)" fill="none" stroke-width="1px" stroke-dasharray="" points="364, 195,377, 195,383, 199,377, 204,364, 204,364, 195" /> 
<polyline id="r0"  stroke="rgb(0,0,0)" fill="none" stroke-width="1px" stroke-dasharray="" points="383, 199,389, 199" /> 
<rect id="r0"  stroke="rgb(254,254,179)" fill="rgb(254,254,179)" stroke-width="1px" stroke-dasharray="" y="687px" x="514px" width="212px" height="12px" rx="0" ry="0" />
<rect id="r0"  stroke="rgb(0,0,0)" fill="none" stroke-width="1px" stroke-dasharray="" y="687px" x="514px" width="212px" height="12px" rx="0" ry="0" />
<rect id="r0"  stroke="rgb(254,254,179)" fill="rgb(254,254,179)" stroke-width="1px" stroke-dasharray="" y="637px" x="726px" width="50px" height="12px" rx="0" ry="0" />
<rect id="r0"  stroke="rgb(0,0,0)" fill="none" stroke-width="1px" stroke-dasharray="" y="637px" x="726px" width="50px" height="12px" rx="0" ry="0" />
<rect id="r0"  stroke="rgb(254,254,179)" fill="rgb(254,254,179)" stroke-width="1px" stroke-dasharray="" y="662px" x="514px" width="212px" height="12px" rx="0" ry="0" />
<rect id="r0"  stroke="rgb(0,0,0)" fill="none" stroke-width="1px" stroke-dasharray="" y="662px" x="514px" width="212px" height="12px" rx="0" ry="0" />
<rect id="r0"  stroke="rgb(254,254,179)" fill="rgb(254,254,179)" stroke-width="1px" stroke-dasharray="" y="662px" x="464px" width="50px" height="12px" rx="0" ry="0" />
<rect id="r0"  stroke="rgb(0,0,0)" fill="none" stroke-width="1px" stroke-dasharray="" y="662px" x="464px" width="50px" height="12px" rx="0" ry="0" />
<rect id="r0"  stroke="rgb(254,254,179)" fill="rgb(254,254,179)" stroke-width="1px" stroke-dasharray="" y="649px" x="726px" width="250px" height="50px" rx="0" ry="0" />
<rect id="r0"  stroke="rgb(0,0,0)" fill="none" stroke-width="1px" stroke-dasharray="" y="649px" x="726px" width="250px" height="50px" rx="0" ry="0" />
<rect id="r0"  stroke="rgb(254,254,179)" fill="rgb(254,254,179)" stroke-width="1px" stroke-dasharray="" y="637px" x="776px" width="200px" height="12px" rx="0" ry="0" />
<rect id="r0"  stroke="rgb(0,0,0)" fill="none" stroke-width="1px" stroke-dasharray="" y="637px" x="776px" width="200px" height="12px" rx="0" ry="0" />
<rect id="r0"  stroke="rgb(254,254,179)" fill="rgb(254,254,179)" stroke-width="1px" stroke-dasharray="" y="637px" x="464px" width="262px" height="25px" rx="0" ry="0" />
<rect id="r0"  stroke="rgb(0,0,0)" fill="none" stroke-width="1px" stroke-dasharray="" y="637px" x="464px" width="262px" height="25px" rx="0" ry="0" />
<rect id="r0"  stroke="rgb(254,254,179)" fill="rgb(254,254,179)" stroke-width="1px" stroke-dasharray="" y="674px" x="464px" width="50px" height="13px" rx="0" ry="0" />
<rect id="r0"  stroke="rgb(0,0,0)" fill="none" stroke-width="1px" stroke-dasharray="" y="674px" x="464px" width="50px" height="13px" rx="0" ry="0" />
<rect id="r0"  stroke="rgb(254,254,179)" fill="rgb(254,254,179)" stroke-width="1px" stroke-dasharray="" y="687px" x="464px" width="50px" height="12px" rx="0" ry="0" />
<rect id="r0"  stroke="rgb(0,0,0)" fill="none" stroke-width="1px" stroke-dasharray="" y="687px" x="464px" width="50px" height="12px" rx="0" ry="0" />
<rect id="r0"  stroke="rgb(254,254,179)" fill="rgb(254,254,179)" stroke-width="1px" stroke-dasharray="" y="674px" x="514px" width="212px" height="13px" rx="0" ry="0" />
<rect id="r0"  stroke="rgb(0,0,0)" fill="none" stroke-width="1px" stroke-dasharray="" y="674px" x="514px" width="212px" height="13px" rx="0" ry="0" />
<a xlink:href='javascript:parent.location.href="../../alien_game_lib/coordinates_alien_and_gun/struct_bd.htm"'>
<rect id="r0"  stroke="rgb(0,255,0)" fill="rgb(0,255,0)" stroke-width="1px" stroke-dasharray="" y="388px" x="315px" width="199px" height="86px" rx="0" ry="0" />
</a>
<rect id="r0"  stroke="rgb(0,128,0)" fill="none" stroke-width="3px" stroke-dasharray="" y="388px" x="315px" width="199px" height="86px" rx="0" ry="0" />
<a xlink:href='javascript:parent.location.href="../../alien_game_lib/coordinates_alien_and_gun/struct_bd.htm"'>
<image xlink:href="BlockDiagram.png" x="317" y="453" width="19" height="18" />
</a>
<polyline id="r0"  stroke="rgb(0,0,0)" fill="none" stroke-width="1px" stroke-dasharray="" points="120, 399,127, 399" /> 
<polyline id="r0"  stroke="rgb(0,0,0)" fill="none" stroke-width="1px" stroke-dasharray="" points="120, 462,127, 462" /> 
<polyline id="r0"  stroke="rgb(0,0,0)" fill="none" stroke-width="1px" stroke-dasharray="" points="195, 262,202, 262" /> 
<polyline id="r0"  stroke="rgb(0,0,0)" fill="none" stroke-width="1px" stroke-dasharray="" points="183, 499,189, 499" /> 
<polyline id="r0"  stroke="rgb(0,0,0)" fill="none" stroke-width="1px" stroke-dasharray="" points="826, 362,833, 362" /> 
<polyline id="r0"  stroke="rgb(0,0,0)" fill="none" stroke-width="1px" stroke-dasharray="" points="383, 199,389, 199" /> 
<a xlink:href='javascript:parent.location.href="../../alien_game_lib/coordinates_alien_and_gun/struct_bd.htm"'>
<polyline id="r0"  stroke="rgb(0,255,0)" fill="rgb(0,255,0)" stroke-width="1px" stroke-dasharray="" points="523, 449,514, 454,514, 445,523, 449" /> 
</a>
<polyline id="r0"  stroke="rgb(0,0,0)" fill="none" stroke-width="1px" stroke-dasharray="" points="523, 449,514, 454,514, 445,523, 449" /> 
<polyline id="r0"  stroke="rgb(0,0,0)" fill="none" stroke-width="1px" stroke-dasharray="" points="376, 262,389, 262" /> 
<polyline id="r0"  stroke="rgb(0,0,0)" fill="none" stroke-width="1px" stroke-dasharray="" points="451, 262,439, 262" /> 
<polyline id="r0"  stroke="rgb(0,0,0)" fill="none" stroke-width="1px" stroke-dasharray="" points="414, 237,414, 238" /> 
<circle id="r0"  stroke="rgb(255,255,255)" fill="rgb(255,255,255)" stroke-width="1px" stroke-dasharray="" cx="414" cy="243" r="6"/> 
<circle stroke="rgb(102,102,102)" fill="none" stroke-width="1px" stroke-dasharray="" cx="414" cy="243" r="6"/> 
<circle id="r0"  stroke="rgb(0,0,0)" fill="rgb(0,0,0)" stroke-width="1px" stroke-dasharray="" cx="264" cy="262" r="5"/> 
<circle stroke="rgb(0,0,0)" fill="none" stroke-width="1px" stroke-dasharray="" cx="264" cy="262" r="5"/> 
<circle id="r0"  stroke="rgb(0,0,0)" fill="rgb(0,0,0)" stroke-width="1px" stroke-dasharray="" cx="414" cy="199" r="5"/> 
<circle stroke="rgb(0,0,0)" fill="none" stroke-width="1px" stroke-dasharray="" cx="414" cy="199" r="5"/> 
<polyline id="r0"  stroke="rgb(0,0,0)" fill="none" stroke-width="1px" stroke-dasharray="" points="376, 312,389, 312" /> 
<polyline id="r0"  stroke="rgb(255,255,255)" fill="rgb(255,255,255)" stroke-width="1px" stroke-dasharray="" points="398, 312,389, 317,389, 307,398, 312" /> 
<polyline id="r0"  stroke="rgb(102,102,102)" fill="none" stroke-width="1px" stroke-dasharray="" points="398, 312,389, 317,389, 307,398, 312" /> 
<a xlink:href='javascript:parent.location.href="../../alien_game_lib/coordinates_alien_and_gun/struct_bd.htm"'>
<polyline id="r0"  stroke="rgb(0,255,0)" fill="rgb(0,255,0)" stroke-width="1px" stroke-dasharray="" points="314, 399,305, 404,305, 395,314, 399" /> 
</a>
<polyline id="r0"  stroke="rgb(0,0,0)" fill="none" stroke-width="1px" stroke-dasharray="" points="314, 399,305, 404,305, 395,314, 399" /> 
<a xlink:href='javascript:parent.location.href="../../alien_game_lib/coordinates_alien_and_gun/struct_bd.htm"'>
<polyline id="r0"  stroke="rgb(0,255,0)" fill="rgb(0,255,0)" stroke-width="1px" stroke-dasharray="" points="314, 462,305, 467,305, 457,314, 462" /> 
</a>
<polyline id="r0"  stroke="rgb(0,0,0)" fill="none" stroke-width="1px" stroke-dasharray="" points="314, 462,305, 467,305, 457,314, 462" /> 
<circle id="r0"  stroke="rgb(0,0,0)" fill="rgb(0,0,0)" stroke-width="1px" stroke-dasharray="" cx="301" cy="499" r="5"/> 
<circle stroke="rgb(0,0,0)" fill="none" stroke-width="1px" stroke-dasharray="" cx="301" cy="499" r="5"/> 
<polyline id="r0"  stroke="rgb(0,0,0)" fill="none" stroke-width="1px" stroke-dasharray="" points="689, 362,701, 362" /> 
<polyline id="r0"  stroke="rgb(0,0,0)" fill="none" stroke-width="1px" stroke-dasharray="" points="764, 362,751, 362" /> 
<polyline id="r0"  stroke="rgb(0,0,0)" fill="none" stroke-width="1px" stroke-dasharray="" points="689, 412,701, 412" /> 
<polyline id="r0"  stroke="rgb(255,255,255)" fill="rgb(255,255,255)" stroke-width="1px" stroke-dasharray="" points="711, 412,701, 417,701, 407,711, 412" /> 
<polyline id="r0"  stroke="rgb(102,102,102)" fill="none" stroke-width="1px" stroke-dasharray="" points="711, 412,701, 417,701, 407,711, 412" /> 
<polyline id="r0"  stroke="rgb(0,0,0)" fill="none" stroke-width="1px" stroke-dasharray="" points="726, 337,726, 338" /> 
<circle id="r0"  stroke="rgb(255,255,255)" fill="rgb(255,255,255)" stroke-width="1px" stroke-dasharray="" cx="726" cy="343" r="5"/> 
<circle stroke="rgb(102,102,102)" fill="none" stroke-width="1px" stroke-dasharray="" cx="726" cy="343" r="5"/> 
<polyline id="r0"  stroke="rgb(0,0,0)" fill="none" stroke-width="1px" stroke-dasharray="" points="626, 374,614, 374" /> 
<polyline id="r0"  stroke="rgb(0,0,0)" fill="none" stroke-width="1px" stroke-dasharray="" points="551, 349,564, 349" /> 
<polyline id="r0"  stroke="rgb(0,0,0)" fill="none" stroke-width="1px" stroke-dasharray="" points="551, 374,553, 374" /> 
<circle id="r0"  stroke="rgb(255,255,255)" fill="rgb(255,255,255)" stroke-width="1px" stroke-dasharray="" cx="558" cy="374" r="5"/> 
<circle stroke="rgb(0,0,0)" fill="none" stroke-width="1px" stroke-dasharray="" cx="558" cy="374" r="5"/> 
<polyline id="r0"  stroke="rgb(0,0,0)" fill="none" stroke-width="1px" stroke-dasharray="" points="551, 399,564, 399" /> 
<text x="323" y="434" font-family="Arial" fill="rgb(0,0,0)" font-weight="800" font-size="10" text-anchor="start">coordinates_alien_and_gun</text>
<text x="326" y="404" font-family="Arial" fill="rgb(0,0,0)" font-size="10" text-anchor="start">alien_x_coordinates : (7:0)</text>
<text x="339" y="466" font-family="Arial" fill="rgb(0,0,0)" font-size="10" text-anchor="start">gun_x_coordinates : (7:0)</text>
<text x="514" y="348" font-family="Arial" fill="rgb(0,0,0)" font-size="10" text-anchor="start">btn</text>
<text x="289" y="72" font-family="Arial" fill="rgb(0,0,0)" font-weight="800" font-size="10" text-anchor="start">Package List</text>
<text x="289" y="83" font-family="Arial" fill="rgb(0,0,0)" font-size="10" text-anchor="start">LIBRARY ieee;</text>
<text x="289" y="96" font-family="Arial" fill="rgb(0,0,0)" font-size="10" text-anchor="start">USE ieee.std_logic_1164.all;</text>
<text x="289" y="108" font-family="Arial" fill="rgb(0,0,0)" font-size="10" text-anchor="start">USE ieee.std_logic_arith.all;</text>
<text x="164" y="266" font-family="Arial" fill="rgb(0,0,0)" font-size="10" text-anchor="end">btn</text>
<text x="351" y="204" font-family="Arial" fill="rgb(0,0,0)" font-size="10" text-anchor="end">rst_n</text>
<text x="393" y="286" font-family="Arial" fill="rgb(0,0,0)" font-size="10" text-anchor="start">adff</text>
<text x="393" y="297" font-family="Arial" fill="rgb(0,0,0)" font-size="10" text-anchor="start">U_0</text>
<text x="390" y="266" font-family="Arial" fill="rgb(0,0,0)" font-size="10" text-anchor="start">d</text>
<text x="438" y="266" font-family="Arial" fill="rgb(0,0,0)" font-size="10" text-anchor="end">q</text>
<text x="400" y="311" font-family="Arial" fill="rgb(0,0,0)" font-size="10" text-anchor="start">clk</text>
<text x="406" y="261" font-family="Arial" fill="rgb(0,0,0)" font-size="10" text-anchor="start">rst</text>
<text x="339" y="311" font-family="Arial" fill="rgb(0,0,0)" font-size="10" text-anchor="start">clk</text>
<text x="551" y="10" font-family="Arial" fill="rgb(0,0,0)" font-weight="800" font-size="10" text-anchor="start">Declarations</text>
<text x="551" y="21" font-family="Arial" fill="rgb(0,0,0)" font-weight="800" font-size="10" text-anchor="start">Ports:</text>
<text x="551" y="99" font-family="Arial" fill="rgb(0,0,0)" font-weight="800" font-size="10" text-anchor="start">Diagram Signals:</text>
<text x="576" y="32" font-family="Arial" fill="rgb(0,0,0)" font-size="10" text-anchor="start">alien_x_coordinate : std_logic_vector(7 DOWNTO 0)</text>
<text x="576" y="66" font-family="Arial" fill="rgb(0,0,0)" font-size="10" text-anchor="start">gun_x_coordinate1  : std_logic_vector(7 DOWNTO 0)</text>
<text x="576" y="43" font-family="Arial" fill="rgb(0,0,0)" font-size="10" text-anchor="start">btn                : std_logic</text>
<text x="576" y="55" font-family="Arial" fill="rgb(0,0,0)" font-size="10" text-anchor="start">clk                : std_logic</text>
<text x="576" y="88" font-family="Arial" fill="rgb(0,0,0)" font-size="10" text-anchor="start">hit                : std_logic</text>
<text x="576" y="77" font-family="Arial" fill="rgb(0,0,0)" font-size="10" text-anchor="start">rst_n              : std_logic</text>
<text x="576" y="133" font-family="Arial" fill="rgb(0,0,0)" font-size="10" text-anchor="start">SIGNAL q                  : std_logic</text>
<text x="576" y="122" font-family="Arial" fill="rgb(0,0,0)" font-size="10" text-anchor="start">SIGNAL hit1               : std_logic</text>
<text x="576" y="111" font-family="Arial" fill="rgb(0,0,0)" font-size="10" text-anchor="start">SIGNAL dout               : std_logic</text>
<text x="0" y="0" font-family="Arial" fill="rgb(0,0,0)" transform="translate(714,318) rotate(270)" font-size="10" >rst_n</text>
<text x="476" y="261" font-family="Arial" fill="rgb(0,0,0)" font-size="10" text-anchor="start">q</text>
<text x="89" y="404" font-family="Arial" fill="rgb(0,0,0)" font-size="10" text-anchor="end">alien_x_coordinate</text>
<text x="89" y="466" font-family="Arial" fill="rgb(0,0,0)" font-size="10" text-anchor="end">gun_x_coordinate1</text>
<text x="152" y="504" font-family="Arial" fill="rgb(0,0,0)" font-size="10" text-anchor="end">clk</text>
<text x="323" y="423" font-family="Arial" fill="rgb(0,0,0)" font-weight="800" font-size="10" text-anchor="start">alien_game_lib</text>
<text x="323" y="446" font-family="Arial" fill="rgb(0,0,0)" font-weight="800" font-size="10" text-anchor="start">U_3</text>
<text x="864" y="366" font-family="Arial" fill="rgb(0,0,0)" font-size="10" text-anchor="start">hit</text>
<text x="516" y="697" font-family="Arial" fill="rgb(0,0,128)" font-size="10" text-anchor="start">by mqange on 25 marras 2022</text>
<text x="729" y="647" font-family="Arial" fill="rgb(0,0,128)" font-size="10" text-anchor="start">Project:</text>
<text x="516" y="672" font-family="Arial" fill="rgb(0,0,128)" font-size="10" text-anchor="start">&#0060;enter diagram title here&#0062;</text>
<text x="466" y="672" font-family="Arial" fill="rgb(0,0,128)" font-size="10" text-anchor="start">Title:</text>
<text x="729" y="662" font-family="Arial" fill="rgb(0,0,128)" font-size="10" text-anchor="start">&#0060;enter comments here&#0062;</text>
<text x="779" y="647" font-family="Arial" fill="rgb(0,0,128)" font-size="10" text-anchor="start">alien_game</text>
<text x="595" y="653" font-family="Arial" fill="rgb(127,0,0)" font-size="10" text-anchor="middle">&#0060;company name&#0062;</text>
<text x="466" y="684" font-family="Arial" fill="rgb(0,0,128)" font-size="10" text-anchor="start">Path:</text>
<text x="466" y="697" font-family="Arial" fill="rgb(0,0,128)" font-size="10" text-anchor="start">Edited:</text>
<text x="516" y="684" font-family="Arial" fill="rgb(0,0,128)" font-size="10" text-anchor="start">alien_game_lib/c6_t1_hit_detector/struct</text>
<text x="706" y="386" font-family="Arial" fill="rgb(0,0,0)" font-size="10" text-anchor="start">adff</text>
<text x="706" y="397" font-family="Arial" fill="rgb(0,0,0)" font-size="10" text-anchor="start">U_1</text>
<text x="703" y="366" font-family="Arial" fill="rgb(0,0,0)" font-size="10" text-anchor="start">d</text>
<text x="750" y="366" font-family="Arial" fill="rgb(0,0,0)" font-size="10" text-anchor="end">q</text>
<text x="713" y="411" font-family="Arial" fill="rgb(0,0,0)" font-size="10" text-anchor="start">clk</text>
<text x="719" y="361" font-family="Arial" fill="rgb(0,0,0)" font-size="10" text-anchor="start">rst</text>
<text x="570" y="378" font-family="Arial" fill="rgb(0,0,0)" font-size="10" text-anchor="start">and</text>
<text x="570" y="389" font-family="Arial" fill="rgb(0,0,0)" font-size="10" text-anchor="start">U_2</text>
<text x="501" y="454" font-family="Arial" fill="rgb(0,0,0)" font-size="10" text-anchor="end">hit</text>
<text x="548" y="423" font-family="Arial" fill="rgb(0,0,0)" font-size="10" text-anchor="start">hit1</text>
<g id="alien_x_coordinate_net" stroke="rgb(0,0,0)" stroke-width="3px"  >
<polyline id="r0"  fill="none"  stroke-dasharray="" points="127, 399,305, 399" /> 
</g>
<g id="btn_net" stroke="rgb(0,0,0)" stroke-width="1px"  >
<polyline id="r0"  fill="none"  stroke-dasharray="" points="202, 262,376, 262" /> 
<polyline id="r0"  fill="none"  stroke-dasharray="" points="264, 262,264, 349,551, 349" /> 
</g>
<g id="clk_net" stroke="rgb(0,0,0)" stroke-width="1px"  >
<polyline id="r0"  fill="none"  stroke-dasharray="" points="189, 499,664, 499,664, 412,689, 412" /> 
<polyline id="r0"  fill="none"  stroke-dasharray="" points="376, 312,301, 312,301, 499" /> 
</g>
<g id="dout_net" stroke="rgb(0,0,0)" stroke-width="1px"  >
<polyline id="r0"  fill="none"  stroke-dasharray="" points="626, 374,664, 374,664, 362,689, 362" /> 
</g>
<g id="gun_x_coordinate1_net" stroke="rgb(0,0,0)" stroke-width="3px"  >
<polyline id="r0"  fill="none"  stroke-dasharray="" points="127, 462,305, 462" /> 
</g>
<g id="hit_net" stroke="rgb(0,0,0)" stroke-width="1px"  >
<polyline id="r0"  fill="none"  stroke-dasharray="" points="826, 362,764, 362" /> 
</g>
<g id="hit1_net" stroke="rgb(0,0,0)" stroke-width="1px"  >
<polyline id="r0"  fill="none"  stroke-dasharray="" points="523, 449,526, 449,526, 399,551, 399" /> 
</g>
<g id="q_net" stroke="rgb(0,0,0)" stroke-width="1px"  >
<polyline id="r0"  fill="none"  stroke-dasharray="" points="451, 262,489, 262,489, 374,551, 374" /> 
</g>
<g id="rst_n_net" stroke="rgb(0,0,0)" stroke-width="1px"  >
<polyline id="r0"  fill="none"  stroke-dasharray="" points="389, 199,414, 199,414, 237" /> 
<polyline id="r0"  fill="none"  stroke-dasharray="" points="414, 199,726, 199,726, 337" /> 
</g>
</g>
</svg>
<!-- Create a "titlebox" group so we can reposition it when the SVG moves -->
<g id="titlebox">
<g id="genTime" class="allText normalText">
  <text class="allText smallText" x="300" y="123">Generated on:  1.12.2022 at: 11:39 ip.</text>
</g>

<rect stroke="none" fill="rgb(200,230,240)" opacity="0.4" y="112" x="0" width="914" height="15" />
<!-- Close the "titlebox" group -->
</g>

</g>
</svg>
