<?xml version="1.0" encoding="UTF-8"?>
<!DOCTYPE svg PUBLIC "-//W3C//DTD SVG 1.1//EN" "http://www.w3.org/Graphics/SVG/1.1/DTD/svg11.dtd">
<!-- Created HDS 2004.1a -->


<svg xmlns="http://www.w3.org/2000/svg" xmlns:xlink="http://www.w3.org/1999/xlink" version="1.1">
<script xlink:href="../../scripts/SVGPan.js" />
<g id="viewport" transform="translate(0,-100)">


<title>SVG Image</title>
<desc></desc>


<defs>
<!-- section for CSS stylesheet definitions -->
<style type="text/css"><![CDATA[
.allText {font-family:Sans-Serif;fill:darkcyan;}
.subTitleText {font-size:20;font-weight:bold;}
.normalText {font-size:15;}
.smallText {font-size:12;}
.boldText {font-weight:bold;}
.rightText {text-anchor:end;}
.centerText {text-anchor:middle;}
.dragRect {fill:darkcyan;stroke:none;opacity:0.4;}
]]></style>
<symbol id="upArrow" overflow="visible" style="stroke:darkcyan;fill:darkcyan;stroke-width:1;" pointer-events="none">
<polygon points="5,0 10,5 0,5 5,0" />
</symbol>
<symbol id="leftArrow" overflow="visible" style="stroke:darkcyan;fill:darkcyan;stroke-width:1;" pointer-events="none">
<polygon points="0,5 5,0 5,10 0,5" />
</symbol>
<symbol id="rightArrow" overflow="visible" style="stroke:darkcyan;fill:darkcyan;stroke-width:1;" pointer-events="none">
<polygon points="5,0 10,5 5,10 5,0" />
</symbol>
<symbol id="downArrow" overflow="visible" style="stroke:darkcyan;fill:darkcyan;stroke-width:1;" pointer-events="none">
<polygon points="0,0 5,5 10,0 0,0" />
</symbol>

</defs>
<svg id="mainMap" x="0" y="150" viewBox="0 0 911 617" width="912" height="512">


<clipPath id="SVG_Clip">
<rect x="0" y="0" width="911" height="617" />
</clipPath>
<g id="hds_models" style="clip-path:url(#SVG_Clip)">
<polyline id="r0"  stroke="rgb(0,0,0)" fill="none" stroke-width="1px" stroke-dasharray="" points="393, 250,393, 250" /> 
<polyline id="r0"  stroke="rgb(0,0,0)" fill="none" stroke-width="1px" stroke-dasharray="" points="393, 200,393, 200" /> 
<polyline id="r0"  stroke="rgb(0,0,0)" fill="none" stroke-width="1px" stroke-dasharray="" points="456, 225,456, 225" /> 
<polyline id="r0"  stroke="rgb(0,0,0)" fill="none" stroke-width="1px" stroke-dasharray="" points="381, 137,381, 137" /> 
<polyline id="r0"  stroke="rgb(0,0,0)" fill="none" stroke-width="1px" stroke-dasharray="" points="381, 87,381, 87" /> 
<polyline id="r0"  stroke="rgb(0,255,255)" fill="rgb(0,255,255)" stroke-width="1px" stroke-dasharray="" points="406, 137,381, 137,381, 87,406, 87,406, 137" /> 
<polyline id="r0"  stroke="rgb(102,102,102)" fill="none" stroke-width="1px" stroke-dasharray="" points="406, 137,381, 137,381, 87,406, 87" /> 
<path stroke="rgb(0,255,255)" fill="rgb(0,255,255)" stroke-width="1px" stroke-dasharray="" transform="translate(406,112) rotate(0.000000)"
d="M 0.00000 -25.00000 A 25 25 0 0 1 0.00000 25.00000 " /> 
<path stroke="rgb(102,102,102)" fill="none" stroke-width="1px" stroke-dasharray="" transform="translate(406,112) rotate(0.000000)"
d="M 0.00000 -25.00000 A 25 25 0 0 1 0.00000 25.00000 " /> 
<polyline id="r0"  stroke="rgb(0,0,127)" fill="rgb(0,0,127)" stroke-width="1px" stroke-dasharray="" points="812, 108,825, 108,831, 112,825, 117,812, 117,812, 108" /> 
<polyline id="r0"  stroke="rgb(0,0,0)" fill="none" stroke-width="1px" stroke-dasharray="" points="812, 108,825, 108,831, 112,825, 117,812, 117,812, 108" /> 
<polyline id="r0"  stroke="rgb(0,0,127)" fill="rgb(0,0,127)" stroke-width="1px" stroke-dasharray="" points="812, 108,825, 108,831, 112,825, 117,812, 117,812, 108" /> 
<polyline id="r0"  stroke="rgb(0,0,0)" fill="none" stroke-width="1px" stroke-dasharray="" points="812, 108,825, 108,831, 112,825, 117,812, 117,812, 108" /> 
<polyline id="r0"  stroke="rgb(0,0,0)" fill="none" stroke-width="1px" stroke-dasharray="" points="806, 112,812, 112" /> 
<polyline id="r0"  stroke="rgb(0,0,127)" fill="rgb(0,0,127)" stroke-width="1px" stroke-dasharray="" points="812, 183,825, 183,831, 187,825, 192,812, 192,812, 183" /> 
<polyline id="r0"  stroke="rgb(0,0,0)" fill="none" stroke-width="1px" stroke-dasharray="" points="812, 183,825, 183,831, 187,825, 192,812, 192,812, 183" /> 
<polyline id="r0"  stroke="rgb(0,0,127)" fill="rgb(0,0,127)" stroke-width="1px" stroke-dasharray="" points="812, 183,825, 183,831, 187,825, 192,812, 192,812, 183" /> 
<polyline id="r0"  stroke="rgb(0,0,0)" fill="none" stroke-width="1px" stroke-dasharray="" points="812, 183,825, 183,831, 187,825, 192,812, 192,812, 183" /> 
<polyline id="r0"  stroke="rgb(0,0,0)" fill="none" stroke-width="1px" stroke-dasharray="" points="806, 187,812, 187" /> 
<polyline id="r0"  stroke="rgb(0,0,127)" fill="rgb(0,0,127)" stroke-width="1px" stroke-dasharray="" points="31, 95,44, 95,50, 100,44, 105,31, 105,31, 95" /> 
<polyline id="r0"  stroke="rgb(0,0,0)" fill="none" stroke-width="1px" stroke-dasharray="" points="31, 95,44, 95,50, 100,44, 105,31, 105,31, 95" /> 
<polyline id="r0"  stroke="rgb(0,0,127)" fill="rgb(0,0,127)" stroke-width="1px" stroke-dasharray="" points="31, 95,44, 95,50, 100,44, 105,31, 105,31, 95" /> 
<polyline id="r0"  stroke="rgb(0,0,0)" fill="none" stroke-width="1px" stroke-dasharray="" points="31, 95,44, 95,50, 100,44, 105,31, 105,31, 95" /> 
<polyline id="r0"  stroke="rgb(0,0,0)" fill="none" stroke-width="1px" stroke-dasharray="" points="50, 100,56, 100" /> 
<polyline id="r0"  stroke="rgb(0,0,127)" fill="rgb(0,0,127)" stroke-width="1px" stroke-dasharray="" points="31, 120,44, 120,50, 125,44, 130,31, 130,31, 120" /> 
<polyline id="r0"  stroke="rgb(0,0,0)" fill="none" stroke-width="1px" stroke-dasharray="" points="31, 120,44, 120,50, 125,44, 130,31, 130,31, 120" /> 
<polyline id="r0"  stroke="rgb(0,0,127)" fill="rgb(0,0,127)" stroke-width="1px" stroke-dasharray="" points="31, 120,44, 120,50, 125,44, 130,31, 130,31, 120" /> 
<polyline id="r0"  stroke="rgb(0,0,0)" fill="none" stroke-width="1px" stroke-dasharray="" points="31, 120,44, 120,50, 125,44, 130,31, 130,31, 120" /> 
<polyline id="r0"  stroke="rgb(0,0,0)" fill="none" stroke-width="1px" stroke-dasharray="" points="50, 125,56, 125" /> 
<rect id="r0"  stroke="rgb(254,254,179)" fill="rgb(254,254,179)" stroke-width="1px" stroke-dasharray="" y="600px" x="443px" width="213px" height="12px" rx="0" ry="0" />
<rect id="r0"  stroke="rgb(0,0,0)" fill="none" stroke-width="1px" stroke-dasharray="" y="600px" x="443px" width="213px" height="12px" rx="0" ry="0" />
<rect id="r0"  stroke="rgb(254,254,179)" fill="rgb(254,254,179)" stroke-width="1px" stroke-dasharray="" y="550px" x="656px" width="50px" height="12px" rx="0" ry="0" />
<rect id="r0"  stroke="rgb(0,0,0)" fill="none" stroke-width="1px" stroke-dasharray="" y="550px" x="656px" width="50px" height="12px" rx="0" ry="0" />
<rect id="r0"  stroke="rgb(254,254,179)" fill="rgb(254,254,179)" stroke-width="1px" stroke-dasharray="" y="575px" x="443px" width="213px" height="12px" rx="0" ry="0" />
<rect id="r0"  stroke="rgb(0,0,0)" fill="none" stroke-width="1px" stroke-dasharray="" y="575px" x="443px" width="213px" height="12px" rx="0" ry="0" />
<rect id="r0"  stroke="rgb(254,254,179)" fill="rgb(254,254,179)" stroke-width="1px" stroke-dasharray="" y="575px" x="393px" width="50px" height="12px" rx="0" ry="0" />
<rect id="r0"  stroke="rgb(0,0,0)" fill="none" stroke-width="1px" stroke-dasharray="" y="575px" x="393px" width="50px" height="12px" rx="0" ry="0" />
<rect id="r0"  stroke="rgb(254,254,179)" fill="rgb(254,254,179)" stroke-width="1px" stroke-dasharray="" y="562px" x="656px" width="250px" height="50px" rx="0" ry="0" />
<rect id="r0"  stroke="rgb(0,0,0)" fill="none" stroke-width="1px" stroke-dasharray="" y="562px" x="656px" width="250px" height="50px" rx="0" ry="0" />
<rect id="r0"  stroke="rgb(254,254,179)" fill="rgb(254,254,179)" stroke-width="1px" stroke-dasharray="" y="550px" x="706px" width="200px" height="12px" rx="0" ry="0" />
<rect id="r0"  stroke="rgb(0,0,0)" fill="none" stroke-width="1px" stroke-dasharray="" y="550px" x="706px" width="200px" height="12px" rx="0" ry="0" />
<rect id="r0"  stroke="rgb(254,254,179)" fill="rgb(254,254,179)" stroke-width="1px" stroke-dasharray="" y="550px" x="393px" width="263px" height="25px" rx="0" ry="0" />
<rect id="r0"  stroke="rgb(0,0,0)" fill="none" stroke-width="1px" stroke-dasharray="" y="550px" x="393px" width="263px" height="25px" rx="0" ry="0" />
<rect id="r0"  stroke="rgb(254,254,179)" fill="rgb(254,254,179)" stroke-width="1px" stroke-dasharray="" y="587px" x="393px" width="50px" height="13px" rx="0" ry="0" />
<rect id="r0"  stroke="rgb(0,0,0)" fill="none" stroke-width="1px" stroke-dasharray="" y="587px" x="393px" width="50px" height="13px" rx="0" ry="0" />
<rect id="r0"  stroke="rgb(254,254,179)" fill="rgb(254,254,179)" stroke-width="1px" stroke-dasharray="" y="600px" x="393px" width="50px" height="12px" rx="0" ry="0" />
<rect id="r0"  stroke="rgb(0,0,0)" fill="none" stroke-width="1px" stroke-dasharray="" y="600px" x="393px" width="50px" height="12px" rx="0" ry="0" />
<rect id="r0"  stroke="rgb(254,254,179)" fill="rgb(254,254,179)" stroke-width="1px" stroke-dasharray="" y="587px" x="443px" width="213px" height="13px" rx="0" ry="0" />
<rect id="r0"  stroke="rgb(0,0,0)" fill="none" stroke-width="1px" stroke-dasharray="" y="587px" x="443px" width="213px" height="13px" rx="0" ry="0" />
<polyline id="r0"  stroke="rgb(0,0,0)" fill="none" stroke-width="1px" stroke-dasharray="" points="806, 112,812, 112" /> 
<polyline id="r0"  stroke="rgb(0,0,0)" fill="none" stroke-width="1px" stroke-dasharray="" points="806, 187,812, 187" /> 
<polyline id="r0"  stroke="rgb(0,0,0)" fill="none" stroke-width="1px" stroke-dasharray="" points="50, 100,56, 100" /> 
<polyline id="r0"  stroke="rgb(0,0,0)" fill="none" stroke-width="1px" stroke-dasharray="" points="50, 125,56, 125" /> 
<polyline id="r0"  stroke="rgb(0,0,0)" fill="none" stroke-width="1px" stroke-dasharray="" points="468, 225,456, 225" /> 
<polyline id="r0"  stroke="rgb(0,0,0)" fill="none" stroke-width="1px" stroke-dasharray="" points="381, 212,401, 212" /> 
<polyline id="r0"  stroke="rgb(0,0,0)" fill="none" stroke-width="1px" stroke-dasharray="" points="381, 237,401, 237" /> 
<polyline id="r0"  stroke="rgb(0,0,0)" fill="none" stroke-width="1px" stroke-dasharray="" points="443, 112,431, 112" /> 
<polyline id="r0"  stroke="rgb(0,0,0)" fill="none" stroke-width="1px" stroke-dasharray="" points="368, 100,381, 100" /> 
<polyline id="r0"  stroke="rgb(0,0,0)" fill="none" stroke-width="1px" stroke-dasharray="" points="368, 125,381, 125" /> 
<circle id="r0"  stroke="rgb(0,0,0)" fill="rgb(0,0,0)" stroke-width="1px" stroke-dasharray="" cx="317" cy="99" r="4"/> 
<circle stroke="rgb(0,0,0)" fill="none" stroke-width="1px" stroke-dasharray="" cx="318" cy="100" r="5"/> 
<circle id="r0"  stroke="rgb(0,0,0)" fill="rgb(0,0,0)" stroke-width="1px" stroke-dasharray="" cx="280" cy="124" r="4"/> 
<circle stroke="rgb(0,0,0)" fill="none" stroke-width="1px" stroke-dasharray="" cx="281" cy="125" r="5"/> 
<path stroke="rgb(102,102,102)" fill="none" stroke-width="1px" stroke-dasharray="" transform="translate(366,225) rotate(0.000000)"
d="M 27.29853 -24.97579 A 37 37 0 0 1 27.29853 24.97579 " /> 
<polyline id="r0"  stroke="rgb(0,255,255)" fill="rgb(0,255,255)" stroke-width="1px" stroke-dasharray="" points="400, 251,401, 250,402, 249,402, 248,403, 247,404, 246,404, 245,405, 244,406, 243,406, 242,407, 241,407, 240,407, 239,408, 238,408, 237,408, 236,409, 235,409, 234,409, 233,409, 232,410, 231,410, 230,410, 229,410, 228,410, 227,410, 226,410, 225,410, 224,410, 223,410, 222,410, 221,410, 220,410, 219,409, 218,409, 217,409, 216,409, 215,408, 214,408, 213,408, 212,407, 211,407, 210,407, 209,406, 208,406, 207,405, 206,404, 205,404, 204,403, 203,402, 202,402, 201,402, 200,402, 200,431, 209,456, 225,432, 238,402, 250" /> 
<path stroke="rgb(102,102,102)" fill="none" stroke-width="1px" stroke-dasharray="" transform="translate(371,225) rotate(0.000000)"
d="M 30.16944 -24.71446 A 39 39 0 0 1 30.16944 24.71446 " /> 
<path stroke="rgb(0,255,255)" fill="rgb(0,255,255)" stroke-width="1px" stroke-dasharray="" transform="translate(403,268) rotate(0.000000)"
d="M -1.97809 -66.97079 A 67 67 0 0 1 51.92885 -42.33668 " /> 
<path stroke="rgb(102,102,102)" fill="none" stroke-width="1px" stroke-dasharray="" transform="translate(403,268) rotate(0.000000)"
d="M -1.97809 -66.97079 A 67 67 0 0 1 51.92885 -42.33668 " /> 
<path stroke="rgb(0,255,255)" fill="rgb(0,255,255)" stroke-width="1px" stroke-dasharray="" transform="translate(402,180) rotate(0.000000)"
d="M 53.00932 44.17027 A 69 69 0 0 1 -1.01806 68.99249 " /> 
<path stroke="rgb(102,102,102)" fill="none" stroke-width="1px" stroke-dasharray="" transform="translate(402,180) rotate(0.000000)"
d="M 53.00932 44.17027 A 69 69 0 0 1 -1.01806 68.99249 " /> 
<text x="331" y="54" font-family="courier" fill="rgb(0,0,0)" font-size="10" text-anchor="start">carry : std_logic</text>
<text x="331" y="64" font-family="courier" fill="rgb(0,0,0)" font-size="10" text-anchor="start">sum   : std_logic</text>
<text x="331" y="34" font-family="courier" fill="rgb(0,0,0)" font-size="10" text-anchor="start">sw0   : std_logic</text>
<text x="331" y="44" font-family="courier" fill="rgb(0,0,0)" font-size="10" text-anchor="start">sw1   : std_logic</text>
<text x="396" y="585" font-family="courier" fill="rgb(0,0,127)" font-size="12" text-anchor="start">Title:</text>
<text x="396" y="610" font-family="courier" fill="rgb(0,0,127)" font-size="12" text-anchor="start">  &#0060;&#0060;--</text>
<text x="56" y="9" font-family="courier" fill="rgb(0,0,0)" font-weight="800" font-size="10" text-anchor="start">Package List</text>
<text x="56" y="21" font-family="courier" fill="rgb(0,0,0)" font-size="10" text-anchor="start">LIBRARY ieee;</text>
<text x="56" y="32" font-family="courier" fill="rgb(0,0,0)" font-size="10" text-anchor="start">USE ieee.std_logic_1164.all;</text>
<text x="56" y="44" font-family="courier" fill="rgb(0,0,0)" font-size="10" text-anchor="start">USE ieee.std_logic_arith.all;</text>
<text x="306" y="9" font-family="courier" fill="rgb(0,0,0)" font-weight="800" font-size="10" text-anchor="start">Declarations</text>
<text x="306" y="21" font-family="courier" fill="rgb(0,0,0)" font-weight="800" font-size="10" text-anchor="start">Ports:</text>
<text x="306" y="74" font-family="courier" fill="rgb(0,0,0)" font-weight="800" font-size="10" text-anchor="start">Diagram Signals:</text>
<text x="19" y="102" font-family="courier" fill="rgb(0,0,0)" font-size="10" text-anchor="end">sw0</text>
<text x="19" y="127" font-family="courier" fill="rgb(0,0,0)" font-size="10" text-anchor="end">sw1</text>
<text x="400" y="252" font-family="courier" fill="rgb(0,0,0)" font-size="10" text-anchor="start">xor</text>
<text x="400" y="265" font-family="courier" fill="rgb(0,0,0)" font-size="10" text-anchor="start">U_0</text>
<text x="387" y="140" font-family="courier" fill="rgb(0,0,0)" font-size="10" text-anchor="start">and</text>
<text x="387" y="152" font-family="courier" fill="rgb(0,0,0)" font-size="10" text-anchor="start">U_1</text>
<text x="343" y="234" font-family="courier" fill="rgb(0,0,0)" font-size="10" text-anchor="start">sw1</text>
<text x="343" y="209" font-family="courier" fill="rgb(0,0,0)" font-size="10" text-anchor="start">sw0</text>
<text x="843" y="115" font-family="courier" fill="rgb(0,0,0)" font-size="10" text-anchor="start">carry</text>
<text x="843" y="190" font-family="courier" fill="rgb(0,0,0)" font-size="10" text-anchor="start">sum</text>
<text x="396" y="597" font-family="courier" fill="rgb(0,0,127)" font-size="12" text-anchor="start">Path:</text>
<text x="446" y="610" font-family="courier" fill="rgb(0,0,127)" font-size="12" text-anchor="start">by bbhiwa on 16 syys 2022</text>
<text x="658" y="560" font-family="courier" fill="rgb(0,0,127)" font-size="12" text-anchor="start">  &#0060;&#0060;--</text>
<text x="446" y="585" font-family="courier" fill="rgb(0,0,127)" font-size="12" text-anchor="start">&#0060;enter diagram title here&#0062;</text>
<text x="658" y="575" font-family="courier" fill="rgb(0,0,127)" font-size="12" text-anchor="start">&#0060;enter comments here&#0062;</text>
<text x="708" y="560" font-family="courier" fill="rgb(0,0,127)" font-size="12" text-anchor="start">alien_game</text>
<text x="525" y="566" font-family="courier" fill="rgb(127,0,0)" font-size="12" text-anchor="middle">&#0060;company name&#0062;</text>
<text x="446" y="597" font-family="courier" fill="rgb(0,0,127)" font-size="12" text-anchor="start">  &#0060;&#0060;-- more --&#0062;&#0062;</text>
<g id="carry_net" stroke="rgb(0,0,0)" stroke-width="1px"  >
<polyline id="r0"  fill="none"  stroke-dasharray="" points="806, 112,443, 112" /> 
</g>
<g id="sum_net" stroke="rgb(0,0,0)" stroke-width="1px"  >
<polyline id="r0"  fill="none"  stroke-dasharray="" points="806, 187,681, 187,681, 225,468, 225" /> 
</g>
<g id="sw0_net" stroke="rgb(0,0,0)" stroke-width="1px"  >
<polyline id="r0"  fill="none"  stroke-dasharray="" points="56, 100,368, 100" /> 
<polyline id="r0"  fill="none"  stroke-dasharray="" points="318, 100,318, 212,381, 212" /> 
</g>
<g id="sw1_net" stroke="rgb(0,0,0)" stroke-width="1px"  >
<polyline id="r0"  fill="none"  stroke-dasharray="" points="56, 125,368, 125" /> 
<polyline id="r0"  fill="none"  stroke-dasharray="" points="281, 125,281, 237,381, 237" /> 
</g>
</g>
</svg>
<!-- Create a "titlebox" group so we can reposition it when the SVG moves -->
<g id="titlebox">
<g id="genTime" class="allText normalText">
  <text class="allText smallText" x="300" y="123">Generated on: 11/05/22 at: 10:15 PM</text>
</g>

<rect stroke="none" fill="rgb(200,230,240)" opacity="0.4" y="112" x="0" width="914" height="15" />
<!-- Close the "titlebox" group -->
</g>

</g>
</svg>
