<?xml version="1.0" encoding="UTF-8"?>
<!DOCTYPE svg PUBLIC "-//W3C//DTD SVG 1.1//EN" "http://www.w3.org/Graphics/SVG/1.1/DTD/svg11.dtd">
<!-- Created HDS 2004.1a -->


<svg xmlns="http://www.w3.org/2000/svg" xmlns:xlink="http://www.w3.org/1999/xlink" version="1.1">
<script xlink:href="../../scripts/SVGPan.js" />
<g id="viewport" transform="translate(0,-100)">


<title>SVG Image</title>
<desc></desc>


<defs>
<!-- section for CSS stylesheet definitions -->
<style type="text/css"><![CDATA[
.allText {font-family:Sans-Serif;fill:darkcyan;}
.subTitleText {font-size:20;font-weight:bold;}
.normalText {font-size:15;}
.smallText {font-size:12;}
.boldText {font-weight:bold;}
.rightText {text-anchor:end;}
.centerText {text-anchor:middle;}
.dragRect {fill:darkcyan;stroke:none;opacity:0.4;}
]]></style>
<symbol id="upArrow" overflow="visible" style="stroke:darkcyan;fill:darkcyan;stroke-width:1;" pointer-events="none">
<polygon points="5,0 10,5 0,5 5,0" />
</symbol>
<symbol id="leftArrow" overflow="visible" style="stroke:darkcyan;fill:darkcyan;stroke-width:1;" pointer-events="none">
<polygon points="0,5 5,0 5,10 0,5" />
</symbol>
<symbol id="rightArrow" overflow="visible" style="stroke:darkcyan;fill:darkcyan;stroke-width:1;" pointer-events="none">
<polygon points="5,0 10,5 5,10 5,0" />
</symbol>
<symbol id="downArrow" overflow="visible" style="stroke:darkcyan;fill:darkcyan;stroke-width:1;" pointer-events="none">
<polygon points="0,0 5,5 10,0 0,0" />
</symbol>

</defs>
<svg id="mainMap" x="0" y="150" viewBox="0 0 907 802" width="912" height="512">


<clipPath id="SVG_Clip">
<rect x="0" y="0" width="907" height="802" />
</clipPath>
<g id="hds_models" style="clip-path:url(#SVG_Clip)">
<polyline id="r0"  stroke="rgb(102,102,102)" fill="none" stroke-width="3px" stroke-dasharray="" points="725, 362,700, 362" /> 
<polyline id="r0"  stroke="rgb(102,102,102)" fill="none" stroke-width="3px" stroke-dasharray="" points="700, 349,700, 374" /> 
<polyline id="r0"  stroke="rgb(0,0,0)" fill="none" stroke-width="1px" stroke-dasharray="" points="637, 87,637, 87" /> 
<polyline id="r0"  stroke="rgb(0,0,0)" fill="none" stroke-width="1px" stroke-dasharray="" points="637, 37,637, 37" /> 
<polyline id="r0"  stroke="rgb(0,255,255)" fill="rgb(0,255,255)" stroke-width="1px" stroke-dasharray="" points="662, 87,637, 87,637, 37,662, 37,662, 87" /> 
<polyline id="r0"  stroke="rgb(102,102,102)" fill="none" stroke-width="1px" stroke-dasharray="" points="662, 87,637, 87,637, 37,662, 37" /> 
<path stroke="rgb(0,255,255)" fill="rgb(0,255,255)" stroke-width="1px" stroke-dasharray="" transform="translate(662,62) rotate(0.000000)"
d="M 0.00000 -25.00000 A 25 25 0 0 1 0.00000 25.00000 " /> 
<path stroke="rgb(102,102,102)" fill="none" stroke-width="1px" stroke-dasharray="" transform="translate(662,62) rotate(0.000000)"
d="M 0.00000 -25.00000 A 25 25 0 0 1 0.00000 25.00000 " /> 
<polyline id="r0"  stroke="rgb(0,255,255)" fill="rgb(0,255,255)" stroke-width="1px" stroke-dasharray="" points="700, 174,725, 191,725, 208,700, 224,700, 174,700, 174" /> 
<polyline id="r0"  stroke="rgb(102,102,102)" fill="none" stroke-width="1px" stroke-dasharray="" points="700, 174,725, 191,725, 208,700, 224,700, 174,700, 174" /> 
<polyline id="r0"  stroke="rgb(0,0,0)" fill="none" stroke-width="1px" stroke-dasharray="" points="700, 224,700, 224" /> 
<polyline id="r0"  stroke="rgb(0,0,0)" fill="none" stroke-width="1px" stroke-dasharray="" points="700, 174,700, 174" /> 
<polyline id="r0"  stroke="rgb(0,255,255)" fill="rgb(0,255,255)" stroke-width="1px" stroke-dasharray="" points="525, 262,550, 279,550, 295,525, 312,525, 262,525, 262" /> 
<polyline id="r0"  stroke="rgb(102,102,102)" fill="none" stroke-width="1px" stroke-dasharray="" points="525, 262,550, 279,550, 295,525, 312,525, 262,525, 262" /> 
<polyline id="r0"  stroke="rgb(0,0,0)" fill="none" stroke-width="1px" stroke-dasharray="" points="525, 312,525, 324" /> 
<polyline id="r0"  stroke="rgb(0,0,0)" fill="none" stroke-width="1px" stroke-dasharray="" points="525, 262,525, 249" /> 
<polyline id="r0"  stroke="rgb(102,102,102)" fill="none" stroke-width="3px" stroke-dasharray="" points="625, 187,600, 187" /> 
<polyline id="r0"  stroke="rgb(102,102,102)" fill="none" stroke-width="3px" stroke-dasharray="" points="600, 174,600, 199" /> 
<polyline id="r0"  stroke="rgb(102,102,102)" fill="none" stroke-width="3px" stroke-dasharray="" points="625, 212,600, 212" /> 
<polyline id="r0"  stroke="rgb(102,102,102)" fill="none" stroke-width="3px" stroke-dasharray="" points="600, 199,600, 224" /> 
<rect id="r0"  stroke="rgb(254,254,179)" fill="rgb(254,254,179)" stroke-width="1px" stroke-dasharray="" y="612px" x="425px" width="212px" height="12px" rx="0" ry="0" />
<rect id="r0"  stroke="rgb(0,0,0)" fill="none" stroke-width="1px" stroke-dasharray="" y="612px" x="425px" width="212px" height="12px" rx="0" ry="0" />
<rect id="r0"  stroke="rgb(254,254,179)" fill="rgb(254,254,179)" stroke-width="1px" stroke-dasharray="" y="587px" x="425px" width="212px" height="12px" rx="0" ry="0" />
<rect id="r0"  stroke="rgb(0,0,0)" fill="none" stroke-width="1px" stroke-dasharray="" y="587px" x="425px" width="212px" height="12px" rx="0" ry="0" />
<rect id="r0"  stroke="rgb(254,254,179)" fill="rgb(254,254,179)" stroke-width="1px" stroke-dasharray="" y="562px" x="375px" width="262px" height="25px" rx="0" ry="0" />
<rect id="r0"  stroke="rgb(0,0,0)" fill="none" stroke-width="1px" stroke-dasharray="" y="562px" x="375px" width="262px" height="25px" rx="0" ry="0" />
<rect id="r0"  stroke="rgb(254,254,179)" fill="rgb(254,254,179)" stroke-width="1px" stroke-dasharray="" y="599px" x="425px" width="212px" height="13px" rx="0" ry="0" />
<rect id="r0"  stroke="rgb(0,0,0)" fill="none" stroke-width="1px" stroke-dasharray="" y="599px" x="425px" width="212px" height="13px" rx="0" ry="0" />
<a xlink:href='javascript:parent.location.href="../../alien_game_lib/c4_t1_m3/struct_bd.htm"'>
<rect id="r0"  stroke="rgb(0,255,0)" fill="rgb(0,255,0)" stroke-width="1px" stroke-dasharray="" y="288px" x="288px" width="174px" height="86px" rx="0" ry="0" />
</a>
<rect id="r0"  stroke="rgb(0,128,0)" fill="none" stroke-width="3px" stroke-dasharray="" y="288px" x="288px" width="174px" height="86px" rx="0" ry="0" />
<polyline id="r0"  stroke="rgb(0,0,127)" fill="rgb(0,0,127)" stroke-width="1px" stroke-dasharray="" points="262, 45,275, 45,281, 49,275, 54,262, 54,262, 45" /> 
<polyline id="r0"  stroke="rgb(0,0,0)" fill="none" stroke-width="1px" stroke-dasharray="" points="262, 45,275, 45,281, 49,275, 54,262, 54,262, 45" /> 
<polyline id="r0"  stroke="rgb(0,0,127)" fill="rgb(0,0,127)" stroke-width="1px" stroke-dasharray="" points="262, 45,275, 45,281, 49,275, 54,262, 54,262, 45" /> 
<polyline id="r0"  stroke="rgb(0,0,0)" fill="none" stroke-width="1px" stroke-dasharray="" points="262, 45,275, 45,281, 49,275, 54,262, 54,262, 45" /> 
<polyline id="r0"  stroke="rgb(0,0,0)" fill="none" stroke-width="1px" stroke-dasharray="" points="281, 49,287, 49" /> 
<a xlink:href='javascript:parent.location.href="../../alien_game_lib/c4_t1_m1/struct_bd.htm"'>
<rect id="r0"  stroke="rgb(0,255,0)" fill="rgb(0,255,0)" stroke-width="1px" stroke-dasharray="" y="88px" x="288px" width="174px" height="86px" rx="0" ry="0" />
</a>
<rect id="r0"  stroke="rgb(0,128,0)" fill="none" stroke-width="3px" stroke-dasharray="" y="88px" x="288px" width="174px" height="86px" rx="0" ry="0" />
<a xlink:href='javascript:parent.location.href="../../alien_game_lib/c4_t1_m1/struct_bd.htm"'>
<image xlink:href="BlockDiagram.png" x="291" y="153" width="18" height="18" />
</a>
<a xlink:href='javascript:parent.location.href="../../alien_game_lib/c4_t1_m2/struct_bd.htm"'>
<rect id="r0"  stroke="rgb(0,255,0)" fill="rgb(0,255,0)" stroke-width="1px" stroke-dasharray="" y="188px" x="288px" width="174px" height="86px" rx="0" ry="0" />
</a>
<rect id="r0"  stroke="rgb(0,128,0)" fill="none" stroke-width="3px" stroke-dasharray="" y="188px" x="288px" width="174px" height="86px" rx="0" ry="0" />
<a xlink:href='javascript:parent.location.href="../../alien_game_lib/c4_t1_m2/struct_bd.htm"'>
<image xlink:href="BlockDiagram.png" x="291" y="253" width="18" height="18" />
</a>
<polyline id="r0"  stroke="rgb(0,0,127)" fill="rgb(0,0,127)" stroke-width="1px" stroke-dasharray="" points="794, 195,806, 195,812, 199,806, 204,794, 204,794, 195" /> 
<polyline id="r0"  stroke="rgb(0,0,0)" fill="none" stroke-width="1px" stroke-dasharray="" points="794, 195,806, 195,812, 199,806, 204,794, 204,794, 195" /> 
<polyline id="r0"  stroke="rgb(0,0,127)" fill="rgb(0,0,127)" stroke-width="1px" stroke-dasharray="" points="794, 195,806, 195,812, 199,806, 204,794, 204,794, 195" /> 
<polyline id="r0"  stroke="rgb(0,0,0)" fill="none" stroke-width="1px" stroke-dasharray="" points="794, 195,806, 195,812, 199,806, 204,794, 204,794, 195" /> 
<polyline id="r0"  stroke="rgb(0,0,0)" fill="none" stroke-width="1px" stroke-dasharray="" points="787, 199,794, 199" /> 
<polyline id="r0"  stroke="rgb(0,0,127)" fill="rgb(0,0,127)" stroke-width="1px" stroke-dasharray="" points="794, 282,806, 282,812, 287,806, 292,794, 292,794, 282" /> 
<polyline id="r0"  stroke="rgb(0,0,0)" fill="none" stroke-width="1px" stroke-dasharray="" points="794, 282,806, 282,812, 287,806, 292,794, 292,794, 282" /> 
<polyline id="r0"  stroke="rgb(0,0,127)" fill="rgb(0,0,127)" stroke-width="1px" stroke-dasharray="" points="794, 282,806, 282,812, 287,806, 292,794, 292,794, 282" /> 
<polyline id="r0"  stroke="rgb(0,0,0)" fill="none" stroke-width="1px" stroke-dasharray="" points="794, 282,806, 282,812, 287,806, 292,794, 292,794, 282" /> 
<polyline id="r0"  stroke="rgb(0,0,0)" fill="none" stroke-width="1px" stroke-dasharray="" points="787, 287,794, 287" /> 
<rect id="r0"  stroke="rgb(254,254,179)" fill="rgb(254,254,179)" stroke-width="1px" stroke-dasharray="" y="587px" x="375px" width="50px" height="12px" rx="0" ry="0" />
<rect id="r0"  stroke="rgb(0,0,0)" fill="none" stroke-width="1px" stroke-dasharray="" y="587px" x="375px" width="50px" height="12px" rx="0" ry="0" />
<rect id="r0"  stroke="rgb(254,254,179)" fill="rgb(254,254,179)" stroke-width="1px" stroke-dasharray="" y="599px" x="375px" width="50px" height="13px" rx="0" ry="0" />
<rect id="r0"  stroke="rgb(0,0,0)" fill="none" stroke-width="1px" stroke-dasharray="" y="599px" x="375px" width="50px" height="13px" rx="0" ry="0" />
<rect id="r0"  stroke="rgb(254,254,179)" fill="rgb(254,254,179)" stroke-width="1px" stroke-dasharray="" y="612px" x="375px" width="50px" height="12px" rx="0" ry="0" />
<rect id="r0"  stroke="rgb(0,0,0)" fill="none" stroke-width="1px" stroke-dasharray="" y="612px" x="375px" width="50px" height="12px" rx="0" ry="0" />
<a xlink:href='javascript:parent.location.href="../../alien_game_lib/c4_t1_m3/struct_bd.htm"'>
<image xlink:href="BlockDiagram.png" x="291" y="353" width="18" height="18" />
</a>
<polyline id="r0"  stroke="rgb(0,0,127)" fill="rgb(0,0,127)" stroke-width="1px" stroke-dasharray="" points="50, 532,63, 532,69, 537,63, 542,50, 542,50, 532" /> 
<polyline id="r0"  stroke="rgb(0,0,0)" fill="none" stroke-width="1px" stroke-dasharray="" points="50, 532,63, 532,69, 537,63, 542,50, 542,50, 532" /> 
<polyline id="r0"  stroke="rgb(0,0,127)" fill="rgb(0,0,127)" stroke-width="1px" stroke-dasharray="" points="50, 532,63, 532,69, 537,63, 542,50, 542,50, 532" /> 
<polyline id="r0"  stroke="rgb(0,0,0)" fill="none" stroke-width="1px" stroke-dasharray="" points="50, 532,63, 532,69, 537,63, 542,50, 542,50, 532" /> 
<polyline id="r0"  stroke="rgb(0,0,0)" fill="none" stroke-width="1px" stroke-dasharray="" points="69, 537,75, 537" /> 
<polyline id="r0"  stroke="rgb(0,0,127)" fill="rgb(0,0,127)" stroke-width="1px" stroke-dasharray="" points="50, 495,63, 495,69, 499,63, 504,50, 504,50, 495" /> 
<polyline id="r0"  stroke="rgb(0,0,0)" fill="none" stroke-width="1px" stroke-dasharray="" points="50, 495,63, 495,69, 499,63, 504,50, 504,50, 495" /> 
<polyline id="r0"  stroke="rgb(0,0,127)" fill="rgb(0,0,127)" stroke-width="1px" stroke-dasharray="" points="50, 495,63, 495,69, 499,63, 504,50, 504,50, 495" /> 
<polyline id="r0"  stroke="rgb(0,0,0)" fill="none" stroke-width="1px" stroke-dasharray="" points="50, 495,63, 495,69, 499,63, 504,50, 504,50, 495" /> 
<polyline id="r0"  stroke="rgb(0,0,0)" fill="none" stroke-width="1px" stroke-dasharray="" points="69, 499,75, 499" /> 
<polyline id="r0"  stroke="rgb(0,0,127)" fill="rgb(0,0,127)" stroke-width="1px" stroke-dasharray="" points="50, 570,63, 570,69, 574,63, 579,50, 579,50, 570" /> 
<polyline id="r0"  stroke="rgb(0,0,0)" fill="none" stroke-width="1px" stroke-dasharray="" points="50, 570,63, 570,69, 574,63, 579,50, 579,50, 570" /> 
<polyline id="r0"  stroke="rgb(0,0,127)" fill="rgb(0,0,127)" stroke-width="1px" stroke-dasharray="" points="50, 570,63, 570,69, 574,63, 579,50, 579,50, 570" /> 
<polyline id="r0"  stroke="rgb(0,0,0)" fill="none" stroke-width="1px" stroke-dasharray="" points="50, 570,63, 570,69, 574,63, 579,50, 579,50, 570" /> 
<polyline id="r0"  stroke="rgb(0,0,0)" fill="none" stroke-width="1px" stroke-dasharray="" points="69, 574,75, 574" /> 
<polyline id="r0"  stroke="rgb(0,0,127)" fill="rgb(0,0,127)" stroke-width="1px" stroke-dasharray="" points="50, 607,63, 607,69, 612,63, 617,50, 617,50, 607" /> 
<polyline id="r0"  stroke="rgb(0,0,0)" fill="none" stroke-width="1px" stroke-dasharray="" points="50, 607,63, 607,69, 612,63, 617,50, 617,50, 607" /> 
<polyline id="r0"  stroke="rgb(0,0,127)" fill="rgb(0,0,127)" stroke-width="1px" stroke-dasharray="" points="50, 607,63, 607,69, 612,63, 617,50, 617,50, 607" /> 
<polyline id="r0"  stroke="rgb(0,0,0)" fill="none" stroke-width="1px" stroke-dasharray="" points="50, 607,63, 607,69, 612,63, 617,50, 617,50, 607" /> 
<polyline id="r0"  stroke="rgb(0,0,0)" fill="none" stroke-width="1px" stroke-dasharray="" points="69, 612,75, 612" /> 
<a xlink:href='javascript:parent.location.href="../../alien_game_lib/c4_t1_m2/struct_bd.htm"'>
<rect id="r0"  stroke="rgb(0,255,0)" fill="rgb(0,255,0)" stroke-width="1px" stroke-dasharray="" y="388px" x="288px" width="174px" height="86px" rx="0" ry="0" />
</a>
<rect id="r0"  stroke="rgb(0,128,0)" fill="none" stroke-width="3px" stroke-dasharray="" y="388px" x="288px" width="174px" height="86px" rx="0" ry="0" />
<a xlink:href='javascript:parent.location.href="../../alien_game_lib/c4_t1_m2/struct_bd.htm"'>
<image xlink:href="BlockDiagram.png" x="291" y="453" width="18" height="18" />
</a>
<polyline id="r0"  stroke="rgb(0,0,127)" fill="rgb(0,0,127)" stroke-width="1px" stroke-dasharray="" points="781, 357,794, 357,800, 362,794, 367,781, 367,781, 357" /> 
<polyline id="r0"  stroke="rgb(0,0,0)" fill="none" stroke-width="1px" stroke-dasharray="" points="781, 357,794, 357,800, 362,794, 367,781, 367,781, 357" /> 
<polyline id="r0"  stroke="rgb(0,0,127)" fill="rgb(0,0,127)" stroke-width="1px" stroke-dasharray="" points="781, 357,794, 357,800, 362,794, 367,781, 367,781, 357" /> 
<polyline id="r0"  stroke="rgb(0,0,0)" fill="none" stroke-width="1px" stroke-dasharray="" points="781, 357,794, 357,800, 362,794, 367,781, 367,781, 357" /> 
<polyline id="r0"  stroke="rgb(0,0,0)" fill="none" stroke-width="1px" stroke-dasharray="" points="775, 362,781, 362" /> 
<rect id="r0"  stroke="rgb(254,254,179)" fill="rgb(254,254,179)" stroke-width="1px" stroke-dasharray="" y="562px" x="637px" width="50px" height="12px" rx="0" ry="0" />
<rect id="r0"  stroke="rgb(0,0,0)" fill="none" stroke-width="1px" stroke-dasharray="" y="562px" x="637px" width="50px" height="12px" rx="0" ry="0" />
<rect id="r0"  stroke="rgb(254,254,179)" fill="rgb(254,254,179)" stroke-width="1px" stroke-dasharray="" y="574px" x="637px" width="250px" height="50px" rx="0" ry="0" />
<rect id="r0"  stroke="rgb(0,0,0)" fill="none" stroke-width="1px" stroke-dasharray="" y="574px" x="637px" width="250px" height="50px" rx="0" ry="0" />
<rect id="r0"  stroke="rgb(254,254,179)" fill="rgb(254,254,179)" stroke-width="1px" stroke-dasharray="" y="562px" x="687px" width="200px" height="12px" rx="0" ry="0" />
<rect id="r0"  stroke="rgb(0,0,0)" fill="none" stroke-width="1px" stroke-dasharray="" y="562px" x="687px" width="200px" height="12px" rx="0" ry="0" />
<polyline id="r0"  stroke="rgb(0,0,0)" fill="none" stroke-width="1px" stroke-dasharray="" points="281, 49,287, 49" /> 
<polyline id="r0"  stroke="rgb(0,0,0)" fill="none" stroke-width="1px" stroke-dasharray="" points="787, 199,794, 199" /> 
<polyline id="r0"  stroke="rgb(0,0,0)" fill="none" stroke-width="1px" stroke-dasharray="" points="787, 287,794, 287" /> 
<polyline id="r0"  stroke="rgb(0,0,0)" fill="none" stroke-width="1px" stroke-dasharray="" points="69, 537,75, 537" /> 
<polyline id="r0"  stroke="rgb(0,0,0)" fill="none" stroke-width="1px" stroke-dasharray="" points="69, 499,75, 499" /> 
<polyline id="r0"  stroke="rgb(0,0,0)" fill="none" stroke-width="1px" stroke-dasharray="" points="69, 574,75, 574" /> 
<polyline id="r0"  stroke="rgb(0,0,0)" fill="none" stroke-width="1px" stroke-dasharray="" points="69, 612,75, 612" /> 
<polyline id="r0"  stroke="rgb(0,0,0)" fill="none" stroke-width="1px" stroke-dasharray="" points="775, 362,781, 362" /> 
<polyline id="r0"  stroke="rgb(0,0,0)" fill="none" stroke-width="3px" stroke-dasharray="" points="687, 187,700, 187" /> 
<polyline id="r0"  stroke="rgb(0,0,0)" fill="none" stroke-width="1px" stroke-dasharray="" points="712, 162,712, 183" /> 
<polyline id="r0"  stroke="rgb(0,0,0)" fill="none" stroke-width="3px" stroke-dasharray="" points="625, 187,625, 187" /> 
<a xlink:href='javascript:parent.location.href="../../alien_game_lib/c4_t1_m1/struct_bd.htm"'>
<polyline id="r0"  stroke="rgb(0,255,0)" fill="rgb(0,255,0)" stroke-width="1px" stroke-dasharray="" points="287, 99,278, 104,278, 95,287, 99" /> 
</a>
<polyline id="r0"  stroke="rgb(0,0,0)" fill="none" stroke-width="1px" stroke-dasharray="" points="287, 99,278, 104,278, 95,287, 99" /> 
<a xlink:href='javascript:parent.location.href="../../alien_game_lib/c4_t1_m1/struct_bd.htm"'>
<polyline id="r0"  stroke="rgb(0,255,0)" fill="rgb(0,255,0)" stroke-width="1px" stroke-dasharray="" points="287, 112,278, 117,278, 107,287, 112" /> 
</a>
<polyline id="r0"  stroke="rgb(0,0,0)" fill="none" stroke-width="1px" stroke-dasharray="" points="287, 112,278, 117,278, 107,287, 112" /> 
<a xlink:href='javascript:parent.location.href="../../alien_game_lib/c4_t1_m1/struct_bd.htm"'>
<polyline id="r0"  stroke="rgb(0,255,0)" fill="rgb(0,255,0)" stroke-width="1px" stroke-dasharray="" points="287, 124,278, 129,278, 120,287, 124" /> 
</a>
<polyline id="r0"  stroke="rgb(0,0,0)" fill="none" stroke-width="1px" stroke-dasharray="" points="287, 124,278, 129,278, 120,287, 124" /> 
<a xlink:href='javascript:parent.location.href="../../alien_game_lib/c4_t1_m1/struct_bd.htm"'>
<polyline id="r0"  stroke="rgb(0,255,0)" fill="rgb(0,255,0)" stroke-width="1px" stroke-dasharray="" points="287, 137,278, 142,278, 132,287, 137" /> 
</a>
<polyline id="r0"  stroke="rgb(0,0,0)" fill="none" stroke-width="1px" stroke-dasharray="" points="287, 137,278, 142,278, 132,287, 137" /> 
<line id="r0" stroke="rgb(0,0,0)" x1="350" y1="49" x2="362" y2="37" stroke-width="1px" />
<line id="r0" stroke="rgb(0,0,0)" x1="375" y1="49" x2="387" y2="62" stroke-width="1px" />
<a xlink:href='javascript:parent.location.href="../../alien_game_lib/c4_t1_m1/struct_bd.htm"'>
<polyline id="r0"  stroke="rgb(0,255,0)" fill="rgb(0,255,0)" stroke-width="1px" stroke-dasharray="" points="472, 99,462, 104,462, 95,472, 99" /> 
</a>
<polyline id="r0"  stroke="rgb(0,0,0)" fill="none" stroke-width="1px" stroke-dasharray="" points="472, 99,462, 104,462, 95,472, 99" /> 
<polyline id="r0"  stroke="rgb(0,0,0)" fill="none" stroke-width="1px" stroke-dasharray="" points="700, 62,687, 62" /> 
<polyline id="r0"  stroke="rgb(0,0,0)" fill="none" stroke-width="1px" stroke-dasharray="" points="625, 49,637, 49" /> 
<polyline id="r0"  stroke="rgb(0,0,0)" fill="none" stroke-width="1px" stroke-dasharray="" points="625, 74,637, 74" /> 
<a xlink:href='javascript:parent.location.href="../../alien_game_lib/c4_t1_m2/struct_bd.htm"'>
<polyline id="r0"  stroke="rgb(0,255,0)" fill="rgb(0,255,0)" stroke-width="1px" stroke-dasharray="" points="287, 199,278, 204,278, 195,287, 199" /> 
</a>
<polyline id="r0"  stroke="rgb(0,0,0)" fill="none" stroke-width="1px" stroke-dasharray="" points="287, 199,278, 204,278, 195,287, 199" /> 
<a xlink:href='javascript:parent.location.href="../../alien_game_lib/c4_t1_m2/struct_bd.htm"'>
<polyline id="r0"  stroke="rgb(0,255,0)" fill="rgb(0,255,0)" stroke-width="1px" stroke-dasharray="" points="287, 212,278, 217,278, 207,287, 212" /> 
</a>
<polyline id="r0"  stroke="rgb(0,0,0)" fill="none" stroke-width="1px" stroke-dasharray="" points="287, 212,278, 217,278, 207,287, 212" /> 
<a xlink:href='javascript:parent.location.href="../../alien_game_lib/c4_t1_m2/struct_bd.htm"'>
<polyline id="r0"  stroke="rgb(0,255,0)" fill="rgb(0,255,0)" stroke-width="1px" stroke-dasharray="" points="287, 224,278, 229,278, 220,287, 224" /> 
</a>
<polyline id="r0"  stroke="rgb(0,0,0)" fill="none" stroke-width="1px" stroke-dasharray="" points="287, 224,278, 229,278, 220,287, 224" /> 
<a xlink:href='javascript:parent.location.href="../../alien_game_lib/c4_t1_m2/struct_bd.htm"'>
<polyline id="r0"  stroke="rgb(0,255,0)" fill="rgb(0,255,0)" stroke-width="1px" stroke-dasharray="" points="287, 237,278, 242,278, 232,287, 237" /> 
</a>
<polyline id="r0"  stroke="rgb(0,0,0)" fill="none" stroke-width="1px" stroke-dasharray="" points="287, 237,278, 242,278, 232,287, 237" /> 
<a xlink:href='javascript:parent.location.href="../../alien_game_lib/c4_t1_m3/struct_bd.htm"'>
<polyline id="r0"  stroke="rgb(0,255,0)" fill="rgb(0,255,0)" stroke-width="1px" stroke-dasharray="" points="287, 299,278, 304,278, 295,287, 299" /> 
</a>
<polyline id="r0"  stroke="rgb(0,0,0)" fill="none" stroke-width="1px" stroke-dasharray="" points="287, 299,278, 304,278, 295,287, 299" /> 
<a xlink:href='javascript:parent.location.href="../../alien_game_lib/c4_t1_m3/struct_bd.htm"'>
<polyline id="r0"  stroke="rgb(0,255,0)" fill="rgb(0,255,0)" stroke-width="1px" stroke-dasharray="" points="287, 312,278, 317,278, 307,287, 312" /> 
</a>
<polyline id="r0"  stroke="rgb(0,0,0)" fill="none" stroke-width="1px" stroke-dasharray="" points="287, 312,278, 317,278, 307,287, 312" /> 
<a xlink:href='javascript:parent.location.href="../../alien_game_lib/c4_t1_m3/struct_bd.htm"'>
<polyline id="r0"  stroke="rgb(0,255,0)" fill="rgb(0,255,0)" stroke-width="1px" stroke-dasharray="" points="287, 324,278, 329,278, 320,287, 324" /> 
</a>
<polyline id="r0"  stroke="rgb(0,0,0)" fill="none" stroke-width="1px" stroke-dasharray="" points="287, 324,278, 329,278, 320,287, 324" /> 
<a xlink:href='javascript:parent.location.href="../../alien_game_lib/c4_t1_m3/struct_bd.htm"'>
<polyline id="r0"  stroke="rgb(0,255,0)" fill="rgb(0,255,0)" stroke-width="1px" stroke-dasharray="" points="287, 337,278, 342,278, 332,287, 337" /> 
</a>
<polyline id="r0"  stroke="rgb(0,0,0)" fill="none" stroke-width="1px" stroke-dasharray="" points="287, 337,278, 342,278, 332,287, 337" /> 
<circle id="r0"  stroke="rgb(0,0,0)" fill="rgb(0,0,0)" stroke-width="1px" stroke-dasharray="" cx="261" cy="198" r="4"/> 
<circle stroke="rgb(0,0,0)" fill="none" stroke-width="1px" stroke-dasharray="" cx="262" cy="199" r="5"/> 
<circle id="r0"  stroke="rgb(0,0,0)" fill="rgb(0,0,0)" stroke-width="1px" stroke-dasharray="" cx="261" cy="298" r="4"/> 
<circle stroke="rgb(0,0,0)" fill="none" stroke-width="1px" stroke-dasharray="" cx="262" cy="299" r="5"/> 
<circle id="r0"  stroke="rgb(0,0,0)" fill="rgb(0,0,0)" stroke-width="1px" stroke-dasharray="" cx="236" cy="336" r="4"/> 
<circle stroke="rgb(0,0,0)" fill="none" stroke-width="1px" stroke-dasharray="" cx="237" cy="337" r="5"/> 
<circle id="r0"  stroke="rgb(0,0,0)" fill="rgb(0,0,0)" stroke-width="1px" stroke-dasharray="" cx="236" cy="236" r="4"/> 
<circle stroke="rgb(0,0,0)" fill="none" stroke-width="1px" stroke-dasharray="" cx="237" cy="237" r="5"/> 
<circle id="r0"  stroke="rgb(0,0,0)" fill="rgb(0,0,0)" stroke-width="1px" stroke-dasharray="" cx="199" cy="311" r="4"/> 
<circle stroke="rgb(0,0,0)" fill="none" stroke-width="1px" stroke-dasharray="" cx="200" cy="312" r="5"/> 
<circle id="r0"  stroke="rgb(0,0,0)" fill="rgb(0,0,0)" stroke-width="1px" stroke-dasharray="" cx="199" cy="211" r="4"/> 
<circle stroke="rgb(0,0,0)" fill="none" stroke-width="1px" stroke-dasharray="" cx="200" cy="212" r="5"/> 
<circle id="r0"  stroke="rgb(0,0,0)" fill="rgb(0,0,0)" stroke-width="1px" stroke-dasharray="" cx="161" cy="323" r="4"/> 
<circle stroke="rgb(0,0,0)" fill="none" stroke-width="1px" stroke-dasharray="" cx="162" cy="324" r="5"/> 
<circle id="r0"  stroke="rgb(0,0,0)" fill="rgb(0,0,0)" stroke-width="1px" stroke-dasharray="" cx="161" cy="223" r="4"/> 
<circle stroke="rgb(0,0,0)" fill="none" stroke-width="1px" stroke-dasharray="" cx="162" cy="224" r="5"/> 
<polyline id="r0"  stroke="rgb(0,0,0)" fill="none" stroke-width="3px" stroke-dasharray="" points="725, 362,725, 362" /> 
<a xlink:href='javascript:parent.location.href="../../alien_game_lib/c4_t1_m2/struct_bd.htm"'>
<polyline id="r0"  stroke="rgb(0,255,0)" fill="rgb(0,255,0)" stroke-width="1px" stroke-dasharray="" points="472, 199,462, 204,462, 195,472, 199" /> 
</a>
<polyline id="r0"  stroke="rgb(0,0,0)" fill="none" stroke-width="1px" stroke-dasharray="" points="472, 199,462, 204,462, 195,472, 199" /> 
<a xlink:href='javascript:parent.location.href="../../alien_game_lib/c4_t1_m3/struct_bd.htm"'>
<polyline id="r0"  stroke="rgb(0,255,0)" fill="rgb(0,255,0)" stroke-width="1px" stroke-dasharray="" points="472, 299,462, 304,462, 295,472, 299" /> 
</a>
<polyline id="r0"  stroke="rgb(0,0,0)" fill="none" stroke-width="1px" stroke-dasharray="" points="472, 299,462, 304,462, 295,472, 299" /> 
<polyline id="r0"  stroke="rgb(0,0,0)" fill="none" stroke-width="3px" stroke-dasharray="" points="737, 199,725, 199" /> 
<polyline id="r0"  stroke="rgb(0,0,0)" fill="none" stroke-width="3px" stroke-dasharray="" points="687, 212,700, 212" /> 
<polyline id="r0"  stroke="rgb(0,0,0)" fill="none" stroke-width="3px" stroke-dasharray="" points="562, 287,550, 287" /> 
<polyline id="r0"  stroke="rgb(0,0,0)" fill="none" stroke-width="3px" stroke-dasharray="" points="537, 237,537, 270" /> 
<polyline id="r0"  stroke="rgb(0,0,0)" fill="none" stroke-width="3px" stroke-dasharray="" points="512, 249,525, 249" /> 
<polyline id="r0"  stroke="rgb(0,0,0)" fill="none" stroke-width="3px" stroke-dasharray="" points="512, 274,525, 274" /> 
<polyline id="r0"  stroke="rgb(0,0,0)" fill="none" stroke-width="3px" stroke-dasharray="" points="512, 299,525, 299" /> 
<polyline id="r0"  stroke="rgb(0,0,0)" fill="none" stroke-width="3px" stroke-dasharray="" points="512, 324,525, 324" /> 
<polyline id="r0"  stroke="rgb(0,0,0)" fill="none" stroke-width="3px" stroke-dasharray="" points="625, 212,625, 212" /> 
<a xlink:href='javascript:parent.location.href="../../alien_game_lib/c4_t1_m2/struct_bd.htm"'>
<polyline id="r0"  stroke="rgb(0,255,0)" fill="rgb(0,255,0)" stroke-width="1px" stroke-dasharray="" points="287, 399,278, 404,278, 395,287, 399" /> 
</a>
<polyline id="r0"  stroke="rgb(0,0,0)" fill="none" stroke-width="1px" stroke-dasharray="" points="287, 399,278, 404,278, 395,287, 399" /> 
<a xlink:href='javascript:parent.location.href="../../alien_game_lib/c4_t1_m2/struct_bd.htm"'>
<polyline id="r0"  stroke="rgb(0,255,0)" fill="rgb(0,255,0)" stroke-width="1px" stroke-dasharray="" points="287, 412,278, 417,278, 407,287, 412" /> 
</a>
<polyline id="r0"  stroke="rgb(0,0,0)" fill="none" stroke-width="1px" stroke-dasharray="" points="287, 412,278, 417,278, 407,287, 412" /> 
<a xlink:href='javascript:parent.location.href="../../alien_game_lib/c4_t1_m2/struct_bd.htm"'>
<polyline id="r0"  stroke="rgb(0,255,0)" fill="rgb(0,255,0)" stroke-width="1px" stroke-dasharray="" points="472, 399,462, 404,462, 395,472, 399" /> 
</a>
<polyline id="r0"  stroke="rgb(0,0,0)" fill="none" stroke-width="1px" stroke-dasharray="" points="472, 399,462, 404,462, 395,472, 399" /> 
<a xlink:href='javascript:parent.location.href="../../alien_game_lib/c4_t1_m2/struct_bd.htm"'>
<polyline id="r0"  stroke="rgb(0,255,0)" fill="rgb(0,255,0)" stroke-width="1px" stroke-dasharray="" points="287, 424,278, 429,278, 420,287, 424" /> 
</a>
<polyline id="r0"  stroke="rgb(0,0,0)" fill="none" stroke-width="1px" stroke-dasharray="" points="287, 424,278, 429,278, 420,287, 424" /> 
<a xlink:href='javascript:parent.location.href="../../alien_game_lib/c4_t1_m2/struct_bd.htm"'>
<polyline id="r0"  stroke="rgb(0,255,0)" fill="rgb(0,255,0)" stroke-width="1px" stroke-dasharray="" points="287, 437,278, 442,278, 432,287, 437" /> 
</a>
<polyline id="r0"  stroke="rgb(0,0,0)" fill="none" stroke-width="1px" stroke-dasharray="" points="287, 437,278, 442,278, 432,287, 437" /> 
<circle id="r0"  stroke="rgb(0,0,0)" fill="rgb(0,0,0)" stroke-width="1px" stroke-dasharray="" cx="199" cy="411" r="4"/> 
<circle stroke="rgb(0,0,0)" fill="none" stroke-width="1px" stroke-dasharray="" cx="200" cy="412" r="5"/> 
<circle id="r0"  stroke="rgb(0,0,0)" fill="rgb(0,0,0)" stroke-width="1px" stroke-dasharray="" cx="161" cy="423" r="4"/> 
<circle stroke="rgb(0,0,0)" fill="none" stroke-width="1px" stroke-dasharray="" cx="162" cy="424" r="5"/> 
<circle id="r0"  stroke="rgb(0,0,0)" fill="rgb(0,0,0)" stroke-width="1px" stroke-dasharray="" cx="236" cy="436" r="4"/> 
<circle stroke="rgb(0,0,0)" fill="none" stroke-width="1px" stroke-dasharray="" cx="237" cy="437" r="5"/> 
<circle id="r0"  stroke="rgb(0,0,0)" fill="rgb(0,0,0)" stroke-width="1px" stroke-dasharray="" cx="261" cy="398" r="4"/> 
<circle stroke="rgb(0,0,0)" fill="none" stroke-width="1px" stroke-dasharray="" cx="262" cy="399" r="5"/> 
<text x="38" y="539" font-family="courier" fill="rgb(0,0,0)" font-size="10" text-anchor="end">rst_n</text>
<text x="38" y="502" font-family="courier" fill="rgb(0,0,0)" font-size="10" text-anchor="end">clk</text>
<text x="38" y="577" font-family="courier" fill="rgb(0,0,0)" font-size="10" text-anchor="end">enable</text>
<text x="38" y="614" font-family="courier" fill="rgb(0,0,0)" font-size="10" text-anchor="end">btn</text>
<text x="812" y="364" font-family="courier" fill="rgb(0,0,0)" font-size="10" text-anchor="start">gun_color</text>
<text x="375" y="696" font-family="courier" fill="rgb(0,0,0)" font-size="10" text-anchor="start">gun_color     : std_logic_vector(23 DOWNTO 0)</text>
<text x="375" y="676" font-family="courier" fill="rgb(0,0,0)" font-size="10" text-anchor="start">gun_px_idx    : std_logic_vector(1 DOWNTO 0)</text>
<text x="375" y="716" font-family="courier" fill="rgb(0,0,0)" font-size="10" text-anchor="start">y_coordinate  : std_logic_vector(7 DOWNTO 0)</text>
<text x="427" y="622" font-family="courier" fill="rgb(0,0,127)" font-size="12" text-anchor="start">by mqange on 05 Nov 2022</text>
<text x="427" y="597" font-family="courier" fill="rgb(0,0,127)" font-size="12" text-anchor="start">&#0060;enter diagram title here&#0062;</text>
<text x="506" y="578" font-family="courier" fill="rgb(127,0,0)" font-size="12" text-anchor="middle">&#0060;company name&#0062;</text>
<text x="427" y="609" font-family="courier" fill="rgb(0,0,127)" font-size="12" text-anchor="start">  &#0060;&#0060;-- more --&#0062;&#0062;</text>
<text x="375" y="686" font-family="courier" fill="rgb(0,0,0)" font-size="10" text-anchor="start">rst_n         : std_logic</text>
<text x="375" y="656" font-family="courier" fill="rgb(0,0,0)" font-size="10" text-anchor="start">clk           : std_logic</text>
<text x="375" y="666" font-family="courier" fill="rgb(0,0,0)" font-size="10" text-anchor="start">enable        : std_logic</text>
<text x="375" y="646" font-family="courier" fill="rgb(0,0,0)" font-size="10" text-anchor="start">btn           : std_logic_vector(3 DOWNTO 0)</text>
<text x="375" y="706" font-family="courier" fill="rgb(0,0,0)" font-size="10" text-anchor="start">x_coordinate  : std_logic_vector(7 DOWNTO 0)</text>
<text x="412" y="183" font-family="courier" fill="rgb(0,0,0)" font-size="10" text-anchor="start">x_coordinate1 : (7:0)</text>
<text x="412" y="283" font-family="courier" fill="rgb(0,0,0)" font-size="10" text-anchor="start">x_coordinate2 : (7:0)</text>
<text x="250" y="52" font-family="courier" fill="rgb(0,0,0)" font-size="10" text-anchor="end">gun_px_idx</text>
<text x="228" y="133" font-family="courier" fill="rgb(0,0,0)" font-size="10" text-anchor="start">enable</text>
<text x="241" y="108" font-family="courier" fill="rgb(0,0,0)" font-size="10" text-anchor="start">rst_n</text>
<text x="253" y="121" font-family="courier" fill="rgb(0,0,0)" font-size="10" text-anchor="start">clk</text>
<text x="352" y="133" font-family="courier" fill="rgb(0,0,0)" font-weight="800" font-size="10" text-anchor="start">alien_game_lib</text>
<text x="352" y="146" font-family="courier" fill="rgb(0,0,0)" font-weight="800" font-size="10" text-anchor="start">c4_t1_m1</text>
<text x="352" y="158" font-family="courier" fill="rgb(0,0,0)" font-weight="800" font-size="10" text-anchor="start">U_0</text>
<text x="300" y="102" font-family="courier" fill="rgb(0,0,0)" font-size="10" text-anchor="start">btn : (3:0)</text>
<text x="300" y="114" font-family="courier" fill="rgb(0,0,0)" font-size="10" text-anchor="start">rst_n</text>
<text x="450" y="102" font-family="courier" fill="rgb(0,0,0)" font-size="10" text-anchor="end">x_coordinate : (7:0)</text>
<text x="300" y="127" font-family="courier" fill="rgb(0,0,0)" font-size="10" text-anchor="start">clk</text>
<text x="300" y="139" font-family="courier" fill="rgb(0,0,0)" font-size="10" text-anchor="start">enable</text>
<text x="253" y="196" font-family="courier" fill="rgb(0,0,0)" font-size="10" text-anchor="start">btn</text>
<text x="253" y="296" font-family="courier" fill="rgb(0,0,0)" font-size="10" text-anchor="start">btn</text>
<text x="228" y="333" font-family="courier" fill="rgb(0,0,0)" font-size="10" text-anchor="start">enable</text>
<text x="228" y="233" font-family="courier" fill="rgb(0,0,0)" font-size="10" text-anchor="start">enable</text>
<text x="241" y="308" font-family="courier" fill="rgb(0,0,0)" font-size="10" text-anchor="start">rst_n</text>
<text x="241" y="208" font-family="courier" fill="rgb(0,0,0)" font-size="10" text-anchor="start">rst_n</text>
<text x="253" y="321" font-family="courier" fill="rgb(0,0,0)" font-size="10" text-anchor="start">clk</text>
<text x="253" y="221" font-family="courier" fill="rgb(0,0,0)" font-size="10" text-anchor="start">clk</text>
<text x="352" y="233" font-family="courier" fill="rgb(0,0,0)" font-weight="800" font-size="10" text-anchor="start">alien_game_lib</text>
<text x="352" y="246" font-family="courier" fill="rgb(0,0,0)" font-weight="800" font-size="10" text-anchor="start">c4_t1_m2</text>
<text x="352" y="258" font-family="courier" fill="rgb(0,0,0)" font-weight="800" font-size="10" text-anchor="start">U_1</text>
<text x="300" y="202" font-family="courier" fill="rgb(0,0,0)" font-size="10" text-anchor="start">btn : (3:0)</text>
<text x="300" y="214" font-family="courier" fill="rgb(0,0,0)" font-size="10" text-anchor="start">rst_n</text>
<text x="450" y="202" font-family="courier" fill="rgb(0,0,0)" font-size="10" text-anchor="end">x_coordinate : (7:0)</text>
<text x="300" y="227" font-family="courier" fill="rgb(0,0,0)" font-size="10" text-anchor="start">clk</text>
<text x="300" y="239" font-family="courier" fill="rgb(0,0,0)" font-size="10" text-anchor="start">enable</text>
<text x="352" y="321" font-family="courier" fill="rgb(0,0,0)" font-weight="800" font-size="10" text-anchor="start">alien_game_lib</text>
<text x="352" y="333" font-family="courier" fill="rgb(0,0,0)" font-weight="800" font-size="10" text-anchor="start">c4_t1_m3</text>
<text x="352" y="346" font-family="courier" fill="rgb(0,0,0)" font-weight="800" font-size="10" text-anchor="start">U_2</text>
<text x="300" y="302" font-family="courier" fill="rgb(0,0,0)" font-size="10" text-anchor="start">btn : (3:0)</text>
<text x="300" y="314" font-family="courier" fill="rgb(0,0,0)" font-size="10" text-anchor="start">rst_n</text>
<text x="450" y="302" font-family="courier" fill="rgb(0,0,0)" font-size="10" text-anchor="end">x_coordinate : (7:0)</text>
<text x="300" y="327" font-family="courier" fill="rgb(0,0,0)" font-size="10" text-anchor="start">clk</text>
<text x="300" y="339" font-family="courier" fill="rgb(0,0,0)" font-size="10" text-anchor="start">enable</text>
<text x="644" y="64" font-family="courier" fill="rgb(0,0,0)" font-size="10" text-anchor="start">and</text>
<text x="644" y="77" font-family="courier" fill="rgb(0,0,0)" font-size="10" text-anchor="start">U_3</text>
<text x="592" y="159" font-family="courier" fill="rgb(0,0,0)" font-size="10" text-anchor="start">constval</text>
<text x="592" y="172" font-family="courier" fill="rgb(0,0,0)" font-size="10" text-anchor="start">U_5</text>
<text x="525" y="8" font-family="courier" fill="rgb(0,0,0)" font-size="10" text-anchor="start">gun_px_idx(0)</text>
<text x="562" y="71" font-family="courier" fill="rgb(0,0,0)" font-size="10" text-anchor="start">gun_px_idx(1)</text>
<text x="554" y="297" font-family="courier" fill="rgb(0,0,0)" font-size="10" text-anchor="start">mux</text>
<text x="554" y="309" font-family="courier" fill="rgb(0,0,0)" font-size="10" text-anchor="start">U_6</text>
<text x="527" y="279" font-family="courier" fill="rgb(0,0,0)" font-size="10" text-anchor="start">Lo</text>
<text x="528" y="304" font-family="courier" fill="rgb(0,0,0)" font-size="10" text-anchor="start">Hi</text>
<text x="529" y="292" font-family="courier" fill="rgb(0,0,0)" font-size="10" text-anchor="start">mux</text>
<text x="592" y="234" font-family="courier" fill="rgb(0,0,0)" font-size="10" text-anchor="start">constval</text>
<text x="592" y="247" font-family="courier" fill="rgb(0,0,0)" font-size="10" text-anchor="start">U_7</text>
<text x="825" y="202" font-family="courier" fill="rgb(0,0,0)" font-size="10" text-anchor="start">y_coordinate</text>
<text x="825" y="289" font-family="courier" fill="rgb(0,0,0)" font-size="10" text-anchor="start">x_coordinate</text>
<text x="717" y="234" font-family="courier" fill="rgb(0,0,0)" font-size="10" text-anchor="start">mux</text>
<text x="717" y="247" font-family="courier" fill="rgb(0,0,0)" font-size="10" text-anchor="start">U_4</text>
<text x="702" y="192" font-family="courier" fill="rgb(0,0,0)" font-size="10" text-anchor="start">Lo</text>
<text x="703" y="216" font-family="courier" fill="rgb(0,0,0)" font-size="10" text-anchor="start">Hi</text>
<text x="704" y="204" font-family="courier" fill="rgb(0,0,0)" font-size="10" text-anchor="start">mux</text>
<text x="350" y="621" font-family="courier" fill="rgb(0,0,0)" font-weight="800" font-size="10" text-anchor="start">Declarations</text>
<text x="350" y="633" font-family="courier" fill="rgb(0,0,0)" font-weight="800" font-size="10" text-anchor="start">Ports:</text>
<text x="350" y="726" font-family="courier" fill="rgb(0,0,0)" font-weight="800" font-size="10" text-anchor="start">Diagram Signals:</text>
<text x="377" y="597" font-family="courier" fill="rgb(0,0,127)" font-size="12" text-anchor="start">Title:</text>
<text x="377" y="609" font-family="courier" fill="rgb(0,0,127)" font-size="12" text-anchor="start">Path:</text>
<text x="377" y="622" font-family="courier" fill="rgb(0,0,127)" font-size="12" text-anchor="start">  &#0060;&#0060;--</text>
<text x="352" y="433" font-family="courier" fill="rgb(0,0,0)" font-weight="800" font-size="10" text-anchor="start">alien_game_lib</text>
<text x="352" y="446" font-family="courier" fill="rgb(0,0,0)" font-weight="800" font-size="10" text-anchor="start">c4_t1_m2</text>
<text x="352" y="458" font-family="courier" fill="rgb(0,0,0)" font-weight="800" font-size="10" text-anchor="start">U_9</text>
<text x="300" y="402" font-family="courier" fill="rgb(0,0,0)" font-size="10" text-anchor="start">btn : (3:0)</text>
<text x="300" y="414" font-family="courier" fill="rgb(0,0,0)" font-size="10" text-anchor="start">rst_n</text>
<text x="450" y="402" font-family="courier" fill="rgb(0,0,0)" font-size="10" text-anchor="end">x_coordinate : (7:0)</text>
<text x="300" y="427" font-family="courier" fill="rgb(0,0,0)" font-size="10" text-anchor="start">clk</text>
<text x="300" y="439" font-family="courier" fill="rgb(0,0,0)" font-size="10" text-anchor="start">enable</text>
<text x="253" y="396" font-family="courier" fill="rgb(0,0,0)" font-size="10" text-anchor="start">btn</text>
<text x="662" y="621" font-family="courier" fill="rgb(0,0,0)" font-weight="800" font-size="10" text-anchor="start">Package List</text>
<text x="662" y="633" font-family="courier" fill="rgb(0,0,0)" font-size="10" text-anchor="start">LIBRARY ieee;</text>
<text x="662" y="644" font-family="courier" fill="rgb(0,0,0)" font-size="10" text-anchor="start">USE ieee.std_logic_1164.all;</text>
<text x="662" y="656" font-family="courier" fill="rgb(0,0,0)" font-size="10" text-anchor="start">USE ieee.std_logic_arith.all;</text>
<text x="640" y="572" font-family="courier" fill="rgb(0,0,127)" font-size="12" text-anchor="start">  &#0060;&#0060;--</text>
<text x="640" y="587" font-family="courier" fill="rgb(0,0,127)" font-size="12" text-anchor="start">&#0060;enter comments here&#0062;</text>
<text x="690" y="572" font-family="courier" fill="rgb(0,0,127)" font-size="12" text-anchor="start">alien_game</text>
<text x="692" y="384" font-family="courier" fill="rgb(0,0,0)" font-size="10" text-anchor="start">constval</text>
<text x="692" y="397" font-family="courier" fill="rgb(0,0,0)" font-size="10" text-anchor="start">U_8</text>
<text x="375" y="778" font-family="courier" fill="rgb(0,0,0)" font-size="10" text-anchor="start">SIGNAL dout          : std_logic</text>
<text x="375" y="738" font-family="courier" fill="rgb(0,0,0)" font-size="10" text-anchor="start">SIGNAL din0          : std_logic_vector(7 DOWNTO 0)</text>
<text x="375" y="748" font-family="courier" fill="rgb(0,0,0)" font-size="10" text-anchor="start">SIGNAL din1          : std_logic_vector(7 DOWNTO 0)</text>
<text x="375" y="758" font-family="courier" fill="rgb(0,0,0)" font-size="10" text-anchor="start">SIGNAL din2          : std_logic_vector(7 DOWNTO 0)</text>
<text x="375" y="788" font-family="courier" fill="rgb(0,0,0)" font-size="10" text-anchor="start">SIGNAL x_coordinate1 : std_logic_vector(7 DOWNTO 0)</text>
<text x="375" y="798" font-family="courier" fill="rgb(0,0,0)" font-size="10" text-anchor="start">SIGNAL x_coordinate2 : std_logic_vector(7 DOWNTO 0)</text>
<text x="375" y="768" font-family="courier" fill="rgb(0,0,0)" font-size="10" text-anchor="start">SIGNAL din3          : std_logic_vector(7 DOWNTO 0)</text>
<g id="btn_net" stroke="rgb(0,0,0)" stroke-width="3px"  >
<polyline id="r0"  fill="none"  stroke-dasharray="" points="75, 612,262, 612,262, 99,278, 99" /> 
<polyline id="r0"  fill="none"  stroke-dasharray="" points="278, 299,262, 299" /> 
<polyline id="r0"  fill="none"  stroke-dasharray="" points="278, 199,262, 199" /> 
<polyline id="r0"  fill="none"  stroke-dasharray="" points="262, 399,278, 399" /> 
</g>
<g id="clk_net" stroke="rgb(0,0,0)" stroke-width="1px"  >
<polyline id="r0"  fill="none"  stroke-dasharray="" points="162, 324,162, 224,278, 224" /> 
<polyline id="r0"  fill="none"  stroke-dasharray="" points="162, 224,162, 124,278, 124" /> 
<polyline id="r0"  fill="none"  stroke-dasharray="" points="75, 499,162, 499,162, 424,278, 424" /> 
<polyline id="r0"  fill="none"  stroke-dasharray="" points="162, 424,162, 324,278, 324" /> 
</g>
<g id="din0_net" stroke="rgb(0,0,0)" stroke-width="3px"  >
<polyline id="r0"  fill="none"  stroke-dasharray="" points="687, 187,625, 187" /> 
</g>
<g id="din1_net" stroke="rgb(0,0,0)" stroke-width="3px"  >
<polyline id="r0"  fill="none"  stroke-dasharray="" points="687, 212,625, 212" /> 
</g>
<g id="din2_net" stroke="rgb(0,0,0)" stroke-width="3px"  >
<polyline id="r0"  fill="none"  stroke-dasharray="" points="512, 249,512, 99,472, 99" /> 
</g>
<g id="din3_net" stroke="rgb(0,0,0)" stroke-width="3px"  >
<polyline id="r0"  fill="none"  stroke-dasharray="" points="512, 324,500, 324,500, 399,472, 399" /> 
</g>
<g id="dout_net" stroke="rgb(0,0,0)" stroke-width="1px"  >
<polyline id="r0"  fill="none"  stroke-dasharray="" points="700, 62,712, 62,712, 162" /> 
</g>
<g id="enable_net" stroke="rgb(0,0,0)" stroke-width="1px"  >
<polyline id="r0"  fill="none"  stroke-dasharray="" points="237, 337,237, 237,278, 237" /> 
<polyline id="r0"  fill="none"  stroke-dasharray="" points="237, 237,237, 137,278, 137" /> 
<polyline id="r0"  fill="none"  stroke-dasharray="" points="75, 574,237, 574,237, 437,278, 437" /> 
<polyline id="r0"  fill="none"  stroke-dasharray="" points="237, 437,237, 337,278, 337" /> 
</g>
<g id="gun_color_net" stroke="rgb(0,0,0)" stroke-width="3px"  >
<polyline id="r0"  fill="none"  stroke-dasharray="" points="775, 362,725, 362" /> 
</g>
<g id="gun_px_idx_net" stroke="rgb(0,0,0)" stroke-width="3px"  >
<polyline id="r0"  fill="none"  stroke-dasharray="" points="287, 49,537, 49,537, 237" /> 
<polyline id="r0"  fill="none"  stroke-dasharray="" points="362, 37,362, 24,600, 24,600, 49,625, 49" /> 
<polyline id="r0"  fill="none"  stroke-dasharray="" points="387, 62,387, 74,625, 74" /> 
</g>
<g id="rst_n_net" stroke="rgb(0,0,0)" stroke-width="1px"  >
<polyline id="r0"  fill="none"  stroke-dasharray="" points="200, 412,200, 312,278, 312" /> 
<polyline id="r0"  fill="none"  stroke-dasharray="" points="200, 312,200, 212,278, 212" /> 
<polyline id="r0"  fill="none"  stroke-dasharray="" points="200, 212,200, 112,278, 112" /> 
<polyline id="r0"  fill="none"  stroke-dasharray="" points="75, 537,200, 537,200, 412,278, 412" /> 
</g>
<g id="x_coordinate_net" stroke="rgb(0,0,0)" stroke-width="3px"  >
<polyline id="r0"  fill="none"  stroke-dasharray="" points="562, 287,787, 287" /> 
</g>
<g id="x_coordinate1_net" stroke="rgb(0,0,0)" stroke-width="3px"  >
<polyline id="r0"  fill="none"  stroke-dasharray="" points="472, 199,500, 199,500, 274,512, 274" /> 
</g>
<g id="x_coordinate2_net" stroke="rgb(0,0,0)" stroke-width="3px"  >
<polyline id="r0"  fill="none"  stroke-dasharray="" points="472, 299,512, 299" /> 
</g>
<g id="y_coordinate_net" stroke="rgb(0,0,0)" stroke-width="3px"  >
<polyline id="r0"  fill="none"  stroke-dasharray="" points="787, 199,737, 199" /> 
</g>
</g>
</svg>
<!-- Create a "titlebox" group so we can reposition it when the SVG moves -->
<g id="titlebox">
<g id="genTime" class="allText normalText">
  <text class="allText smallText" x="300" y="123">Generated on: 11/05/22 at: 10:15 PM</text>
</g>

<rect stroke="none" fill="rgb(200,230,240)" opacity="0.4" y="112" x="0" width="914" height="15" />
<!-- Close the "titlebox" group -->
</g>

</g>
</svg>
