<?xml version="1.0" encoding="UTF-8"?>
<!DOCTYPE svg PUBLIC "-//W3C//DTD SVG 1.1//EN" "http://www.w3.org/Graphics/SVG/1.1/DTD/svg11.dtd">
<!-- Created HDS 2004.1a -->


<svg xmlns="http://www.w3.org/2000/svg" xmlns:xlink="http://www.w3.org/1999/xlink" version="1.1">
<script xlink:href="../../scripts/SVGPan.js" />
<g id="viewport" transform="translate(0,-100)">


<title>SVG Image</title>
<desc></desc>


<defs>
<!-- section for CSS stylesheet definitions -->
<style type="text/css"><![CDATA[
.allText {font-family:Sans-Serif;fill:darkcyan;}
.subTitleText {font-size:20;font-weight:bold;}
.normalText {font-size:15;}
.smallText {font-size:12;}
.boldText {font-weight:bold;}
.rightText {text-anchor:end;}
.centerText {text-anchor:middle;}
.dragRect {fill:darkcyan;stroke:none;opacity:0.4;}
]]></style>
<symbol id="upArrow" overflow="visible" style="stroke:darkcyan;fill:darkcyan;stroke-width:1;" pointer-events="none">
<polygon points="5,0 10,5 0,5 5,0" />
</symbol>
<symbol id="leftArrow" overflow="visible" style="stroke:darkcyan;fill:darkcyan;stroke-width:1;" pointer-events="none">
<polygon points="0,5 5,0 5,10 0,5" />
</symbol>
<symbol id="rightArrow" overflow="visible" style="stroke:darkcyan;fill:darkcyan;stroke-width:1;" pointer-events="none">
<polygon points="5,0 10,5 5,10 5,0" />
</symbol>
<symbol id="downArrow" overflow="visible" style="stroke:darkcyan;fill:darkcyan;stroke-width:1;" pointer-events="none">
<polygon points="0,0 5,5 10,0 0,0" />
</symbol>

</defs>
<svg id="mainMap" x="0" y="150" viewBox="0 0 1149 617" width="912" height="512">


<clipPath id="SVG_Clip">
<rect x="0" y="0" width="1149" height="617" />
</clipPath>
<g id="hds_models" style="clip-path:url(#SVG_Clip)">
<polyline id="r0"  stroke="rgb(102,102,102)" fill="none" stroke-width="3px" stroke-dasharray="" points="112, 200,87, 200" /> 
<polyline id="r0"  stroke="rgb(102,102,102)" fill="none" stroke-width="3px" stroke-dasharray="" points="87, 187,87, 212" /> 
<rect id="r0"  stroke="rgb(254,254,179)" fill="rgb(254,254,179)" stroke-width="1px" stroke-dasharray="" y="600px" x="450px" width="212px" height="12px" rx="0" ry="0" />
<rect id="r0"  stroke="rgb(0,0,0)" fill="none" stroke-width="1px" stroke-dasharray="" y="600px" x="450px" width="212px" height="12px" rx="0" ry="0" />
<rect id="r0"  stroke="rgb(254,254,179)" fill="rgb(254,254,179)" stroke-width="1px" stroke-dasharray="" y="550px" x="662px" width="50px" height="12px" rx="0" ry="0" />
<rect id="r0"  stroke="rgb(0,0,0)" fill="none" stroke-width="1px" stroke-dasharray="" y="550px" x="662px" width="50px" height="12px" rx="0" ry="0" />
<rect id="r0"  stroke="rgb(254,254,179)" fill="rgb(254,254,179)" stroke-width="1px" stroke-dasharray="" y="575px" x="450px" width="212px" height="12px" rx="0" ry="0" />
<rect id="r0"  stroke="rgb(0,0,0)" fill="none" stroke-width="1px" stroke-dasharray="" y="575px" x="450px" width="212px" height="12px" rx="0" ry="0" />
<rect id="r0"  stroke="rgb(254,254,179)" fill="rgb(254,254,179)" stroke-width="1px" stroke-dasharray="" y="575px" x="400px" width="50px" height="12px" rx="0" ry="0" />
<rect id="r0"  stroke="rgb(0,0,0)" fill="none" stroke-width="1px" stroke-dasharray="" y="575px" x="400px" width="50px" height="12px" rx="0" ry="0" />
<rect id="r0"  stroke="rgb(254,254,179)" fill="rgb(254,254,179)" stroke-width="1px" stroke-dasharray="" y="562px" x="662px" width="250px" height="50px" rx="0" ry="0" />
<rect id="r0"  stroke="rgb(0,0,0)" fill="none" stroke-width="1px" stroke-dasharray="" y="562px" x="662px" width="250px" height="50px" rx="0" ry="0" />
<rect id="r0"  stroke="rgb(254,254,179)" fill="rgb(254,254,179)" stroke-width="1px" stroke-dasharray="" y="550px" x="712px" width="200px" height="12px" rx="0" ry="0" />
<rect id="r0"  stroke="rgb(0,0,0)" fill="none" stroke-width="1px" stroke-dasharray="" y="550px" x="712px" width="200px" height="12px" rx="0" ry="0" />
<rect id="r0"  stroke="rgb(254,254,179)" fill="rgb(254,254,179)" stroke-width="1px" stroke-dasharray="" y="550px" x="400px" width="262px" height="25px" rx="0" ry="0" />
<rect id="r0"  stroke="rgb(0,0,0)" fill="none" stroke-width="1px" stroke-dasharray="" y="550px" x="400px" width="262px" height="25px" rx="0" ry="0" />
<rect id="r0"  stroke="rgb(254,254,179)" fill="rgb(254,254,179)" stroke-width="1px" stroke-dasharray="" y="587px" x="400px" width="50px" height="13px" rx="0" ry="0" />
<rect id="r0"  stroke="rgb(0,0,0)" fill="none" stroke-width="1px" stroke-dasharray="" y="587px" x="400px" width="50px" height="13px" rx="0" ry="0" />
<rect id="r0"  stroke="rgb(254,254,179)" fill="rgb(254,254,179)" stroke-width="1px" stroke-dasharray="" y="600px" x="400px" width="50px" height="12px" rx="0" ry="0" />
<rect id="r0"  stroke="rgb(0,0,0)" fill="none" stroke-width="1px" stroke-dasharray="" y="600px" x="400px" width="50px" height="12px" rx="0" ry="0" />
<rect id="r0"  stroke="rgb(254,254,179)" fill="rgb(254,254,179)" stroke-width="1px" stroke-dasharray="" y="587px" x="450px" width="212px" height="13px" rx="0" ry="0" />
<rect id="r0"  stroke="rgb(0,0,0)" fill="none" stroke-width="1px" stroke-dasharray="" y="587px" x="450px" width="212px" height="13px" rx="0" ry="0" />
<polyline id="r0"  stroke="rgb(0,0,128)" fill="rgb(0,0,128)" stroke-width="1px" stroke-dasharray="" points="50, 358,63, 358,69, 362,63, 367,50, 367,50, 358" /> 
<polyline id="r0"  stroke="rgb(0,0,0)" fill="none" stroke-width="1px" stroke-dasharray="" points="50, 358,63, 358,69, 362,63, 367,50, 367,50, 358" /> 
<polyline id="r0"  stroke="rgb(0,0,128)" fill="rgb(0,0,128)" stroke-width="1px" stroke-dasharray="" points="50, 358,63, 358,69, 362,63, 367,50, 367,50, 358" /> 
<polyline id="r0"  stroke="rgb(0,0,0)" fill="none" stroke-width="1px" stroke-dasharray="" points="50, 358,63, 358,69, 362,63, 367,50, 367,50, 358" /> 
<polyline id="r0"  stroke="rgb(0,0,0)" fill="none" stroke-width="1px" stroke-dasharray="" points="69, 362,75, 362" /> 
<a xlink:href='javascript:parent.location.href="../../alien_game_lib/c1_t1_half_adder/struct_bd.htm"'>
<rect id="r0"  stroke="rgb(0,255,0)" fill="rgb(0,255,0)" stroke-width="1px" stroke-dasharray="" y="188px" x="176px" width="136px" height="137px" rx="0" ry="0" />
</a>
<rect id="r0"  stroke="rgb(0,128,0)" fill="none" stroke-width="3px" stroke-dasharray="" y="188px" x="176px" width="136px" height="137px" rx="0" ry="0" />
<a xlink:href='javascript:parent.location.href="../../alien_game_lib/c1_t1_half_adder/struct_bd.htm"'>
<image xlink:href="BlockDiagram.png" x="178" y="303" width="19" height="19" />
</a>
<a xlink:href='javascript:parent.location.href="../../alien_game_lib/c1_t1_half_adder/struct_bd.htm"'>
<rect id="r0"  stroke="rgb(0,255,0)" fill="rgb(0,255,0)" stroke-width="1px" stroke-dasharray="" y="188px" x="438px" width="137px" height="137px" rx="0" ry="0" />
</a>
<rect id="r0"  stroke="rgb(0,128,0)" fill="none" stroke-width="3px" stroke-dasharray="" y="188px" x="438px" width="137px" height="137px" rx="0" ry="0" />
<a xlink:href='javascript:parent.location.href="../../alien_game_lib/c1_t1_half_adder/struct_bd.htm"'>
<image xlink:href="BlockDiagram.png" x="441" y="303" width="18" height="19" />
</a>
<a xlink:href='javascript:parent.location.href="../../alien_game_lib/c1_t1_half_adder/struct_bd.htm"'>
<rect id="r0"  stroke="rgb(0,255,0)" fill="rgb(0,255,0)" stroke-width="1px" stroke-dasharray="" y="188px" x="701px" width="136px" height="137px" rx="0" ry="0" />
</a>
<rect id="r0"  stroke="rgb(0,128,0)" fill="none" stroke-width="3px" stroke-dasharray="" y="188px" x="701px" width="136px" height="137px" rx="0" ry="0" />
<a xlink:href='javascript:parent.location.href="../../alien_game_lib/c1_t1_half_adder/struct_bd.htm"'>
<image xlink:href="BlockDiagram.png" x="703" y="303" width="19" height="19" />
</a>
<polyline id="r0"  stroke="rgb(0,0,128)" fill="rgb(0,0,128)" stroke-width="1px" stroke-dasharray="" points="1106, 408,1119, 408,1125, 412,1119, 417,1106, 417,1106, 408" /> 
<polyline id="r0"  stroke="rgb(0,0,0)" fill="none" stroke-width="1px" stroke-dasharray="" points="1106, 408,1119, 408,1125, 412,1119, 417,1106, 417,1106, 408" /> 
<polyline id="r0"  stroke="rgb(0,0,128)" fill="rgb(0,0,128)" stroke-width="1px" stroke-dasharray="" points="1106, 408,1119, 408,1125, 412,1119, 417,1106, 417,1106, 408" /> 
<polyline id="r0"  stroke="rgb(0,0,0)" fill="none" stroke-width="1px" stroke-dasharray="" points="1106, 408,1119, 408,1125, 412,1119, 417,1106, 417,1106, 408" /> 
<polyline id="r0"  stroke="rgb(0,0,0)" fill="none" stroke-width="1px" stroke-dasharray="" points="1100, 412,1106, 412" /> 
<a xlink:href='javascript:parent.location.href="../../alien_game_lib/c1_t1_half_adder/struct_bd.htm"'>
<rect id="r0"  stroke="rgb(0,255,0)" fill="rgb(0,255,0)" stroke-width="1px" stroke-dasharray="" y="188px" x="951px" width="136px" height="137px" rx="0" ry="0" />
</a>
<rect id="r0"  stroke="rgb(0,128,0)" fill="none" stroke-width="3px" stroke-dasharray="" y="188px" x="951px" width="136px" height="137px" rx="0" ry="0" />
<a xlink:href='javascript:parent.location.href="../../alien_game_lib/c1_t1_half_adder/struct_bd.htm"'>
<image xlink:href="BlockDiagram.png" x="953" y="303" width="19" height="19" />
</a>
<polyline id="r0"  stroke="rgb(0,0,0)" fill="none" stroke-width="1px" stroke-dasharray="" points="69, 362,75, 362" /> 
<polyline id="r0"  stroke="rgb(0,0,0)" fill="none" stroke-width="1px" stroke-dasharray="" points="1100, 412,1106, 412" /> 
<polyline id="r0"  stroke="rgb(0,0,0)" fill="none" stroke-width="1px" stroke-dasharray="" points="112, 200,112, 200" /> 
<a xlink:href='javascript:parent.location.href="../../alien_game_lib/c1_t1_half_adder/struct_bd.htm"'>
<polyline id="r0"  stroke="rgb(0,255,0)" fill="rgb(0,255,0)" stroke-width="1px" stroke-dasharray="" points="175, 250,166, 255,166, 245,175, 250" /> 
</a>
<polyline id="r0"  stroke="rgb(0,0,0)" fill="none" stroke-width="1px" stroke-dasharray="" points="175, 250,166, 255,166, 245,175, 250" /> 
<a xlink:href='javascript:parent.location.href="../../alien_game_lib/c1_t1_half_adder/struct_bd.htm"'>
<polyline id="r0"  stroke="rgb(0,255,0)" fill="rgb(0,255,0)" stroke-width="1px" stroke-dasharray="" points="175, 200,166, 205,166, 195,175, 200" /> 
</a>
<polyline id="r0"  stroke="rgb(0,0,0)" fill="none" stroke-width="1px" stroke-dasharray="" points="175, 200,166, 205,166, 195,175, 200" /> 
<a xlink:href='javascript:parent.location.href="../../alien_game_lib/c1_t1_half_adder/struct_bd.htm"'>
<polyline id="r0"  stroke="rgb(0,255,0)" fill="rgb(0,255,0)" stroke-width="1px" stroke-dasharray="" points="322, 200,312, 205,312, 195,322, 200" /> 
</a>
<polyline id="r0"  stroke="rgb(0,0,0)" fill="none" stroke-width="1px" stroke-dasharray="" points="322, 200,312, 205,312, 195,322, 200" /> 
<a xlink:href='javascript:parent.location.href="../../alien_game_lib/c1_t1_half_adder/struct_bd.htm"'>
<polyline id="r0"  stroke="rgb(0,255,0)" fill="rgb(0,255,0)" stroke-width="1px" stroke-dasharray="" points="212, 334,208, 325,217, 325,212, 334" /> 
</a>
<polyline id="r0"  stroke="rgb(0,0,0)" fill="none" stroke-width="1px" stroke-dasharray="" points="212, 334,208, 325,217, 325,212, 334" /> 
<a xlink:href='javascript:parent.location.href="../../alien_game_lib/c1_t1_half_adder/struct_bd.htm"'>
<polyline id="r0"  stroke="rgb(0,255,0)" fill="rgb(0,255,0)" stroke-width="1px" stroke-dasharray="" points="437, 250,428, 255,428, 245,437, 250" /> 
</a>
<polyline id="r0"  stroke="rgb(0,0,0)" fill="none" stroke-width="1px" stroke-dasharray="" points="437, 250,428, 255,428, 245,437, 250" /> 
<a xlink:href='javascript:parent.location.href="../../alien_game_lib/c1_t1_half_adder/struct_bd.htm"'>
<polyline id="r0"  stroke="rgb(0,255,0)" fill="rgb(0,255,0)" stroke-width="1px" stroke-dasharray="" points="437, 200,428, 205,428, 195,437, 200" /> 
</a>
<polyline id="r0"  stroke="rgb(0,0,0)" fill="none" stroke-width="1px" stroke-dasharray="" points="437, 200,428, 205,428, 195,437, 200" /> 
<a xlink:href='javascript:parent.location.href="../../alien_game_lib/c1_t1_half_adder/struct_bd.htm"'>
<polyline id="r0"  stroke="rgb(0,255,0)" fill="rgb(0,255,0)" stroke-width="1px" stroke-dasharray="" points="584, 200,575, 205,575, 195,584, 200" /> 
</a>
<polyline id="r0"  stroke="rgb(0,0,0)" fill="none" stroke-width="1px" stroke-dasharray="" points="584, 200,575, 205,575, 195,584, 200" /> 
<a xlink:href='javascript:parent.location.href="../../alien_game_lib/c1_t1_half_adder/struct_bd.htm"'>
<polyline id="r0"  stroke="rgb(0,255,0)" fill="rgb(0,255,0)" stroke-width="1px" stroke-dasharray="" points="475, 334,470, 325,480, 325,475, 334" /> 
</a>
<polyline id="r0"  stroke="rgb(0,0,0)" fill="none" stroke-width="1px" stroke-dasharray="" points="475, 334,470, 325,480, 325,475, 334" /> 
<a xlink:href='javascript:parent.location.href="../../alien_game_lib/c1_t1_half_adder/struct_bd.htm"'>
<polyline id="r0"  stroke="rgb(0,255,0)" fill="rgb(0,255,0)" stroke-width="1px" stroke-dasharray="" points="700, 250,691, 255,691, 245,700, 250" /> 
</a>
<polyline id="r0"  stroke="rgb(0,0,0)" fill="none" stroke-width="1px" stroke-dasharray="" points="700, 250,691, 255,691, 245,700, 250" /> 
<a xlink:href='javascript:parent.location.href="../../alien_game_lib/c1_t1_half_adder/struct_bd.htm"'>
<polyline id="r0"  stroke="rgb(0,255,0)" fill="rgb(0,255,0)" stroke-width="1px" stroke-dasharray="" points="700, 200,691, 205,691, 195,700, 200" /> 
</a>
<polyline id="r0"  stroke="rgb(0,0,0)" fill="none" stroke-width="1px" stroke-dasharray="" points="700, 200,691, 205,691, 195,700, 200" /> 
<a xlink:href='javascript:parent.location.href="../../alien_game_lib/c1_t1_half_adder/struct_bd.htm"'>
<polyline id="r0"  stroke="rgb(0,255,0)" fill="rgb(0,255,0)" stroke-width="1px" stroke-dasharray="" points="847, 200,837, 205,837, 195,847, 200" /> 
</a>
<polyline id="r0"  stroke="rgb(0,0,0)" fill="none" stroke-width="1px" stroke-dasharray="" points="847, 200,837, 205,837, 195,847, 200" /> 
<a xlink:href='javascript:parent.location.href="../../alien_game_lib/c1_t1_half_adder/struct_bd.htm"'>
<polyline id="r0"  stroke="rgb(0,255,0)" fill="rgb(0,255,0)" stroke-width="1px" stroke-dasharray="" points="737, 334,733, 325,742, 325,737, 334" /> 
</a>
<polyline id="r0"  stroke="rgb(0,0,0)" fill="none" stroke-width="1px" stroke-dasharray="" points="737, 334,733, 325,742, 325,737, 334" /> 
<a xlink:href='javascript:parent.location.href="../../alien_game_lib/c1_t1_half_adder/struct_bd.htm"'>
<polyline id="r0"  stroke="rgb(0,255,0)" fill="rgb(0,255,0)" stroke-width="1px" stroke-dasharray="" points="950, 250,941, 255,941, 245,950, 250" /> 
</a>
<polyline id="r0"  stroke="rgb(0,0,0)" fill="none" stroke-width="1px" stroke-dasharray="" points="950, 250,941, 255,941, 245,950, 250" /> 
<a xlink:href='javascript:parent.location.href="../../alien_game_lib/c1_t1_half_adder/struct_bd.htm"'>
<polyline id="r0"  stroke="rgb(0,255,0)" fill="rgb(0,255,0)" stroke-width="1px" stroke-dasharray="" points="950, 200,941, 205,941, 195,950, 200" /> 
</a>
<polyline id="r0"  stroke="rgb(0,0,0)" fill="none" stroke-width="1px" stroke-dasharray="" points="950, 200,941, 205,941, 195,950, 200" /> 
<a xlink:href='javascript:parent.location.href="../../alien_game_lib/c1_t1_half_adder/struct_bd.htm"'>
<polyline id="r0"  stroke="rgb(0,255,0)" fill="rgb(0,255,0)" stroke-width="1px" stroke-dasharray="" points="1097, 200,1087, 205,1087, 195,1097, 200" /> 
</a>
<polyline id="r0"  stroke="rgb(0,0,0)" fill="none" stroke-width="1px" stroke-dasharray="" points="1097, 200,1087, 205,1087, 195,1097, 200" /> 
<a xlink:href='javascript:parent.location.href="../../alien_game_lib/c1_t1_half_adder/struct_bd.htm"'>
<polyline id="r0"  stroke="rgb(0,255,0)" fill="rgb(0,255,0)" stroke-width="1px" stroke-dasharray="" points="987, 334,983, 325,992, 325,987, 334" /> 
</a>
<polyline id="r0"  stroke="rgb(0,0,0)" fill="none" stroke-width="1px" stroke-dasharray="" points="987, 334,983, 325,992, 325,987, 334" /> 
<circle id="r0"  stroke="rgb(255,255,255)" fill="rgb(255,255,255)" stroke-width="1px" stroke-dasharray="" cx="950" cy="362" r="5"/> 
<circle stroke="rgb(255,0,0)" fill="none" stroke-width="1px" stroke-dasharray="" cx="950" cy="362" r="5"/> 
<line id="r0" stroke="rgb(0,0,0)" x1="87" y1="362" x2="100" y2="350" stroke-width="1px" />
<line id="r0" stroke="rgb(0,0,0)" x1="387" y1="362" x2="375" y2="350" stroke-width="1px" />
<line id="r0" stroke="rgb(0,0,0)" x1="662" y1="362" x2="650" y2="350" stroke-width="1px" />
<line id="r0" stroke="rgb(0,0,0)" x1="912" y1="362" x2="900" y2="350" stroke-width="1px" />
<circle id="r0"  stroke="rgb(255,255,255)" fill="rgb(255,255,255)" stroke-width="1px" stroke-dasharray="" cx="125" cy="412" r="5"/> 
<circle stroke="rgb(255,0,0)" fill="none" stroke-width="1px" stroke-dasharray="" cx="125" cy="412" r="5"/> 
<line id="r0" stroke="rgb(0,0,0)" x1="487" y1="412" x2="475" y2="400" stroke-width="1px" />
<line id="r0" stroke="rgb(0,0,0)" x1="750" y1="412" x2="737" y2="400" stroke-width="1px" />
<line id="r0" stroke="rgb(0,0,0)" x1="225" y1="412" x2="212" y2="400" stroke-width="1px" />
<line id="r0" stroke="rgb(0,0,0)" x1="1000" y1="412" x2="987" y2="400" stroke-width="1px" />
<text x="740" y="260" font-family="arial" fill="rgb(0,0,0)" font-weight="800" font-size="10" text-anchor="start">alien_game_lib</text>
<text x="740" y="272" font-family="arial" fill="rgb(0,0,0)" font-weight="800" font-size="10" text-anchor="start">c1_t1_half_adder</text>
<text x="215" y="285" font-family="arial" fill="rgb(0,0,0)" font-weight="800" font-size="10" text-anchor="start">c1_t1_half_adder</text>
<text x="477" y="285" font-family="arial" fill="rgb(0,0,0)" font-weight="800" font-size="10" text-anchor="start">U_10</text>
<text x="740" y="285" font-family="arial" fill="rgb(0,0,0)" font-weight="800" font-size="10" text-anchor="start">U_11</text>
<text x="275" y="75" font-family="Courier New" fill="rgb(0,0,0)" font-size="10" text-anchor="start">SIGNAL carry1 : std_logic</text>
<text x="275" y="32" font-family="Courier New" fill="rgb(0,0,0)" font-size="10" text-anchor="start">x      : std_logic_vector(3 DOWNTO 0)</text>
<text x="275" y="42" font-family="Courier New" fill="rgb(0,0,0)" font-size="10" text-anchor="start">y      : std_logic_vector(3 DOWNTO 0)</text>
<text x="275" y="65" font-family="Courier New" fill="rgb(0,0,0)" font-size="10" text-anchor="start">SIGNAL carry  : std_logic</text>
<text x="275" y="95" font-family="Courier New" fill="rgb(0,0,0)" font-size="10" text-anchor="start">SIGNAL dout   : std_logic</text>
<text x="275" y="85" font-family="Courier New" fill="rgb(0,0,0)" font-size="10" text-anchor="start">SIGNAL carry2 : std_logic</text>
<text x="0" y="10" font-family="arial" fill="rgb(0,0,0)" font-weight="800" font-size="10" text-anchor="start">Package List</text>
<text x="0" y="22" font-family="arial" fill="rgb(0,0,0)" font-size="10" text-anchor="start">LIBRARY ieee;</text>
<text x="0" y="35" font-family="arial" fill="rgb(0,0,0)" font-size="10" text-anchor="start">USE ieee.std_logic_1164.all;</text>
<text x="0" y="47" font-family="arial" fill="rgb(0,0,0)" font-size="10" text-anchor="start">USE ieee.std_logic_arith.all;</text>
<text x="250" y="10" font-family="arial" fill="rgb(0,0,0)" font-weight="800" font-size="10" text-anchor="start">Declarations</text>
<text x="250" y="22" font-family="arial" fill="rgb(0,0,0)" font-weight="800" font-size="10" text-anchor="start">Ports:</text>
<text x="250" y="55" font-family="arial" fill="rgb(0,0,0)" font-weight="800" font-size="10" text-anchor="start">Diagram Signals:</text>
<text x="79" y="224" font-family="arial" fill="rgb(0,0,0)" font-size="10" text-anchor="start">constval</text>
<text x="79" y="236" font-family="arial" fill="rgb(0,0,0)" font-size="10" text-anchor="start">U_9</text>
<text x="215" y="272" font-family="arial" fill="rgb(0,0,0)" font-weight="800" font-size="10" text-anchor="start">alien_game_lib</text>
<text x="187" y="254" font-family="arial" fill="rgb(0,0,0)" font-size="10" text-anchor="start">sw0</text>
<text x="187" y="204" font-family="arial" fill="rgb(0,0,0)" font-size="10" text-anchor="start">sw1</text>
<text x="300" y="204" font-family="arial" fill="rgb(0,0,0)" font-size="10" text-anchor="end">carry</text>
<text x="128" y="247" font-family="arial" fill="rgb(0,0,0)" font-size="10" text-anchor="start">x(0)</text>
<text x="347" y="197" font-family="arial" fill="rgb(0,0,0)" font-size="10" text-anchor="start">carry</text>
<text x="477" y="260" font-family="arial" fill="rgb(0,0,0)" font-weight="800" font-size="10" text-anchor="start">alien_game_lib</text>
<text x="477" y="272" font-family="arial" fill="rgb(0,0,0)" font-weight="800" font-size="10" text-anchor="start">c1_t1_half_adder</text>
<text x="450" y="254" font-family="arial" fill="rgb(0,0,0)" font-size="10" text-anchor="start">sw0</text>
<text x="450" y="204" font-family="arial" fill="rgb(0,0,0)" font-size="10" text-anchor="start">sw1</text>
<text x="562" y="204" font-family="arial" fill="rgb(0,0,0)" font-size="10" text-anchor="end">carry</text>
<text x="712" y="254" font-family="arial" fill="rgb(0,0,0)" font-size="10" text-anchor="start">sw0</text>
<text x="712" y="204" font-family="arial" fill="rgb(0,0,0)" font-size="10" text-anchor="start">sw1</text>
<text x="391" y="247" font-family="arial" fill="rgb(0,0,0)" font-size="10" text-anchor="start">x(1)</text>
<text x="653" y="247" font-family="arial" fill="rgb(0,0,0)" font-size="10" text-anchor="start">x(2)</text>
<text x="609" y="197" font-family="arial" fill="rgb(0,0,0)" font-size="10" text-anchor="start">carry1</text>
<text x="37" y="366" font-family="arial" fill="rgb(0,0,0)" font-size="10" text-anchor="end">x</text>
<text x="215" y="297" font-family="arial" fill="rgb(0,0,0)" font-weight="800" font-size="10" text-anchor="start">U_8</text>
<text x="200" y="310" font-family="arial" fill="rgb(0,0,0)" font-size="10" text-anchor="start">sum</text>
<text x="0" y="0" font-family="arial" fill="rgb(0,0,0)" transform="translate(187,382) rotate(270)" font-size="10" >y(0)</text>
<text x="452" y="610" font-family="Arial" fill="rgb(0,0,128)" font-size="10" text-anchor="start">by mqange on 22 marras 2022</text>
<text x="665" y="560" font-family="Arial" fill="rgb(0,0,128)" font-size="10" text-anchor="start">Project:</text>
<text x="452" y="585" font-family="Arial" fill="rgb(0,0,128)" font-size="10" text-anchor="start">&#0060;enter diagram title here&#0062;</text>
<text x="402" y="585" font-family="Arial" fill="rgb(0,0,128)" font-size="10" text-anchor="start">Title:</text>
<text x="665" y="575" font-family="Arial" fill="rgb(0,0,128)" font-size="10" text-anchor="start">&#0060;enter comments here&#0062;</text>
<text x="715" y="560" font-family="Arial" fill="rgb(0,0,128)" font-size="10" text-anchor="start">alien_game</text>
<text x="531" y="566" font-family="Arial" fill="rgb(127,0,0)" font-size="10" text-anchor="middle">&#0060;company name&#0062;</text>
<text x="402" y="597" font-family="Arial" fill="rgb(0,0,128)" font-size="10" text-anchor="start">Path:</text>
<text x="402" y="610" font-family="Arial" fill="rgb(0,0,128)" font-size="10" text-anchor="start">Edited:</text>
<text x="452" y="597" font-family="Arial" fill="rgb(0,0,128)" font-size="10" text-anchor="start">alien_game_lib/incrementer_4_bit/struct</text>
<text x="462" y="310" font-family="arial" fill="rgb(0,0,0)" font-size="10" text-anchor="start">sum</text>
<text x="725" y="310" font-family="arial" fill="rgb(0,0,0)" font-size="10" text-anchor="start">sum</text>
<text x="0" y="0" font-family="arial" fill="rgb(0,0,0)" transform="translate(462,382) rotate(270)" font-size="10" >y(1)</text>
<text x="0" y="0" font-family="arial" fill="rgb(0,0,0)" transform="translate(724,382) rotate(270)" font-size="10" >y(2)</text>
<text x="825" y="204" font-family="arial" fill="rgb(0,0,0)" font-size="10" text-anchor="end">carry</text>
<text x="1137" y="416" font-family="arial" fill="rgb(0,0,0)" font-size="10" text-anchor="start">y</text>
<text x="990" y="260" font-family="arial" fill="rgb(0,0,0)" font-weight="800" font-size="10" text-anchor="start">alien_game_lib</text>
<text x="990" y="272" font-family="arial" fill="rgb(0,0,0)" font-weight="800" font-size="10" text-anchor="start">c1_t1_half_adder</text>
<text x="990" y="285" font-family="arial" fill="rgb(0,0,0)" font-weight="800" font-size="10" text-anchor="start">U_12</text>
<text x="962" y="254" font-family="arial" fill="rgb(0,0,0)" font-size="10" text-anchor="start">sw0</text>
<text x="962" y="204" font-family="arial" fill="rgb(0,0,0)" font-size="10" text-anchor="start">sw1</text>
<text x="1075" y="204" font-family="arial" fill="rgb(0,0,0)" font-size="10" text-anchor="end">carry</text>
<text x="975" y="310" font-family="arial" fill="rgb(0,0,0)" font-size="10" text-anchor="start">sum</text>
<text x="872" y="197" font-family="arial" fill="rgb(0,0,0)" font-size="10" text-anchor="start">carry2</text>
<text x="0" y="0" font-family="arial" fill="rgb(0,0,0)" transform="translate(974,382) rotate(270)" font-size="10" >y(3)</text>
<text x="903" y="247" font-family="arial" fill="rgb(0,0,0)" font-size="10" text-anchor="start">x(3)</text>
<g id="carry_net" stroke="rgb(0,0,0)" stroke-width="1px"  >
<polyline id="r0"  fill="none"  stroke-dasharray="" points="322, 200,428, 200" /> 
</g>
<g id="carry1_net" stroke="rgb(0,0,0)" stroke-width="1px"  >
<polyline id="r0"  fill="none"  stroke-dasharray="" points="584, 200,691, 200" /> 
</g>
<g id="carry2_net" stroke="rgb(0,0,0)" stroke-width="1px"  >
<polyline id="r0"  fill="none"  stroke-dasharray="" points="847, 200,941, 200" /> 
</g>
<g id="dout_net" stroke="rgb(0,0,0)" stroke-width="1px"  >
<polyline id="r0"  fill="none"  stroke-dasharray="" points="112, 200,166, 200" /> 
</g>
<g id="x_net" stroke="rgb(0,0,0)" stroke-width="3px"  >
<polyline id="r0"  fill="none"  stroke-dasharray="" points="75, 362,950, 362" /> 
<polyline id="r0"  fill="none"  stroke-dasharray="" points="166, 250,100, 250,100, 350" /> 
<polyline id="r0"  fill="none"  stroke-dasharray="" points="428, 250,375, 250,375, 350" /> 
<polyline id="r0"  fill="none"  stroke-dasharray="" points="691, 250,650, 250,650, 350" /> 
<polyline id="r0"  fill="none"  stroke-dasharray="" points="941, 250,900, 250,900, 350" /> 
</g>
<g id="y_net" stroke="rgb(0,0,0)" stroke-width="3px"  >
<polyline id="r0"  fill="none"  stroke-dasharray="" points="1100, 412,125, 412" /> 
<polyline id="r0"  fill="none"  stroke-dasharray="" points="212, 334,212, 400" /> 
<polyline id="r0"  fill="none"  stroke-dasharray="" points="475, 334,475, 400" /> 
<polyline id="r0"  fill="none"  stroke-dasharray="" points="737, 334,737, 400" /> 
<polyline id="r0"  fill="none"  stroke-dasharray="" points="987, 334,987, 400" /> 
</g>
</g>
</svg>
<!-- Create a "titlebox" group so we can reposition it when the SVG moves -->
<g id="titlebox">
<g id="genTime" class="allText normalText">
  <text class="allText smallText" x="300" y="123">Generated on:  1.12.2022 at: 11:39 ip.</text>
</g>

<rect stroke="none" fill="rgb(200,230,240)" opacity="0.4" y="112" x="0" width="914" height="15" />
<!-- Close the "titlebox" group -->
</g>

</g>
</svg>
