<?xml version="1.0" encoding="UTF-8"?>
<!DOCTYPE svg PUBLIC "-//W3C//DTD SVG 1.1//EN" "http://www.w3.org/Graphics/SVG/1.1/DTD/svg11.dtd">
<!-- Created HDS 2004.1a -->


<svg xmlns="http://www.w3.org/2000/svg" xmlns:xlink="http://www.w3.org/1999/xlink" version="1.1">
<script xlink:href="../../scripts/SVGPan.js" />
<g id="viewport" transform="translate(0,-100)">


<title>SVG Image</title>
<desc></desc>


<defs>
<!-- section for CSS stylesheet definitions -->
<style type="text/css"><![CDATA[
.allText {font-family:Sans-Serif;fill:darkcyan;}
.subTitleText {font-size:20;font-weight:bold;}
.normalText {font-size:15;}
.smallText {font-size:12;}
.boldText {font-weight:bold;}
.rightText {text-anchor:end;}
.centerText {text-anchor:middle;}
.dragRect {fill:darkcyan;stroke:none;opacity:0.4;}
]]></style>
<symbol id="upArrow" overflow="visible" style="stroke:darkcyan;fill:darkcyan;stroke-width:1;" pointer-events="none">
<polygon points="5,0 10,5 0,5 5,0" />
</symbol>
<symbol id="leftArrow" overflow="visible" style="stroke:darkcyan;fill:darkcyan;stroke-width:1;" pointer-events="none">
<polygon points="0,5 5,0 5,10 0,5" />
</symbol>
<symbol id="rightArrow" overflow="visible" style="stroke:darkcyan;fill:darkcyan;stroke-width:1;" pointer-events="none">
<polygon points="5,0 10,5 5,10 5,0" />
</symbol>
<symbol id="downArrow" overflow="visible" style="stroke:darkcyan;fill:darkcyan;stroke-width:1;" pointer-events="none">
<polygon points="0,0 5,5 10,0 0,0" />
</symbol>

</defs>
<svg id="mainMap" x="0" y="150" viewBox="0 0 917 617" width="912" height="512">


<clipPath id="SVG_Clip">
<rect x="0" y="0" width="917" height="617" />
</clipPath>
<g id="hds_models" style="clip-path:url(#SVG_Clip)">
<polyline id="r0"  stroke="rgb(102,102,102)" fill="none" stroke-width="3px" stroke-dasharray="" points="162, 162,137, 162" /> 
<polyline id="r0"  stroke="rgb(102,102,102)" fill="none" stroke-width="3px" stroke-dasharray="" points="137, 150,137, 175" /> 
<polyline id="r0"  stroke="rgb(102,102,102)" fill="none" stroke-width="3px" stroke-dasharray="" points="412, 87,387, 87" /> 
<polyline id="r0"  stroke="rgb(102,102,102)" fill="none" stroke-width="3px" stroke-dasharray="" points="387, 75,387, 100" /> 
<polyline id="r0"  stroke="rgb(102,102,102)" fill="none" stroke-width="3px" stroke-dasharray="" points="662, 75,637, 75" /> 
<polyline id="r0"  stroke="rgb(102,102,102)" fill="none" stroke-width="3px" stroke-dasharray="" points="637, 62,637, 87" /> 
<rect id="r0"  stroke="rgb(254,254,179)" fill="rgb(254,254,179)" stroke-width="1px" stroke-dasharray="" y="600px" x="450px" width="212px" height="12px" rx="0" ry="0" />
<rect id="r0"  stroke="rgb(0,0,0)" fill="none" stroke-width="1px" stroke-dasharray="" y="600px" x="450px" width="212px" height="12px" rx="0" ry="0" />
<rect id="r0"  stroke="rgb(254,254,179)" fill="rgb(254,254,179)" stroke-width="1px" stroke-dasharray="" y="550px" x="662px" width="50px" height="12px" rx="0" ry="0" />
<rect id="r0"  stroke="rgb(0,0,0)" fill="none" stroke-width="1px" stroke-dasharray="" y="550px" x="662px" width="50px" height="12px" rx="0" ry="0" />
<rect id="r0"  stroke="rgb(254,254,179)" fill="rgb(254,254,179)" stroke-width="1px" stroke-dasharray="" y="575px" x="450px" width="212px" height="12px" rx="0" ry="0" />
<rect id="r0"  stroke="rgb(0,0,0)" fill="none" stroke-width="1px" stroke-dasharray="" y="575px" x="450px" width="212px" height="12px" rx="0" ry="0" />
<rect id="r0"  stroke="rgb(254,254,179)" fill="rgb(254,254,179)" stroke-width="1px" stroke-dasharray="" y="575px" x="400px" width="50px" height="12px" rx="0" ry="0" />
<rect id="r0"  stroke="rgb(0,0,0)" fill="none" stroke-width="1px" stroke-dasharray="" y="575px" x="400px" width="50px" height="12px" rx="0" ry="0" />
<rect id="r0"  stroke="rgb(254,254,179)" fill="rgb(254,254,179)" stroke-width="1px" stroke-dasharray="" y="562px" x="662px" width="250px" height="50px" rx="0" ry="0" />
<rect id="r0"  stroke="rgb(0,0,0)" fill="none" stroke-width="1px" stroke-dasharray="" y="562px" x="662px" width="250px" height="50px" rx="0" ry="0" />
<rect id="r0"  stroke="rgb(254,254,179)" fill="rgb(254,254,179)" stroke-width="1px" stroke-dasharray="" y="550px" x="712px" width="200px" height="12px" rx="0" ry="0" />
<rect id="r0"  stroke="rgb(0,0,0)" fill="none" stroke-width="1px" stroke-dasharray="" y="550px" x="712px" width="200px" height="12px" rx="0" ry="0" />
<rect id="r0"  stroke="rgb(254,254,179)" fill="rgb(254,254,179)" stroke-width="1px" stroke-dasharray="" y="550px" x="400px" width="262px" height="25px" rx="0" ry="0" />
<rect id="r0"  stroke="rgb(0,0,0)" fill="none" stroke-width="1px" stroke-dasharray="" y="550px" x="400px" width="262px" height="25px" rx="0" ry="0" />
<rect id="r0"  stroke="rgb(254,254,179)" fill="rgb(254,254,179)" stroke-width="1px" stroke-dasharray="" y="587px" x="400px" width="50px" height="13px" rx="0" ry="0" />
<rect id="r0"  stroke="rgb(0,0,0)" fill="none" stroke-width="1px" stroke-dasharray="" y="587px" x="400px" width="50px" height="13px" rx="0" ry="0" />
<rect id="r0"  stroke="rgb(254,254,179)" fill="rgb(254,254,179)" stroke-width="1px" stroke-dasharray="" y="600px" x="400px" width="50px" height="12px" rx="0" ry="0" />
<rect id="r0"  stroke="rgb(0,0,0)" fill="none" stroke-width="1px" stroke-dasharray="" y="600px" x="400px" width="50px" height="12px" rx="0" ry="0" />
<rect id="r0"  stroke="rgb(254,254,179)" fill="rgb(254,254,179)" stroke-width="1px" stroke-dasharray="" y="587px" x="450px" width="212px" height="13px" rx="0" ry="0" />
<rect id="r0"  stroke="rgb(0,0,0)" fill="none" stroke-width="1px" stroke-dasharray="" y="587px" x="450px" width="212px" height="13px" rx="0" ry="0" />
<polyline id="r0"  stroke="rgb(0,0,127)" fill="rgb(0,0,127)" stroke-width="1px" stroke-dasharray="" points="100, 320,113, 320,119, 325,113, 330,100, 330,100, 320" /> 
<polyline id="r0"  stroke="rgb(0,0,0)" fill="none" stroke-width="1px" stroke-dasharray="" points="100, 320,113, 320,119, 325,113, 330,100, 330,100, 320" /> 
<polyline id="r0"  stroke="rgb(0,0,127)" fill="rgb(0,0,127)" stroke-width="1px" stroke-dasharray="" points="100, 320,113, 320,119, 325,113, 330,100, 330,100, 320" /> 
<polyline id="r0"  stroke="rgb(0,0,0)" fill="none" stroke-width="1px" stroke-dasharray="" points="100, 320,113, 320,119, 325,113, 330,100, 330,100, 320" /> 
<polyline id="r0"  stroke="rgb(0,0,0)" fill="none" stroke-width="1px" stroke-dasharray="" points="119, 325,125, 325" /> 
<a xlink:href='javascript:parent.location.href="../../alien_game_lib/c1_t1_half_adder/struct_bd.htm"'>
<rect id="r0"  stroke="rgb(0,255,0)" fill="rgb(0,255,0)" stroke-width="1px" stroke-dasharray="" y="151px" x="226px" width="136px" height="136px" rx="0" ry="0" />
</a>
<rect id="r0"  stroke="rgb(0,128,0)" fill="none" stroke-width="3px" stroke-dasharray="" y="151px" x="226px" width="136px" height="136px" rx="0" ry="0" />
<a xlink:href='javascript:parent.location.href="../../alien_game_lib/c1_t1_half_adder/struct_bd.htm"'>
<image xlink:href="BlockDiagram.png" x="228" y="266" width="19" height="18" />
</a>
<polyline id="r0"  stroke="rgb(0,0,127)" fill="rgb(0,0,127)" stroke-width="1px" stroke-dasharray="" points="869, 370,881, 370,887, 375,881, 380,869, 380,869, 370" /> 
<polyline id="r0"  stroke="rgb(0,0,0)" fill="none" stroke-width="1px" stroke-dasharray="" points="869, 370,881, 370,887, 375,881, 380,869, 380,869, 370" /> 
<polyline id="r0"  stroke="rgb(0,0,127)" fill="rgb(0,0,127)" stroke-width="1px" stroke-dasharray="" points="869, 370,881, 370,887, 375,881, 380,869, 380,869, 370" /> 
<polyline id="r0"  stroke="rgb(0,0,0)" fill="none" stroke-width="1px" stroke-dasharray="" points="869, 370,881, 370,887, 375,881, 380,869, 380,869, 370" /> 
<polyline id="r0"  stroke="rgb(0,0,0)" fill="none" stroke-width="1px" stroke-dasharray="" points="862, 375,869, 375" /> 
<a xlink:href='javascript:parent.location.href="../../alien_game_lib/full_adder/struct_bd.htm"'>
<rect id="r0"  stroke="rgb(0,255,0)" fill="rgb(0,255,0)" stroke-width="1px" stroke-dasharray="" y="126px" x="488px" width="124px" height="86px" rx="0" ry="0" />
</a>
<rect id="r0"  stroke="rgb(0,128,0)" fill="none" stroke-width="3px" stroke-dasharray="" y="126px" x="488px" width="124px" height="86px" rx="0" ry="0" />
<a xlink:href='javascript:parent.location.href="../../alien_game_lib/full_adder/struct_bd.htm"'>
<image xlink:href="BlockDiagram.png" x="491" y="191" width="18" height="18" />
</a>
<a xlink:href='javascript:parent.location.href="../../alien_game_lib/full_adder/struct_bd.htm"'>
<rect id="r0"  stroke="rgb(0,255,0)" fill="rgb(0,255,0)" stroke-width="1px" stroke-dasharray="" y="126px" x="701px" width="124px" height="86px" rx="0" ry="0" />
</a>
<rect id="r0"  stroke="rgb(0,128,0)" fill="none" stroke-width="3px" stroke-dasharray="" y="126px" x="701px" width="124px" height="86px" rx="0" ry="0" />
<a xlink:href='javascript:parent.location.href="../../alien_game_lib/full_adder/struct_bd.htm"'>
<image xlink:href="BlockDiagram.png" x="703" y="191" width="19" height="18" />
</a>
<polyline id="r0"  stroke="rgb(0,0,0)" fill="none" stroke-width="1px" stroke-dasharray="" points="119, 325,125, 325" /> 
<polyline id="r0"  stroke="rgb(0,0,0)" fill="none" stroke-width="1px" stroke-dasharray="" points="862, 375,869, 375" /> 
<polyline id="r0"  stroke="rgb(0,0,0)" fill="none" stroke-width="1px" stroke-dasharray="" points="162, 162,162, 162" /> 
<a xlink:href='javascript:parent.location.href="../../alien_game_lib/c1_t1_half_adder/struct_bd.htm"'>
<polyline id="r0"  stroke="rgb(0,255,0)" fill="rgb(0,255,0)" stroke-width="1px" stroke-dasharray="" points="225, 212,216, 217,216, 208,225, 212" /> 
</a>
<polyline id="r0"  stroke="rgb(0,0,0)" fill="none" stroke-width="1px" stroke-dasharray="" points="225, 212,216, 217,216, 208,225, 212" /> 
<a xlink:href='javascript:parent.location.href="../../alien_game_lib/c1_t1_half_adder/struct_bd.htm"'>
<polyline id="r0"  stroke="rgb(0,255,0)" fill="rgb(0,255,0)" stroke-width="1px" stroke-dasharray="" points="225, 162,216, 167,216, 158,225, 162" /> 
</a>
<polyline id="r0"  stroke="rgb(0,0,0)" fill="none" stroke-width="1px" stroke-dasharray="" points="225, 162,216, 167,216, 158,225, 162" /> 
<a xlink:href='javascript:parent.location.href="../../alien_game_lib/c1_t1_half_adder/struct_bd.htm"'>
<polyline id="r0"  stroke="rgb(0,255,0)" fill="rgb(0,255,0)" stroke-width="1px" stroke-dasharray="" points="372, 162,362, 167,362, 158,372, 162" /> 
</a>
<polyline id="r0"  stroke="rgb(0,0,0)" fill="none" stroke-width="1px" stroke-dasharray="" points="372, 162,362, 167,362, 158,372, 162" /> 
<a xlink:href='javascript:parent.location.href="../../alien_game_lib/c1_t1_half_adder/struct_bd.htm"'>
<polyline id="r0"  stroke="rgb(0,255,0)" fill="rgb(0,255,0)" stroke-width="1px" stroke-dasharray="" points="262, 297,258, 287,267, 287,262, 297" /> 
</a>
<polyline id="r0"  stroke="rgb(0,0,0)" fill="none" stroke-width="1px" stroke-dasharray="" points="262, 297,258, 287,267, 287,262, 297" /> 
<a xlink:href='javascript:parent.location.href="../../alien_game_lib/full_adder/struct_bd.htm"'>
<polyline id="r0"  stroke="rgb(0,255,0)" fill="rgb(0,255,0)" stroke-width="1px" stroke-dasharray="" points="487, 175,478, 180,478, 170,487, 175" /> 
</a>
<polyline id="r0"  stroke="rgb(0,0,0)" fill="none" stroke-width="1px" stroke-dasharray="" points="487, 175,478, 180,478, 170,487, 175" /> 
<a xlink:href='javascript:parent.location.href="../../alien_game_lib/full_adder/struct_bd.htm"'>
<polyline id="r0"  stroke="rgb(0,255,0)" fill="rgb(0,255,0)" stroke-width="1px" stroke-dasharray="" points="487, 150,478, 155,478, 145,487, 150" /> 
</a>
<polyline id="r0"  stroke="rgb(0,0,0)" fill="none" stroke-width="1px" stroke-dasharray="" points="487, 150,478, 155,478, 145,487, 150" /> 
<a xlink:href='javascript:parent.location.href="../../alien_game_lib/full_adder/struct_bd.htm"'>
<polyline id="r0"  stroke="rgb(0,255,0)" fill="rgb(0,255,0)" stroke-width="1px" stroke-dasharray="" points="487, 162,478, 167,478, 158,487, 162" /> 
</a>
<polyline id="r0"  stroke="rgb(0,0,0)" fill="none" stroke-width="1px" stroke-dasharray="" points="487, 162,478, 167,478, 158,487, 162" /> 
<a xlink:href='javascript:parent.location.href="../../alien_game_lib/full_adder/struct_bd.htm"'>
<polyline id="r0"  stroke="rgb(0,255,0)" fill="rgb(0,255,0)" stroke-width="1px" stroke-dasharray="" points="587, 222,583, 212,592, 212,587, 222" /> 
</a>
<polyline id="r0"  stroke="rgb(0,0,0)" fill="none" stroke-width="1px" stroke-dasharray="" points="587, 222,583, 212,592, 212,587, 222" /> 
<a xlink:href='javascript:parent.location.href="../../alien_game_lib/full_adder/struct_bd.htm"'>
<polyline id="r0"  stroke="rgb(0,255,0)" fill="rgb(0,255,0)" stroke-width="1px" stroke-dasharray="" points="622, 150,612, 155,612, 145,622, 150" /> 
</a>
<polyline id="r0"  stroke="rgb(0,0,0)" fill="none" stroke-width="1px" stroke-dasharray="" points="622, 150,612, 155,612, 145,622, 150" /> 
<polyline id="r0"  stroke="rgb(0,0,0)" fill="none" stroke-width="1px" stroke-dasharray="" points="412, 87,412, 87" /> 
<a xlink:href='javascript:parent.location.href="../../alien_game_lib/full_adder/struct_bd.htm"'>
<polyline id="r0"  stroke="rgb(0,255,0)" fill="rgb(0,255,0)" stroke-width="1px" stroke-dasharray="" points="700, 162,691, 167,691, 158,700, 162" /> 
</a>
<polyline id="r0"  stroke="rgb(0,0,0)" fill="none" stroke-width="1px" stroke-dasharray="" points="700, 162,691, 167,691, 158,700, 162" /> 
<a xlink:href='javascript:parent.location.href="../../alien_game_lib/full_adder/struct_bd.htm"'>
<polyline id="r0"  stroke="rgb(0,255,0)" fill="rgb(0,255,0)" stroke-width="1px" stroke-dasharray="" points="700, 137,691, 142,691, 133,700, 137" /> 
</a>
<polyline id="r0"  stroke="rgb(0,0,0)" fill="none" stroke-width="1px" stroke-dasharray="" points="700, 137,691, 142,691, 133,700, 137" /> 
<a xlink:href='javascript:parent.location.href="../../alien_game_lib/full_adder/struct_bd.htm"'>
<polyline id="r0"  stroke="rgb(0,255,0)" fill="rgb(0,255,0)" stroke-width="1px" stroke-dasharray="" points="700, 150,691, 155,691, 145,700, 150" /> 
</a>
<polyline id="r0"  stroke="rgb(0,0,0)" fill="none" stroke-width="1px" stroke-dasharray="" points="700, 150,691, 155,691, 145,700, 150" /> 
<a xlink:href='javascript:parent.location.href="../../alien_game_lib/full_adder/struct_bd.htm"'>
<polyline id="r0"  stroke="rgb(0,255,0)" fill="rgb(0,255,0)" stroke-width="1px" stroke-dasharray="" points="787, 222,783, 212,792, 212,787, 222" /> 
</a>
<polyline id="r0"  stroke="rgb(0,0,0)" fill="none" stroke-width="1px" stroke-dasharray="" points="787, 222,783, 212,792, 212,787, 222" /> 
<a xlink:href='javascript:parent.location.href="../../alien_game_lib/full_adder/struct_bd.htm"'>
<polyline id="r0"  stroke="rgb(0,255,0)" fill="rgb(0,255,0)" stroke-width="1px" stroke-dasharray="" points="834, 150,825, 155,825, 145,834, 150" /> 
</a>
<polyline id="r0"  stroke="rgb(0,0,0)" fill="none" stroke-width="1px" stroke-dasharray="" points="834, 150,825, 155,825, 145,834, 150" /> 
<polyline id="r0"  stroke="rgb(0,0,0)" fill="none" stroke-width="1px" stroke-dasharray="" points="662, 75,662, 75" /> 
<circle id="r0"  stroke="rgb(255,255,255)" fill="rgb(255,255,255)" stroke-width="1px" stroke-dasharray="" cx="124" cy="374" r="4"/> 
<circle stroke="rgb(255,0,0)" fill="none" stroke-width="1px" stroke-dasharray="" cx="125" cy="375" r="5"/> 
<line id="r0" stroke="rgb(0,0,0)" x1="275" y1="375" x2="262" y2="362" stroke-width="1px" />
<line id="r0" stroke="rgb(0,0,0)" x1="600" y1="375" x2="587" y2="362" stroke-width="1px" />
<line id="r0" stroke="rgb(0,0,0)" x1="800" y1="375" x2="787" y2="362" stroke-width="1px" />
<circle id="r0"  stroke="rgb(255,255,255)" fill="rgb(255,255,255)" stroke-width="1px" stroke-dasharray="" cx="724" cy="324" r="4"/> 
<circle stroke="rgb(255,0,0)" fill="none" stroke-width="1px" stroke-dasharray="" cx="725" cy="325" r="5"/> 
<line id="r0" stroke="rgb(0,0,0)" x1="137" y1="325" x2="150" y2="312" stroke-width="1px" />
<line id="r0" stroke="rgb(0,0,0)" x1="450" y1="325" x2="437" y2="312" stroke-width="1px" />
<line id="r0" stroke="rgb(0,0,0)" x1="662" y1="325" x2="675" y2="312" stroke-width="1px" />
<text x="740" y="171" font-family="courier" fill="rgb(0,0,0)" font-weight="800" font-size="10" text-anchor="start">alien_game_lib</text>
<text x="402" y="585" font-family="courier" fill="rgb(0,0,127)" font-size="12" text-anchor="start">Title:</text>
<text x="402" y="597" font-family="courier" fill="rgb(0,0,127)" font-size="12" text-anchor="start">Path:</text>
<text x="402" y="610" font-family="courier" fill="rgb(0,0,127)" font-size="12" text-anchor="start">  &#0060;&#0060;--</text>
<text x="265" y="259" font-family="courier" fill="rgb(0,0,0)" font-weight="800" font-size="10" text-anchor="start">U_8</text>
<text x="392" y="60" font-family="courier" fill="rgb(0,0,0)" font-size="10" text-anchor="start">constval</text>
<text x="392" y="72" font-family="courier" fill="rgb(0,0,0)" font-size="10" text-anchor="start">U_10</text>
<text x="0" y="0" font-family="courier" fill="rgb(0,0,0)" transform="translate(575,269) rotate(270)" font-size="10" >y(1)</text>
<text x="397" y="159" font-family="courier" fill="rgb(0,0,0)" font-size="10" text-anchor="start">carry</text>
<text x="0" y="9" font-family="courier" fill="rgb(0,0,0)" font-weight="800" font-size="10" text-anchor="start">Package List</text>
<text x="0" y="21" font-family="courier" fill="rgb(0,0,0)" font-size="10" text-anchor="start">LIBRARY ieee;</text>
<text x="0" y="32" font-family="courier" fill="rgb(0,0,0)" font-size="10" text-anchor="start">USE ieee.std_logic_1164.all;</text>
<text x="0" y="44" font-family="courier" fill="rgb(0,0,0)" font-size="10" text-anchor="start">USE ieee.std_logic_arith.all;</text>
<text x="129" y="185" font-family="courier" fill="rgb(0,0,0)" font-size="10" text-anchor="start">constval</text>
<text x="129" y="197" font-family="courier" fill="rgb(0,0,0)" font-size="10" text-anchor="start">U_9</text>
<text x="265" y="234" font-family="courier" fill="rgb(0,0,0)" font-weight="800" font-size="10" text-anchor="start">alien_game_lib</text>
<text x="265" y="246" font-family="courier" fill="rgb(0,0,0)" font-weight="800" font-size="10" text-anchor="start">c1_t1_half_adder</text>
<text x="237" y="215" font-family="courier" fill="rgb(0,0,0)" font-size="10" text-anchor="start">sw0</text>
<text x="237" y="165" font-family="courier" fill="rgb(0,0,0)" font-size="10" text-anchor="start">sw1</text>
<text x="350" y="165" font-family="courier" fill="rgb(0,0,0)" font-size="10" text-anchor="end">carry</text>
<text x="178" y="209" font-family="courier" fill="rgb(0,0,0)" font-size="10" text-anchor="start">x(0)</text>
<text x="527" y="171" font-family="courier" fill="rgb(0,0,0)" font-weight="800" font-size="10" text-anchor="start">alien_game_lib</text>
<text x="527" y="184" font-family="courier" fill="rgb(0,0,0)" font-weight="800" font-size="10" text-anchor="start">full_adder</text>
<text x="527" y="196" font-family="courier" fill="rgb(0,0,0)" font-weight="800" font-size="10" text-anchor="start">U_0</text>
<text x="500" y="177" font-family="courier" fill="rgb(0,0,0)" font-size="10" text-anchor="start">x0</text>
<text x="500" y="152" font-family="courier" fill="rgb(0,0,0)" font-size="10" text-anchor="start">x1</text>
<text x="500" y="165" font-family="courier" fill="rgb(0,0,0)" font-size="10" text-anchor="start">x2</text>
<text x="575" y="209" font-family="courier" fill="rgb(0,0,0)" font-size="10" text-anchor="start">sum</text>
<text x="600" y="152" font-family="courier" fill="rgb(0,0,0)" font-size="10" text-anchor="end">cout</text>
<text x="740" y="184" font-family="courier" fill="rgb(0,0,0)" font-weight="800" font-size="10" text-anchor="start">full_adder</text>
<text x="740" y="196" font-family="courier" fill="rgb(0,0,0)" font-weight="800" font-size="10" text-anchor="start">U_1</text>
<text x="712" y="165" font-family="courier" fill="rgb(0,0,0)" font-size="10" text-anchor="start">x0</text>
<text x="712" y="140" font-family="courier" fill="rgb(0,0,0)" font-size="10" text-anchor="start">x1</text>
<text x="712" y="152" font-family="courier" fill="rgb(0,0,0)" font-size="10" text-anchor="start">x2</text>
<text x="775" y="209" font-family="courier" fill="rgb(0,0,0)" font-size="10" text-anchor="start">sum</text>
<text x="812" y="152" font-family="courier" fill="rgb(0,0,0)" font-size="10" text-anchor="end">cout</text>
<text x="642" y="47" font-family="courier" fill="rgb(0,0,0)" font-size="10" text-anchor="start">constval</text>
<text x="642" y="60" font-family="courier" fill="rgb(0,0,0)" font-size="10" text-anchor="start">U_11</text>
<text x="441" y="171" font-family="courier" fill="rgb(0,0,0)" font-size="10" text-anchor="start">x(1)</text>
<text x="653" y="159" font-family="courier" fill="rgb(0,0,0)" font-size="10" text-anchor="start">x(2)</text>
<text x="647" y="146" font-family="courier" fill="rgb(0,0,0)" font-size="10" text-anchor="start">cout</text>
<text x="25" y="509" font-family="courier" fill="rgb(0,0,0)" font-weight="800" font-size="10" text-anchor="start">Declarations</text>
<text x="25" y="521" font-family="courier" fill="rgb(0,0,0)" font-weight="800" font-size="10" text-anchor="start">Ports:</text>
<text x="25" y="554" font-family="courier" fill="rgb(0,0,0)" font-weight="800" font-size="10" text-anchor="start">Diagram Signals:</text>
<text x="87" y="327" font-family="courier" fill="rgb(0,0,0)" font-size="10" text-anchor="end">x</text>
<text x="250" y="271" font-family="courier" fill="rgb(0,0,0)" font-size="10" text-anchor="start">sum</text>
<text x="50" y="544" font-family="courier" fill="rgb(0,0,0)" font-size="10" text-anchor="start">y     : std_logic_vector(2 downto 0)</text>
<text x="50" y="534" font-family="courier" fill="rgb(0,0,0)" font-size="10" text-anchor="start">x     : std_logic_vector(2 downto 0)</text>
<text x="50" y="586" font-family="courier" fill="rgb(0,0,0)" font-size="10" text-anchor="start">SIGNAL dout  : std_logic</text>
<text x="50" y="596" font-family="courier" fill="rgb(0,0,0)" font-size="10" text-anchor="start">SIGNAL dout1 : std_logic</text>
<text x="50" y="566" font-family="courier" fill="rgb(0,0,0)" font-size="10" text-anchor="start">SIGNAL carry : std_logic</text>
<text x="50" y="576" font-family="courier" fill="rgb(0,0,0)" font-size="10" text-anchor="start">SIGNAL cout  : std_logic</text>
<text x="50" y="606" font-family="courier" fill="rgb(0,0,0)" font-size="10" text-anchor="start">SIGNAL dout2 : std_logic</text>
<text x="0" y="0" font-family="courier" fill="rgb(0,0,0)" transform="translate(237,344) rotate(270)" font-size="10" >y(0)</text>
<text x="452" y="610" font-family="courier" fill="rgb(0,0,127)" font-size="12" text-anchor="start">by bbhiwa on 26 syys 2022</text>
<text x="665" y="560" font-family="courier" fill="rgb(0,0,127)" font-size="12" text-anchor="start">  &#0060;&#0060;--</text>
<text x="452" y="585" font-family="courier" fill="rgb(0,0,127)" font-size="12" text-anchor="start">&#0060;enter diagram title here&#0062;</text>
<text x="665" y="575" font-family="courier" fill="rgb(0,0,127)" font-size="12" text-anchor="start">&#0060;enter comments here&#0062;</text>
<text x="715" y="560" font-family="courier" fill="rgb(0,0,127)" font-size="12" text-anchor="start">alien_game</text>
<text x="531" y="566" font-family="courier" fill="rgb(127,0,0)" font-size="12" text-anchor="middle">&#0060;company name&#0062;</text>
<text x="452" y="597" font-family="courier" fill="rgb(0,0,127)" font-size="12" text-anchor="start">  &#0060;&#0060;-- more --&#0062;&#0062;</text>
<text x="0" y="0" font-family="courier" fill="rgb(0,0,0)" transform="translate(775,344) rotate(270)" font-size="10" >y(2)</text>
<text x="900" y="377" font-family="courier" fill="rgb(0,0,0)" font-size="10" text-anchor="start">y</text>
<g id="carry_net" stroke="rgb(0,0,0)" stroke-width="1px"  >
<polyline id="r0"  fill="none"  stroke-dasharray="" points="372, 162,478, 162" /> 
</g>
<g id="cout_net" stroke="rgb(0,0,0)" stroke-width="1px"  >
<polyline id="r0"  fill="none"  stroke-dasharray="" points="622, 150,691, 150" /> 
</g>
<g id="dout_net" stroke="rgb(0,0,0)" stroke-width="1px"  >
<polyline id="r0"  fill="none"  stroke-dasharray="" points="162, 162,216, 162" /> 
</g>
<g id="dout1_net" stroke="rgb(0,0,0)" stroke-width="1px"  >
<polyline id="r0"  fill="none"  stroke-dasharray="" points="412, 87,412, 150,478, 150" /> 
</g>
<g id="dout2_net" stroke="rgb(0,0,0)" stroke-width="1px"  >
<polyline id="r0"  fill="none"  stroke-dasharray="" points="662, 75,662, 137,691, 137" /> 
</g>
<g id="x_net" stroke="rgb(0,0,0)" stroke-width="3px"  >
<polyline id="r0"  fill="none"  stroke-dasharray="" points="125, 325,725, 325" /> 
<polyline id="r0"  fill="none"  stroke-dasharray="" points="216, 212,150, 212,150, 312" /> 
<polyline id="r0"  fill="none"  stroke-dasharray="" points="437, 312,437, 175,478, 175" /> 
<polyline id="r0"  fill="none"  stroke-dasharray="" points="675, 312,675, 162,691, 162" /> 
</g>
<g id="y_net" stroke="rgb(0,0,0)" stroke-width="3px"  >
<polyline id="r0"  fill="none"  stroke-dasharray="" points="862, 375,125, 375" /> 
<polyline id="r0"  fill="none"  stroke-dasharray="" points="262, 297,262, 362" /> 
<polyline id="r0"  fill="none"  stroke-dasharray="" points="587, 222,587, 362" /> 
<polyline id="r0"  fill="none"  stroke-dasharray="" points="787, 222,787, 362" /> 
</g>
</g>
</svg>
<!-- Create a "titlebox" group so we can reposition it when the SVG moves -->
<g id="titlebox">
<g id="genTime" class="allText normalText">
  <text class="allText smallText" x="300" y="123">Generated on: 11/05/22 at: 10:15 PM</text>
</g>

<rect stroke="none" fill="rgb(200,230,240)" opacity="0.4" y="112" x="0" width="914" height="15" />
<!-- Close the "titlebox" group -->
</g>

</g>
</svg>
