<?xml version="1.0" encoding="UTF-8"?>
<!DOCTYPE svg PUBLIC "-//W3C//DTD SVG 1.1//EN" "http://www.w3.org/Graphics/SVG/1.1/DTD/svg11.dtd">
<!-- Created HDS 2004.1a -->


<svg xmlns="http://www.w3.org/2000/svg" xmlns:xlink="http://www.w3.org/1999/xlink" version="1.1">
<script xlink:href="../../scripts/SVGPan.js" />
<g id="viewport" transform="translate(0,-100)">


<title>SVG Image</title>
<desc></desc>


<defs>
<!-- section for CSS stylesheet definitions -->
<style type="text/css"><![CDATA[
.allText {font-family:Sans-Serif;fill:darkcyan;}
.subTitleText {font-size:20;font-weight:bold;}
.normalText {font-size:15;}
.smallText {font-size:12;}
.boldText {font-weight:bold;}
.rightText {text-anchor:end;}
.centerText {text-anchor:middle;}
.dragRect {fill:darkcyan;stroke:none;opacity:0.4;}
]]></style>
<symbol id="upArrow" overflow="visible" style="stroke:darkcyan;fill:darkcyan;stroke-width:1;" pointer-events="none">
<polygon points="5,0 10,5 0,5 5,0" />
</symbol>
<symbol id="leftArrow" overflow="visible" style="stroke:darkcyan;fill:darkcyan;stroke-width:1;" pointer-events="none">
<polygon points="0,5 5,0 5,10 0,5" />
</symbol>
<symbol id="rightArrow" overflow="visible" style="stroke:darkcyan;fill:darkcyan;stroke-width:1;" pointer-events="none">
<polygon points="5,0 10,5 5,10 5,0" />
</symbol>
<symbol id="downArrow" overflow="visible" style="stroke:darkcyan;fill:darkcyan;stroke-width:1;" pointer-events="none">
<polygon points="0,0 5,5 10,0 0,0" />
</symbol>

</defs>
<svg id="mainMap" x="0" y="150" viewBox="0 0 1119 804" width="912" height="512">


<clipPath id="SVG_Clip">
<rect x="0" y="0" width="1119" height="804" />
</clipPath>
<g id="hds_models" style="clip-path:url(#SVG_Clip)">
<polyline id="r0"  stroke="rgb(0,0,0)" fill="none" stroke-width="1px" stroke-dasharray="" points="400, 362,400, 362" /> 
<polyline id="r0"  stroke="rgb(0,0,0)" fill="none" stroke-width="1px" stroke-dasharray="" points="400, 312,400, 312" /> 
<polyline id="r0"  stroke="rgb(0,255,255)" fill="rgb(0,255,255)" stroke-width="1px" stroke-dasharray="" points="425, 362,400, 362,400, 312,425, 312,425, 362" /> 
<polyline id="r0"  stroke="rgb(102,102,102)" fill="none" stroke-width="1px" stroke-dasharray="" points="425, 362,400, 362,400, 312,425, 312" /> 
<path stroke="rgb(0,255,255)" fill="rgb(0,255,255)" stroke-width="1px" stroke-dasharray="" transform="translate(425,337) rotate(0.000000)"
d="M 0.00000 -25.00000 A 25 25 0 0 1 0.00000 25.00000 " /> 
<path stroke="rgb(102,102,102)" fill="none" stroke-width="1px" stroke-dasharray="" transform="translate(425,337) rotate(0.000000)"
d="M 0.00000 -25.00000 A 25 25 0 0 1 0.00000 25.00000 " /> 
<polyline id="r0"  stroke="rgb(0,255,255)" fill="rgb(0,255,255)" stroke-width="1px" stroke-dasharray="" points="487, 424,512, 441,512, 458,487, 474,487, 424,487, 424" /> 
<polyline id="r0"  stroke="rgb(102,102,102)" fill="none" stroke-width="1px" stroke-dasharray="" points="487, 424,512, 441,512, 458,487, 474,487, 424,487, 424" /> 
<polyline id="r0"  stroke="rgb(0,0,0)" fill="none" stroke-width="1px" stroke-dasharray="" points="487, 474,487, 487" /> 
<polyline id="r0"  stroke="rgb(0,0,0)" fill="none" stroke-width="1px" stroke-dasharray="" points="487, 424,487, 412" /> 
<polyline id="r0"  stroke="rgb(0,255,255)" fill="rgb(0,255,255)" stroke-width="1px" stroke-dasharray="" points="612, 424,662, 424,662, 499,612, 499,612, 424,612, 424" /> 
<polyline id="r0"  stroke="rgb(102,102,102)" fill="none" stroke-width="1px" stroke-dasharray="" points="612, 424,662, 424,662, 499,612, 499,612, 424,612, 424" /> 
<polyline id="r0"  stroke="rgb(0,0,0)" fill="none" stroke-width="1px" stroke-dasharray="" points="400, 287,400, 287" /> 
<polyline id="r0"  stroke="rgb(0,0,0)" fill="none" stroke-width="1px" stroke-dasharray="" points="400, 237,400, 237" /> 
<polyline id="r0"  stroke="rgb(0,255,255)" fill="rgb(0,255,255)" stroke-width="1px" stroke-dasharray="" points="425, 287,400, 287,400, 237,425, 237,425, 287" /> 
<polyline id="r0"  stroke="rgb(102,102,102)" fill="none" stroke-width="1px" stroke-dasharray="" points="425, 287,400, 287,400, 237,425, 237" /> 
<path stroke="rgb(0,255,255)" fill="rgb(0,255,255)" stroke-width="1px" stroke-dasharray="" transform="translate(425,262) rotate(0.000000)"
d="M 0.00000 -25.00000 A 25 25 0 0 1 0.00000 25.00000 " /> 
<path stroke="rgb(102,102,102)" fill="none" stroke-width="1px" stroke-dasharray="" transform="translate(425,262) rotate(0.000000)"
d="M 0.00000 -25.00000 A 25 25 0 0 1 0.00000 25.00000 " /> 
<polyline id="r0"  stroke="rgb(102,102,102)" fill="none" stroke-width="3px" stroke-dasharray="" points="525, 274,525, 274" /> 
<polyline id="r0"  stroke="rgb(102,102,102)" fill="none" stroke-width="3px" stroke-dasharray="" points="525, 299,525, 299" /> 
<polyline id="r0"  stroke="rgb(102,102,102)" fill="none" stroke-width="3px" stroke-dasharray="" points="550, 287,575, 287" /> 
<polyline id="r0"  stroke="rgb(192,192,192)" fill="rgb(192,192,192)" stroke-width="1px" stroke-dasharray="" points="525, 274,550, 287,525, 299,525, 274,525, 274" /> 
<polyline id="r0"  stroke="rgb(102,102,102)" fill="none" stroke-width="3px" stroke-dasharray="" points="525, 274,550, 287,525, 299,525, 274,525, 274" /> 
<rect id="r0"  stroke="rgb(254,254,179)" fill="rgb(254,254,179)" stroke-width="1px" stroke-dasharray="" y="762px" x="525px" width="50px" height="12px" rx="0" ry="0" />
<rect id="r0"  stroke="rgb(0,0,0)" fill="none" stroke-width="1px" stroke-dasharray="" y="762px" x="525px" width="50px" height="12px" rx="0" ry="0" />
<rect id="r0"  stroke="rgb(254,254,179)" fill="rgb(254,254,179)" stroke-width="1px" stroke-dasharray="" y="737px" x="525px" width="262px" height="25px" rx="0" ry="0" />
<rect id="r0"  stroke="rgb(0,0,0)" fill="none" stroke-width="1px" stroke-dasharray="" y="737px" x="525px" width="262px" height="25px" rx="0" ry="0" />
<rect id="r0"  stroke="rgb(254,254,179)" fill="rgb(254,254,179)" stroke-width="1px" stroke-dasharray="" y="774px" x="525px" width="50px" height="13px" rx="0" ry="0" />
<rect id="r0"  stroke="rgb(0,0,0)" fill="none" stroke-width="1px" stroke-dasharray="" y="774px" x="525px" width="50px" height="13px" rx="0" ry="0" />
<rect id="r0"  stroke="rgb(254,254,179)" fill="rgb(254,254,179)" stroke-width="1px" stroke-dasharray="" y="787px" x="525px" width="50px" height="12px" rx="0" ry="0" />
<rect id="r0"  stroke="rgb(0,0,0)" fill="none" stroke-width="1px" stroke-dasharray="" y="787px" x="525px" width="50px" height="12px" rx="0" ry="0" />
<a xlink:href='javascript:parent.location.href="../../alien_game_lib/c1_t3_incrementer/struct_bd.htm"'>
<rect id="r0"  stroke="rgb(0,255,0)" fill="rgb(0,255,0)" stroke-width="1px" stroke-dasharray="" y="488px" x="138px" width="124px" height="86px" rx="0" ry="0" />
</a>
<rect id="r0"  stroke="rgb(0,128,0)" fill="none" stroke-width="3px" stroke-dasharray="" y="488px" x="138px" width="124px" height="86px" rx="0" ry="0" />
<polyline id="r0"  stroke="rgb(0,0,128)" fill="rgb(0,0,128)" stroke-width="1px" stroke-dasharray="" points="562, 482,575, 482,581, 487,575, 492,562, 492,562, 482" /> 
<polyline id="r0"  stroke="rgb(0,0,0)" fill="none" stroke-width="1px" stroke-dasharray="" points="562, 482,575, 482,581, 487,575, 492,562, 492,562, 482" /> 
<polyline id="r0"  stroke="rgb(0,0,128)" fill="rgb(0,0,128)" stroke-width="1px" stroke-dasharray="" points="562, 482,575, 482,581, 487,575, 492,562, 492,562, 482" /> 
<polyline id="r0"  stroke="rgb(0,0,0)" fill="none" stroke-width="1px" stroke-dasharray="" points="562, 482,575, 482,581, 487,575, 492,562, 492,562, 482" /> 
<polyline id="r0"  stroke="rgb(0,0,0)" fill="none" stroke-width="1px" stroke-dasharray="" points="581, 487,587, 487" /> 
<a xlink:href='javascript:parent.location.href="../../alien_game_lib/c2_t3_bin2onehot/tbl_tt.htm"'>
<rect id="r0"  stroke="rgb(0,255,0)" fill="rgb(0,255,0)" stroke-width="1px" stroke-dasharray="" y="425px" x="788px" width="112px" height="99px" rx="0" ry="0" />
</a>
<rect id="r0"  stroke="rgb(0,128,0)" fill="none" stroke-width="3px" stroke-dasharray="" y="425px" x="788px" width="112px" height="99px" rx="0" ry="0" />
<polyline id="r0"  stroke="rgb(0,0,128)" fill="rgb(0,0,128)" stroke-width="1px" stroke-dasharray="" points="75, 295,88, 295,94, 299,88, 304,75, 304,75, 295" /> 
<polyline id="r0"  stroke="rgb(0,0,0)" fill="none" stroke-width="1px" stroke-dasharray="" points="75, 295,88, 295,94, 299,88, 304,75, 304,75, 295" /> 
<polyline id="r0"  stroke="rgb(0,0,128)" fill="rgb(0,0,128)" stroke-width="1px" stroke-dasharray="" points="75, 295,88, 295,94, 299,88, 304,75, 304,75, 295" /> 
<polyline id="r0"  stroke="rgb(0,0,0)" fill="none" stroke-width="1px" stroke-dasharray="" points="75, 295,88, 295,94, 299,88, 304,75, 304,75, 295" /> 
<polyline id="r0"  stroke="rgb(0,0,0)" fill="none" stroke-width="1px" stroke-dasharray="" points="94, 299,100, 299" /> 
<a xlink:href='javascript:parent.location.href="../../alien_game_lib/c1_t4_decrementer/struct_bd.htm"'>
<rect id="r0"  stroke="rgb(0,255,0)" fill="rgb(0,255,0)" stroke-width="1px" stroke-dasharray="" y="363px" x="138px" width="124px" height="86px" rx="0" ry="0" />
</a>
<rect id="r0"  stroke="rgb(0,128,0)" fill="none" stroke-width="3px" stroke-dasharray="" y="363px" x="138px" width="124px" height="86px" rx="0" ry="0" />
<a xlink:href='javascript:parent.location.href="../../alien_game_lib/c1_t4_decrementer/struct_bd.htm"'>
<image xlink:href="BlockDiagram.png" x="141" y="428" width="18" height="18" />
</a>
<polyline id="r0"  stroke="rgb(0,0,128)" fill="rgb(0,0,128)" stroke-width="1px" stroke-dasharray="" points="162, 220,175, 220,181, 224,175, 229,162, 229,162, 220" /> 
<polyline id="r0"  stroke="rgb(0,0,0)" fill="none" stroke-width="1px" stroke-dasharray="" points="162, 220,175, 220,181, 224,175, 229,162, 229,162, 220" /> 
<polyline id="r0"  stroke="rgb(0,0,128)" fill="rgb(0,0,128)" stroke-width="1px" stroke-dasharray="" points="162, 220,175, 220,181, 224,175, 229,162, 229,162, 220" /> 
<polyline id="r0"  stroke="rgb(0,0,0)" fill="none" stroke-width="1px" stroke-dasharray="" points="162, 220,175, 220,181, 224,175, 229,162, 229,162, 220" /> 
<polyline id="r0"  stroke="rgb(0,0,0)" fill="none" stroke-width="1px" stroke-dasharray="" points="181, 224,187, 224" /> 
<polyline id="r0"  stroke="rgb(0,0,128)" fill="rgb(0,0,128)" stroke-width="1px" stroke-dasharray="" points="587, 382,600, 382,606, 387,600, 392,587, 392,587, 382" /> 
<polyline id="r0"  stroke="rgb(0,0,0)" fill="none" stroke-width="1px" stroke-dasharray="" points="587, 382,600, 382,606, 387,600, 392,587, 392,587, 382" /> 
<polyline id="r0"  stroke="rgb(0,0,128)" fill="rgb(0,0,128)" stroke-width="1px" stroke-dasharray="" points="587, 382,600, 382,606, 387,600, 392,587, 392,587, 382" /> 
<polyline id="r0"  stroke="rgb(0,0,0)" fill="none" stroke-width="1px" stroke-dasharray="" points="587, 382,600, 382,606, 387,600, 392,587, 392,587, 382" /> 
<polyline id="r0"  stroke="rgb(0,0,0)" fill="none" stroke-width="1px" stroke-dasharray="" points="606, 387,612, 387" /> 
<a xlink:href='javascript:parent.location.href="../../alien_game_lib/c1_t3_incrementer/struct_bd.htm"'>
<image xlink:href="BlockDiagram.png" x="141" y="553" width="18" height="18" />
</a>
<rect id="r0"  stroke="rgb(254,254,179)" fill="rgb(254,254,179)" stroke-width="1px" stroke-dasharray="" y="787px" x="575px" width="212px" height="12px" rx="0" ry="0" />
<rect id="r0"  stroke="rgb(0,0,0)" fill="none" stroke-width="1px" stroke-dasharray="" y="787px" x="575px" width="212px" height="12px" rx="0" ry="0" />
<rect id="r0"  stroke="rgb(254,254,179)" fill="rgb(254,254,179)" stroke-width="1px" stroke-dasharray="" y="737px" x="787px" width="50px" height="12px" rx="0" ry="0" />
<rect id="r0"  stroke="rgb(0,0,0)" fill="none" stroke-width="1px" stroke-dasharray="" y="737px" x="787px" width="50px" height="12px" rx="0" ry="0" />
<rect id="r0"  stroke="rgb(254,254,179)" fill="rgb(254,254,179)" stroke-width="1px" stroke-dasharray="" y="762px" x="575px" width="212px" height="12px" rx="0" ry="0" />
<rect id="r0"  stroke="rgb(0,0,0)" fill="none" stroke-width="1px" stroke-dasharray="" y="762px" x="575px" width="212px" height="12px" rx="0" ry="0" />
<rect id="r0"  stroke="rgb(254,254,179)" fill="rgb(254,254,179)" stroke-width="1px" stroke-dasharray="" y="749px" x="787px" width="250px" height="50px" rx="0" ry="0" />
<rect id="r0"  stroke="rgb(0,0,0)" fill="none" stroke-width="1px" stroke-dasharray="" y="749px" x="787px" width="250px" height="50px" rx="0" ry="0" />
<rect id="r0"  stroke="rgb(254,254,179)" fill="rgb(254,254,179)" stroke-width="1px" stroke-dasharray="" y="737px" x="837px" width="200px" height="12px" rx="0" ry="0" />
<rect id="r0"  stroke="rgb(0,0,0)" fill="none" stroke-width="1px" stroke-dasharray="" y="737px" x="837px" width="200px" height="12px" rx="0" ry="0" />
<rect id="r0"  stroke="rgb(254,254,179)" fill="rgb(254,254,179)" stroke-width="1px" stroke-dasharray="" y="774px" x="575px" width="212px" height="13px" rx="0" ry="0" />
<rect id="r0"  stroke="rgb(0,0,0)" fill="none" stroke-width="1px" stroke-dasharray="" y="774px" x="575px" width="212px" height="13px" rx="0" ry="0" />
<a xlink:href='javascript:parent.location.href="../../alien_game_lib/c2_t3_bin2onehot/tbl_tt.htm"'>
<image xlink:href="TruthTable.png" x="791" y="503" width="18" height="18" />
</a>
<polyline id="r0"  stroke="rgb(0,0,128)" fill="rgb(0,0,128)" stroke-width="1px" stroke-dasharray="" points="981, 495,994, 495,1000, 499,994, 504,981, 504,981, 495" /> 
<polyline id="r0"  stroke="rgb(0,0,0)" fill="none" stroke-width="1px" stroke-dasharray="" points="981, 495,994, 495,1000, 499,994, 504,981, 504,981, 495" /> 
<polyline id="r0"  stroke="rgb(0,0,128)" fill="rgb(0,0,128)" stroke-width="1px" stroke-dasharray="" points="981, 495,994, 495,1000, 499,994, 504,981, 504,981, 495" /> 
<polyline id="r0"  stroke="rgb(0,0,0)" fill="none" stroke-width="1px" stroke-dasharray="" points="981, 495,994, 495,1000, 499,994, 504,981, 504,981, 495" /> 
<polyline id="r0"  stroke="rgb(0,0,0)" fill="none" stroke-width="1px" stroke-dasharray="" points="975, 499,981, 499" /> 
<polyline id="r0"  stroke="rgb(0,0,0)" fill="none" stroke-width="1px" stroke-dasharray="" points="94, 299,100, 299" /> 
<polyline id="r0"  stroke="rgb(0,0,0)" fill="none" stroke-width="1px" stroke-dasharray="" points="181, 224,187, 224" /> 
<polyline id="r0"  stroke="rgb(0,0,0)" fill="none" stroke-width="1px" stroke-dasharray="" points="581, 487,587, 487" /> 
<polyline id="r0"  stroke="rgb(0,0,0)" fill="none" stroke-width="1px" stroke-dasharray="" points="606, 387,612, 387" /> 
<polyline id="r0"  stroke="rgb(0,0,0)" fill="none" stroke-width="1px" stroke-dasharray="" points="975, 499,981, 499" /> 
<circle id="r0"  stroke="rgb(0,0,0)" fill="rgb(0,0,0)" stroke-width="1px" stroke-dasharray="" cx="113" cy="499" r="5"/> 
<circle stroke="rgb(0,0,0)" fill="none" stroke-width="1px" stroke-dasharray="" cx="113" cy="499" r="5"/> 
<circle id="r0"  stroke="rgb(0,0,0)" fill="rgb(0,0,0)" stroke-width="1px" stroke-dasharray="" cx="113" cy="437" r="5"/> 
<circle stroke="rgb(0,0,0)" fill="none" stroke-width="1px" stroke-dasharray="" cx="113" cy="437" r="5"/> 
<circle id="r0"  stroke="rgb(255,255,255)" fill="rgb(255,255,255)" stroke-width="1px" stroke-dasharray="" cx="38" cy="237" r="5"/> 
<circle stroke="rgb(255,0,0)" fill="none" stroke-width="1px" stroke-dasharray="" cx="38" cy="237" r="5"/> 
<line id="r0" stroke="rgb(0,0,0)" x1="38" y1="249" x2="50" y2="262" stroke-width="1px" />
<line id="r0" stroke="rgb(0,0,0)" x1="38" y1="324" x2="50" y2="337" stroke-width="1px" />
<circle id="r0"  stroke="rgb(0,0,0)" fill="rgb(0,0,0)" stroke-width="1px" stroke-dasharray="" cx="950" cy="499" r="5"/> 
<circle stroke="rgb(0,0,0)" fill="none" stroke-width="1px" stroke-dasharray="" cx="950" cy="499" r="5"/> 
<polyline id="r0"  stroke="rgb(0,0,0)" fill="none" stroke-width="1px" stroke-dasharray="" points="462, 337,450, 337" /> 
<polyline id="r0"  stroke="rgb(0,0,0)" fill="none" stroke-width="1px" stroke-dasharray="" points="387, 312,400, 312" /> 
<polyline id="r0"  stroke="rgb(0,0,0)" fill="none" stroke-width="1px" stroke-dasharray="" points="387, 337,389, 337" /> 
<circle id="r0"  stroke="rgb(255,255,255)" fill="rgb(255,255,255)" stroke-width="1px" stroke-dasharray="" cx="394" cy="337" r="5"/> 
<circle stroke="rgb(0,0,0)" fill="none" stroke-width="1px" stroke-dasharray="" cx="394" cy="337" r="5"/> 
<polyline id="r0"  stroke="rgb(0,0,0)" fill="none" stroke-width="1px" stroke-dasharray="" points="387, 362,400, 362" /> 
<polyline id="r0"  stroke="rgb(0,0,0)" fill="none" stroke-width="1px" stroke-dasharray="" points="387, 237,400, 237" /> 
<polyline id="r0"  stroke="rgb(0,0,0)" fill="none" stroke-width="1px" stroke-dasharray="" points="387, 262,389, 262" /> 
<circle id="r0"  stroke="rgb(255,255,255)" fill="rgb(255,255,255)" stroke-width="1px" stroke-dasharray="" cx="394" cy="262" r="5"/> 
<circle stroke="rgb(0,0,0)" fill="none" stroke-width="1px" stroke-dasharray="" cx="394" cy="262" r="5"/> 
<polyline id="r0"  stroke="rgb(0,0,0)" fill="none" stroke-width="1px" stroke-dasharray="" points="387, 287,400, 287" /> 
<circle id="r0"  stroke="rgb(255,255,255)" fill="rgb(255,255,255)" stroke-width="1px" stroke-dasharray="" cx="175" cy="299" r="5"/> 
<circle stroke="rgb(255,0,0)" fill="none" stroke-width="1px" stroke-dasharray="" cx="175" cy="299" r="5"/> 
<line id="r0" stroke="rgb(0,0,0)" x1="162" y1="299" x2="175" y2="312" stroke-width="1px" />
<line id="r0" stroke="rgb(0,0,0)" x1="137" y1="299" x2="150" y2="287" stroke-width="1px" />
<circle id="r0"  stroke="rgb(0,0,0)" fill="rgb(0,0,0)" stroke-width="1px" stroke-dasharray="" cx="300" cy="287" r="5"/> 
<circle stroke="rgb(0,0,0)" fill="none" stroke-width="1px" stroke-dasharray="" cx="300" cy="287" r="5"/> 
<polyline id="r0"  stroke="rgb(0,0,0)" fill="none" stroke-width="1px" stroke-dasharray="" points="462, 262,450, 262" /> 
<polyline id="r0"  stroke="rgb(0,0,0)" fill="none" stroke-width="1px" stroke-dasharray="" points="525, 274,525, 274" /> 
<polyline id="r0"  stroke="rgb(0,0,0)" fill="none" stroke-width="1px" stroke-dasharray="" points="525, 299,525, 299" /> 
<a xlink:href='javascript:parent.location.href="../../alien_game_lib/c1_t4_decrementer/struct_bd.htm"'>
<polyline id="r0"  stroke="rgb(0,255,0)" fill="rgb(0,255,0)" stroke-width="1px" stroke-dasharray="" points="272, 437,262, 442,262, 432,272, 437" /> 
</a>
<polyline id="r0"  stroke="rgb(0,0,0)" fill="none" stroke-width="1px" stroke-dasharray="" points="272, 437,262, 442,262, 432,272, 437" /> 
<a xlink:href='javascript:parent.location.href="../../alien_game_lib/c1_t4_decrementer/struct_bd.htm"'>
<polyline id="r0"  stroke="rgb(0,255,0)" fill="rgb(0,255,0)" stroke-width="1px" stroke-dasharray="" points="137, 374,128, 379,128, 370,137, 374" /> 
</a>
<polyline id="r0"  stroke="rgb(0,0,0)" fill="none" stroke-width="1px" stroke-dasharray="" points="137, 374,128, 379,128, 370,137, 374" /> 
<a xlink:href='javascript:parent.location.href="../../alien_game_lib/c1_t3_incrementer/struct_bd.htm"'>
<polyline id="r0"  stroke="rgb(0,255,0)" fill="rgb(0,255,0)" stroke-width="1px" stroke-dasharray="" points="137, 499,128, 504,128, 495,137, 499" /> 
</a>
<polyline id="r0"  stroke="rgb(0,0,0)" fill="none" stroke-width="1px" stroke-dasharray="" points="137, 499,128, 504,128, 495,137, 499" /> 
<a xlink:href='javascript:parent.location.href="../../alien_game_lib/c1_t3_incrementer/struct_bd.htm"'>
<polyline id="r0"  stroke="rgb(0,255,0)" fill="rgb(0,255,0)" stroke-width="1px" stroke-dasharray="" points="272, 499,262, 504,262, 495,272, 499" /> 
</a>
<polyline id="r0"  stroke="rgb(0,0,0)" fill="none" stroke-width="1px" stroke-dasharray="" points="272, 499,262, 504,262, 495,272, 499" /> 
<polyline id="r0"  stroke="rgb(0,0,0)" fill="none" stroke-width="3px" stroke-dasharray="" points="525, 449,512, 449" /> 
<polyline id="r0"  stroke="rgb(0,0,0)" fill="none" stroke-width="3px" stroke-dasharray="" points="500, 399,500, 433" /> 
<polyline id="r0"  stroke="rgb(0,0,0)" fill="none" stroke-width="3px" stroke-dasharray="" points="475, 412,487, 412" /> 
<polyline id="r0"  stroke="rgb(0,0,0)" fill="none" stroke-width="3px" stroke-dasharray="" points="475, 437,487, 437" /> 
<polyline id="r0"  stroke="rgb(0,0,0)" fill="none" stroke-width="3px" stroke-dasharray="" points="475, 462,487, 462" /> 
<polyline id="r0"  stroke="rgb(0,255,255)" fill="rgb(0,255,255)" stroke-width="1px" stroke-dasharray="" points="475, 487,466, 492,466, 482,475, 487" /> 
<polyline id="r0"  stroke="rgb(0,0,0)" fill="none" stroke-width="1px" stroke-dasharray="" points="475, 487,466, 492,466, 482,475, 487" /> 
<polyline id="r0"  stroke="rgb(0,0,0)" fill="none" stroke-width="1px" stroke-dasharray="" points="475, 487,487, 487" /> 
<polyline id="r0"  stroke="rgb(0,0,0)" fill="none" stroke-width="3px" stroke-dasharray="" points="600, 437,612, 437" /> 
<polyline id="r0"  stroke="rgb(0,0,0)" fill="none" stroke-width="3px" stroke-dasharray="" points="675, 437,662, 437" /> 
<polyline id="r0"  stroke="rgb(0,0,0)" fill="none" stroke-width="1px" stroke-dasharray="" points="600, 487,612, 487" /> 
<polyline id="r0"  stroke="rgb(255,255,255)" fill="rgb(255,255,255)" stroke-width="1px" stroke-dasharray="" points="622, 487,612, 492,612, 482,622, 487" /> 
<polyline id="r0"  stroke="rgb(102,102,102)" fill="none" stroke-width="1px" stroke-dasharray="" points="622, 487,612, 492,612, 482,622, 487" /> 
<polyline id="r0"  stroke="rgb(0,0,0)" fill="none" stroke-width="1px" stroke-dasharray="" points="637, 412,637, 413" /> 
<circle id="r0"  stroke="rgb(255,255,255)" fill="rgb(255,255,255)" stroke-width="1px" stroke-dasharray="" cx="637" cy="418" r="5"/> 
<circle stroke="rgb(102,102,102)" fill="none" stroke-width="1px" stroke-dasharray="" cx="637" cy="418" r="5"/> 
<a xlink:href='javascript:parent.location.href="../../alien_game_lib/c2_t3_bin2onehot/tbl_tt.htm"'>
<polyline id="r0"  stroke="rgb(0,255,0)" fill="rgb(0,255,0)" stroke-width="1px" stroke-dasharray="" points="787, 437,778, 442,778, 432,787, 437" /> 
</a>
<polyline id="r0"  stroke="rgb(0,0,0)" fill="none" stroke-width="1px" stroke-dasharray="" points="787, 437,778, 442,778, 432,787, 437" /> 
<a xlink:href='javascript:parent.location.href="../../alien_game_lib/c2_t3_bin2onehot/tbl_tt.htm"'>
<polyline id="r0"  stroke="rgb(0,255,0)" fill="rgb(0,255,0)" stroke-width="1px" stroke-dasharray="" points="909, 499,900, 504,900, 495,909, 499" /> 
</a>
<polyline id="r0"  stroke="rgb(0,0,0)" fill="none" stroke-width="1px" stroke-dasharray="" points="909, 499,900, 504,900, 495,909, 499" /> 
<circle id="r0"  stroke="rgb(0,0,0)" fill="rgb(0,0,0)" stroke-width="1px" stroke-dasharray="" cx="712" cy="437" r="5"/> 
<circle stroke="rgb(0,0,0)" fill="none" stroke-width="1px" stroke-dasharray="" cx="712" cy="437" r="5"/> 
<text x="875" y="35" font-family="Arial" fill="rgb(0,0,0)" font-size="10" text-anchor="start">btn          : std_logic_vector(3 DOWNTO 0)</text>
<text x="875" y="72" font-family="Arial" fill="rgb(0,0,0)" font-size="10" text-anchor="start">rst_n        : std_logic</text>
<text x="875" y="85" font-family="Arial" fill="rgb(0,0,0)" font-size="10" text-anchor="start">x_coordinate : std_logic_vector(7 DOWNTO 0)</text>
<text x="875" y="47" font-family="Arial" fill="rgb(0,0,0)" font-size="10" text-anchor="start">clk          : std_logic</text>
<text x="875" y="110" font-family="Arial" fill="rgb(0,0,0)" font-size="10" text-anchor="start">SIGNAL din0         : std_logic_vector(2 downto 0)</text>
<text x="875" y="60" font-family="Arial" fill="rgb(0,0,0)" font-size="10" text-anchor="start">enable       : std_logic</text>
<text x="875" y="147" font-family="Arial" fill="rgb(0,0,0)" font-size="10" text-anchor="start">SIGNAL dout         : std_logic_vector(2 downto 0)</text>
<text x="875" y="122" font-family="Arial" fill="rgb(0,0,0)" font-size="10" text-anchor="start">SIGNAL din1         : std_logic</text>
<text x="875" y="135" font-family="Arial" fill="rgb(0,0,0)" font-size="10" text-anchor="start">SIGNAL din2         : std_logic</text>
<text x="875" y="160" font-family="Arial" fill="rgb(0,0,0)" font-size="10" text-anchor="start">SIGNAL dout2        : std_logic_vector(1 DOWNTO 0)</text>
<text x="875" y="172" font-family="Arial" fill="rgb(0,0,0)" font-size="10" text-anchor="start">SIGNAL y            : std_logic_vector(2 downto 0)</text>
<text x="875" y="185" font-family="Arial" fill="rgb(0,0,0)" font-size="10" text-anchor="start">SIGNAL y1           : std_logic_vector(2 downto 0)</text>
<text x="152" y="397" font-family="Arial" fill="rgb(0,0,0)" font-weight="800" font-size="10" text-anchor="start">alien_game_lib</text>
<text x="162" y="135" font-family="Arial" fill="rgb(0,0,0)" font-weight="800" font-size="10" text-anchor="start">Package List</text>
<text x="162" y="147" font-family="Arial" fill="rgb(0,0,0)" font-size="10" text-anchor="start">LIBRARY ieee;</text>
<text x="162" y="160" font-family="Arial" fill="rgb(0,0,0)" font-size="10" text-anchor="start">USE ieee.std_logic_1164.all;</text>
<text x="162" y="172" font-family="Arial" fill="rgb(0,0,0)" font-size="10" text-anchor="start">USE ieee.std_logic_arith.all;</text>
<text x="63" y="303" font-family="Arial" fill="rgb(0,0,0)" font-size="10" text-anchor="end">btn</text>
<text x="150" y="378" font-family="Arial" fill="rgb(0,0,0)" font-size="10" text-anchor="start">x : (2:0)</text>
<text x="150" y="228" font-family="Arial" fill="rgb(0,0,0)" font-size="10" text-anchor="end">enable</text>
<text x="406" y="328" font-family="Arial" fill="rgb(0,0,0)" font-size="10" text-anchor="start">and</text>
<text x="406" y="341" font-family="Arial" fill="rgb(0,0,0)" font-size="10" text-anchor="start">U_11</text>
<text x="406" y="253" font-family="Arial" fill="rgb(0,0,0)" font-size="10" text-anchor="start">and</text>
<text x="406" y="266" font-family="Arial" fill="rgb(0,0,0)" font-size="10" text-anchor="start">U_12</text>
<text x="350" y="309" font-family="Arial" fill="rgb(0,0,0)" font-size="10" text-anchor="start">btn(3)</text>
<text x="350" y="234" font-family="Arial" fill="rgb(0,0,0)" font-size="10" text-anchor="start">btn(1)</text>
<text x="312" y="284" font-family="Arial" fill="rgb(0,0,0)" font-size="10" text-anchor="start">enable</text>
<text x="0" y="222" font-family="Arial" fill="rgb(0,0,0)" font-size="10" text-anchor="start">x_coordinate</text>
<text x="312" y="259" font-family="Arial" fill="rgb(0,0,0)" font-size="10" text-anchor="start">x_coordinate(6)</text>
<text x="312" y="334" font-family="Arial" fill="rgb(0,0,0)" font-size="10" text-anchor="start">x_coordinate(1)</text>
<text x="850" y="10" font-family="Arial" fill="rgb(0,0,0)" font-weight="800" font-size="10" text-anchor="start">Declarations</text>
<text x="850" y="22" font-family="Arial" fill="rgb(0,0,0)" font-weight="800" font-size="10" text-anchor="start">Ports:</text>
<text x="850" y="97" font-family="Arial" fill="rgb(0,0,0)" font-weight="800" font-size="10" text-anchor="start">Diagram Signals:</text>
<text x="575" y="391" font-family="Arial" fill="rgb(0,0,0)" font-size="10" text-anchor="end">rst_n</text>
<text x="536" y="247" font-family="arial" fill="rgb(0,0,0)" font-size="10" text-anchor="start">merge</text>
<text x="536" y="259" font-family="arial" fill="rgb(0,0,0)" font-size="10" text-anchor="start">U_0</text>
<text x="555" y="282" font-family="arial" fill="rgb(0,0,0)" font-size="10" text-anchor="middle">lsb</text>
<text x="555" y="298" font-family="arial" fill="rgb(0,0,0)" font-size="10" text-anchor="middle">msb</text>
<text x="152" y="409" font-family="Arial" fill="rgb(0,0,0)" font-weight="800" font-size="10" text-anchor="start">c1_t4_decrementer</text>
<text x="152" y="422" font-family="Arial" fill="rgb(0,0,0)" font-weight="800" font-size="10" text-anchor="start">U_2</text>
<text x="250" y="441" font-family="Arial" fill="rgb(0,0,0)" font-size="10" text-anchor="end">y : (2:0)</text>
<text x="152" y="522" font-family="Arial" fill="rgb(0,0,0)" font-weight="800" font-size="10" text-anchor="start">alien_game_lib</text>
<text x="152" y="534" font-family="Arial" fill="rgb(0,0,0)" font-weight="800" font-size="10" text-anchor="start">c1_t3_incrementer</text>
<text x="152" y="547" font-family="Arial" fill="rgb(0,0,0)" font-weight="800" font-size="10" text-anchor="start">U_1</text>
<text x="150" y="503" font-family="Arial" fill="rgb(0,0,0)" font-size="10" text-anchor="start">x : (2:0)</text>
<text x="250" y="503" font-family="Arial" fill="rgb(0,0,0)" font-size="10" text-anchor="end">y : (2:0)</text>
<text x="91" y="497" font-family="Arial" fill="rgb(0,0,0)" font-size="10" text-anchor="start">din0</text>
<text x="297" y="434" font-family="Arial" fill="rgb(0,0,0)" font-size="10" text-anchor="start">y : (2:0)</text>
<text x="297" y="497" font-family="Arial" fill="rgb(0,0,0)" font-size="10" text-anchor="start">y1 : (2:0)</text>
<text x="577" y="797" font-family="Arial" fill="rgb(0,0,128)" font-size="10" text-anchor="start">by mqange on 01 joulu 2022</text>
<text x="577" y="772" font-family="Arial" fill="rgb(0,0,128)" font-size="10" text-anchor="start">&#0060;enter diagram title here&#0062;</text>
<text x="656" y="753" font-family="Arial" fill="rgb(127,0,0)" font-size="10" text-anchor="middle">&#0060;company name&#0062;</text>
<text x="577" y="784" font-family="Arial" fill="rgb(0,0,128)" font-size="10" text-anchor="start">alien_game_lib/c4_t1_m2/struct</text>
<text x="675" y="434" font-family="Arial" fill="rgb(0,0,0)" font-size="10" text-anchor="start">din0</text>
<text x="517" y="486" font-family="Arial" fill="rgb(0,0,0)" font-size="10" text-anchor="start">mux</text>
<text x="517" y="498" font-family="Arial" fill="rgb(0,0,0)" font-size="10" text-anchor="start">U_6</text>
<text x="490" y="443" font-family="Arial" fill="rgb(0,0,0)" font-size="10" text-anchor="start">Lo</text>
<text x="490" y="468" font-family="Arial" fill="rgb(0,0,0)" font-size="10" text-anchor="start">Hi</text>
<text x="491" y="456" font-family="Arial" fill="rgb(0,0,0)" font-size="10" text-anchor="start">mux</text>
<text x="550" y="491" font-family="Arial" fill="rgb(0,0,0)" font-size="10" text-anchor="end">clk</text>
<text x="654" y="511" font-family="Arial" fill="rgb(0,0,0)" font-size="10" text-anchor="start">adff</text>
<text x="654" y="523" font-family="Arial" fill="rgb(0,0,0)" font-size="10" text-anchor="start">U_7</text>
<text x="614" y="441" font-family="Arial" fill="rgb(0,0,0)" font-size="10" text-anchor="start">d</text>
<text x="661" y="441" font-family="Arial" fill="rgb(0,0,0)" font-size="10" text-anchor="end">q</text>
<text x="624" y="486" font-family="Arial" fill="rgb(0,0,0)" font-size="10" text-anchor="start">clk</text>
<text x="630" y="436" font-family="Arial" fill="rgb(0,0,0)" font-size="10" text-anchor="start">rst</text>
<text x="450" y="409" font-family="Arial" fill="rgb(0,0,0)" font-size="10" text-anchor="start">din0</text>
<text x="790" y="459" font-family="Arial" fill="rgb(0,0,0)" font-weight="800" font-size="10" text-anchor="start">alien_game_lib</text>
<text x="790" y="472" font-family="Arial" fill="rgb(0,0,0)" font-weight="800" font-size="10" text-anchor="start">c2_t3_bin2onehot</text>
<text x="790" y="484" font-family="Arial" fill="rgb(0,0,0)" font-weight="800" font-size="10" text-anchor="start">U_9</text>
<text x="800" y="441" font-family="Arial" fill="rgb(0,0,0)" font-size="10" text-anchor="start">binary_in : (2:0)</text>
<text x="900" y="503" font-family="Arial" fill="rgb(0,0,0)" font-size="10" text-anchor="end">one_hot_out : (7:0)</text>
<text x="741" y="434" font-family="Arial" fill="rgb(0,0,0)" font-size="10" text-anchor="start">din0</text>
<text x="527" y="772" font-family="Arial" fill="rgb(0,0,128)" font-size="10" text-anchor="start">Title:</text>
<text x="527" y="784" font-family="Arial" fill="rgb(0,0,128)" font-size="10" text-anchor="start">Path:</text>
<text x="527" y="797" font-family="Arial" fill="rgb(0,0,128)" font-size="10" text-anchor="start">Edited:</text>
<text x="790" y="747" font-family="Arial" fill="rgb(0,0,128)" font-size="10" text-anchor="start">Project:</text>
<text x="790" y="762" font-family="Arial" fill="rgb(0,0,128)" font-size="10" text-anchor="start">&#0060;enter comments here&#0062;</text>
<text x="840" y="747" font-family="Arial" fill="rgb(0,0,128)" font-size="10" text-anchor="start">alien_game</text>
<text x="1012" y="503" font-family="Arial" fill="rgb(0,0,0)" font-size="10" text-anchor="start">x_coordinate</text>
<g id="btn_net" stroke="rgb(0,0,0)" stroke-width="3px"  >
<polyline id="r0"  fill="none"  stroke-dasharray="" points="100, 299,175, 299" /> 
<polyline id="r0"  fill="none"  stroke-dasharray="" points="175, 312,387, 312" /> 
<polyline id="r0"  fill="none"  stroke-dasharray="" points="150, 287,200, 237,387, 237" /> 
</g>
<g id="clk_net" stroke="rgb(0,0,0)" stroke-width="1px"  >
<polyline id="r0"  fill="none"  stroke-dasharray="" points="587, 487,600, 487" /> 
</g>
<g id="din0_net" stroke="rgb(0,0,0)" stroke-width="3px"  >
<polyline id="r0"  fill="none"  stroke-dasharray="" points="675, 437,712, 437,712, 624,113, 624,113, 374,128, 374" /> 
<polyline id="r0"  fill="none"  stroke-dasharray="" points="128, 499,113, 499" /> 
<polyline id="r0"  fill="none"  stroke-dasharray="" points="712, 437,778, 437" /> 
<polyline id="r0"  fill="none"  stroke-dasharray="" points="475, 412,475, 374,712, 374,712, 437" /> 
</g>
<g id="din1_net" stroke="rgb(0,0,0)" stroke-width="1px"  >
<polyline id="r0"  fill="none"  stroke-dasharray="" points="525, 274,500, 274,500, 262,462, 262" /> 
</g>
<g id="din2_net" stroke="rgb(0,0,0)" stroke-width="1px"  >
<polyline id="r0"  fill="none"  stroke-dasharray="" points="525, 299,500, 299,500, 337,462, 337" /> 
</g>
<g id="dout_net" stroke="rgb(0,0,0)" stroke-width="3px"  >
<polyline id="r0"  fill="none"  stroke-dasharray="" points="525, 449,562, 449,562, 437,600, 437" /> 
</g>
<g id="dout2_net" stroke="rgb(0,0,0)" stroke-width="3px"  >
<polyline id="r0"  fill="none"  stroke-dasharray="" points="575, 287,600, 287,600, 349,500, 349,500, 399" /> 
</g>
<g id="enable_net" stroke="rgb(0,0,0)" stroke-width="1px"  >
<polyline id="r0"  fill="none"  stroke-dasharray="" points="187, 224,300, 224,300, 362,387, 362" /> 
<polyline id="r0"  fill="none"  stroke-dasharray="" points="387, 287,300, 287" /> 
</g>
<g id="rst_n_net" stroke="rgb(0,0,0)" stroke-width="1px"  >
<polyline id="r0"  fill="none"  stroke-dasharray="" points="612, 387,637, 387,637, 412" /> 
</g>
<g id="x_coordinate_net" stroke="rgb(0,0,0)" stroke-width="3px"  >
<polyline id="r0"  fill="none"  stroke-dasharray="" points="975, 499,909, 499" /> 
<polyline id="r0"  fill="none"  stroke-dasharray="" points="38, 237,38, 699,950, 699,950, 499" /> 
<polyline id="r0"  fill="none"  stroke-dasharray="" points="387, 262,50, 262" /> 
<polyline id="r0"  fill="none"  stroke-dasharray="" points="387, 337,50, 337" /> 
</g>
<g id="y_net" stroke="rgb(0,0,0)" stroke-width="3px"  >
<polyline id="r0"  fill="none"  stroke-dasharray="" points="272, 437,312, 437,312, 462,475, 462" /> 
</g>
<g id="y1_net" stroke="rgb(0,0,0)" stroke-width="3px"  >
<polyline id="r0"  fill="none"  stroke-dasharray="" points="272, 499,387, 499,387, 437,475, 437" /> 
</g>
</g>
</svg>
<!-- Create a "titlebox" group so we can reposition it when the SVG moves -->
<g id="titlebox">
<g id="genTime" class="allText normalText">
  <text class="allText smallText" x="300" y="123">Generated on:  1.12.2022 at: 11:39 ip.</text>
</g>

<rect stroke="none" fill="rgb(200,230,240)" opacity="0.4" y="112" x="0" width="914" height="15" />
<!-- Close the "titlebox" group -->
</g>

</g>
</svg>
