<?xml version="1.0" encoding="UTF-8"?>
<!DOCTYPE svg PUBLIC "-//W3C//DTD SVG 1.1//EN" "http://www.w3.org/Graphics/SVG/1.1/DTD/svg11.dtd">
<!-- Created HDS 2004.1a -->


<svg xmlns="http://www.w3.org/2000/svg" xmlns:xlink="http://www.w3.org/1999/xlink" version="1.1">
<script xlink:href="../../scripts/SVGPan.js" />
<g id="viewport" transform="translate(0,-100)">


<title>SVG Image</title>
<desc></desc>


<defs>
<!-- section for CSS stylesheet definitions -->
<style type="text/css"><![CDATA[
.allText {font-family:Sans-Serif;fill:darkcyan;}
.subTitleText {font-size:20;font-weight:bold;}
.normalText {font-size:15;}
.smallText {font-size:12;}
.boldText {font-weight:bold;}
.rightText {text-anchor:end;}
.centerText {text-anchor:middle;}
.dragRect {fill:darkcyan;stroke:none;opacity:0.4;}
]]></style>
<symbol id="upArrow" overflow="visible" style="stroke:darkcyan;fill:darkcyan;stroke-width:1;" pointer-events="none">
<polygon points="5,0 10,5 0,5 5,0" />
</symbol>
<symbol id="leftArrow" overflow="visible" style="stroke:darkcyan;fill:darkcyan;stroke-width:1;" pointer-events="none">
<polygon points="0,5 5,0 5,10 0,5" />
</symbol>
<symbol id="rightArrow" overflow="visible" style="stroke:darkcyan;fill:darkcyan;stroke-width:1;" pointer-events="none">
<polygon points="5,0 10,5 5,10 5,0" />
</symbol>
<symbol id="downArrow" overflow="visible" style="stroke:darkcyan;fill:darkcyan;stroke-width:1;" pointer-events="none">
<polygon points="0,0 5,5 10,0 0,0" />
</symbol>

</defs>
<svg id="mainMap" x="0" y="150" viewBox="0 0 915 617" width="912" height="512">


<clipPath id="SVG_Clip">
<rect x="0" y="0" width="915" height="617" />
</clipPath>
<g id="hds_models" style="clip-path:url(#SVG_Clip)">
<polyline id="r0"  stroke="rgb(0,0,0)" fill="none" stroke-width="1px" stroke-dasharray="" points="397, 250,397, 250" /> 
<polyline id="r0"  stroke="rgb(0,0,0)" fill="none" stroke-width="1px" stroke-dasharray="" points="397, 200,397, 200" /> 
<polyline id="r0"  stroke="rgb(0,0,0)" fill="none" stroke-width="1px" stroke-dasharray="" points="460, 225,460, 225" /> 
<polyline id="r0"  stroke="rgb(0,0,0)" fill="none" stroke-width="1px" stroke-dasharray="" points="385, 137,385, 137" /> 
<polyline id="r0"  stroke="rgb(0,0,0)" fill="none" stroke-width="1px" stroke-dasharray="" points="385, 87,385, 87" /> 
<polyline id="r0"  stroke="rgb(0,255,255)" fill="rgb(0,255,255)" stroke-width="1px" stroke-dasharray="" points="410, 137,385, 137,385, 87,410, 87,410, 137" /> 
<polyline id="r0"  stroke="rgb(102,102,102)" fill="none" stroke-width="1px" stroke-dasharray="" points="410, 137,385, 137,385, 87,410, 87" /> 
<path stroke="rgb(0,255,255)" fill="rgb(0,255,255)" stroke-width="1px" stroke-dasharray="" transform="translate(410,112) rotate(0.000000)"
d="M 0.00000 -25.00000 A 25 25 0 0 1 0.00000 25.00000 " /> 
<path stroke="rgb(102,102,102)" fill="none" stroke-width="1px" stroke-dasharray="" transform="translate(410,112) rotate(0.000000)"
d="M 0.00000 -25.00000 A 25 25 0 0 1 0.00000 25.00000 " /> 
<polyline id="r0"  stroke="rgb(0,0,128)" fill="rgb(0,0,128)" stroke-width="1px" stroke-dasharray="" points="816, 108,829, 108,835, 112,829, 117,816, 117,816, 108" /> 
<polyline id="r0"  stroke="rgb(0,0,0)" fill="none" stroke-width="1px" stroke-dasharray="" points="816, 108,829, 108,835, 112,829, 117,816, 117,816, 108" /> 
<polyline id="r0"  stroke="rgb(0,0,128)" fill="rgb(0,0,128)" stroke-width="1px" stroke-dasharray="" points="816, 108,829, 108,835, 112,829, 117,816, 117,816, 108" /> 
<polyline id="r0"  stroke="rgb(0,0,0)" fill="none" stroke-width="1px" stroke-dasharray="" points="816, 108,829, 108,835, 112,829, 117,816, 117,816, 108" /> 
<polyline id="r0"  stroke="rgb(0,0,0)" fill="none" stroke-width="1px" stroke-dasharray="" points="810, 112,816, 112" /> 
<polyline id="r0"  stroke="rgb(0,0,128)" fill="rgb(0,0,128)" stroke-width="1px" stroke-dasharray="" points="816, 183,829, 183,835, 187,829, 192,816, 192,816, 183" /> 
<polyline id="r0"  stroke="rgb(0,0,0)" fill="none" stroke-width="1px" stroke-dasharray="" points="816, 183,829, 183,835, 187,829, 192,816, 192,816, 183" /> 
<polyline id="r0"  stroke="rgb(0,0,128)" fill="rgb(0,0,128)" stroke-width="1px" stroke-dasharray="" points="816, 183,829, 183,835, 187,829, 192,816, 192,816, 183" /> 
<polyline id="r0"  stroke="rgb(0,0,0)" fill="none" stroke-width="1px" stroke-dasharray="" points="816, 183,829, 183,835, 187,829, 192,816, 192,816, 183" /> 
<polyline id="r0"  stroke="rgb(0,0,0)" fill="none" stroke-width="1px" stroke-dasharray="" points="810, 187,816, 187" /> 
<polyline id="r0"  stroke="rgb(0,0,128)" fill="rgb(0,0,128)" stroke-width="1px" stroke-dasharray="" points="35, 95,48, 95,54, 100,48, 105,35, 105,35, 95" /> 
<polyline id="r0"  stroke="rgb(0,0,0)" fill="none" stroke-width="1px" stroke-dasharray="" points="35, 95,48, 95,54, 100,48, 105,35, 105,35, 95" /> 
<polyline id="r0"  stroke="rgb(0,0,128)" fill="rgb(0,0,128)" stroke-width="1px" stroke-dasharray="" points="35, 95,48, 95,54, 100,48, 105,35, 105,35, 95" /> 
<polyline id="r0"  stroke="rgb(0,0,0)" fill="none" stroke-width="1px" stroke-dasharray="" points="35, 95,48, 95,54, 100,48, 105,35, 105,35, 95" /> 
<polyline id="r0"  stroke="rgb(0,0,0)" fill="none" stroke-width="1px" stroke-dasharray="" points="54, 100,60, 100" /> 
<polyline id="r0"  stroke="rgb(0,0,128)" fill="rgb(0,0,128)" stroke-width="1px" stroke-dasharray="" points="35, 120,48, 120,54, 125,48, 130,35, 130,35, 120" /> 
<polyline id="r0"  stroke="rgb(0,0,0)" fill="none" stroke-width="1px" stroke-dasharray="" points="35, 120,48, 120,54, 125,48, 130,35, 130,35, 120" /> 
<polyline id="r0"  stroke="rgb(0,0,128)" fill="rgb(0,0,128)" stroke-width="1px" stroke-dasharray="" points="35, 120,48, 120,54, 125,48, 130,35, 130,35, 120" /> 
<polyline id="r0"  stroke="rgb(0,0,0)" fill="none" stroke-width="1px" stroke-dasharray="" points="35, 120,48, 120,54, 125,48, 130,35, 130,35, 120" /> 
<polyline id="r0"  stroke="rgb(0,0,0)" fill="none" stroke-width="1px" stroke-dasharray="" points="54, 125,60, 125" /> 
<rect id="r0"  stroke="rgb(254,254,179)" fill="rgb(254,254,179)" stroke-width="1px" stroke-dasharray="" y="600px" x="447px" width="213px" height="12px" rx="0" ry="0" />
<rect id="r0"  stroke="rgb(0,0,0)" fill="none" stroke-width="1px" stroke-dasharray="" y="600px" x="447px" width="213px" height="12px" rx="0" ry="0" />
<rect id="r0"  stroke="rgb(254,254,179)" fill="rgb(254,254,179)" stroke-width="1px" stroke-dasharray="" y="550px" x="660px" width="50px" height="12px" rx="0" ry="0" />
<rect id="r0"  stroke="rgb(0,0,0)" fill="none" stroke-width="1px" stroke-dasharray="" y="550px" x="660px" width="50px" height="12px" rx="0" ry="0" />
<rect id="r0"  stroke="rgb(254,254,179)" fill="rgb(254,254,179)" stroke-width="1px" stroke-dasharray="" y="575px" x="447px" width="213px" height="12px" rx="0" ry="0" />
<rect id="r0"  stroke="rgb(0,0,0)" fill="none" stroke-width="1px" stroke-dasharray="" y="575px" x="447px" width="213px" height="12px" rx="0" ry="0" />
<rect id="r0"  stroke="rgb(254,254,179)" fill="rgb(254,254,179)" stroke-width="1px" stroke-dasharray="" y="575px" x="397px" width="50px" height="12px" rx="0" ry="0" />
<rect id="r0"  stroke="rgb(0,0,0)" fill="none" stroke-width="1px" stroke-dasharray="" y="575px" x="397px" width="50px" height="12px" rx="0" ry="0" />
<rect id="r0"  stroke="rgb(254,254,179)" fill="rgb(254,254,179)" stroke-width="1px" stroke-dasharray="" y="562px" x="660px" width="250px" height="50px" rx="0" ry="0" />
<rect id="r0"  stroke="rgb(0,0,0)" fill="none" stroke-width="1px" stroke-dasharray="" y="562px" x="660px" width="250px" height="50px" rx="0" ry="0" />
<rect id="r0"  stroke="rgb(254,254,179)" fill="rgb(254,254,179)" stroke-width="1px" stroke-dasharray="" y="550px" x="710px" width="200px" height="12px" rx="0" ry="0" />
<rect id="r0"  stroke="rgb(0,0,0)" fill="none" stroke-width="1px" stroke-dasharray="" y="550px" x="710px" width="200px" height="12px" rx="0" ry="0" />
<rect id="r0"  stroke="rgb(254,254,179)" fill="rgb(254,254,179)" stroke-width="1px" stroke-dasharray="" y="550px" x="397px" width="263px" height="25px" rx="0" ry="0" />
<rect id="r0"  stroke="rgb(0,0,0)" fill="none" stroke-width="1px" stroke-dasharray="" y="550px" x="397px" width="263px" height="25px" rx="0" ry="0" />
<rect id="r0"  stroke="rgb(254,254,179)" fill="rgb(254,254,179)" stroke-width="1px" stroke-dasharray="" y="587px" x="397px" width="50px" height="13px" rx="0" ry="0" />
<rect id="r0"  stroke="rgb(0,0,0)" fill="none" stroke-width="1px" stroke-dasharray="" y="587px" x="397px" width="50px" height="13px" rx="0" ry="0" />
<rect id="r0"  stroke="rgb(254,254,179)" fill="rgb(254,254,179)" stroke-width="1px" stroke-dasharray="" y="600px" x="397px" width="50px" height="12px" rx="0" ry="0" />
<rect id="r0"  stroke="rgb(0,0,0)" fill="none" stroke-width="1px" stroke-dasharray="" y="600px" x="397px" width="50px" height="12px" rx="0" ry="0" />
<rect id="r0"  stroke="rgb(254,254,179)" fill="rgb(254,254,179)" stroke-width="1px" stroke-dasharray="" y="587px" x="447px" width="213px" height="13px" rx="0" ry="0" />
<rect id="r0"  stroke="rgb(0,0,0)" fill="none" stroke-width="1px" stroke-dasharray="" y="587px" x="447px" width="213px" height="13px" rx="0" ry="0" />
<polyline id="r0"  stroke="rgb(0,0,0)" fill="none" stroke-width="1px" stroke-dasharray="" points="810, 112,816, 112" /> 
<polyline id="r0"  stroke="rgb(0,0,0)" fill="none" stroke-width="1px" stroke-dasharray="" points="810, 187,816, 187" /> 
<polyline id="r0"  stroke="rgb(0,0,0)" fill="none" stroke-width="1px" stroke-dasharray="" points="54, 100,60, 100" /> 
<polyline id="r0"  stroke="rgb(0,0,0)" fill="none" stroke-width="1px" stroke-dasharray="" points="54, 125,60, 125" /> 
<polyline id="r0"  stroke="rgb(0,0,0)" fill="none" stroke-width="1px" stroke-dasharray="" points="472, 225,460, 225" /> 
<polyline id="r0"  stroke="rgb(0,0,0)" fill="none" stroke-width="1px" stroke-dasharray="" points="385, 212,405, 212" /> 
<polyline id="r0"  stroke="rgb(0,0,0)" fill="none" stroke-width="1px" stroke-dasharray="" points="385, 237,405, 237" /> 
<polyline id="r0"  stroke="rgb(0,0,0)" fill="none" stroke-width="1px" stroke-dasharray="" points="447, 112,435, 112" /> 
<polyline id="r0"  stroke="rgb(0,0,0)" fill="none" stroke-width="1px" stroke-dasharray="" points="372, 100,385, 100" /> 
<polyline id="r0"  stroke="rgb(0,0,0)" fill="none" stroke-width="1px" stroke-dasharray="" points="372, 125,385, 125" /> 
<circle id="r0"  stroke="rgb(0,0,0)" fill="rgb(0,0,0)" stroke-width="1px" stroke-dasharray="" cx="322" cy="100" r="5"/> 
<circle stroke="rgb(0,0,0)" fill="none" stroke-width="1px" stroke-dasharray="" cx="322" cy="100" r="5"/> 
<circle id="r0"  stroke="rgb(0,0,0)" fill="rgb(0,0,0)" stroke-width="1px" stroke-dasharray="" cx="285" cy="125" r="5"/> 
<circle stroke="rgb(0,0,0)" fill="none" stroke-width="1px" stroke-dasharray="" cx="285" cy="125" r="5"/> 
<path stroke="rgb(102,102,102)" fill="none" stroke-width="1px" stroke-dasharray="" transform="translate(370,225) rotate(0.000000)"
d="M 27.29853 -24.97579 A 37 37 0 0 1 27.29853 24.97579 " /> 
<polyline id="r0"  stroke="rgb(0,255,255)" fill="rgb(0,255,255)" stroke-width="1px" stroke-dasharray="" points="404, 251,405, 250,406, 249,406, 248,407, 247,408, 246,408, 245,409, 244,410, 243,410, 242,411, 241,411, 240,411, 239,412, 238,412, 237,412, 236,413, 235,413, 234,413, 233,413, 232,414, 231,414, 230,414, 229,414, 228,414, 227,414, 226,414, 225,414, 224,414, 223,414, 222,414, 221,414, 220,414, 219,413, 218,413, 217,413, 216,413, 215,412, 214,412, 213,412, 212,411, 211,411, 210,411, 209,410, 208,410, 207,409, 206,408, 205,408, 204,407, 203,406, 202,406, 201,406, 200,406, 200,435, 209,460, 225,436, 238,406, 250" /> 
<path stroke="rgb(102,102,102)" fill="none" stroke-width="1px" stroke-dasharray="" transform="translate(375,225) rotate(0.000000)"
d="M 30.16944 -24.71446 A 39 39 0 0 1 30.16944 24.71446 " /> 
<path stroke="rgb(0,255,255)" fill="rgb(0,255,255)" stroke-width="1px" stroke-dasharray="" transform="translate(408,268) rotate(0.000000)"
d="M -2.00762 -67.97036 A 68 68 0 0 1 52.70391 -42.96857 " /> 
<path stroke="rgb(102,102,102)" fill="none" stroke-width="1px" stroke-dasharray="" transform="translate(407,268) rotate(0.000000)"
d="M -1.97809 -66.97079 A 67 67 0 0 1 51.92885 -42.33668 " /> 
<path stroke="rgb(0,255,255)" fill="rgb(0,255,255)" stroke-width="1px" stroke-dasharray="" transform="translate(407,181) rotate(0.000000)"
d="M 53.77757 44.81042 A 70 70 0 0 1 -1.03281 69.99238 " /> 
<path stroke="rgb(102,102,102)" fill="none" stroke-width="1px" stroke-dasharray="" transform="translate(406,180) rotate(0.000000)"
d="M 53.00932 44.17027 A 69 69 0 0 1 -1.01806 68.99249 " /> 
<text x="335" y="52" font-family="Courier New" fill="rgb(0,0,0)" font-size="10" text-anchor="start">carry : std_logic</text>
<text x="335" y="62" font-family="Courier New" fill="rgb(0,0,0)" font-size="10" text-anchor="start">sum   : std_logic</text>
<text x="335" y="32" font-family="Courier New" fill="rgb(0,0,0)" font-size="10" text-anchor="start">sw0   : std_logic</text>
<text x="335" y="42" font-family="Courier New" fill="rgb(0,0,0)" font-size="10" text-anchor="start">sw1   : std_logic</text>
<text x="60" y="10" font-family="arial" fill="rgb(0,0,0)" font-weight="800" font-size="10" text-anchor="start">Package List</text>
<text x="60" y="22" font-family="arial" fill="rgb(0,0,0)" font-size="10" text-anchor="start">LIBRARY ieee;</text>
<text x="60" y="35" font-family="arial" fill="rgb(0,0,0)" font-size="10" text-anchor="start">USE ieee.std_logic_1164.all;</text>
<text x="60" y="47" font-family="arial" fill="rgb(0,0,0)" font-size="10" text-anchor="start">USE ieee.std_logic_arith.all;</text>
<text x="310" y="10" font-family="arial" fill="rgb(0,0,0)" font-weight="800" font-size="10" text-anchor="start">Declarations</text>
<text x="310" y="22" font-family="arial" fill="rgb(0,0,0)" font-weight="800" font-size="10" text-anchor="start">Ports:</text>
<text x="310" y="75" font-family="arial" fill="rgb(0,0,0)" font-weight="800" font-size="10" text-anchor="start">Diagram Signals:</text>
<text x="23" y="104" font-family="arial" fill="rgb(0,0,0)" font-size="10" text-anchor="end">sw0</text>
<text x="23" y="129" font-family="arial" fill="rgb(0,0,0)" font-size="10" text-anchor="end">sw1</text>
<text x="404" y="254" font-family="arial" fill="rgb(0,0,0)" font-size="10" text-anchor="start">xor</text>
<text x="404" y="266" font-family="arial" fill="rgb(0,0,0)" font-size="10" text-anchor="start">U_0</text>
<text x="391" y="141" font-family="arial" fill="rgb(0,0,0)" font-size="10" text-anchor="start">and</text>
<text x="391" y="154" font-family="arial" fill="rgb(0,0,0)" font-size="10" text-anchor="start">U_1</text>
<text x="347" y="235" font-family="arial" fill="rgb(0,0,0)" font-size="10" text-anchor="start">sw1</text>
<text x="347" y="210" font-family="arial" fill="rgb(0,0,0)" font-size="10" text-anchor="start">sw0</text>
<text x="847" y="116" font-family="arial" fill="rgb(0,0,0)" font-size="10" text-anchor="start">carry</text>
<text x="847" y="191" font-family="arial" fill="rgb(0,0,0)" font-size="10" text-anchor="start">sum</text>
<text x="400" y="585" font-family="Arial" fill="rgb(0,0,128)" font-size="10" text-anchor="start">Title:</text>
<text x="400" y="597" font-family="Arial" fill="rgb(0,0,128)" font-size="10" text-anchor="start">Path:</text>
<text x="400" y="610" font-family="Arial" fill="rgb(0,0,128)" font-size="10" text-anchor="start">Edited:</text>
<text x="450" y="610" font-family="Arial" fill="rgb(0,0,128)" font-size="10" text-anchor="start">by bbhiwa on 16 syys 2022</text>
<text x="662" y="560" font-family="Arial" fill="rgb(0,0,128)" font-size="10" text-anchor="start">Project:</text>
<text x="450" y="585" font-family="Arial" fill="rgb(0,0,128)" font-size="10" text-anchor="start">&#0060;enter diagram title here&#0062;</text>
<text x="662" y="575" font-family="Arial" fill="rgb(0,0,128)" font-size="10" text-anchor="start">&#0060;enter comments here&#0062;</text>
<text x="712" y="560" font-family="Arial" fill="rgb(0,0,128)" font-size="10" text-anchor="start">alien_game</text>
<text x="529" y="566" font-family="Arial" fill="rgb(127,0,0)" font-size="10" text-anchor="middle">&#0060;company name&#0062;</text>
<text x="450" y="597" font-family="Arial" fill="rgb(0,0,128)" font-size="10" text-anchor="start">alien_game_lib/c1_t1_half_adder/struct</text>
<g id="carry_net" stroke="rgb(0,0,0)" stroke-width="1px"  >
<polyline id="r0"  fill="none"  stroke-dasharray="" points="810, 112,447, 112" /> 
</g>
<g id="sum_net" stroke="rgb(0,0,0)" stroke-width="1px"  >
<polyline id="r0"  fill="none"  stroke-dasharray="" points="810, 187,685, 187,685, 225,472, 225" /> 
</g>
<g id="sw0_net" stroke="rgb(0,0,0)" stroke-width="1px"  >
<polyline id="r0"  fill="none"  stroke-dasharray="" points="60, 100,372, 100" /> 
<polyline id="r0"  fill="none"  stroke-dasharray="" points="322, 100,322, 212,385, 212" /> 
</g>
<g id="sw1_net" stroke="rgb(0,0,0)" stroke-width="1px"  >
<polyline id="r0"  fill="none"  stroke-dasharray="" points="60, 125,372, 125" /> 
<polyline id="r0"  fill="none"  stroke-dasharray="" points="285, 125,285, 237,385, 237" /> 
</g>
</g>
</svg>
<!-- Create a "titlebox" group so we can reposition it when the SVG moves -->
<g id="titlebox">
<g id="genTime" class="allText normalText">
  <text class="allText smallText" x="300" y="123">Generated on: 26.09.2022 at: 12:11 ip.</text>
</g>

<rect stroke="none" fill="rgb(200,230,240)" opacity="0.4" y="112" x="0" width="914" height="15" />
<!-- Close the "titlebox" group -->
</g>

</g>
</svg>
