<?xml version="1.0" encoding="UTF-8"?>
<!DOCTYPE svg PUBLIC "-//W3C//DTD SVG 1.1//EN" "http://www.w3.org/Graphics/SVG/1.1/DTD/svg11.dtd">
<!-- Created HDS 2004.1a -->


<svg xmlns="http://www.w3.org/2000/svg" xmlns:xlink="http://www.w3.org/1999/xlink" version="1.1">
<script xlink:href="../../scripts/SVGPan.js" />
<g id="viewport" transform="translate(0,-100)">


<title>SVG Image</title>
<desc></desc>


<defs>
<!-- section for CSS stylesheet definitions -->
<style type="text/css"><![CDATA[
.allText {font-family:Sans-Serif;fill:darkcyan;}
.subTitleText {font-size:20;font-weight:bold;}
.normalText {font-size:15;}
.smallText {font-size:12;}
.boldText {font-weight:bold;}
.rightText {text-anchor:end;}
.centerText {text-anchor:middle;}
.dragRect {fill:darkcyan;stroke:none;opacity:0.4;}
]]></style>
<symbol id="upArrow" overflow="visible" style="stroke:darkcyan;fill:darkcyan;stroke-width:1;" pointer-events="none">
<polygon points="5,0 10,5 0,5 5,0" />
</symbol>
<symbol id="leftArrow" overflow="visible" style="stroke:darkcyan;fill:darkcyan;stroke-width:1;" pointer-events="none">
<polygon points="0,5 5,0 5,10 0,5" />
</symbol>
<symbol id="rightArrow" overflow="visible" style="stroke:darkcyan;fill:darkcyan;stroke-width:1;" pointer-events="none">
<polygon points="5,0 10,5 5,10 5,0" />
</symbol>
<symbol id="downArrow" overflow="visible" style="stroke:darkcyan;fill:darkcyan;stroke-width:1;" pointer-events="none">
<polygon points="0,0 5,5 10,0 0,0" />
</symbol>

</defs>
<svg id="mainMap" x="0" y="150" viewBox="0 0 917 617" width="912" height="512">


<clipPath id="SVG_Clip">
<rect x="0" y="0" width="917" height="617" />
</clipPath>
<g id="hds_models" style="clip-path:url(#SVG_Clip)">
<polyline id="r0"  stroke="rgb(102,102,102)" fill="none" stroke-width="3px" stroke-dasharray="" points="50, 375,25, 375" /> 
<polyline id="r0"  stroke="rgb(102,102,102)" fill="none" stroke-width="3px" stroke-dasharray="" points="25, 362,25, 387" /> 
<rect id="r0"  stroke="rgb(254,254,179)" fill="rgb(254,254,179)" stroke-width="1px" stroke-dasharray="" y="600px" x="450px" width="212px" height="12px" rx="0" ry="0" />
<rect id="r0"  stroke="rgb(0,0,0)" fill="none" stroke-width="1px" stroke-dasharray="" y="600px" x="450px" width="212px" height="12px" rx="0" ry="0" />
<rect id="r0"  stroke="rgb(254,254,179)" fill="rgb(254,254,179)" stroke-width="1px" stroke-dasharray="" y="550px" x="662px" width="50px" height="12px" rx="0" ry="0" />
<rect id="r0"  stroke="rgb(0,0,0)" fill="none" stroke-width="1px" stroke-dasharray="" y="550px" x="662px" width="50px" height="12px" rx="0" ry="0" />
<rect id="r0"  stroke="rgb(254,254,179)" fill="rgb(254,254,179)" stroke-width="1px" stroke-dasharray="" y="575px" x="450px" width="212px" height="12px" rx="0" ry="0" />
<rect id="r0"  stroke="rgb(0,0,0)" fill="none" stroke-width="1px" stroke-dasharray="" y="575px" x="450px" width="212px" height="12px" rx="0" ry="0" />
<rect id="r0"  stroke="rgb(254,254,179)" fill="rgb(254,254,179)" stroke-width="1px" stroke-dasharray="" y="575px" x="400px" width="50px" height="12px" rx="0" ry="0" />
<rect id="r0"  stroke="rgb(0,0,0)" fill="none" stroke-width="1px" stroke-dasharray="" y="575px" x="400px" width="50px" height="12px" rx="0" ry="0" />
<rect id="r0"  stroke="rgb(254,254,179)" fill="rgb(254,254,179)" stroke-width="1px" stroke-dasharray="" y="562px" x="662px" width="250px" height="50px" rx="0" ry="0" />
<rect id="r0"  stroke="rgb(0,0,0)" fill="none" stroke-width="1px" stroke-dasharray="" y="562px" x="662px" width="250px" height="50px" rx="0" ry="0" />
<rect id="r0"  stroke="rgb(254,254,179)" fill="rgb(254,254,179)" stroke-width="1px" stroke-dasharray="" y="550px" x="712px" width="200px" height="12px" rx="0" ry="0" />
<rect id="r0"  stroke="rgb(0,0,0)" fill="none" stroke-width="1px" stroke-dasharray="" y="550px" x="712px" width="200px" height="12px" rx="0" ry="0" />
<rect id="r0"  stroke="rgb(254,254,179)" fill="rgb(254,254,179)" stroke-width="1px" stroke-dasharray="" y="550px" x="400px" width="262px" height="25px" rx="0" ry="0" />
<rect id="r0"  stroke="rgb(0,0,0)" fill="none" stroke-width="1px" stroke-dasharray="" y="550px" x="400px" width="262px" height="25px" rx="0" ry="0" />
<rect id="r0"  stroke="rgb(254,254,179)" fill="rgb(254,254,179)" stroke-width="1px" stroke-dasharray="" y="587px" x="400px" width="50px" height="13px" rx="0" ry="0" />
<rect id="r0"  stroke="rgb(0,0,0)" fill="none" stroke-width="1px" stroke-dasharray="" y="587px" x="400px" width="50px" height="13px" rx="0" ry="0" />
<rect id="r0"  stroke="rgb(254,254,179)" fill="rgb(254,254,179)" stroke-width="1px" stroke-dasharray="" y="600px" x="400px" width="50px" height="12px" rx="0" ry="0" />
<rect id="r0"  stroke="rgb(0,0,0)" fill="none" stroke-width="1px" stroke-dasharray="" y="600px" x="400px" width="50px" height="12px" rx="0" ry="0" />
<rect id="r0"  stroke="rgb(254,254,179)" fill="rgb(254,254,179)" stroke-width="1px" stroke-dasharray="" y="587px" x="450px" width="212px" height="13px" rx="0" ry="0" />
<rect id="r0"  stroke="rgb(0,0,0)" fill="none" stroke-width="1px" stroke-dasharray="" y="587px" x="450px" width="212px" height="13px" rx="0" ry="0" />
<a xlink:href='javascript:parent.location.href="../../tb_lib/victory_text_test_block_testbench_vhd.htm"'>
<rect id="r0"  stroke="rgb(0,255,0)" fill="rgb(0,255,0)" stroke-width="1px" stroke-dasharray="" y="226px" x="88px" width="162px" height="186px" rx="0" ry="0" />
</a>
<rect id="r0"  stroke="rgb(0,128,0)" fill="none" stroke-width="3px" stroke-dasharray="" y="226px" x="88px" width="162px" height="186px" rx="0" ry="0" />
<a xlink:href='javascript:parent.location.href="../../tb_lib/victory_text_test_block_testbench_vhd.htm"'>
<image xlink:href="VhdlFileViewIcon.png" x="91" y="391" width="18" height="18" />
</a>
<a xlink:href='javascript:parent.location.href="../../alien_game_lib/c6_t2_victory_effect/struct_bd.htm"'>
<rect id="r0"  stroke="rgb(0,255,0)" fill="rgb(0,255,0)" stroke-width="1px" stroke-dasharray="" y="226px" x="413px" width="224px" height="99px" rx="0" ry="0" />
</a>
<rect id="r0"  stroke="rgb(0,128,0)" fill="none" stroke-width="3px" stroke-dasharray="" y="226px" x="413px" width="224px" height="99px" rx="0" ry="0" />
<a xlink:href='javascript:parent.location.href="../../alien_game_lib/c6_t2_victory_effect/struct_bd.htm"'>
<image xlink:href="BlockDiagram.png" x="416" y="303" width="18" height="19" />
</a>
<a xlink:href='javascript:parent.location.href="../../tb_lib/victory_text_test_block_testbench_vhd.htm"'>
<polyline id="r0"  stroke="rgb(0,255,0)" fill="rgb(0,255,0)" stroke-width="1px" stroke-dasharray="" points="259, 237,250, 242,250, 233,259, 237" /> 
</a>
<polyline id="r0"  stroke="rgb(0,0,0)" fill="none" stroke-width="1px" stroke-dasharray="" points="259, 237,250, 242,250, 233,259, 237" /> 
<a xlink:href='javascript:parent.location.href="../../tb_lib/victory_text_test_block_testbench_vhd.htm"'>
<polyline id="r0"  stroke="rgb(0,255,0)" fill="rgb(0,255,0)" stroke-width="1px" stroke-dasharray="" points="259, 262,250, 267,250, 258,259, 262" /> 
</a>
<polyline id="r0"  stroke="rgb(0,0,0)" fill="none" stroke-width="1px" stroke-dasharray="" points="259, 262,250, 267,250, 258,259, 262" /> 
<a xlink:href='javascript:parent.location.href="../../tb_lib/victory_text_test_block_testbench_vhd.htm"'>
<polyline id="r0"  stroke="rgb(0,255,0)" fill="rgb(0,255,0)" stroke-width="1px" stroke-dasharray="" points="87, 237,78, 242,78, 233,87, 237" /> 
</a>
<polyline id="r0"  stroke="rgb(0,0,0)" fill="none" stroke-width="1px" stroke-dasharray="" points="87, 237,78, 242,78, 233,87, 237" /> 
<a xlink:href='javascript:parent.location.href="../../tb_lib/victory_text_test_block_testbench_vhd.htm"'>
<polyline id="r0"  stroke="rgb(0,255,0)" fill="rgb(0,255,0)" stroke-width="1px" stroke-dasharray="" points="87, 250,78, 255,78, 245,87, 250" /> 
</a>
<polyline id="r0"  stroke="rgb(0,0,0)" fill="none" stroke-width="1px" stroke-dasharray="" points="87, 250,78, 255,78, 245,87, 250" /> 
<a xlink:href='javascript:parent.location.href="../../tb_lib/victory_text_test_block_testbench_vhd.htm"'>
<polyline id="r0"  stroke="rgb(0,255,0)" fill="rgb(0,255,0)" stroke-width="1px" stroke-dasharray="" points="87, 262,78, 267,78, 258,87, 262" /> 
</a>
<polyline id="r0"  stroke="rgb(0,0,0)" fill="none" stroke-width="1px" stroke-dasharray="" points="87, 262,78, 267,78, 258,87, 262" /> 
<a xlink:href='javascript:parent.location.href="../../tb_lib/victory_text_test_block_testbench_vhd.htm"'>
<polyline id="r0"  stroke="rgb(0,255,0)" fill="rgb(0,255,0)" stroke-width="1px" stroke-dasharray="" points="87, 375,78, 380,78, 370,87, 375" /> 
</a>
<polyline id="r0"  stroke="rgb(0,0,0)" fill="none" stroke-width="1px" stroke-dasharray="" points="87, 375,78, 380,78, 370,87, 375" /> 
<polyline id="r0"  stroke="rgb(0,0,0)" fill="none" stroke-width="3px" stroke-dasharray="" points="50, 375,50, 375" /> 
<a xlink:href='javascript:parent.location.href="../../alien_game_lib/c6_t2_victory_effect/struct_bd.htm"'>
<polyline id="r0"  stroke="rgb(0,255,0)" fill="rgb(0,255,0)" stroke-width="1px" stroke-dasharray="" points="412, 237,403, 242,403, 233,412, 237" /> 
</a>
<polyline id="r0"  stroke="rgb(0,0,0)" fill="none" stroke-width="1px" stroke-dasharray="" points="412, 237,403, 242,403, 233,412, 237" /> 
<a xlink:href='javascript:parent.location.href="../../alien_game_lib/c6_t2_victory_effect/struct_bd.htm"'>
<polyline id="r0"  stroke="rgb(0,255,0)" fill="rgb(0,255,0)" stroke-width="1px" stroke-dasharray="" points="412, 262,403, 267,403, 258,412, 262" /> 
</a>
<polyline id="r0"  stroke="rgb(0,0,0)" fill="none" stroke-width="1px" stroke-dasharray="" points="412, 262,403, 267,403, 258,412, 262" /> 
<a xlink:href='javascript:parent.location.href="../../alien_game_lib/c6_t2_victory_effect/struct_bd.htm"'>
<polyline id="r0"  stroke="rgb(0,255,0)" fill="rgb(0,255,0)" stroke-width="1px" stroke-dasharray="" points="647, 275,637, 280,637, 270,647, 275" /> 
</a>
<polyline id="r0"  stroke="rgb(0,0,0)" fill="none" stroke-width="1px" stroke-dasharray="" points="647, 275,637, 280,637, 270,647, 275" /> 
<a xlink:href='javascript:parent.location.href="../../alien_game_lib/c6_t2_victory_effect/struct_bd.htm"'>
<polyline id="r0"  stroke="rgb(0,255,0)" fill="rgb(0,255,0)" stroke-width="1px" stroke-dasharray="" points="647, 300,637, 305,637, 295,647, 300" /> 
</a>
<polyline id="r0"  stroke="rgb(0,0,0)" fill="none" stroke-width="1px" stroke-dasharray="" points="647, 300,637, 305,637, 295,647, 300" /> 
<a xlink:href='javascript:parent.location.href="../../alien_game_lib/c6_t2_victory_effect/struct_bd.htm"'>
<polyline id="r0"  stroke="rgb(0,255,0)" fill="rgb(0,255,0)" stroke-width="1px" stroke-dasharray="" points="647, 250,637, 255,637, 245,647, 250" /> 
</a>
<polyline id="r0"  stroke="rgb(0,0,0)" fill="none" stroke-width="1px" stroke-dasharray="" points="647, 250,637, 255,637, 245,647, 250" /> 
<text x="275" y="45" font-family="Courier New" fill="rgb(0,0,0)" font-size="10" text-anchor="start">SIGNAL clk          : std_logic</text>
<text x="275" y="75" font-family="Courier New" fill="rgb(0,0,0)" font-size="10" text-anchor="start">SIGNAL rst_n        : std_logic</text>
<text x="114" y="297" font-family="arial" fill="rgb(0,0,0)" font-weight="800" font-size="10" text-anchor="start">tb_lib</text>
<text x="275" y="55" font-family="Courier New" fill="rgb(0,0,0)" font-size="10" text-anchor="start">SIGNAL color        : std_logic_vector(23 downto 0)</text>
<text x="275" y="95" font-family="Courier New" fill="rgb(0,0,0)" font-size="10" text-anchor="start">SIGNAL y_coordinate : std_logic_vector(7 downto 0)</text>
<text x="275" y="85" font-family="Courier New" fill="rgb(0,0,0)" font-size="10" text-anchor="start">SIGNAL x_coordinate : std_logic_vector(7 downto 0)</text>
<text x="275" y="65" font-family="Courier New" fill="rgb(0,0,0)" font-size="10" text-anchor="start">SIGNAL pixel_amount : std_logic_vector(5 downto 0)</text>
<text x="625" y="304" font-family="arial" fill="rgb(0,0,0)" font-size="10" text-anchor="end">y_coord : (7:0)</text>
<text x="662" y="297" font-family="arial" fill="rgb(0,0,0)" font-size="10" text-anchor="start">y_coordinate : (7:0)</text>
<text x="0" y="10" font-family="arial" fill="rgb(0,0,0)" font-weight="800" font-size="10" text-anchor="start">Package List</text>
<text x="0" y="22" font-family="arial" fill="rgb(0,0,0)" font-size="10" text-anchor="start">LIBRARY ieee;</text>
<text x="0" y="35" font-family="arial" fill="rgb(0,0,0)" font-size="10" text-anchor="start">USE ieee.std_logic_1164.all;</text>
<text x="0" y="47" font-family="arial" fill="rgb(0,0,0)" font-size="10" text-anchor="start">USE ieee.std_logic_arith.all;</text>
<text x="250" y="10" font-family="arial" fill="rgb(0,0,0)" font-weight="800" font-size="10" text-anchor="start">Declarations</text>
<text x="250" y="22" font-family="arial" fill="rgb(0,0,0)" font-weight="800" font-size="10" text-anchor="start">Ports:</text>
<text x="250" y="35" font-family="arial" fill="rgb(0,0,0)" font-weight="800" font-size="10" text-anchor="start">Diagram Signals:</text>
<text x="237" y="241" font-family="arial" fill="rgb(0,0,0)" font-size="10" text-anchor="end">clk</text>
<text x="237" y="266" font-family="arial" fill="rgb(0,0,0)" font-size="10" text-anchor="end">rst_n</text>
<text x="100" y="241" font-family="arial" fill="rgb(0,0,0)" font-size="10" text-anchor="start">color</text>
<text x="100" y="254" font-family="arial" fill="rgb(0,0,0)" font-size="10" text-anchor="start">x_data</text>
<text x="100" y="266" font-family="arial" fill="rgb(0,0,0)" font-size="10" text-anchor="start">y_data</text>
<text x="287" y="235" font-family="arial" fill="rgb(0,0,0)" font-size="10" text-anchor="start">clk</text>
<text x="287" y="260" font-family="arial" fill="rgb(0,0,0)" font-size="10" text-anchor="start">rst_n</text>
<text x="452" y="260" font-family="arial" fill="rgb(0,0,0)" font-weight="800" font-size="10" text-anchor="start">alien_game_lib</text>
<text x="452" y="272" font-family="arial" fill="rgb(0,0,0)" font-weight="800" font-size="10" text-anchor="start">c6_t2_victory_effect</text>
<text x="452" y="285" font-family="arial" fill="rgb(0,0,0)" font-weight="800" font-size="10" text-anchor="start">U_1</text>
<text x="425" y="241" font-family="arial" fill="rgb(0,0,0)" font-size="10" text-anchor="start">clk</text>
<text x="425" y="266" font-family="arial" fill="rgb(0,0,0)" font-size="10" text-anchor="start">rst_n</text>
<text x="625" y="279" font-family="arial" fill="rgb(0,0,0)" font-size="10" text-anchor="end">x_coord : (7:0)</text>
<text x="625" y="254" font-family="arial" fill="rgb(0,0,0)" font-size="10" text-anchor="end">color : (23:0)</text>
<text x="662" y="247" font-family="arial" fill="rgb(0,0,0)" font-size="10" text-anchor="start">color : (23:0)</text>
<text x="662" y="272" font-family="arial" fill="rgb(0,0,0)" font-size="10" text-anchor="start">x_coordinate : (7:0)</text>
<text x="114" y="310" font-family="arial" fill="rgb(0,0,0)" font-weight="800" font-size="10" text-anchor="start">victory_text_test_block</text>
<text x="114" y="322" font-family="arial" fill="rgb(0,0,0)" font-weight="800" font-size="10" text-anchor="start">U_0</text>
<text x="100" y="379" font-family="arial" fill="rgb(0,0,0)" font-size="10" text-anchor="start">pixel_amount</text>
<text x="17" y="399" font-family="arial" fill="rgb(0,0,0)" font-size="10" text-anchor="start">constval</text>
<text x="17" y="411" font-family="arial" fill="rgb(0,0,0)" font-size="10" text-anchor="start">pixel_amount</text>
<text x="452" y="610" font-family="Arial" fill="rgb(0,0,128)" font-size="10" text-anchor="start">by mqange on 22 marras 2022</text>
<text x="665" y="560" font-family="Arial" fill="rgb(0,0,128)" font-size="10" text-anchor="start">Project:</text>
<text x="452" y="585" font-family="Arial" fill="rgb(0,0,128)" font-size="10" text-anchor="start">Testbench for Victory Effect</text>
<text x="402" y="585" font-family="Arial" fill="rgb(0,0,128)" font-size="10" text-anchor="start">Title:</text>
<text x="665" y="575" font-family="Arial" fill="rgb(0,0,128)" font-size="10" text-anchor="start">Insert to pixel_amount numbert of sent pixels.</text>
<text x="715" y="560" font-family="Arial" fill="rgb(0,0,128)" font-size="10" text-anchor="start">alien_game</text>
<text x="531" y="566" font-family="Arial" fill="rgb(127,0,0)" font-size="10" text-anchor="middle">Tampere University</text>
<text x="402" y="597" font-family="Arial" fill="rgb(0,0,128)" font-size="10" text-anchor="start">Path:</text>
<text x="402" y="610" font-family="Arial" fill="rgb(0,0,128)" font-size="10" text-anchor="start">Edited:</text>
<text x="452" y="597" font-family="Arial" fill="rgb(0,0,128)" font-size="10" text-anchor="start">tb_lib/tb_victory/struct</text>
<g id="clk_net" stroke="rgb(0,0,0)" stroke-width="1px"  >
<polyline id="r0"  fill="none"  stroke-dasharray="" points="259, 237,403, 237" /> 
</g>
<g id="color_net" stroke="rgb(0,0,0)" stroke-width="3px"  >
<polyline id="r0"  fill="none"  stroke-dasharray="" points="647, 250,775, 250,775, 175,62, 175,62, 237,78, 237" /> 
</g>
<g id="pixel_amount_net" stroke="rgb(0,0,0)" stroke-width="3px"  >
<polyline id="r0"  fill="none"  stroke-dasharray="" points="78, 375,50, 375" /> 
</g>
<g id="rst_n_net" stroke="rgb(0,0,0)" stroke-width="1px"  >
<polyline id="r0"  fill="none"  stroke-dasharray="" points="259, 262,403, 262" /> 
</g>
<g id="x_coordinate_net" stroke="rgb(0,0,0)" stroke-width="3px"  >
<polyline id="r0"  fill="none"  stroke-dasharray="" points="647, 275,787, 275,787, 162,50, 162,50, 250,78, 250" /> 
</g>
<g id="y_coordinate_net" stroke="rgb(0,0,0)" stroke-width="3px"  >
<polyline id="r0"  fill="none"  stroke-dasharray="" points="647, 300,800, 300,800, 150,37, 150,37, 262,78, 262" /> 
</g>
</g>
</svg>
<!-- Create a "titlebox" group so we can reposition it when the SVG moves -->
<g id="titlebox">
<g id="genTime" class="allText normalText">
  <text class="allText smallText" x="300" y="123">Generated on: 22.11.2022 at:  5:56 ip.</text>
</g>

<rect stroke="none" fill="rgb(200,230,240)" opacity="0.4" y="112" x="0" width="914" height="15" />
<!-- Close the "titlebox" group -->
</g>

</g>
</svg>
