<?xml version="1.0" encoding="UTF-8"?>
<!DOCTYPE svg PUBLIC "-//W3C//DTD SVG 1.1//EN" "http://www.w3.org/Graphics/SVG/1.1/DTD/svg11.dtd">
<!-- Created HDS 2004.1a -->


<svg xmlns="http://www.w3.org/2000/svg" xmlns:xlink="http://www.w3.org/1999/xlink" version="1.1">
<script xlink:href="../../scripts/SVGPan.js" />
<g id="viewport" transform="translate(0,-100)">


<title>SVG Image</title>
<desc></desc>


<defs>
<!-- section for CSS stylesheet definitions -->
<style type="text/css"><![CDATA[
.allText {font-family:Sans-Serif;fill:darkcyan;}
.subTitleText {font-size:20;font-weight:bold;}
.normalText {font-size:15;}
.smallText {font-size:12;}
.boldText {font-weight:bold;}
.rightText {text-anchor:end;}
.centerText {text-anchor:middle;}
.dragRect {fill:darkcyan;stroke:none;opacity:0.4;}
]]></style>
<symbol id="upArrow" overflow="visible" style="stroke:darkcyan;fill:darkcyan;stroke-width:1;" pointer-events="none">
<polygon points="5,0 10,5 0,5 5,0" />
</symbol>
<symbol id="leftArrow" overflow="visible" style="stroke:darkcyan;fill:darkcyan;stroke-width:1;" pointer-events="none">
<polygon points="0,5 5,0 5,10 0,5" />
</symbol>
<symbol id="rightArrow" overflow="visible" style="stroke:darkcyan;fill:darkcyan;stroke-width:1;" pointer-events="none">
<polygon points="5,0 10,5 5,10 5,0" />
</symbol>
<symbol id="downArrow" overflow="visible" style="stroke:darkcyan;fill:darkcyan;stroke-width:1;" pointer-events="none">
<polygon points="0,0 5,5 10,0 0,0" />
</symbol>

</defs>
<svg id="mainMap" x="0" y="150" viewBox="0 0 1004 829" width="912" height="512">


<clipPath id="SVG_Clip">
<rect x="0" y="0" width="1004" height="829" />
</clipPath>
<g id="hds_models" style="clip-path:url(#SVG_Clip)">
<polyline id="r0"  stroke="rgb(0,0,0)" fill="none" stroke-width="1px" stroke-dasharray="" points="657, 274,657, 274" /> 
<polyline id="r0"  stroke="rgb(0,0,0)" fill="none" stroke-width="1px" stroke-dasharray="" points="657, 224,657, 224" /> 
<polyline id="r0"  stroke="rgb(0,255,255)" fill="rgb(0,255,255)" stroke-width="1px" stroke-dasharray="" points="682, 274,657, 274,657, 224,682, 224,682, 274" /> 
<polyline id="r0"  stroke="rgb(102,102,102)" fill="none" stroke-width="1px" stroke-dasharray="" points="682, 274,657, 274,657, 224,682, 224" /> 
<path stroke="rgb(0,255,255)" fill="rgb(0,255,255)" stroke-width="1px" stroke-dasharray="" transform="translate(682,249) rotate(0.000000)"
d="M 0.00000 -25.00000 A 25 25 0 0 1 0.00000 25.00000 " /> 
<path stroke="rgb(102,102,102)" fill="none" stroke-width="1px" stroke-dasharray="" transform="translate(682,249) rotate(0.000000)"
d="M 0.00000 -25.00000 A 25 25 0 0 1 0.00000 25.00000 " /> 
<polyline id="r0"  stroke="rgb(0,255,255)" fill="rgb(0,255,255)" stroke-width="1px" stroke-dasharray="" points="632, 462,657, 479,657, 495,632, 512,632, 462,632, 462" /> 
<polyline id="r0"  stroke="rgb(102,102,102)" fill="none" stroke-width="1px" stroke-dasharray="" points="632, 462,657, 479,657, 495,632, 512,632, 462,632, 462" /> 
<polyline id="r0"  stroke="rgb(0,0,0)" fill="none" stroke-width="1px" stroke-dasharray="" points="632, 512,632, 524" /> 
<polyline id="r0"  stroke="rgb(0,0,0)" fill="none" stroke-width="1px" stroke-dasharray="" points="632, 462,632, 449" /> 
<polyline id="r0"  stroke="rgb(0,255,255)" fill="rgb(0,255,255)" stroke-width="1px" stroke-dasharray="" points="782, 312,807, 329,807, 345,782, 362,782, 312,782, 312" /> 
<polyline id="r0"  stroke="rgb(102,102,102)" fill="none" stroke-width="1px" stroke-dasharray="" points="782, 312,807, 329,807, 345,782, 362,782, 312,782, 312" /> 
<polyline id="r0"  stroke="rgb(0,0,0)" fill="none" stroke-width="1px" stroke-dasharray="" points="782, 362,782, 362" /> 
<polyline id="r0"  stroke="rgb(0,0,0)" fill="none" stroke-width="1px" stroke-dasharray="" points="782, 312,782, 312" /> 
<polyline id="r0"  stroke="rgb(102,102,102)" fill="none" stroke-width="3px" stroke-dasharray="" points="757, 599,732, 599" /> 
<polyline id="r0"  stroke="rgb(102,102,102)" fill="none" stroke-width="3px" stroke-dasharray="" points="732, 587,732, 612" /> 
<polyline id="r0"  stroke="rgb(102,102,102)" fill="none" stroke-width="3px" stroke-dasharray="" points="732, 324,707, 324" /> 
<polyline id="r0"  stroke="rgb(102,102,102)" fill="none" stroke-width="3px" stroke-dasharray="" points="707, 312,707, 337" /> 
<polyline id="r0"  stroke="rgb(102,102,102)" fill="none" stroke-width="3px" stroke-dasharray="" points="732, 349,707, 349" /> 
<polyline id="r0"  stroke="rgb(102,102,102)" fill="none" stroke-width="3px" stroke-dasharray="" points="707, 337,707, 362" /> 
<rect id="r0"  stroke="rgb(254,254,179)" fill="rgb(254,254,179)" stroke-width="1px" stroke-dasharray="" y="812px" x="494px" width="213px" height="12px" rx="0" ry="0" />
<rect id="r0"  stroke="rgb(0,0,0)" fill="none" stroke-width="1px" stroke-dasharray="" y="812px" x="494px" width="213px" height="12px" rx="0" ry="0" />
<rect id="r0"  stroke="rgb(254,254,179)" fill="rgb(254,254,179)" stroke-width="1px" stroke-dasharray="" y="787px" x="494px" width="213px" height="12px" rx="0" ry="0" />
<rect id="r0"  stroke="rgb(0,0,0)" fill="none" stroke-width="1px" stroke-dasharray="" y="787px" x="494px" width="213px" height="12px" rx="0" ry="0" />
<rect id="r0"  stroke="rgb(254,254,179)" fill="rgb(254,254,179)" stroke-width="1px" stroke-dasharray="" y="762px" x="444px" width="263px" height="25px" rx="0" ry="0" />
<rect id="r0"  stroke="rgb(0,0,0)" fill="none" stroke-width="1px" stroke-dasharray="" y="762px" x="444px" width="263px" height="25px" rx="0" ry="0" />
<rect id="r0"  stroke="rgb(254,254,179)" fill="rgb(254,254,179)" stroke-width="1px" stroke-dasharray="" y="799px" x="494px" width="213px" height="13px" rx="0" ry="0" />
<rect id="r0"  stroke="rgb(0,0,0)" fill="none" stroke-width="1px" stroke-dasharray="" y="799px" x="494px" width="213px" height="13px" rx="0" ry="0" />
<a xlink:href='javascript:parent.location.href="../../alien_game_lib/c4_t1_m2/struct_bd.htm"'>
<rect id="r0"  stroke="rgb(0,255,0)" fill="rgb(0,255,0)" stroke-width="1px" stroke-dasharray="" y="425px" x="358px" width="174px" height="87px" rx="0" ry="0" />
</a>
<rect id="r0"  stroke="rgb(0,128,0)" fill="none" stroke-width="3px" stroke-dasharray="" y="425px" x="358px" width="174px" height="87px" rx="0" ry="0" />
<a xlink:href='javascript:parent.location.href="../../alien_game_lib/c4_t1_m1/struct_bd.htm"'>
<rect id="r0"  stroke="rgb(0,255,0)" fill="rgb(0,255,0)" stroke-width="1px" stroke-dasharray="" y="325px" x="358px" width="174px" height="87px" rx="0" ry="0" />
</a>
<rect id="r0"  stroke="rgb(0,128,0)" fill="none" stroke-width="3px" stroke-dasharray="" y="325px" x="358px" width="174px" height="87px" rx="0" ry="0" />
<a xlink:href='javascript:parent.location.href="../../alien_game_lib/c4_t1_m3/struct_bd.htm"'>
<rect id="r0"  stroke="rgb(0,255,0)" fill="rgb(0,255,0)" stroke-width="1px" stroke-dasharray="" y="525px" x="358px" width="174px" height="87px" rx="0" ry="0" />
</a>
<rect id="r0"  stroke="rgb(0,128,0)" fill="none" stroke-width="3px" stroke-dasharray="" y="525px" x="358px" width="174px" height="87px" rx="0" ry="0" />
<a xlink:href='javascript:parent.location.href="../../alien_game_lib/c4_t1_m2/struct_bd.htm"'>
<rect id="r0"  stroke="rgb(0,255,0)" fill="rgb(0,255,0)" stroke-width="1px" stroke-dasharray="" y="625px" x="358px" width="174px" height="87px" rx="0" ry="0" />
</a>
<rect id="r0"  stroke="rgb(0,128,0)" fill="none" stroke-width="3px" stroke-dasharray="" y="625px" x="358px" width="174px" height="87px" rx="0" ry="0" />
<polyline id="r0"  stroke="rgb(0,0,128)" fill="rgb(0,0,128)" stroke-width="1px" stroke-dasharray="" points="45, 432,57, 432,63, 437,57, 442,45, 442,45, 432" /> 
<polyline id="r0"  stroke="rgb(0,0,0)" fill="none" stroke-width="1px" stroke-dasharray="" points="45, 432,57, 432,63, 437,57, 442,45, 442,45, 432" /> 
<polyline id="r0"  stroke="rgb(0,0,128)" fill="rgb(0,0,128)" stroke-width="1px" stroke-dasharray="" points="45, 432,57, 432,63, 437,57, 442,45, 442,45, 432" /> 
<polyline id="r0"  stroke="rgb(0,0,0)" fill="none" stroke-width="1px" stroke-dasharray="" points="45, 432,57, 432,63, 437,57, 442,45, 442,45, 432" /> 
<polyline id="r0"  stroke="rgb(0,0,0)" fill="none" stroke-width="1px" stroke-dasharray="" points="63, 437,70, 437" /> 
<polyline id="r0"  stroke="rgb(0,0,128)" fill="rgb(0,0,128)" stroke-width="1px" stroke-dasharray="" points="407, 245,420, 245,426, 249,420, 254,407, 254,407, 245" /> 
<polyline id="r0"  stroke="rgb(0,0,0)" fill="none" stroke-width="1px" stroke-dasharray="" points="407, 245,420, 245,426, 249,420, 254,407, 254,407, 245" /> 
<polyline id="r0"  stroke="rgb(0,0,128)" fill="rgb(0,0,128)" stroke-width="1px" stroke-dasharray="" points="407, 245,420, 245,426, 249,420, 254,407, 254,407, 245" /> 
<polyline id="r0"  stroke="rgb(0,0,0)" fill="none" stroke-width="1px" stroke-dasharray="" points="407, 245,420, 245,426, 249,420, 254,407, 254,407, 245" /> 
<polyline id="r0"  stroke="rgb(0,0,0)" fill="none" stroke-width="1px" stroke-dasharray="" points="426, 249,432, 249" /> 
<polyline id="r0"  stroke="rgb(0,0,128)" fill="rgb(0,0,128)" stroke-width="1px" stroke-dasharray="" points="45, 357,57, 357,63, 362,57, 367,45, 367,45, 357" /> 
<polyline id="r0"  stroke="rgb(0,0,0)" fill="none" stroke-width="1px" stroke-dasharray="" points="45, 357,57, 357,63, 362,57, 367,45, 367,45, 357" /> 
<polyline id="r0"  stroke="rgb(0,0,128)" fill="rgb(0,0,128)" stroke-width="1px" stroke-dasharray="" points="45, 357,57, 357,63, 362,57, 367,45, 367,45, 357" /> 
<polyline id="r0"  stroke="rgb(0,0,0)" fill="none" stroke-width="1px" stroke-dasharray="" points="45, 357,57, 357,63, 362,57, 367,45, 367,45, 357" /> 
<polyline id="r0"  stroke="rgb(0,0,0)" fill="none" stroke-width="1px" stroke-dasharray="" points="63, 362,70, 362" /> 
<polyline id="r0"  stroke="rgb(0,0,128)" fill="rgb(0,0,128)" stroke-width="1px" stroke-dasharray="" points="45, 382,57, 382,63, 387,57, 392,45, 392,45, 382" /> 
<polyline id="r0"  stroke="rgb(0,0,0)" fill="none" stroke-width="1px" stroke-dasharray="" points="45, 382,57, 382,63, 387,57, 392,45, 392,45, 382" /> 
<polyline id="r0"  stroke="rgb(0,0,128)" fill="rgb(0,0,128)" stroke-width="1px" stroke-dasharray="" points="45, 382,57, 382,63, 387,57, 392,45, 392,45, 382" /> 
<polyline id="r0"  stroke="rgb(0,0,0)" fill="none" stroke-width="1px" stroke-dasharray="" points="45, 382,57, 382,63, 387,57, 392,45, 392,45, 382" /> 
<polyline id="r0"  stroke="rgb(0,0,0)" fill="none" stroke-width="1px" stroke-dasharray="" points="63, 387,70, 387" /> 
<polyline id="r0"  stroke="rgb(0,0,128)" fill="rgb(0,0,128)" stroke-width="1px" stroke-dasharray="" points="45, 407,57, 407,63, 412,57, 417,45, 417,45, 407" /> 
<polyline id="r0"  stroke="rgb(0,0,0)" fill="none" stroke-width="1px" stroke-dasharray="" points="45, 407,57, 407,63, 412,57, 417,45, 417,45, 407" /> 
<polyline id="r0"  stroke="rgb(0,0,128)" fill="rgb(0,0,128)" stroke-width="1px" stroke-dasharray="" points="45, 407,57, 407,63, 412,57, 417,45, 417,45, 407" /> 
<polyline id="r0"  stroke="rgb(0,0,0)" fill="none" stroke-width="1px" stroke-dasharray="" points="45, 407,57, 407,63, 412,57, 417,45, 417,45, 407" /> 
<polyline id="r0"  stroke="rgb(0,0,0)" fill="none" stroke-width="1px" stroke-dasharray="" points="63, 412,70, 412" /> 
<a xlink:href='javascript:parent.location.href="../../alien_game_lib/c4_t1_m2/struct_bd.htm"'>
<image xlink:href="BlockDiagram.png" x="360" y="490" width="19" height="19" />
</a>
<a xlink:href='javascript:parent.location.href="../../alien_game_lib/c4_t1_m1/struct_bd.htm"'>
<image xlink:href="BlockDiagram.png" x="360" y="390" width="19" height="19" />
</a>
<polyline id="r0"  stroke="rgb(0,0,128)" fill="rgb(0,0,128)" stroke-width="1px" stroke-dasharray="" points="888, 482,901, 482,907, 487,901, 492,888, 492,888, 482" /> 
<polyline id="r0"  stroke="rgb(0,0,0)" fill="none" stroke-width="1px" stroke-dasharray="" points="888, 482,901, 482,907, 487,901, 492,888, 492,888, 482" /> 
<polyline id="r0"  stroke="rgb(0,0,128)" fill="rgb(0,0,128)" stroke-width="1px" stroke-dasharray="" points="888, 482,901, 482,907, 487,901, 492,888, 492,888, 482" /> 
<polyline id="r0"  stroke="rgb(0,0,0)" fill="none" stroke-width="1px" stroke-dasharray="" points="888, 482,901, 482,907, 487,901, 492,888, 492,888, 482" /> 
<polyline id="r0"  stroke="rgb(0,0,0)" fill="none" stroke-width="1px" stroke-dasharray="" points="882, 487,888, 487" /> 
<polyline id="r0"  stroke="rgb(0,0,128)" fill="rgb(0,0,128)" stroke-width="1px" stroke-dasharray="" points="926, 332,938, 332,944, 337,938, 342,926, 342,926, 332" /> 
<polyline id="r0"  stroke="rgb(0,0,0)" fill="none" stroke-width="1px" stroke-dasharray="" points="926, 332,938, 332,944, 337,938, 342,926, 342,926, 332" /> 
<polyline id="r0"  stroke="rgb(0,0,128)" fill="rgb(0,0,128)" stroke-width="1px" stroke-dasharray="" points="926, 332,938, 332,944, 337,938, 342,926, 342,926, 332" /> 
<polyline id="r0"  stroke="rgb(0,0,0)" fill="none" stroke-width="1px" stroke-dasharray="" points="926, 332,938, 332,944, 337,938, 342,926, 342,926, 332" /> 
<polyline id="r0"  stroke="rgb(0,0,0)" fill="none" stroke-width="1px" stroke-dasharray="" points="919, 337,926, 337" /> 
<rect id="r0"  stroke="rgb(254,254,179)" fill="rgb(254,254,179)" stroke-width="1px" stroke-dasharray="" y="787px" x="444px" width="50px" height="12px" rx="0" ry="0" />
<rect id="r0"  stroke="rgb(0,0,0)" fill="none" stroke-width="1px" stroke-dasharray="" y="787px" x="444px" width="50px" height="12px" rx="0" ry="0" />
<rect id="r0"  stroke="rgb(254,254,179)" fill="rgb(254,254,179)" stroke-width="1px" stroke-dasharray="" y="799px" x="444px" width="50px" height="13px" rx="0" ry="0" />
<rect id="r0"  stroke="rgb(0,0,0)" fill="none" stroke-width="1px" stroke-dasharray="" y="799px" x="444px" width="50px" height="13px" rx="0" ry="0" />
<rect id="r0"  stroke="rgb(254,254,179)" fill="rgb(254,254,179)" stroke-width="1px" stroke-dasharray="" y="812px" x="444px" width="50px" height="12px" rx="0" ry="0" />
<rect id="r0"  stroke="rgb(0,0,0)" fill="none" stroke-width="1px" stroke-dasharray="" y="812px" x="444px" width="50px" height="12px" rx="0" ry="0" />
<a xlink:href='javascript:parent.location.href="../../alien_game_lib/c4_t1_m3/struct_bd.htm"'>
<image xlink:href="BlockDiagram.png" x="360" y="590" width="19" height="19" />
</a>
<a xlink:href='javascript:parent.location.href="../../alien_game_lib/c4_t1_m2/struct_bd.htm"'>
<image xlink:href="BlockDiagram.png" x="360" y="690" width="19" height="19" />
</a>
<rect id="r0"  stroke="rgb(254,254,179)" fill="rgb(254,254,179)" stroke-width="1px" stroke-dasharray="" y="762px" x="707px" width="50px" height="12px" rx="0" ry="0" />
<rect id="r0"  stroke="rgb(0,0,0)" fill="none" stroke-width="1px" stroke-dasharray="" y="762px" x="707px" width="50px" height="12px" rx="0" ry="0" />
<rect id="r0"  stroke="rgb(254,254,179)" fill="rgb(254,254,179)" stroke-width="1px" stroke-dasharray="" y="774px" x="707px" width="250px" height="50px" rx="0" ry="0" />
<rect id="r0"  stroke="rgb(0,0,0)" fill="none" stroke-width="1px" stroke-dasharray="" y="774px" x="707px" width="250px" height="50px" rx="0" ry="0" />
<rect id="r0"  stroke="rgb(254,254,179)" fill="rgb(254,254,179)" stroke-width="1px" stroke-dasharray="" y="762px" x="757px" width="200px" height="12px" rx="0" ry="0" />
<rect id="r0"  stroke="rgb(0,0,0)" fill="none" stroke-width="1px" stroke-dasharray="" y="762px" x="757px" width="200px" height="12px" rx="0" ry="0" />
<polyline id="r0"  stroke="rgb(0,0,128)" fill="rgb(0,0,128)" stroke-width="1px" stroke-dasharray="" points="926, 595,938, 595,944, 599,938, 604,926, 604,926, 595" /> 
<polyline id="r0"  stroke="rgb(0,0,0)" fill="none" stroke-width="1px" stroke-dasharray="" points="926, 595,938, 595,944, 599,938, 604,926, 604,926, 595" /> 
<polyline id="r0"  stroke="rgb(0,0,128)" fill="rgb(0,0,128)" stroke-width="1px" stroke-dasharray="" points="926, 595,938, 595,944, 599,938, 604,926, 604,926, 595" /> 
<polyline id="r0"  stroke="rgb(0,0,0)" fill="none" stroke-width="1px" stroke-dasharray="" points="926, 595,938, 595,944, 599,938, 604,926, 604,926, 595" /> 
<polyline id="r0"  stroke="rgb(0,0,0)" fill="none" stroke-width="1px" stroke-dasharray="" points="919, 599,926, 599" /> 
<polyline id="r0"  stroke="rgb(0,0,0)" fill="none" stroke-width="1px" stroke-dasharray="" points="63, 437,70, 437" /> 
<polyline id="r0"  stroke="rgb(0,0,0)" fill="none" stroke-width="1px" stroke-dasharray="" points="426, 249,432, 249" /> 
<polyline id="r0"  stroke="rgb(0,0,0)" fill="none" stroke-width="1px" stroke-dasharray="" points="63, 362,70, 362" /> 
<polyline id="r0"  stroke="rgb(0,0,0)" fill="none" stroke-width="1px" stroke-dasharray="" points="63, 387,70, 387" /> 
<polyline id="r0"  stroke="rgb(0,0,0)" fill="none" stroke-width="1px" stroke-dasharray="" points="63, 412,70, 412" /> 
<polyline id="r0"  stroke="rgb(0,0,0)" fill="none" stroke-width="1px" stroke-dasharray="" points="919, 337,926, 337" /> 
<polyline id="r0"  stroke="rgb(0,0,0)" fill="none" stroke-width="1px" stroke-dasharray="" points="882, 487,888, 487" /> 
<polyline id="r0"  stroke="rgb(0,0,0)" fill="none" stroke-width="1px" stroke-dasharray="" points="919, 599,926, 599" /> 
<circle id="r0"  stroke="rgb(0,0,0)" fill="rgb(0,0,0)" stroke-width="1px" stroke-dasharray="" cx="82" cy="362" r="5"/> 
<circle stroke="rgb(0,0,0)" fill="none" stroke-width="1px" stroke-dasharray="" cx="82" cy="362" r="5"/> 
<circle id="r0"  stroke="rgb(0,0,0)" fill="rgb(0,0,0)" stroke-width="1px" stroke-dasharray="" cx="82" cy="574" r="5"/> 
<circle stroke="rgb(0,0,0)" fill="none" stroke-width="1px" stroke-dasharray="" cx="82" cy="574" r="5"/> 
<circle id="r0"  stroke="rgb(0,0,0)" fill="rgb(0,0,0)" stroke-width="1px" stroke-dasharray="" cx="82" cy="362" r="5"/> 
<circle stroke="rgb(0,0,0)" fill="none" stroke-width="1px" stroke-dasharray="" cx="82" cy="362" r="5"/> 
<polyline id="r0"  stroke="rgb(0,0,0)" fill="none" stroke-width="1px" stroke-dasharray="" points="794, 299,794, 320" /> 
<circle id="r0"  stroke="rgb(0,0,0)" fill="rgb(0,0,0)" stroke-width="1px" stroke-dasharray="" cx="119" cy="387" r="5"/> 
<circle stroke="rgb(0,0,0)" fill="none" stroke-width="1px" stroke-dasharray="" cx="119" cy="387" r="5"/> 
<circle id="r0"  stroke="rgb(0,0,0)" fill="rgb(0,0,0)" stroke-width="1px" stroke-dasharray="" cx="119" cy="387" r="5"/> 
<circle stroke="rgb(0,0,0)" fill="none" stroke-width="1px" stroke-dasharray="" cx="119" cy="387" r="5"/> 
<circle id="r0"  stroke="rgb(0,0,0)" fill="rgb(0,0,0)" stroke-width="1px" stroke-dasharray="" cx="119" cy="387" r="5"/> 
<circle stroke="rgb(0,0,0)" fill="none" stroke-width="1px" stroke-dasharray="" cx="119" cy="387" r="5"/> 
<a xlink:href='javascript:parent.location.href="../../alien_game_lib/c4_t1_m1/struct_bd.htm"'>
<polyline id="r0"  stroke="rgb(0,255,0)" fill="rgb(0,255,0)" stroke-width="1px" stroke-dasharray="" points="357, 337,348, 342,348, 332,357, 337" /> 
</a>
<polyline id="r0"  stroke="rgb(0,0,0)" fill="none" stroke-width="1px" stroke-dasharray="" points="357, 337,348, 342,348, 332,357, 337" /> 
<a xlink:href='javascript:parent.location.href="../../alien_game_lib/c4_t1_m1/struct_bd.htm"'>
<polyline id="r0"  stroke="rgb(0,255,0)" fill="rgb(0,255,0)" stroke-width="1px" stroke-dasharray="" points="357, 349,348, 354,348, 345,357, 349" /> 
</a>
<polyline id="r0"  stroke="rgb(0,0,0)" fill="none" stroke-width="1px" stroke-dasharray="" points="357, 349,348, 354,348, 345,357, 349" /> 
<a xlink:href='javascript:parent.location.href="../../alien_game_lib/c4_t1_m1/struct_bd.htm"'>
<polyline id="r0"  stroke="rgb(0,255,0)" fill="rgb(0,255,0)" stroke-width="1px" stroke-dasharray="" points="357, 362,348, 367,348, 357,357, 362" /> 
</a>
<polyline id="r0"  stroke="rgb(0,0,0)" fill="none" stroke-width="1px" stroke-dasharray="" points="357, 362,348, 367,348, 357,357, 362" /> 
<a xlink:href='javascript:parent.location.href="../../alien_game_lib/c4_t1_m1/struct_bd.htm"'>
<polyline id="r0"  stroke="rgb(0,255,0)" fill="rgb(0,255,0)" stroke-width="1px" stroke-dasharray="" points="357, 374,348, 379,348, 370,357, 374" /> 
</a>
<polyline id="r0"  stroke="rgb(0,0,0)" fill="none" stroke-width="1px" stroke-dasharray="" points="357, 374,348, 379,348, 370,357, 374" /> 
<a xlink:href='javascript:parent.location.href="../../alien_game_lib/c4_t1_m1/struct_bd.htm"'>
<polyline id="r0"  stroke="rgb(0,255,0)" fill="rgb(0,255,0)" stroke-width="1px" stroke-dasharray="" points="541, 337,532, 342,532, 332,541, 337" /> 
</a>
<polyline id="r0"  stroke="rgb(0,0,0)" fill="none" stroke-width="1px" stroke-dasharray="" points="541, 337,532, 342,532, 332,541, 337" /> 
<polyline id="r0"  stroke="rgb(0,0,0)" fill="none" stroke-width="1px" stroke-dasharray="" points="719, 249,707, 249" /> 
<polyline id="r0"  stroke="rgb(0,0,0)" fill="none" stroke-width="1px" stroke-dasharray="" points="644, 237,657, 237" /> 
<polyline id="r0"  stroke="rgb(0,0,0)" fill="none" stroke-width="1px" stroke-dasharray="" points="644, 262,657, 262" /> 
<polyline id="r0"  stroke="rgb(0,0,0)" fill="none" stroke-width="3px" stroke-dasharray="" points="769, 324,782, 324" /> 
<polyline id="r0"  stroke="rgb(0,0,0)" fill="none" stroke-width="3px" stroke-dasharray="" points="769, 349,782, 349" /> 
<polyline id="r0"  stroke="rgb(0,0,0)" fill="none" stroke-width="3px" stroke-dasharray="" points="732, 324,732, 324" /> 
<polyline id="r0"  stroke="rgb(0,0,0)" fill="none" stroke-width="3px" stroke-dasharray="" points="732, 349,732, 349" /> 
<line id="r0" stroke="rgb(0,0,0)" x1="532" y1="249" x2="544" y2="237" stroke-width="1px" />
<line id="r0" stroke="rgb(0,0,0)" x1="532" y1="249" x2="544" y2="262" stroke-width="1px" />
<a xlink:href='javascript:parent.location.href="../../alien_game_lib/c4_t1_m2/struct_bd.htm"'>
<polyline id="r0"  stroke="rgb(0,255,0)" fill="rgb(0,255,0)" stroke-width="1px" stroke-dasharray="" points="357, 437,348, 442,348, 432,357, 437" /> 
</a>
<polyline id="r0"  stroke="rgb(0,0,0)" fill="none" stroke-width="1px" stroke-dasharray="" points="357, 437,348, 442,348, 432,357, 437" /> 
<a xlink:href='javascript:parent.location.href="../../alien_game_lib/c4_t1_m2/struct_bd.htm"'>
<polyline id="r0"  stroke="rgb(0,255,0)" fill="rgb(0,255,0)" stroke-width="1px" stroke-dasharray="" points="357, 449,348, 454,348, 445,357, 449" /> 
</a>
<polyline id="r0"  stroke="rgb(0,0,0)" fill="none" stroke-width="1px" stroke-dasharray="" points="357, 449,348, 454,348, 445,357, 449" /> 
<a xlink:href='javascript:parent.location.href="../../alien_game_lib/c4_t1_m2/struct_bd.htm"'>
<polyline id="r0"  stroke="rgb(0,255,0)" fill="rgb(0,255,0)" stroke-width="1px" stroke-dasharray="" points="357, 462,348, 467,348, 457,357, 462" /> 
</a>
<polyline id="r0"  stroke="rgb(0,0,0)" fill="none" stroke-width="1px" stroke-dasharray="" points="357, 462,348, 467,348, 457,357, 462" /> 
<a xlink:href='javascript:parent.location.href="../../alien_game_lib/c4_t1_m2/struct_bd.htm"'>
<polyline id="r0"  stroke="rgb(0,255,0)" fill="rgb(0,255,0)" stroke-width="1px" stroke-dasharray="" points="357, 474,348, 479,348, 470,357, 474" /> 
</a>
<polyline id="r0"  stroke="rgb(0,0,0)" fill="none" stroke-width="1px" stroke-dasharray="" points="357, 474,348, 479,348, 470,357, 474" /> 
<a xlink:href='javascript:parent.location.href="../../alien_game_lib/c4_t1_m3/struct_bd.htm"'>
<polyline id="r0"  stroke="rgb(0,255,0)" fill="rgb(0,255,0)" stroke-width="1px" stroke-dasharray="" points="357, 537,348, 542,348, 532,357, 537" /> 
</a>
<polyline id="r0"  stroke="rgb(0,0,0)" fill="none" stroke-width="1px" stroke-dasharray="" points="357, 537,348, 542,348, 532,357, 537" /> 
<a xlink:href='javascript:parent.location.href="../../alien_game_lib/c4_t1_m3/struct_bd.htm"'>
<polyline id="r0"  stroke="rgb(0,255,0)" fill="rgb(0,255,0)" stroke-width="1px" stroke-dasharray="" points="357, 549,348, 554,348, 545,357, 549" /> 
</a>
<polyline id="r0"  stroke="rgb(0,0,0)" fill="none" stroke-width="1px" stroke-dasharray="" points="357, 549,348, 554,348, 545,357, 549" /> 
<a xlink:href='javascript:parent.location.href="../../alien_game_lib/c4_t1_m3/struct_bd.htm"'>
<polyline id="r0"  stroke="rgb(0,255,0)" fill="rgb(0,255,0)" stroke-width="1px" stroke-dasharray="" points="357, 562,348, 567,348, 557,357, 562" /> 
</a>
<polyline id="r0"  stroke="rgb(0,0,0)" fill="none" stroke-width="1px" stroke-dasharray="" points="357, 562,348, 567,348, 557,357, 562" /> 
<a xlink:href='javascript:parent.location.href="../../alien_game_lib/c4_t1_m3/struct_bd.htm"'>
<polyline id="r0"  stroke="rgb(0,255,0)" fill="rgb(0,255,0)" stroke-width="1px" stroke-dasharray="" points="357, 574,348, 579,348, 570,357, 574" /> 
</a>
<polyline id="r0"  stroke="rgb(0,0,0)" fill="none" stroke-width="1px" stroke-dasharray="" points="357, 574,348, 579,348, 570,357, 574" /> 
<circle id="r0"  stroke="rgb(0,0,0)" fill="rgb(0,0,0)" stroke-width="1px" stroke-dasharray="" cx="194" cy="437" r="5"/> 
<circle stroke="rgb(0,0,0)" fill="none" stroke-width="1px" stroke-dasharray="" cx="194" cy="437" r="5"/> 
<circle id="r0"  stroke="rgb(0,0,0)" fill="rgb(0,0,0)" stroke-width="1px" stroke-dasharray="" cx="157" cy="412" r="5"/> 
<circle stroke="rgb(0,0,0)" fill="none" stroke-width="1px" stroke-dasharray="" cx="157" cy="412" r="5"/> 
<circle id="r0"  stroke="rgb(0,0,0)" fill="rgb(0,0,0)" stroke-width="1px" stroke-dasharray="" cx="194" cy="437" r="5"/> 
<circle stroke="rgb(0,0,0)" fill="none" stroke-width="1px" stroke-dasharray="" cx="194" cy="437" r="5"/> 
<circle id="r0"  stroke="rgb(0,0,0)" fill="rgb(0,0,0)" stroke-width="1px" stroke-dasharray="" cx="194" cy="437" r="5"/> 
<circle stroke="rgb(0,0,0)" fill="none" stroke-width="1px" stroke-dasharray="" cx="194" cy="437" r="5"/> 
<circle id="r0"  stroke="rgb(0,0,0)" fill="rgb(0,0,0)" stroke-width="1px" stroke-dasharray="" cx="157" cy="412" r="5"/> 
<circle stroke="rgb(0,0,0)" fill="none" stroke-width="1px" stroke-dasharray="" cx="157" cy="412" r="5"/> 
<circle id="r0"  stroke="rgb(0,0,0)" fill="rgb(0,0,0)" stroke-width="1px" stroke-dasharray="" cx="157" cy="412" r="5"/> 
<circle stroke="rgb(0,0,0)" fill="none" stroke-width="1px" stroke-dasharray="" cx="157" cy="412" r="5"/> 
<a xlink:href='javascript:parent.location.href="../../alien_game_lib/c4_t1_m2/struct_bd.htm"'>
<polyline id="r0"  stroke="rgb(0,255,0)" fill="rgb(0,255,0)" stroke-width="1px" stroke-dasharray="" points="541, 437,532, 442,532, 432,541, 437" /> 
</a>
<polyline id="r0"  stroke="rgb(0,0,0)" fill="none" stroke-width="1px" stroke-dasharray="" points="541, 437,532, 442,532, 432,541, 437" /> 
<a xlink:href='javascript:parent.location.href="../../alien_game_lib/c4_t1_m3/struct_bd.htm"'>
<polyline id="r0"  stroke="rgb(0,255,0)" fill="rgb(0,255,0)" stroke-width="1px" stroke-dasharray="" points="541, 537,532, 542,532, 532,541, 537" /> 
</a>
<polyline id="r0"  stroke="rgb(0,0,0)" fill="none" stroke-width="1px" stroke-dasharray="" points="541, 537,532, 542,532, 532,541, 537" /> 
<polyline id="r0"  stroke="rgb(0,0,0)" fill="none" stroke-width="3px" stroke-dasharray="" points="669, 487,657, 487" /> 
<polyline id="r0"  stroke="rgb(0,0,0)" fill="none" stroke-width="3px" stroke-dasharray="" points="644, 437,644, 470" /> 
<polyline id="r0"  stroke="rgb(0,0,0)" fill="none" stroke-width="3px" stroke-dasharray="" points="619, 449,632, 449" /> 
<polyline id="r0"  stroke="rgb(0,0,0)" fill="none" stroke-width="3px" stroke-dasharray="" points="619, 474,632, 474" /> 
<polyline id="r0"  stroke="rgb(0,0,0)" fill="none" stroke-width="3px" stroke-dasharray="" points="619, 499,632, 499" /> 
<polyline id="r0"  stroke="rgb(0,0,0)" fill="none" stroke-width="3px" stroke-dasharray="" points="619, 524,632, 524" /> 
<polyline id="r0"  stroke="rgb(0,0,0)" fill="none" stroke-width="3px" stroke-dasharray="" points="819, 337,807, 337" /> 
<polyline id="r0"  stroke="rgb(0,0,0)" fill="none" stroke-width="3px" stroke-dasharray="" points="757, 599,757, 599" /> 
<a xlink:href='javascript:parent.location.href="../../alien_game_lib/c4_t1_m2/struct_bd.htm"'>
<polyline id="r0"  stroke="rgb(0,255,0)" fill="rgb(0,255,0)" stroke-width="1px" stroke-dasharray="" points="357, 637,348, 642,348, 632,357, 637" /> 
</a>
<polyline id="r0"  stroke="rgb(0,0,0)" fill="none" stroke-width="1px" stroke-dasharray="" points="357, 637,348, 642,348, 632,357, 637" /> 
<a xlink:href='javascript:parent.location.href="../../alien_game_lib/c4_t1_m2/struct_bd.htm"'>
<polyline id="r0"  stroke="rgb(0,255,0)" fill="rgb(0,255,0)" stroke-width="1px" stroke-dasharray="" points="357, 649,348, 654,348, 645,357, 649" /> 
</a>
<polyline id="r0"  stroke="rgb(0,0,0)" fill="none" stroke-width="1px" stroke-dasharray="" points="357, 649,348, 654,348, 645,357, 649" /> 
<a xlink:href='javascript:parent.location.href="../../alien_game_lib/c4_t1_m2/struct_bd.htm"'>
<polyline id="r0"  stroke="rgb(0,255,0)" fill="rgb(0,255,0)" stroke-width="1px" stroke-dasharray="" points="541, 637,532, 642,532, 632,541, 637" /> 
</a>
<polyline id="r0"  stroke="rgb(0,0,0)" fill="none" stroke-width="1px" stroke-dasharray="" points="541, 637,532, 642,532, 632,541, 637" /> 
<a xlink:href='javascript:parent.location.href="../../alien_game_lib/c4_t1_m2/struct_bd.htm"'>
<polyline id="r0"  stroke="rgb(0,255,0)" fill="rgb(0,255,0)" stroke-width="1px" stroke-dasharray="" points="357, 662,348, 667,348, 657,357, 662" /> 
</a>
<polyline id="r0"  stroke="rgb(0,0,0)" fill="none" stroke-width="1px" stroke-dasharray="" points="357, 662,348, 667,348, 657,357, 662" /> 
<a xlink:href='javascript:parent.location.href="../../alien_game_lib/c4_t1_m2/struct_bd.htm"'>
<polyline id="r0"  stroke="rgb(0,255,0)" fill="rgb(0,255,0)" stroke-width="1px" stroke-dasharray="" points="357, 674,348, 679,348, 670,357, 674" /> 
</a>
<polyline id="r0"  stroke="rgb(0,0,0)" fill="none" stroke-width="1px" stroke-dasharray="" points="357, 674,348, 679,348, 670,357, 674" /> 
<text x="607" y="82" font-family="Courier New" fill="rgb(0,0,0)" font-size="10" text-anchor="start">gun_color  : std_logic_vector(23 DOWNTO 0)</text>
<text x="607" y="155" font-family="Courier New" fill="rgb(0,0,0)" font-size="10" text-anchor="start">SIGNAL din3       : std_logic_vector(7 DOWNTO 0)</text>
<text x="607" y="145" font-family="Courier New" fill="rgb(0,0,0)" font-size="10" text-anchor="start">SIGNAL din2       : std_logic_vector(7 DOWNTO 0)</text>
<text x="607" y="135" font-family="Courier New" fill="rgb(0,0,0)" font-size="10" text-anchor="start">SIGNAL din1       : std_logic_vector(7 DOWNTO 0)</text>
<text x="607" y="125" font-family="Courier New" fill="rgb(0,0,0)" font-size="10" text-anchor="start">SIGNAL din0       : std_logic_vector(7 DOWNTO 0)</text>
<text x="607" y="175" font-family="Courier New" fill="rgb(0,0,0)" font-size="10" text-anchor="start">SIGNAL dout1      : std_logic_vector(7 DOWNTO 0)</text>
<text x="607" y="185" font-family="Courier New" fill="rgb(0,0,0)" font-size="10" text-anchor="start">SIGNAL dout2      : std_logic_vector(7 DOWNTO 0)</text>
<text x="32" y="416" font-family="arial" fill="rgb(0,0,0)" font-size="10" text-anchor="end">rst_n</text>
<text x="422" y="472" font-family="Arial" fill="rgb(0,0,0)" font-weight="800" font-size="10" text-anchor="start">alien_game_lib</text>
<text x="422" y="484" font-family="Arial" fill="rgb(0,0,0)" font-weight="800" font-size="10" text-anchor="start">c4_t1_m2</text>
<text x="422" y="497" font-family="Arial" fill="rgb(0,0,0)" font-weight="800" font-size="10" text-anchor="start">U_0</text>
<text x="519" y="441" font-family="Arial" fill="rgb(0,0,0)" font-size="10" text-anchor="end">x_coordinate : (7:0)</text>
<text x="422" y="359" font-family="Arial" fill="rgb(0,0,0)" font-weight="800" font-size="10" text-anchor="start">alien_game_lib</text>
<text x="422" y="372" font-family="Arial" fill="rgb(0,0,0)" font-weight="800" font-size="10" text-anchor="start">c4_t1_m1</text>
<text x="422" y="384" font-family="Arial" fill="rgb(0,0,0)" font-weight="800" font-size="10" text-anchor="start">U_1</text>
<text x="519" y="341" font-family="Arial" fill="rgb(0,0,0)" font-size="10" text-anchor="end">x_coordinate : (7:0)</text>
<text x="422" y="572" font-family="arial" fill="rgb(0,0,0)" font-weight="800" font-size="10" text-anchor="start">alien_game_lib</text>
<text x="422" y="584" font-family="arial" fill="rgb(0,0,0)" font-weight="800" font-size="10" text-anchor="start">c4_t1_m3</text>
<text x="422" y="597" font-family="arial" fill="rgb(0,0,0)" font-weight="800" font-size="10" text-anchor="start">U_2</text>
<text x="519" y="541" font-family="arial" fill="rgb(0,0,0)" font-size="10" text-anchor="end">x_coordinate : (7:0)</text>
<text x="422" y="672" font-family="Arial" fill="rgb(0,0,0)" font-weight="800" font-size="10" text-anchor="start">alien_game_lib</text>
<text x="422" y="684" font-family="Arial" fill="rgb(0,0,0)" font-weight="800" font-size="10" text-anchor="start">c4_t1_m2</text>
<text x="422" y="697" font-family="Arial" fill="rgb(0,0,0)" font-weight="800" font-size="10" text-anchor="start">U_7</text>
<text x="519" y="641" font-family="Arial" fill="rgb(0,0,0)" font-size="10" text-anchor="end">x_coordinate : (7:0)</text>
<text x="119" y="135" font-family="arial" fill="rgb(0,0,0)" font-weight="800" font-size="10" text-anchor="start">Package List</text>
<text x="119" y="147" font-family="arial" fill="rgb(0,0,0)" font-size="10" text-anchor="start">LIBRARY ieee;</text>
<text x="119" y="160" font-family="arial" fill="rgb(0,0,0)" font-size="10" text-anchor="start">USE ieee.std_logic_1164.all;</text>
<text x="119" y="172" font-family="arial" fill="rgb(0,0,0)" font-size="10" text-anchor="start">USE ieee.std_logic_arith.all;</text>
<text x="394" y="253" font-family="arial" fill="rgb(0,0,0)" font-size="10" text-anchor="end">gun_px_idx</text>
<text x="32" y="366" font-family="arial" fill="rgb(0,0,0)" font-size="10" text-anchor="end">enable</text>
<text x="32" y="391" font-family="arial" fill="rgb(0,0,0)" font-size="10" text-anchor="end">clk</text>
<text x="369" y="341" font-family="Arial" fill="rgb(0,0,0)" font-size="10" text-anchor="start">btn : (3:0)</text>
<text x="369" y="353" font-family="Arial" fill="rgb(0,0,0)" font-size="10" text-anchor="start">rst_n</text>
<text x="369" y="366" font-family="Arial" fill="rgb(0,0,0)" font-size="10" text-anchor="start">clk</text>
<text x="369" y="378" font-family="Arial" fill="rgb(0,0,0)" font-size="10" text-anchor="start">enable</text>
<text x="298" y="372" font-family="arial" fill="rgb(0,0,0)" font-size="10" text-anchor="start">enable</text>
<text x="582" y="115" font-family="arial" fill="rgb(0,0,0)" font-weight="800" font-size="10" text-anchor="start">Diagram Signals:</text>
<text x="607" y="32" font-family="Courier New" fill="rgb(0,0,0)" font-size="10" text-anchor="start">btn        : std_logic_vector(3 DOWNTO 0)</text>
<text x="607" y="62" font-family="Courier New" fill="rgb(0,0,0)" font-size="10" text-anchor="start">gun_px_idx : std_logic_vector(1 DOWNTO 0)</text>
<text x="607" y="52" font-family="Courier New" fill="rgb(0,0,0)" font-size="10" text-anchor="start">enable     : std_logic</text>
<text x="607" y="42" font-family="Courier New" fill="rgb(0,0,0)" font-size="10" text-anchor="start">clk        : std_logic</text>
<text x="607" y="72" font-family="Courier New" fill="rgb(0,0,0)" font-size="10" text-anchor="start">rst_n      : std_logic</text>
<text x="607" y="92" font-family="Courier New" fill="rgb(0,0,0)" font-size="10" text-anchor="start">x_coord    : std_logic_vector(7 DOWNTO 0)</text>
<text x="607" y="102" font-family="Courier New" fill="rgb(0,0,0)" font-size="10" text-anchor="start">y_coord    : std_logic_vector(7 DOWNTO 0)</text>
<text x="663" y="253" font-family="arial" fill="rgb(0,0,0)" font-size="10" text-anchor="start">and</text>
<text x="663" y="266" font-family="arial" fill="rgb(0,0,0)" font-size="10" text-anchor="start">U_3</text>
<text x="607" y="165" font-family="Courier New" fill="rgb(0,0,0)" font-size="10" text-anchor="start">SIGNAL dout       : std_logic</text>
<text x="582" y="10" font-family="arial" fill="rgb(0,0,0)" font-weight="800" font-size="10" text-anchor="start">Declarations</text>
<text x="582" y="22" font-family="arial" fill="rgb(0,0,0)" font-weight="800" font-size="10" text-anchor="start">Ports:</text>
<text x="557" y="234" font-family="arial" fill="rgb(0,0,0)" font-size="10" text-anchor="start">gun_px_idx(1)</text>
<text x="557" y="259" font-family="arial" fill="rgb(0,0,0)" font-size="10" text-anchor="start">gun_px_idx(0)</text>
<text x="799" y="386" font-family="arial" fill="rgb(0,0,0)" font-size="10" text-anchor="start">mux</text>
<text x="799" y="398" font-family="arial" fill="rgb(0,0,0)" font-size="10" text-anchor="start">U_5</text>
<text x="784" y="331" font-family="arial" fill="rgb(0,0,0)" font-size="10" text-anchor="start">Lo</text>
<text x="785" y="355" font-family="arial" fill="rgb(0,0,0)" font-size="10" text-anchor="start">Hi</text>
<text x="786" y="343" font-family="arial" fill="rgb(0,0,0)" font-size="10" text-anchor="start">mux</text>
<text x="711" y="298" font-family="arial" fill="rgb(0,0,0)" font-size="10" text-anchor="start">constval</text>
<text x="711" y="311" font-family="arial" fill="rgb(0,0,0)" font-size="10" text-anchor="start">U_8</text>
<text x="711" y="373" font-family="arial" fill="rgb(0,0,0)" font-size="10" text-anchor="start">constval</text>
<text x="711" y="386" font-family="arial" fill="rgb(0,0,0)" font-size="10" text-anchor="start">U_9</text>
<text x="32" y="441" font-family="arial" fill="rgb(0,0,0)" font-size="10" text-anchor="end">btn</text>
<text x="369" y="441" font-family="Arial" fill="rgb(0,0,0)" font-size="10" text-anchor="start">btn : (3:0)</text>
<text x="369" y="453" font-family="Arial" fill="rgb(0,0,0)" font-size="10" text-anchor="start">rst_n</text>
<text x="369" y="466" font-family="Arial" fill="rgb(0,0,0)" font-size="10" text-anchor="start">clk</text>
<text x="369" y="478" font-family="Arial" fill="rgb(0,0,0)" font-size="10" text-anchor="start">enable</text>
<text x="369" y="541" font-family="arial" fill="rgb(0,0,0)" font-size="10" text-anchor="start">btn : (3:0)</text>
<text x="369" y="553" font-family="arial" fill="rgb(0,0,0)" font-size="10" text-anchor="start">rst_n</text>
<text x="369" y="566" font-family="arial" fill="rgb(0,0,0)" font-size="10" text-anchor="start">clk</text>
<text x="369" y="578" font-family="arial" fill="rgb(0,0,0)" font-size="10" text-anchor="start">enable</text>
<text x="369" y="641" font-family="Arial" fill="rgb(0,0,0)" font-size="10" text-anchor="start">btn : (3:0)</text>
<text x="369" y="653" font-family="Arial" fill="rgb(0,0,0)" font-size="10" text-anchor="start">rst_n</text>
<text x="369" y="666" font-family="Arial" fill="rgb(0,0,0)" font-size="10" text-anchor="start">clk</text>
<text x="369" y="678" font-family="Arial" fill="rgb(0,0,0)" font-size="10" text-anchor="start">enable</text>
<text x="323" y="434" font-family="arial" fill="rgb(0,0,0)" font-size="10" text-anchor="start">btn</text>
<text x="323" y="534" font-family="arial" fill="rgb(0,0,0)" font-size="10" text-anchor="start">btn</text>
<text x="323" y="634" font-family="arial" fill="rgb(0,0,0)" font-size="10" text-anchor="start">btn</text>
<text x="310" y="447" font-family="arial" fill="rgb(0,0,0)" font-size="10" text-anchor="start">rst_n</text>
<text x="310" y="547" font-family="arial" fill="rgb(0,0,0)" font-size="10" text-anchor="start">rst_n</text>
<text x="310" y="647" font-family="arial" fill="rgb(0,0,0)" font-size="10" text-anchor="start">rst_n</text>
<text x="323" y="459" font-family="arial" fill="rgb(0,0,0)" font-size="10" text-anchor="start">clk</text>
<text x="323" y="559" font-family="arial" fill="rgb(0,0,0)" font-size="10" text-anchor="start">clk</text>
<text x="323" y="659" font-family="arial" fill="rgb(0,0,0)" font-size="10" text-anchor="start">clk</text>
<text x="298" y="472" font-family="arial" fill="rgb(0,0,0)" font-size="10" text-anchor="start">enable</text>
<text x="298" y="572" font-family="arial" fill="rgb(0,0,0)" font-size="10" text-anchor="start">enable</text>
<text x="497" y="822" font-family="Arial" fill="rgb(0,0,128)" font-size="10" text-anchor="start">by mqange on 22 marras 2022</text>
<text x="709" y="772" font-family="Arial" fill="rgb(0,0,128)" font-size="10" text-anchor="start">Project:</text>
<text x="497" y="797" font-family="Arial" fill="rgb(0,0,128)" font-size="10" text-anchor="start">&#0060;enter diagram title here&#0062;</text>
<text x="447" y="797" font-family="Arial" fill="rgb(0,0,128)" font-size="10" text-anchor="start">Title:</text>
<text x="709" y="787" font-family="Arial" fill="rgb(0,0,128)" font-size="10" text-anchor="start">&#0060;enter comments here&#0062;</text>
<text x="759" y="772" font-family="Arial" fill="rgb(0,0,128)" font-size="10" text-anchor="start">alien_game</text>
<text x="576" y="778" font-family="Arial" fill="rgb(127,0,0)" font-size="10" text-anchor="middle">&#0060;company name&#0062;</text>
<text x="447" y="809" font-family="Arial" fill="rgb(0,0,128)" font-size="10" text-anchor="start">Path:</text>
<text x="447" y="822" font-family="Arial" fill="rgb(0,0,128)" font-size="10" text-anchor="start">Edited:</text>
<text x="497" y="809" font-family="Arial" fill="rgb(0,0,128)" font-size="10" text-anchor="start">alien_game_lib/c4_t1_gun_module/struct</text>
<text x="649" y="548" font-family="arial" fill="rgb(0,0,0)" font-size="10" text-anchor="start">mux</text>
<text x="649" y="561" font-family="arial" fill="rgb(0,0,0)" font-size="10" text-anchor="start">U_4</text>
<text x="634" y="481" font-family="arial" fill="rgb(0,0,0)" font-size="10" text-anchor="start">Lo</text>
<text x="635" y="505" font-family="arial" fill="rgb(0,0,0)" font-size="10" text-anchor="start">Hi</text>
<text x="636" y="493" font-family="arial" fill="rgb(0,0,0)" font-size="10" text-anchor="start">mux</text>
<text x="724" y="623" font-family="arial" fill="rgb(0,0,0)" font-size="10" text-anchor="start">constval</text>
<text x="724" y="636" font-family="arial" fill="rgb(0,0,0)" font-size="10" text-anchor="start">U_6</text>
<text x="919" y="491" font-family="arial" fill="rgb(0,0,0)" font-size="10" text-anchor="start">x_coord</text>
<text x="957" y="341" font-family="arial" fill="rgb(0,0,0)" font-size="10" text-anchor="start">y_coord</text>
<text x="957" y="603" font-family="arial" fill="rgb(0,0,0)" font-size="10" text-anchor="start">gun_color</text>
<g id="btn_net" stroke="rgb(0,0,0)" stroke-width="3px"  >
<polyline id="r0"  fill="none"  stroke-dasharray="" points="70, 437,194, 437,194, 337,348, 337" /> 
<polyline id="r0"  fill="none"  stroke-dasharray="" points="194, 437,348, 437" /> 
<polyline id="r0"  fill="none"  stroke-dasharray="" points="194, 437,194, 537,348, 537" /> 
<polyline id="r0"  fill="none"  stroke-dasharray="" points="194, 437,194, 637,348, 637" /> 
</g>
<g id="clk_net" stroke="rgb(0,0,0)" stroke-width="1px"  >
<polyline id="r0"  fill="none"  stroke-dasharray="" points="119, 387,119, 462,348, 462" /> 
<polyline id="r0"  fill="none"  stroke-dasharray="" points="119, 387,119, 562,348, 562" /> 
<polyline id="r0"  fill="none"  stroke-dasharray="" points="119, 387,119, 662,348, 662" /> 
<polyline id="r0"  fill="none"  stroke-dasharray="" points="70, 387,119, 387,119, 362,348, 362" /> 
</g>
<g id="din0_net" stroke="rgb(0,0,0)" stroke-width="3px"  >
<polyline id="r0"  fill="none"  stroke-dasharray="" points="619, 449,594, 449,594, 337,541, 337" /> 
</g>
<g id="din1_net" stroke="rgb(0,0,0)" stroke-width="3px"  >
<polyline id="r0"  fill="none"  stroke-dasharray="" points="619, 474,582, 474,582, 437,541, 437" /> 
</g>
<g id="din2_net" stroke="rgb(0,0,0)" stroke-width="3px"  >
<polyline id="r0"  fill="none"  stroke-dasharray="" points="619, 499,594, 499,594, 537,541, 537" /> 
</g>
<g id="din3_net" stroke="rgb(0,0,0)" stroke-width="3px"  >
<polyline id="r0"  fill="none"  stroke-dasharray="" points="619, 524,607, 524,607, 637,541, 637" /> 
</g>
<g id="dout_net" stroke="rgb(0,0,0)" stroke-width="1px"  >
<polyline id="r0"  fill="none"  stroke-dasharray="" points="719, 249,794, 249,794, 299" /> 
</g>
<g id="dout1_net" stroke="rgb(0,0,0)" stroke-width="3px"  >
<polyline id="r0"  fill="none"  stroke-dasharray="" points="732, 324,769, 324" /> 
</g>
<g id="dout2_net" stroke="rgb(0,0,0)" stroke-width="3px"  >
<polyline id="r0"  fill="none"  stroke-dasharray="" points="732, 349,769, 349" /> 
</g>
<g id="enable_net" stroke="rgb(0,0,0)" stroke-width="1px"  >
<polyline id="r0"  fill="none"  stroke-dasharray="" points="70, 362,82, 362,82, 674,348, 674" /> 
<polyline id="r0"  fill="none"  stroke-dasharray="" points="348, 474,82, 474,82, 362" /> 
<polyline id="r0"  fill="none"  stroke-dasharray="" points="82, 362,82, 374,348, 374" /> 
<polyline id="r0"  fill="none"  stroke-dasharray="" points="348, 574,82, 574" /> 
</g>
<g id="gun_color_net" stroke="rgb(0,0,0)" stroke-width="3px"  >
<polyline id="r0"  fill="none"  stroke-dasharray="" points="757, 599,919, 599" /> 
</g>
<g id="gun_px_idx_net" stroke="rgb(0,0,0)" stroke-width="3px"  >
<polyline id="r0"  fill="none"  stroke-dasharray="" points="432, 249,644, 249,644, 437" /> 
<polyline id="r0"  fill="none"  stroke-dasharray="" points="544, 237,644, 237" /> 
<polyline id="r0"  fill="none"  stroke-dasharray="" points="544, 262,644, 262" /> 
</g>
<g id="rst_n_net" stroke="rgb(0,0,0)" stroke-width="1px"  >
<polyline id="r0"  fill="none"  stroke-dasharray="" points="157, 412,157, 449,348, 449" /> 
<polyline id="r0"  fill="none"  stroke-dasharray="" points="157, 412,157, 549,348, 549" /> 
<polyline id="r0"  fill="none"  stroke-dasharray="" points="157, 412,157, 649,348, 649" /> 
<polyline id="r0"  fill="none"  stroke-dasharray="" points="70, 412,157, 412,157, 349,348, 349" /> 
</g>
<g id="x_coord_net" stroke="rgb(0,0,0)" stroke-width="3px"  >
<polyline id="r0"  fill="none"  stroke-dasharray="" points="669, 487,882, 487" /> 
</g>
<g id="y_coord_net" stroke="rgb(0,0,0)" stroke-width="3px"  >
<polyline id="r0"  fill="none"  stroke-dasharray="" points="819, 337,919, 337" /> 
</g>
</g>
</svg>
<!-- Create a "titlebox" group so we can reposition it when the SVG moves -->
<g id="titlebox">
<g id="genTime" class="allText normalText">
  <text class="allText smallText" x="300" y="123">Generated on:  1.12.2022 at: 11:39 ip.</text>
</g>

<rect stroke="none" fill="rgb(200,230,240)" opacity="0.4" y="112" x="0" width="914" height="15" />
<!-- Close the "titlebox" group -->
</g>

</g>
</svg>
