<?xml version="1.0" encoding="UTF-8"?>
<!DOCTYPE svg PUBLIC "-//W3C//DTD SVG 1.1//EN" "http://www.w3.org/Graphics/SVG/1.1/DTD/svg11.dtd">
<!-- Created HDS 2004.1a -->


<svg xmlns="http://www.w3.org/2000/svg" xmlns:xlink="http://www.w3.org/1999/xlink" version="1.1">
<script xlink:href="../../scripts/SVGPan.js" />
<g id="viewport" transform="translate(0,-100)">


<title>SVG Image</title>
<desc></desc>


<defs>
<!-- section for CSS stylesheet definitions -->
<style type="text/css"><![CDATA[
.allText {font-family:Sans-Serif;fill:darkcyan;}
.subTitleText {font-size:20;font-weight:bold;}
.normalText {font-size:15;}
.smallText {font-size:12;}
.boldText {font-weight:bold;}
.rightText {text-anchor:end;}
.centerText {text-anchor:middle;}
.dragRect {fill:darkcyan;stroke:none;opacity:0.4;}
]]></style>
<symbol id="upArrow" overflow="visible" style="stroke:darkcyan;fill:darkcyan;stroke-width:1;" pointer-events="none">
<polygon points="5,0 10,5 0,5 5,0" />
</symbol>
<symbol id="leftArrow" overflow="visible" style="stroke:darkcyan;fill:darkcyan;stroke-width:1;" pointer-events="none">
<polygon points="0,5 5,0 5,10 0,5" />
</symbol>
<symbol id="rightArrow" overflow="visible" style="stroke:darkcyan;fill:darkcyan;stroke-width:1;" pointer-events="none">
<polygon points="5,0 10,5 5,10 5,0" />
</symbol>
<symbol id="downArrow" overflow="visible" style="stroke:darkcyan;fill:darkcyan;stroke-width:1;" pointer-events="none">
<polygon points="0,0 5,5 10,0 0,0" />
</symbol>

</defs>
<svg id="mainMap" x="0" y="150" viewBox="0 0 917 617" width="912" height="512">


<clipPath id="SVG_Clip">
<rect x="0" y="0" width="917" height="617" />
</clipPath>
<g id="hds_models" style="clip-path:url(#SVG_Clip)">
<polyline id="r0"  stroke="rgb(102,102,102)" fill="none" stroke-width="3px" stroke-dasharray="" points="337, 262,312, 262" /> 
<polyline id="r0"  stroke="rgb(102,102,102)" fill="none" stroke-width="3px" stroke-dasharray="" points="312, 250,312, 275" /> 
<polyline id="r0"  stroke="rgb(102,102,102)" fill="none" stroke-width="3px" stroke-dasharray="" points="175, 487,150, 487" /> 
<polyline id="r0"  stroke="rgb(102,102,102)" fill="none" stroke-width="3px" stroke-dasharray="" points="150, 475,150, 500" /> 
<polyline id="r0"  stroke="rgb(102,102,102)" fill="none" stroke-width="3px" stroke-dasharray="" points="75, 375,50, 375" /> 
<polyline id="r0"  stroke="rgb(102,102,102)" fill="none" stroke-width="3px" stroke-dasharray="" points="50, 362,50, 387" /> 
<rect id="r0"  stroke="rgb(254,254,179)" fill="rgb(254,254,179)" stroke-width="1px" stroke-dasharray="" y="595px" x="337px" width="265px" height="17px" rx="0" ry="0" />
<rect id="r0"  stroke="rgb(0,0,0)" fill="none" stroke-width="1px" stroke-dasharray="" y="595px" x="337px" width="265px" height="17px" rx="0" ry="0" />
<rect id="r0"  stroke="rgb(254,254,179)" fill="rgb(254,254,179)" stroke-width="1px" stroke-dasharray="" y="525px" x="602px" width="62px" height="18px" rx="0" ry="0" />
<rect id="r0"  stroke="rgb(0,0,0)" fill="none" stroke-width="1px" stroke-dasharray="" y="525px" x="602px" width="62px" height="18px" rx="0" ry="0" />
<rect id="r0"  stroke="rgb(254,254,179)" fill="rgb(254,254,179)" stroke-width="1px" stroke-dasharray="" y="560px" x="337px" width="265px" height="17px" rx="0" ry="0" />
<rect id="r0"  stroke="rgb(0,0,0)" fill="none" stroke-width="1px" stroke-dasharray="" y="560px" x="337px" width="265px" height="17px" rx="0" ry="0" />
<rect id="r0"  stroke="rgb(254,254,179)" fill="rgb(254,254,179)" stroke-width="1px" stroke-dasharray="" y="560px" x="275px" width="62px" height="17px" rx="0" ry="0" />
<rect id="r0"  stroke="rgb(0,0,0)" fill="none" stroke-width="1px" stroke-dasharray="" y="560px" x="275px" width="62px" height="17px" rx="0" ry="0" />
<rect id="r0"  stroke="rgb(254,254,179)" fill="rgb(254,254,179)" stroke-width="1px" stroke-dasharray="" y="543px" x="602px" width="310px" height="69px" rx="0" ry="0" />
<rect id="r0"  stroke="rgb(0,0,0)" fill="none" stroke-width="1px" stroke-dasharray="" y="543px" x="602px" width="310px" height="69px" rx="0" ry="0" />
<rect id="r0"  stroke="rgb(254,254,179)" fill="rgb(254,254,179)" stroke-width="1px" stroke-dasharray="" y="525px" x="664px" width="248px" height="18px" rx="0" ry="0" />
<rect id="r0"  stroke="rgb(0,0,0)" fill="none" stroke-width="1px" stroke-dasharray="" y="525px" x="664px" width="248px" height="18px" rx="0" ry="0" />
<rect id="r0"  stroke="rgb(254,254,179)" fill="rgb(254,254,179)" stroke-width="1px" stroke-dasharray="" y="525px" x="275px" width="327px" height="35px" rx="0" ry="0" />
<rect id="r0"  stroke="rgb(0,0,0)" fill="none" stroke-width="1px" stroke-dasharray="" y="525px" x="275px" width="327px" height="35px" rx="0" ry="0" />
<rect id="r0"  stroke="rgb(254,254,179)" fill="rgb(254,254,179)" stroke-width="1px" stroke-dasharray="" y="577px" x="275px" width="62px" height="18px" rx="0" ry="0" />
<rect id="r0"  stroke="rgb(0,0,0)" fill="none" stroke-width="1px" stroke-dasharray="" y="577px" x="275px" width="62px" height="18px" rx="0" ry="0" />
<rect id="r0"  stroke="rgb(254,254,179)" fill="rgb(254,254,179)" stroke-width="1px" stroke-dasharray="" y="595px" x="275px" width="62px" height="17px" rx="0" ry="0" />
<rect id="r0"  stroke="rgb(0,0,0)" fill="none" stroke-width="1px" stroke-dasharray="" y="595px" x="275px" width="62px" height="17px" rx="0" ry="0" />
<rect id="r0"  stroke="rgb(254,254,179)" fill="rgb(254,254,179)" stroke-width="1px" stroke-dasharray="" y="577px" x="337px" width="265px" height="18px" rx="0" ry="0" />
<rect id="r0"  stroke="rgb(0,0,0)" fill="none" stroke-width="1px" stroke-dasharray="" y="577px" x="337px" width="265px" height="18px" rx="0" ry="0" />
<a xlink:href='javascript:parent.location.href="../../tb_lib/wr_seq_tester_testbench_vhd.htm"'>
<rect id="r0"  stroke="rgb(0,255,0)" fill="rgb(0,255,0)" stroke-width="1px" stroke-dasharray="" y="251px" x="113px" width="137px" height="149px" rx="0" ry="0" />
</a>
<rect id="r0"  stroke="rgb(0,128,0)" fill="none" stroke-width="3px" stroke-dasharray="" y="251px" x="113px" width="137px" height="149px" rx="0" ry="0" />
<a xlink:href='javascript:parent.location.href="../../tb_lib/wr_seq_tester_testbench_vhd.htm"'>
<image xlink:href="VhdlFileViewIcon.png" x="116" y="378" width="18" height="19" />
</a>
<a xlink:href='javascript:parent.location.href="../../alien_game_lib/c5_t1_write_sequencer/fsm_sm.htm"'>
<rect id="r0"  stroke="rgb(0,255,0)" fill="rgb(0,255,0)" stroke-width="1px" stroke-dasharray="" y="251px" x="426px" width="224px" height="249px" rx="0" ry="0" />
</a>
<rect id="r0"  stroke="rgb(0,128,0)" fill="none" stroke-width="3px" stroke-dasharray="" y="251px" x="426px" width="224px" height="249px" rx="0" ry="0" />
<a xlink:href='javascript:parent.location.href="../../alien_game_lib/c5_t1_write_sequencer/fsm_sm.htm"'>
<image xlink:href="StateMachineViewIcon.png" x="428" y="478" width="19" height="19" />
</a>
<polyline id="r0"  stroke="rgb(0,0,0)" fill="none" stroke-width="1px" stroke-dasharray="" points="337, 262,337, 262" /> 
<polyline id="r0"  stroke="rgb(0,0,0)" fill="none" stroke-width="3px" stroke-dasharray="" points="175, 487,175, 487" /> 
<polyline id="r0"  stroke="rgb(0,0,0)" fill="none" stroke-width="1px" stroke-dasharray="" points="75, 375,75, 375" /> 
<a xlink:href='javascript:parent.location.href="../../tb_lib/wr_seq_tester_testbench_vhd.htm"'>
<polyline id="r0"  stroke="rgb(0,255,0)" fill="rgb(0,255,0)" stroke-width="1px" stroke-dasharray="" points="259, 287,250, 292,250, 283,259, 287" /> 
</a>
<polyline id="r0"  stroke="rgb(0,0,0)" fill="none" stroke-width="1px" stroke-dasharray="" points="259, 287,250, 292,250, 283,259, 287" /> 
<a xlink:href='javascript:parent.location.href="../../tb_lib/wr_seq_tester_testbench_vhd.htm"'>
<polyline id="r0"  stroke="rgb(0,255,0)" fill="rgb(0,255,0)" stroke-width="1px" stroke-dasharray="" points="112, 262,103, 267,103, 258,112, 262" /> 
</a>
<polyline id="r0"  stroke="rgb(0,0,0)" fill="none" stroke-width="1px" stroke-dasharray="" points="112, 262,103, 267,103, 258,112, 262" /> 
<a xlink:href='javascript:parent.location.href="../../tb_lib/wr_seq_tester_testbench_vhd.htm"'>
<polyline id="r0"  stroke="rgb(0,255,0)" fill="rgb(0,255,0)" stroke-width="1px" stroke-dasharray="" points="259, 300,250, 305,250, 295,259, 300" /> 
</a>
<polyline id="r0"  stroke="rgb(0,0,0)" fill="none" stroke-width="1px" stroke-dasharray="" points="259, 300,250, 305,250, 295,259, 300" /> 
<a xlink:href='javascript:parent.location.href="../../tb_lib/wr_seq_tester_testbench_vhd.htm"'>
<polyline id="r0"  stroke="rgb(0,255,0)" fill="rgb(0,255,0)" stroke-width="1px" stroke-dasharray="" points="112, 375,103, 380,103, 370,112, 375" /> 
</a>
<polyline id="r0"  stroke="rgb(0,0,0)" fill="none" stroke-width="1px" stroke-dasharray="" points="112, 375,103, 380,103, 370,112, 375" /> 
<a xlink:href='javascript:parent.location.href="../../tb_lib/wr_seq_tester_testbench_vhd.htm"'>
<polyline id="r0"  stroke="rgb(0,255,0)" fill="rgb(0,255,0)" stroke-width="1px" stroke-dasharray="" points="112, 287,103, 292,103, 283,112, 287" /> 
</a>
<polyline id="r0"  stroke="rgb(0,0,0)" fill="none" stroke-width="1px" stroke-dasharray="" points="112, 287,103, 292,103, 283,112, 287" /> 
<a xlink:href='javascript:parent.location.href="../../tb_lib/wr_seq_tester_testbench_vhd.htm"'>
<polyline id="r0"  stroke="rgb(0,255,0)" fill="rgb(0,255,0)" stroke-width="1px" stroke-dasharray="" points="112, 275,103, 280,103, 270,112, 275" /> 
</a>
<polyline id="r0"  stroke="rgb(0,0,0)" fill="none" stroke-width="1px" stroke-dasharray="" points="112, 275,103, 280,103, 270,112, 275" /> 
<a xlink:href='javascript:parent.location.href="../../tb_lib/wr_seq_tester_testbench_vhd.htm"'>
<polyline id="r0"  stroke="rgb(0,255,0)" fill="rgb(0,255,0)" stroke-width="1px" stroke-dasharray="" points="259, 325,250, 330,250, 320,259, 325" /> 
</a>
<polyline id="r0"  stroke="rgb(0,0,0)" fill="none" stroke-width="1px" stroke-dasharray="" points="259, 325,250, 330,250, 320,259, 325" /> 
<a xlink:href='javascript:parent.location.href="../../alien_game_lib/c5_t1_write_sequencer/fsm_sm.htm"'>
<polyline id="r0"  stroke="rgb(0,255,0)" fill="rgb(0,255,0)" stroke-width="1px" stroke-dasharray="" points="425, 325,416, 330,416, 320,425, 325" /> 
</a>
<polyline id="r0"  stroke="rgb(0,0,0)" fill="none" stroke-width="1px" stroke-dasharray="" points="425, 325,416, 330,416, 320,425, 325" /> 
<a xlink:href='javascript:parent.location.href="../../alien_game_lib/c5_t1_write_sequencer/fsm_sm.htm"'>
<polyline id="r0"  stroke="rgb(0,255,0)" fill="rgb(0,255,0)" stroke-width="1px" stroke-dasharray="" points="425, 262,416, 267,416, 258,425, 262" /> 
</a>
<polyline id="r0"  stroke="rgb(0,0,0)" fill="none" stroke-width="1px" stroke-dasharray="" points="425, 262,416, 267,416, 258,425, 262" /> 
<a xlink:href='javascript:parent.location.href="../../alien_game_lib/c5_t1_write_sequencer/fsm_sm.htm"'>
<polyline id="r0"  stroke="rgb(0,255,0)" fill="rgb(0,255,0)" stroke-width="1px" stroke-dasharray="" points="425, 287,416, 292,416, 283,425, 287" /> 
</a>
<polyline id="r0"  stroke="rgb(0,0,0)" fill="none" stroke-width="1px" stroke-dasharray="" points="425, 287,416, 292,416, 283,425, 287" /> 
<a xlink:href='javascript:parent.location.href="../../alien_game_lib/c5_t1_write_sequencer/fsm_sm.htm"'>
<polyline id="r0"  stroke="rgb(0,255,0)" fill="rgb(0,255,0)" stroke-width="1px" stroke-dasharray="" points="425, 300,416, 305,416, 295,425, 300" /> 
</a>
<polyline id="r0"  stroke="rgb(0,0,0)" fill="none" stroke-width="1px" stroke-dasharray="" points="425, 300,416, 305,416, 295,425, 300" /> 
<a xlink:href='javascript:parent.location.href="../../alien_game_lib/c5_t1_write_sequencer/fsm_sm.htm"'>
<polyline id="r0"  stroke="rgb(0,255,0)" fill="rgb(0,255,0)" stroke-width="1px" stroke-dasharray="" points="659, 375,650, 380,650, 370,659, 375" /> 
</a>
<polyline id="r0"  stroke="rgb(0,0,0)" fill="none" stroke-width="1px" stroke-dasharray="" points="659, 375,650, 380,650, 370,659, 375" /> 
<a xlink:href='javascript:parent.location.href="../../alien_game_lib/c5_t1_write_sequencer/fsm_sm.htm"'>
<polyline id="r0"  stroke="rgb(0,255,0)" fill="rgb(0,255,0)" stroke-width="1px" stroke-dasharray="" points="659, 387,650, 392,650, 383,659, 387" /> 
</a>
<polyline id="r0"  stroke="rgb(0,0,0)" fill="none" stroke-width="1px" stroke-dasharray="" points="659, 387,650, 392,650, 383,659, 387" /> 
<a xlink:href='javascript:parent.location.href="../../alien_game_lib/c5_t1_write_sequencer/fsm_sm.htm"'>
<polyline id="r0"  stroke="rgb(0,255,0)" fill="rgb(0,255,0)" stroke-width="1px" stroke-dasharray="" points="659, 312,650, 317,650, 308,659, 312" /> 
</a>
<polyline id="r0"  stroke="rgb(0,0,0)" fill="none" stroke-width="1px" stroke-dasharray="" points="659, 312,650, 317,650, 308,659, 312" /> 
<a xlink:href='javascript:parent.location.href="../../alien_game_lib/c5_t1_write_sequencer/fsm_sm.htm"'>
<polyline id="r0"  stroke="rgb(0,255,0)" fill="rgb(0,255,0)" stroke-width="1px" stroke-dasharray="" points="659, 337,650, 342,650, 333,659, 337" /> 
</a>
<polyline id="r0"  stroke="rgb(0,0,0)" fill="none" stroke-width="1px" stroke-dasharray="" points="659, 337,650, 342,650, 333,659, 337" /> 
<a xlink:href='javascript:parent.location.href="../../alien_game_lib/c5_t1_write_sequencer/fsm_sm.htm"'>
<polyline id="r0"  stroke="rgb(0,255,0)" fill="rgb(0,255,0)" stroke-width="1px" stroke-dasharray="" points="659, 262,650, 267,650, 258,659, 262" /> 
</a>
<polyline id="r0"  stroke="rgb(0,0,0)" fill="none" stroke-width="1px" stroke-dasharray="" points="659, 262,650, 267,650, 258,659, 262" /> 
<circle id="r0"  stroke="rgb(255,255,255)" fill="rgb(255,255,255)" stroke-width="1px" stroke-dasharray="" cx="261" cy="486" r="4"/> 
<circle stroke="rgb(255,0,0)" fill="none" stroke-width="1px" stroke-dasharray="" cx="262" cy="487" r="5"/> 
<text x="340" y="607" font-family="courier" fill="rgb(0,0,127)" font-size="11" text-anchor="start">by mqange on 11 Nov 2022</text>
<text x="340" y="572" font-family="courier" fill="rgb(0,0,127)" font-size="11" text-anchor="start">Write Sequencer Module Testbench</text>
<text x="438" y="546" font-family="courier" fill="rgb(127,0,0)" font-size="11" text-anchor="middle">Tampere University</text>
<text x="340" y="590" font-family="courier" fill="rgb(0,0,127)" font-size="11" text-anchor="start">tb_lib/tb_write_sequencer/struct</text>
<text x="275" y="126" font-family="courier" fill="rgb(0,0,0)" font-size="11" text-anchor="start">SIGNAL write_ready       : std_logic</text>
<text x="275" y="66" font-family="courier" fill="rgb(0,0,0)" font-size="11" text-anchor="start">SIGNAL clk               : std_logic</text>
<text x="275" y="86" font-family="courier" fill="rgb(0,0,0)" font-size="11" text-anchor="start">SIGNAL rst_n             : std_logic</text>
<text x="275" y="116" font-family="courier" fill="rgb(0,0,0)" font-size="11" text-anchor="start">SIGNAL write             : std_logic</text>
<text x="275" y="106" font-family="courier" fill="rgb(0,0,0)" font-size="11" text-anchor="start">SIGNAL wr_done           : std_logic</text>
<text x="275" y="76" font-family="courier" fill="rgb(0,0,0)" font-size="11" text-anchor="start">SIGNAL enable            : std_logic</text>
<text x="367" y="272" font-family="courier" fill="rgb(0,0,0)" font-size="11" text-anchor="start">alien_defeated_const</text>
<text x="275" y="56" font-family="courier" fill="rgb(0,0,0)" font-size="11" text-anchor="start">SIGNAL alien_def_const   : std_logic</text>
<text x="275" y="46" font-family="courier" fill="rgb(0,0,0)" font-size="11" text-anchor="start">SIGNAL alien_coord_const : std_logic_vector(7 DOWNTO 0)</text>
<text x="275" y="96" font-family="courier" fill="rgb(0,0,0)" font-size="11" text-anchor="start">SIGNAL simulation_ends   : std_logic</text>
<text x="237" y="304" font-family="courier" fill="rgb(0,0,0)" font-size="11" text-anchor="end">rst_n</text>
<text x="437" y="327" font-family="courier" fill="rgb(0,0,0)" font-size="11" text-anchor="start">write_ready</text>
<text x="437" y="265" font-family="courier" fill="rgb(0,0,0)" font-size="11" text-anchor="start">alien_defeated</text>
<text x="437" y="290" font-family="courier" fill="rgb(0,0,0)" font-size="11" text-anchor="start">clk</text>
<text x="437" y="302" font-family="courier" fill="rgb(0,0,0)" font-size="11" text-anchor="start">rst_n</text>
<text x="375" y="322" font-family="courier" fill="rgb(0,0,0)" font-size="11" text-anchor="start">write_ready</text>
<text x="375" y="297" font-family="courier" fill="rgb(0,0,0)" font-size="11" text-anchor="start">rst_n</text>
<text x="0" y="9" font-family="courier" fill="rgb(0,0,0)" font-weight="800" font-size="11" text-anchor="start">Package List</text>
<text x="0" y="21" font-family="courier" fill="rgb(0,0,0)" font-size="11" text-anchor="start">LIBRARY ieee;</text>
<text x="0" y="34" font-family="courier" fill="rgb(0,0,0)" font-size="11" text-anchor="start">USE ieee.std_logic_1164.all;</text>
<text x="0" y="46" font-family="courier" fill="rgb(0,0,0)" font-size="11" text-anchor="start">USE ieee.std_logic_arith.all;</text>
<text x="250" y="9" font-family="courier" fill="rgb(0,0,0)" font-weight="800" font-size="11" text-anchor="start">Declarations</text>
<text x="250" y="21" font-family="courier" fill="rgb(0,0,0)" font-weight="800" font-size="11" text-anchor="start">Ports:</text>
<text x="250" y="34" font-family="courier" fill="rgb(0,0,0)" font-weight="800" font-size="11" text-anchor="start">Diagram Signals:</text>
<text x="367" y="260" font-family="courier" fill="rgb(0,0,0)" font-size="11" text-anchor="start">constval</text>
<text x="237" y="291" font-family="courier" fill="rgb(0,0,0)" font-size="11" text-anchor="end">clk</text>
<text x="125" y="266" font-family="courier" fill="rgb(0,0,0)" font-size="11" text-anchor="start">enable</text>
<text x="125" y="291" font-family="courier" fill="rgb(0,0,0)" font-size="11" text-anchor="start">wr_done</text>
<text x="125" y="279" font-family="courier" fill="rgb(0,0,0)" font-size="11" text-anchor="start">write</text>
<text x="375" y="285" font-family="courier" fill="rgb(0,0,0)" font-size="11" text-anchor="start">clk</text>
<text x="637" y="266" font-family="courier" fill="rgb(0,0,0)" font-size="11" text-anchor="end">enable</text>
<text x="675" y="260" font-family="courier" fill="rgb(0,0,0)" font-size="11" text-anchor="start">enable</text>
<text x="277" y="572" font-family="courier" fill="rgb(0,0,127)" font-size="11" text-anchor="start">Title:</text>
<text x="277" y="590" font-family="courier" fill="rgb(0,0,127)" font-size="11" text-anchor="start">Path:</text>
<text x="277" y="607" font-family="courier" fill="rgb(0,0,127)" font-size="11" text-anchor="start">Edited:</text>
<text x="142" y="510" font-family="courier" fill="rgb(0,0,0)" font-size="11" text-anchor="start">constval</text>
<text x="142" y="522" font-family="courier" fill="rgb(0,0,0)" font-size="11" text-anchor="start">alien_coord_const</text>
<text x="42" y="397" font-family="courier" fill="rgb(0,0,0)" font-size="11" text-anchor="start">constval</text>
<text x="42" y="410" font-family="courier" fill="rgb(0,0,0)" font-size="11" text-anchor="start">simulation_ends</text>
<text x="126" y="334" font-family="courier" fill="rgb(0,0,0)" font-weight="800" font-size="11" text-anchor="start">tb_lib</text>
<text x="126" y="346" font-family="courier" fill="rgb(0,0,0)" font-weight="800" font-size="11" text-anchor="start">wr_seq_tester</text>
<text x="126" y="359" font-family="courier" fill="rgb(0,0,0)" font-weight="800" font-size="11" text-anchor="start">U_1</text>
<text x="125" y="379" font-family="courier" fill="rgb(0,0,0)" font-size="11" text-anchor="start">simulation_ends</text>
<text x="237" y="329" font-family="courier" fill="rgb(0,0,0)" font-size="11" text-anchor="end">write_ready</text>
<text x="604" y="538" font-family="courier" fill="rgb(0,0,127)" font-size="11" text-anchor="start">Project:</text>
<text x="604" y="555" font-family="courier" fill="rgb(0,0,127)" font-size="11" text-anchor="start">Simulation ends constant allows you to </text>
<text x="604" y="568" font-family="courier" fill="rgb(0,0,127)" font-size="11" text-anchor="start">choose if the </text>
<text x="604" y="580" font-family="courier" fill="rgb(0,0,127)" font-size="11" text-anchor="start">simulation ends after 2us.</text>
<text x="604" y="593" font-family="courier" fill="rgb(0,0,127)" font-size="11" text-anchor="start">Use constants to have your module </text>
<text x="604" y="605" font-family="courier" fill="rgb(0,0,127)" font-size="11" text-anchor="start">  &#0060;&#0060;-- more --&#0062;&#0062;</text>
<text x="666" y="538" font-family="courier" fill="rgb(0,0,127)" font-size="11" text-anchor="start">alien_game</text>
<text x="452" y="346" font-family="courier" fill="rgb(0,0,0)" font-weight="800" font-size="11" text-anchor="start">alien_game_lib</text>
<text x="452" y="357" font-family="courier" fill="rgb(0,0,0)" font-weight="800" font-size="11" text-anchor="start">c5_t1_write_sequencer</text>
<text x="452" y="369" font-family="courier" fill="rgb(0,0,0)" font-weight="800" font-size="11" text-anchor="start">U_0</text>
<text x="637" y="377" font-family="courier" fill="rgb(0,0,0)" font-size="11" text-anchor="end">module_select : (1:0)</text>
<text x="637" y="390" font-family="courier" fill="rgb(0,0,0)" font-size="11" text-anchor="end">gun_px_idx : (1:0)</text>
<text x="637" y="315" font-family="courier" fill="rgb(0,0,0)" font-size="11" text-anchor="end">write</text>
<text x="637" y="340" font-family="courier" fill="rgb(0,0,0)" font-size="11" text-anchor="end">frame_done</text>
<text x="687" y="310" font-family="courier" fill="rgb(0,0,0)" font-size="11" text-anchor="start">write</text>
<text x="687" y="335" font-family="courier" fill="rgb(0,0,0)" font-size="11" text-anchor="start">wr_done</text>
<g id="alien_coord_const_net" stroke="rgb(0,0,0)" stroke-width="3px"  >
<polyline id="r0"  fill="none"  stroke-dasharray="" points="175, 487,262, 487" /> 
</g>
<g id="alien_def_const_net" stroke="rgb(0,0,0)" stroke-width="1px"  >
<polyline id="r0"  fill="none"  stroke-dasharray="" points="337, 262,416, 262" /> 
</g>
<g id="clk_net" stroke="rgb(0,0,0)" stroke-width="1px"  >
<polyline id="r0"  fill="none"  stroke-dasharray="" points="259, 287,287, 287,416, 287" /> 
</g>
<g id="enable_net" stroke="rgb(0,0,0)" stroke-width="1px"  >
<polyline id="r0"  fill="none"  stroke-dasharray="" points="659, 262,775, 262,775, 162,62, 162,62, 262,103, 262" /> 
</g>
<g id="rst_n_net" stroke="rgb(0,0,0)" stroke-width="1px"  >
<polyline id="r0"  fill="none"  stroke-dasharray="" points="259, 300,416, 300" /> 
</g>
<g id="simulation_ends_net" stroke="rgb(0,0,0)" stroke-width="1px"  >
<polyline id="r0"  fill="none"  stroke-dasharray="" points="75, 375,87, 375,103, 375" /> 
</g>
<g id="wr_done_net" stroke="rgb(0,0,0)" stroke-width="1px"  >
<polyline id="r0"  fill="none"  stroke-dasharray="" points="659, 337,800, 337,800, 137,37, 137,37, 287,103, 287" /> 
</g>
<g id="write_net" stroke="rgb(0,0,0)" stroke-width="1px"  >
<polyline id="r0"  fill="none"  stroke-dasharray="" points="659, 312,787, 312,787, 150,50, 150,50, 275,103, 275" /> 
</g>
<g id="write_ready_net" stroke="rgb(0,0,0)" stroke-width="1px"  >
<polyline id="r0"  fill="none"  stroke-dasharray="" points="259, 325,416, 325" /> 
</g>
</g>
</svg>
<!-- Create a "titlebox" group so we can reposition it when the SVG moves -->
<g id="titlebox">
<g id="genTime" class="allText normalText">
  <text class="allText smallText" x="300" y="123">Generated on: 11/11/22 at:  3:18 PM</text>
</g>

<rect stroke="none" fill="rgb(200,230,240)" opacity="0.4" y="112" x="0" width="914" height="15" />
<!-- Close the "titlebox" group -->
</g>

</g>
</svg>
