<?xml version="1.0" encoding="UTF-8"?>
<!DOCTYPE svg PUBLIC "-//W3C//DTD SVG 1.1//EN" "http://www.w3.org/Graphics/SVG/1.1/DTD/svg11.dtd">
<!-- Created HDS 2004.1a -->


<svg xmlns="http://www.w3.org/2000/svg" xmlns:xlink="http://www.w3.org/1999/xlink" version="1.1">
<script xlink:href="../../scripts/SVGPan.js" />
<g id="viewport" transform="translate(0,-100)">


<title>SVG Image</title>
<desc></desc>


<defs>
<!-- section for CSS stylesheet definitions -->
<style type="text/css"><![CDATA[
.allText {font-family:Sans-Serif;fill:darkcyan;}
.subTitleText {font-size:20;font-weight:bold;}
.normalText {font-size:15;}
.smallText {font-size:12;}
.boldText {font-weight:bold;}
.rightText {text-anchor:end;}
.centerText {text-anchor:middle;}
.dragRect {fill:darkcyan;stroke:none;opacity:0.4;}
]]></style>
<symbol id="upArrow" overflow="visible" style="stroke:darkcyan;fill:darkcyan;stroke-width:1;" pointer-events="none">
<polygon points="5,0 10,5 0,5 5,0" />
</symbol>
<symbol id="leftArrow" overflow="visible" style="stroke:darkcyan;fill:darkcyan;stroke-width:1;" pointer-events="none">
<polygon points="0,5 5,0 5,10 0,5" />
</symbol>
<symbol id="rightArrow" overflow="visible" style="stroke:darkcyan;fill:darkcyan;stroke-width:1;" pointer-events="none">
<polygon points="5,0 10,5 5,10 5,0" />
</symbol>
<symbol id="downArrow" overflow="visible" style="stroke:darkcyan;fill:darkcyan;stroke-width:1;" pointer-events="none">
<polygon points="0,0 5,5 10,0 0,0" />
</symbol>

</defs>
<svg id="mainMap" x="0" y="150" viewBox="0 0 1482 769" width="912" height="512">


<clipPath id="SVG_Clip">
<rect x="0" y="0" width="1482" height="769" />
</clipPath>
<g id="hds_models" style="clip-path:url(#SVG_Clip)">
<rect id="r0"  stroke="rgb(254,254,179)" fill="rgb(254,254,179)" stroke-width="1px" stroke-dasharray="" y="752px" x="586px" width="213px" height="12px" rx="0" ry="0" />
<rect id="r0"  stroke="rgb(0,0,0)" fill="none" stroke-width="1px" stroke-dasharray="" y="752px" x="586px" width="213px" height="12px" rx="0" ry="0" />
<rect id="r0"  stroke="rgb(254,254,179)" fill="rgb(254,254,179)" stroke-width="1px" stroke-dasharray="" y="727px" x="586px" width="213px" height="12px" rx="0" ry="0" />
<rect id="r0"  stroke="rgb(0,0,0)" fill="none" stroke-width="1px" stroke-dasharray="" y="727px" x="586px" width="213px" height="12px" rx="0" ry="0" />
<rect id="r0"  stroke="rgb(254,254,179)" fill="rgb(254,254,179)" stroke-width="1px" stroke-dasharray="" y="702px" x="536px" width="263px" height="25px" rx="0" ry="0" />
<rect id="r0"  stroke="rgb(0,0,0)" fill="none" stroke-width="1px" stroke-dasharray="" y="702px" x="536px" width="263px" height="25px" rx="0" ry="0" />
<rect id="r0"  stroke="rgb(254,254,179)" fill="rgb(254,254,179)" stroke-width="1px" stroke-dasharray="" y="739px" x="586px" width="213px" height="13px" rx="0" ry="0" />
<rect id="r0"  stroke="rgb(0,0,0)" fill="none" stroke-width="1px" stroke-dasharray="" y="739px" x="586px" width="213px" height="13px" rx="0" ry="0" />
<circle id="r0"  stroke="rgb(0,255,255)" fill="rgb(0,255,255)" stroke-width="1px" stroke-dasharray="" cx="219" cy="264" r="63"/> 
<circle stroke="rgb(0,127,191)" fill="none" stroke-width="3px" stroke-dasharray="" cx="219" cy="264" r="63"/> 
<circle id="r0"  stroke="rgb(0,255,255)" fill="rgb(0,255,255)" stroke-width="1px" stroke-dasharray="" cx="506" cy="263" r="37"/> 
<circle stroke="rgb(0,127,191)" fill="none" stroke-width="3px" stroke-dasharray="" cx="506" cy="263" r="37"/> 
<polyline id="r0"  stroke="rgb(255,255,0)" fill="rgb(255,255,0)" stroke-width="1px" stroke-dasharray="" points="1111, 3,1130, 3,1139, 9,1130, 15,1111, 15,1111, 3" /> 
<polyline id="r0"  stroke="rgb(0,0,0)" fill="none" stroke-width="1px" stroke-dasharray="" points="1111, 3,1130, 3,1139, 9,1130, 15,1111, 15,1111, 3" /> 
<path stroke="rgb(0,0,0)" fill="none" stroke-width="1px" stroke-dasharray="" transform="translate(1115,9) rotate(0.000000)"
d="M 1.27840 1.53808 A 2 2 0 1 1 1.27840 -1.53808 " /> 
<polyline id="r0"  stroke="rgb(255,255,0)" fill="rgb(255,255,0)" stroke-width="1px" stroke-dasharray="" points="1111, 3,1130, 3,1139, 9,1130, 15,1111, 15,1111, 3" /> 
<polyline id="r0"  stroke="rgb(0,0,0)" fill="none" stroke-width="1px" stroke-dasharray="" points="1111, 3,1130, 3,1139, 9,1130, 15,1111, 15,1111, 3" /> 
<polyline id="r0"  stroke="rgb(0,0,0)" fill="none" stroke-width="1px" stroke-dasharray="" points="1122, 13,1126, 13,1126, 5,1130, 5" /> 
<path stroke="rgb(0,0,0)" fill="none" stroke-width="1px" stroke-dasharray="" transform="translate(1115,9) rotate(0.000000)"
d="M 1.27840 1.53808 A 2 2 0 1 1 1.27840 -1.53808 " /> 
<polyline id="r0"  stroke="rgb(255,255,0)" fill="rgb(255,255,0)" stroke-width="1px" stroke-dasharray="" points="1098, 115,1117, 115,1126, 121,1117, 127,1098, 127,1098, 115" /> 
<polyline id="r0"  stroke="rgb(0,0,0)" fill="none" stroke-width="1px" stroke-dasharray="" points="1098, 115,1117, 115,1126, 121,1117, 127,1098, 127,1098, 115" /> 
<polyline id="r0"  stroke="rgb(255,255,0)" fill="rgb(255,255,0)" stroke-width="1px" stroke-dasharray="" points="1098, 115,1117, 115,1126, 121,1117, 127,1098, 127,1098, 115" /> 
<polyline id="r0"  stroke="rgb(0,0,0)" fill="none" stroke-width="1px" stroke-dasharray="" points="1098, 115,1117, 115,1126, 121,1117, 127,1098, 127,1098, 115" /> 
<polyline id="r0"  stroke="rgb(0,0,0)" fill="none" stroke-width="1px" stroke-dasharray="" points="1117, 125,1113, 125,1113, 117,1109, 117" /> 
<polyline id="r0"  stroke="rgb(0,0,0)" fill="none" stroke-width="1px" stroke-dasharray="" points="1101, 119,1102, 119" /> 
<polyline id="r0"  stroke="rgb(0,0,0)" fill="none" stroke-width="1px" stroke-dasharray="" points="1101, 123,1101, 119" /> 
<polyline id="r0"  stroke="rgb(255,255,0)" fill="rgb(255,255,0)" stroke-width="1px" stroke-dasharray="" points="1270, 115,1288, 115,1298, 121,1288, 127,1270, 127,1270, 115" /> 
<polyline id="r0"  stroke="rgb(0,0,0)" fill="none" stroke-width="1px" stroke-dasharray="" points="1270, 115,1288, 115,1298, 121,1288, 127,1270, 127,1270, 115" /> 
<polyline id="r0"  stroke="rgb(255,255,0)" fill="rgb(255,255,0)" stroke-width="1px" stroke-dasharray="" points="1270, 115,1288, 115,1298, 121,1288, 127,1270, 127,1270, 115" /> 
<polyline id="r0"  stroke="rgb(0,0,0)" fill="none" stroke-width="1px" stroke-dasharray="" points="1270, 115,1288, 115,1298, 121,1288, 127,1270, 127,1270, 115" /> 
<polyline id="r0"  stroke="rgb(0,0,0)" fill="none" stroke-width="1px" stroke-dasharray="" points="1263, 121,1270, 121" /> 
<circle id="r0"  stroke="rgb(255,0,0)" fill="rgb(255,0,0)" stroke-width="1px" stroke-dasharray="" cx="1109" cy="58" r="11"/> 
<circle stroke="rgb(0,0,0)" fill="none" stroke-width="1px" stroke-dasharray="" cx="1109" cy="58" r="11"/> 
<circle id="r0"  stroke="rgb(255,0,0)" fill="rgb(255,0,0)" stroke-width="1px" stroke-dasharray="" cx="1109" cy="58" r="11"/> 
<circle stroke="rgb(0,0,0)" fill="none" stroke-width="1px" stroke-dasharray="" cx="1109" cy="58" r="11"/> 
<polyline id="r0"  stroke="rgb(255,255,0)" fill="none" stroke-width="2px" stroke-dasharray="" points="1104, 64,1114, 53" /> 
<polyline id="r0"  stroke="rgb(255,255,0)" fill="none" stroke-width="2px" stroke-dasharray="" points="1114, 64,1104, 53" /> 
<polyline id="r0"  stroke="rgb(255,255,0)" fill="rgb(255,255,0)" stroke-width="1px" stroke-dasharray="" points="1270, 52,1288, 52,1298, 58,1288, 65,1270, 65,1270, 52" /> 
<polyline id="r0"  stroke="rgb(0,0,0)" fill="none" stroke-width="1px" stroke-dasharray="" points="1270, 52,1288, 52,1298, 58,1288, 65,1270, 65,1270, 52" /> 
<polyline id="r0"  stroke="rgb(255,255,0)" fill="rgb(255,255,0)" stroke-width="1px" stroke-dasharray="" points="1270, 52,1288, 52,1298, 58,1288, 65,1270, 65,1270, 52" /> 
<polyline id="r0"  stroke="rgb(0,0,0)" fill="none" stroke-width="1px" stroke-dasharray="" points="1270, 52,1288, 52,1298, 58,1288, 65,1270, 65,1270, 52" /> 
<polyline id="r0"  stroke="rgb(0,0,0)" fill="none" stroke-width="1px" stroke-dasharray="" points="1263, 58,1270, 58" /> 
<circle id="r0"  stroke="rgb(0,255,255)" fill="rgb(0,255,255)" stroke-width="1px" stroke-dasharray="" cx="1088" cy="262" r="43"/> 
<circle stroke="rgb(0,127,191)" fill="none" stroke-width="3px" stroke-dasharray="" cx="1088" cy="262" r="43"/> 
<circle id="r0"  stroke="rgb(0,255,255)" fill="rgb(0,255,255)" stroke-width="1px" stroke-dasharray="" cx="797" cy="263" r="37"/> 
<circle stroke="rgb(0,127,191)" fill="none" stroke-width="3px" stroke-dasharray="" cx="797" cy="263" r="37"/> 
<circle id="r0"  stroke="rgb(0,255,255)" fill="rgb(0,255,255)" stroke-width="1px" stroke-dasharray="" cx="1330" cy="263" r="43"/> 
<circle stroke="rgb(0,127,191)" fill="none" stroke-width="3px" stroke-dasharray="" cx="1330" cy="263" r="43"/> 
<rect id="r0"  stroke="rgb(254,254,179)" fill="rgb(254,254,179)" stroke-width="1px" stroke-dasharray="" y="727px" x="536px" width="50px" height="12px" rx="0" ry="0" />
<rect id="r0"  stroke="rgb(0,0,0)" fill="none" stroke-width="1px" stroke-dasharray="" y="727px" x="536px" width="50px" height="12px" rx="0" ry="0" />
<rect id="r0"  stroke="rgb(254,254,179)" fill="rgb(254,254,179)" stroke-width="1px" stroke-dasharray="" y="739px" x="536px" width="50px" height="13px" rx="0" ry="0" />
<rect id="r0"  stroke="rgb(0,0,0)" fill="none" stroke-width="1px" stroke-dasharray="" y="739px" x="536px" width="50px" height="13px" rx="0" ry="0" />
<rect id="r0"  stroke="rgb(254,254,179)" fill="rgb(254,254,179)" stroke-width="1px" stroke-dasharray="" y="752px" x="536px" width="50px" height="12px" rx="0" ry="0" />
<rect id="r0"  stroke="rgb(0,0,0)" fill="none" stroke-width="1px" stroke-dasharray="" y="752px" x="536px" width="50px" height="12px" rx="0" ry="0" />
<circle id="r0"  stroke="rgb(0,255,255)" fill="rgb(0,255,255)" stroke-width="1px" stroke-dasharray="" cx="667" cy="500" r="56"/> 
<circle stroke="rgb(0,127,191)" fill="none" stroke-width="3px" stroke-dasharray="" cx="667" cy="500" r="56"/> 
<polyline id="r0"  stroke="rgb(0,255,255)" fill="rgb(0,255,255)" stroke-width="1px" stroke-dasharray="" points="190, 455,247, 455,263, 472,263, 528,247, 544,190, 544,174, 528,174, 472,190, 455" /> 
<polyline id="r0"  stroke="rgb(102,102,102)" fill="none" stroke-width="2px" stroke-dasharray="" points="190, 455,247, 455,263, 472,263, 528,247, 544,190, 544,174, 528,174, 472,190, 455" /> 
<circle id="r0"  stroke="rgb(0,255,255)" fill="rgb(0,255,255)" stroke-width="1px" stroke-dasharray="" cx="217" cy="498" r="37"/> 
<circle stroke="rgb(102,102,102)" fill="none" stroke-width="3px" stroke-dasharray="" cx="217" cy="498" r="37"/> 
<rect id="r0"  stroke="rgb(254,254,179)" fill="rgb(254,254,179)" stroke-width="1px" stroke-dasharray="" y="702px" x="799px" width="50px" height="12px" rx="0" ry="0" />
<rect id="r0"  stroke="rgb(0,0,0)" fill="none" stroke-width="1px" stroke-dasharray="" y="702px" x="799px" width="50px" height="12px" rx="0" ry="0" />
<rect id="r0"  stroke="rgb(254,254,179)" fill="rgb(254,254,179)" stroke-width="1px" stroke-dasharray="" y="714px" x="799px" width="250px" height="50px" rx="0" ry="0" />
<rect id="r0"  stroke="rgb(0,0,0)" fill="none" stroke-width="1px" stroke-dasharray="" y="714px" x="799px" width="250px" height="50px" rx="0" ry="0" />
<rect id="r0"  stroke="rgb(254,254,179)" fill="rgb(254,254,179)" stroke-width="1px" stroke-dasharray="" y="702px" x="849px" width="200px" height="12px" rx="0" ry="0" />
<rect id="r0"  stroke="rgb(0,0,0)" fill="none" stroke-width="1px" stroke-dasharray="" y="702px" x="849px" width="200px" height="12px" rx="0" ry="0" />
<circle id="r0"  stroke="rgb(0,255,255)" fill="rgb(0,255,255)" stroke-width="1px" stroke-dasharray="" cx="1330" cy="500" r="43"/> 
<circle stroke="rgb(0,127,191)" fill="none" stroke-width="3px" stroke-dasharray="" cx="1330" cy="500" r="43"/> 
<circle id="r0"  stroke="rgb(0,255,255)" fill="rgb(0,255,255)" stroke-width="1px" stroke-dasharray="" cx="867" cy="500" r="37"/> 
<circle stroke="rgb(0,127,191)" fill="none" stroke-width="3px" stroke-dasharray="" cx="867" cy="500" r="37"/> 
<circle id="r0"  stroke="rgb(0,255,255)" fill="rgb(0,255,255)" stroke-width="1px" stroke-dasharray="" cx="1084" cy="500" r="43"/> 
<circle stroke="rgb(0,127,191)" fill="none" stroke-width="3px" stroke-dasharray="" cx="1084" cy="500" r="43"/> 
<polyline id="r0"  stroke="rgb(0,0,0)" fill="none" stroke-width="1px" stroke-dasharray="" points="1122, 13,1126, 13,1126, 5,1130, 5" /> 
<polyline id="r0"  stroke="rgb(0,0,0)" fill="none" stroke-width="1px" stroke-dasharray="" points="1117, 125,1113, 125,1113, 117,1109, 117" /> 
<polyline id="r0"  stroke="rgb(0,0,0)" fill="none" stroke-width="1px" stroke-dasharray="" points="1101, 119,1102, 119" /> 
<polyline id="r0"  stroke="rgb(0,0,0)" fill="none" stroke-width="1px" stroke-dasharray="" points="1101, 123,1101, 119" /> 
<polyline id="r0"  stroke="rgb(0,0,0)" fill="none" stroke-width="1px" stroke-dasharray="" points="1263, 121,1270, 121" /> 
<polyline id="r0"  stroke="rgb(255,255,0)" fill="none" stroke-width="2px" stroke-dasharray="" points="1104, 64,1114, 53" /> 
<polyline id="r0"  stroke="rgb(255,255,0)" fill="none" stroke-width="2px" stroke-dasharray="" points="1114, 64,1104, 53" /> 
<polyline id="r0"  stroke="rgb(0,0,0)" fill="none" stroke-width="1px" stroke-dasharray="" points="1263, 58,1270, 58" /> 
<polyline id="r0"  stroke="rgb(0,0,0)" fill="none" stroke-width="1px" stroke-dasharray="" points="1126, 121,1263, 121" /> 
<polyline id="r0"  stroke="rgb(0,0,0)" fill="none" stroke-width="1px" stroke-dasharray="" points="1120, 58,1263, 58" /> 
<polyline id="r0"  stroke="rgb(0,0,0)" fill="none" stroke-width="1px" stroke-dasharray="" points="175, 218,172, 214,168, 209,164, 202,159, 195,154, 188,149, 180,143, 172,137, 165,131, 160,124, 155,117, 152,110, 152,103, 153,94, 156,83, 161,73, 167,62, 174,51, 181,40, 189,31, 198,22, 207,15, 216,10, 224,7, 232,7, 241,8, 250,11, 261,15, 271,21, 282,27, 293,35, 304,42, 313,50, 322,58, 330,66, 336,73, 339,80, 341,88, 341,97, 340,106, 337,116, 333,125, 328,134, 323,143, 318,151, 313,159, 309,165, 305,169, 303" /> 
<polyline id="r0"  stroke="rgb(0,0,0)" fill="rgb(0,0,0)" stroke-width="1px" stroke-dasharray="" points="165, 309,162, 303,169, 303" /> 
<polyline id="r0"  stroke="rgb(0,0,0)" fill="none" stroke-width="1px" stroke-dasharray="" points="282, 263,468, 263" /> 
<polyline id="r0"  stroke="rgb(0,0,0)" fill="rgb(0,0,0)" stroke-width="1px" stroke-dasharray="" points="461, 266,461, 260,468, 263" /> 
<polyline id="r0"  stroke="rgb(0,0,0)" fill="none" stroke-width="1px" stroke-dasharray="" points="543, 263,759, 263" /> 
<polyline id="r0"  stroke="rgb(0,0,0)" fill="rgb(0,0,0)" stroke-width="1px" stroke-dasharray="" points="752, 266,752, 260,759, 263" /> 
<polyline id="r0"  stroke="rgb(0,0,0)" fill="none" stroke-width="1px" stroke-dasharray="" points="1330, 307,1330, 456" /> 
<polyline id="r0"  stroke="rgb(0,0,0)" fill="rgb(0,0,0)" stroke-width="1px" stroke-dasharray="" points="1327, 449,1333, 449,1330, 456" /> 
<polyline id="r0"  stroke="rgb(0,0,0)" fill="none" stroke-width="1px" stroke-dasharray="" points="1040, 500,904, 499" /> 
<polyline id="r0"  stroke="rgb(0,0,0)" fill="rgb(0,0,0)" stroke-width="1px" stroke-dasharray="" points="911, 496,911, 503,904, 499" /> 
<polyline id="r0"  stroke="rgb(0,0,0)" fill="none" stroke-width="1px" stroke-dasharray="" points="829, 499,724, 499" /> 
<polyline id="r0"  stroke="rgb(0,0,0)" fill="rgb(0,0,0)" stroke-width="1px" stroke-dasharray="" points="731, 496,731, 502,724, 499" /> 
<polyline id="r0"  stroke="rgb(0,0,0)" fill="none" stroke-width="1px" stroke-dasharray="" points="610, 499,263, 500" /> 
<polyline id="r0"  stroke="rgb(0,0,0)" fill="rgb(0,0,0)" stroke-width="1px" stroke-dasharray="" points="269, 496,270, 503,263, 500" /> 
<polyline id="r0"  stroke="rgb(0,0,0)" fill="none" stroke-width="1px" stroke-dasharray="" points="219, 455,219, 327" /> 
<polyline id="r0"  stroke="rgb(0,0,0)" fill="rgb(0,0,0)" stroke-width="1px" stroke-dasharray="" points="222, 333,216, 333,219, 327" /> 
<polyline id="r0"  stroke="rgb(0,0,0)" fill="none" stroke-width="1px" stroke-dasharray="" points="834, 263,1044, 262" /> 
<polyline id="r0"  stroke="rgb(0,0,0)" fill="rgb(0,0,0)" stroke-width="1px" stroke-dasharray="" points="1037, 266,1037, 259,1044, 262" /> 
<polyline id="r0"  stroke="rgb(0,0,0)" fill="none" stroke-width="1px" stroke-dasharray="" points="1132, 262,1286, 262" /> 
<polyline id="r0"  stroke="rgb(0,0,0)" fill="rgb(0,0,0)" stroke-width="1px" stroke-dasharray="" points="1279, 266,1279, 259,1286, 262" /> 
<polyline id="r0"  stroke="rgb(0,0,0)" fill="none" stroke-width="1px" stroke-dasharray="" points="1286, 500,1128, 500" /> 
<polyline id="r0"  stroke="rgb(0,0,0)" fill="rgb(0,0,0)" stroke-width="1px" stroke-dasharray="" points="1135, 497,1135, 503,1128, 500" /> 
<rect id="r0"  stroke="rgb(255,255,255)" fill="rgb(255,255,255)" stroke-width="1px" stroke-dasharray="" y="226px" x="1px" width="94px" height="25px" rx="0" ry="0" />
<rect id="r0"  stroke="rgb(0,127,191)" fill="none" stroke-width="1px" stroke-dasharray="" y="226px" x="1px" width="94px" height="25px" rx="0" ry="0" />
<circle id="r0"  stroke="rgb(255,255,255)" fill="rgb(255,255,255)" stroke-width="1px" stroke-dasharray="" cx="148" cy="179" r="9"/> 
<circle stroke="rgb(0,0,0)" fill="none" stroke-width="1px" stroke-dasharray="" cx="148" cy="179" r="9"/> 
<rect id="r0"  stroke="rgb(255,255,255)" fill="rgb(255,255,255)" stroke-width="1px" stroke-dasharray="" y="203px" x="329px" width="93px" height="25px" rx="0" ry="0" />
<rect id="r0"  stroke="rgb(0,127,191)" fill="none" stroke-width="1px" stroke-dasharray="" y="203px" x="329px" width="93px" height="25px" rx="0" ry="0" />
<circle id="r0"  stroke="rgb(255,255,255)" fill="rgb(255,255,255)" stroke-width="1px" stroke-dasharray="" cx="300" cy="263" r="9"/> 
<circle stroke="rgb(0,0,0)" fill="none" stroke-width="1px" stroke-dasharray="" cx="300" cy="263" r="9"/> 
<rect id="r0"  stroke="rgb(255,255,255)" fill="rgb(255,255,255)" stroke-width="1px" stroke-dasharray="" y="2px" x="1139px" width="125px" height="15px" rx="0" ry="0" />
<rect id="r0"  stroke="rgb(0,127,191)" fill="none" stroke-width="1px" stroke-dasharray="" y="2px" x="1139px" width="125px" height="15px" rx="0" ry="0" />
<rect id="r0"  stroke="rgb(255,255,255)" fill="rgb(255,255,255)" stroke-width="1px" stroke-dasharray="" y="108px" x="1170px" width="50px" height="25px" rx="0" ry="0" />
<rect id="r0"  stroke="rgb(0,127,191)" fill="none" stroke-width="1px" stroke-dasharray="" y="108px" x="1170px" width="50px" height="25px" rx="0" ry="0" />
<rect id="r0"  stroke="rgb(255,255,255)" fill="rgb(255,255,255)" stroke-width="1px" stroke-dasharray="" y="392px" x="123px" width="62px" height="24px" rx="0" ry="0" />
<rect id="r0"  stroke="rgb(0,127,191)" fill="none" stroke-width="3px" stroke-dasharray="" y="392px" x="123px" width="62px" height="24px" rx="0" ry="0" />
<text x="7" y="242" font-family="Arial" fill="rgb(0,0,0)" font-size="10" text-anchor="start">write_ready = '0'</text>
<text x="219" y="268" font-family="Arial" fill="rgb(0,0,0)" font-weight="800" font-size="12" text-anchor="middle">Start</text>
<text x="506" y="268" font-family="Arial" fill="rgb(0,0,0)" font-weight="800" font-size="12" text-anchor="middle">wr</text>
<text x="1088" y="267" font-family="Arial" fill="rgb(0,0,0)" font-weight="800" font-size="12" text-anchor="middle">led_pos_1</text>
<text x="796" y="268" font-family="arial" fill="rgb(0,0,0)" font-weight="800" font-size="12" text-anchor="middle">s0</text>
<text x="1330" y="267" font-family="Arial" fill="rgb(0,0,0)" font-weight="800" font-size="12" text-anchor="middle">led_pos_2</text>
<text x="301" y="267" font-family="arial" fill="rgb(0,0,0)" font-size="10" text-anchor="middle">2</text>
<text x="313" y="70" font-family="arial" fill="rgb(0,0,0)" font-weight="800" font-size="10" text-anchor="start">Post Decls</text>
<text x="763" y="70" font-family="arial" fill="rgb(0,0,0)" font-weight="800" font-size="10" text-anchor="start">Output Process:</text>
<text x="37" y="70" font-family="arial" fill="rgb(0,0,0)" font-weight="800" font-size="10" text-anchor="start">Post Actions:</text>
<text x="591" y="46" font-family="arial" fill="rgb(0,0,0)" font-weight="800" font-size="10" text-anchor="start">State Register Statements</text>
<text x="482" y="55" font-family="Courier New" fill="rgb(0,0,0)" font-size="10" text-anchor="start">SIGNAL         MODE    DEFAULT  RESET  SCHEME COMMENT  </text>
<text x="482" y="65" font-family="Courier New" fill="rgb(0,0,0)" font-size="10" text-anchor="start">module_select  OUT                     COMB            </text>
<text x="482" y="75" font-family="Courier New" fill="rgb(0,0,0)" font-size="10" text-anchor="start">gun_px_idx     OUT                     COMB            </text>
<text x="482" y="85" font-family="Courier New" fill="rgb(0,0,0)" font-size="10" text-anchor="start">write          OUT                     COMB            </text>
<text x="482" y="95" font-family="Courier New" fill="rgb(0,0,0)" font-size="10" text-anchor="start">frame_done     OUT                     COMB            </text>
<text x="482" y="105" font-family="Courier New" fill="rgb(0,0,0)" font-size="10" text-anchor="start">enable         OUT                     COMB            </text>
<text x="313" y="46" font-family="arial" fill="rgb(0,0,0)" font-weight="800" font-size="10" text-anchor="start">Architecture Declarations</text>
<text x="313" y="58" font-family="arial" fill="rgb(0,0,0)" font-weight="800" font-size="10" text-anchor="start">Pre Decls</text>
<text x="37" y="46" font-family="arial" fill="rgb(0,0,0)" font-weight="800" font-size="10" text-anchor="start">Global Actions</text>
<text x="37" y="58" font-family="arial" fill="rgb(0,0,0)" font-weight="800" font-size="10" text-anchor="start">Pre Actions:</text>
<text x="152" y="46" font-family="arial" fill="rgb(0,0,0)" font-weight="800" font-size="10" text-anchor="start">Concurrent Statements</text>
<text x="482" y="46" font-family="arial" fill="rgb(0,0,0)" font-weight="800" font-size="10" text-anchor="start">Signal Status</text>
<text x="763" y="46" font-family="arial" fill="rgb(0,0,0)" font-weight="800" font-size="10" text-anchor="start">Process Declarations</text>
<text x="763" y="58" font-family="arial" fill="rgb(0,0,0)" font-weight="800" font-size="10" text-anchor="start">Clocked Process:</text>
<text x="1105" y="13" font-family="arial" fill="rgb(0,0,0)" font-size="10" text-anchor="end">clk</text>
<text x="1140" y="13" font-family="arial" fill="rgb(0,0,0)" font-size="10" text-anchor="start">clk'EVENT AND clk = '1'</text>
<text x="37" y="95" font-family="arial" fill="rgb(0,0,0)" font-weight="800" font-size="10" text-anchor="start">Package List</text>
<text x="37" y="108" font-family="arial" fill="rgb(0,0,0)" font-size="10" text-anchor="start">LIBRARY ieee;</text>
<text x="37" y="120" font-family="arial" fill="rgb(0,0,0)" font-size="10" text-anchor="start">USE ieee.std_logic_1164.all;</text>
<text x="37" y="133" font-family="arial" fill="rgb(0,0,0)" font-size="10" text-anchor="start">USE ieee.std_logic_arith.all;</text>
<text x="1098" y="125" font-family="arial" fill="rgb(0,0,0)" font-size="10" text-anchor="end">rst</text>
<text x="1176" y="118" font-family="arial" fill="rgb(0,0,0)" font-size="10" text-anchor="start">rst = '0'</text>
<text x="1304" y="125" font-family="arial" fill="rgb(0,0,0)" font-weight="800" font-size="10" text-anchor="start">start</text>
<text x="1304" y="62" font-family="arial" fill="rgb(0,0,0)" font-weight="800" font-size="10" text-anchor="start">start</text>
<text x="148" y="183" font-family="Arial" fill="rgb(0,0,0)" font-size="10" text-anchor="middle">1</text>
<text x="335" y="219" font-family="arial" fill="rgb(0,0,0)" font-size="10" text-anchor="start">write_ready = '1'</text>
<text x="129" y="408" font-family="arial" fill="rgb(0,0,0)" font-size="10" text-anchor="start">TIMEOUT</text>
<text x="245" y="340" font-family="Arial" fill="rgb(0,0,0)" font-size="10" text-anchor="start">module_select &#0060;= "00";</text>
<text x="245" y="353" font-family="Arial" fill="rgb(0,0,0)" font-size="10" text-anchor="start">gun_px_idx &#0060;= "00";</text>
<text x="245" y="365" font-family="Arial" fill="rgb(0,0,0)" font-size="10" text-anchor="start">frame_done &#0060;= '0';</text>
<text x="245" y="378" font-family="Arial" fill="rgb(0,0,0)" font-size="10" text-anchor="start">write &#0060;= '0';</text>
<text x="245" y="390" font-family="Arial" fill="rgb(0,0,0)" font-size="10" text-anchor="start">enable &#0060;= '0';</text>
<text x="469" y="318" font-family="Arial" fill="rgb(0,0,0)" font-size="10" text-anchor="start">module_select &#0060;= "00";</text>
<text x="469" y="330" font-family="Arial" fill="rgb(0,0,0)" font-size="10" text-anchor="start">gun_px_idx &#0060;= "00";</text>
<text x="469" y="343" font-family="Arial" fill="rgb(0,0,0)" font-size="10" text-anchor="start">frame_done &#0060;= '0';</text>
<text x="469" y="355" font-family="Arial" fill="rgb(0,0,0)" font-size="10" text-anchor="start">write &#0060;=  '1';</text>
<text x="469" y="368" font-family="Arial" fill="rgb(0,0,0)" font-size="10" text-anchor="start">enable &#0060;= '0';</text>
<text x="1056" y="332" font-family="Arial" fill="rgb(0,0,0)" font-size="10" text-anchor="start">write &#0060;= '1';</text>
<text x="1056" y="344" font-family="Arial" fill="rgb(0,0,0)" font-size="10" text-anchor="start">module_select &#0060;= "01";</text>
<text x="1056" y="357" font-family="Arial" fill="rgb(0,0,0)" font-size="10" text-anchor="start">gun_px_idx &#0060;= "00";</text>
<text x="1056" y="369" font-family="Arial" fill="rgb(0,0,0)" font-size="10" text-anchor="start">frame_done &#0060;= '0';</text>
<text x="1056" y="382" font-family="Arial" fill="rgb(0,0,0)" font-size="10" text-anchor="start">enable &#0060;= '0';</text>
<text x="770" y="317" font-family="arial" fill="rgb(0,0,0)" font-size="10" text-anchor="start">write &#0060;= '0';</text>
<text x="770" y="330" font-family="arial" fill="rgb(0,0,0)" font-size="10" text-anchor="start">module_select &#0060;= "01";</text>
<text x="770" y="342" font-family="arial" fill="rgb(0,0,0)" font-size="10" text-anchor="start">gun_px_idx &#0060;= "00";</text>
<text x="770" y="355" font-family="arial" fill="rgb(0,0,0)" font-size="10" text-anchor="start">frame_done &#0060;= '0';</text>
<text x="770" y="367" font-family="arial" fill="rgb(0,0,0)" font-size="10" text-anchor="start">enable &#0060;= '0';</text>
<text x="1362" y="314" font-family="Arial" fill="rgb(0,0,0)" font-size="10" text-anchor="start">write &#0060;= '1';</text>
<text x="1362" y="327" font-family="Arial" fill="rgb(0,0,0)" font-size="10" text-anchor="start">module_select &#0060;= "01";</text>
<text x="1362" y="339" font-family="Arial" fill="rgb(0,0,0)" font-size="10" text-anchor="start">gun_px_idx &#0060;= "01";</text>
<text x="1362" y="352" font-family="Arial" fill="rgb(0,0,0)" font-size="10" text-anchor="start">frame_done &#0060;= '0';</text>
<text x="1362" y="364" font-family="Arial" fill="rgb(0,0,0)" font-size="10" text-anchor="start">enable &#0060;= '0';</text>
<text x="667" y="504" font-family="Arial" fill="rgb(0,0,0)" font-weight="800" font-size="12" text-anchor="middle">s2</text>
<text x="866" y="504" font-family="Arial" fill="rgb(0,0,0)" font-weight="800" font-size="12" text-anchor="middle">s1</text>
<text x="1084" y="505" font-family="Arial" fill="rgb(0,0,0)" font-weight="800" font-size="12" text-anchor="middle">led_pos_4</text>
<text x="219" y="515" font-family="Arial" fill="rgb(0,0,0)" font-weight="800" font-size="12" text-anchor="middle">s3</text>
<text x="166" y="495" font-family="Arial" fill="rgb(0,0,128)" font-weight="800" font-size="12" text-anchor="start">wait 12000000</text>
<text x="1330" y="505" font-family="Arial" fill="rgb(0,0,0)" font-weight="800" font-size="12" text-anchor="middle">led_pos_3</text>
<text x="589" y="762" font-family="Arial" fill="rgb(0,0,128)" font-size="10" text-anchor="start">by mqange on 17 marras 2022</text>
<text x="801" y="712" font-family="Arial" fill="rgb(0,0,128)" font-size="10" text-anchor="start">Project:</text>
<text x="589" y="737" font-family="Arial" fill="rgb(0,0,128)" font-size="10" text-anchor="start">&#0060;enter diagram title here&#0062;</text>
<text x="539" y="737" font-family="Arial" fill="rgb(0,0,128)" font-size="10" text-anchor="start">Title:</text>
<text x="801" y="727" font-family="Arial" fill="rgb(0,0,128)" font-size="10" text-anchor="start">&#0060;enter comments here&#0062;</text>
<text x="851" y="712" font-family="Arial" fill="rgb(0,0,128)" font-size="10" text-anchor="start">alien_game</text>
<text x="668" y="718" font-family="Arial" fill="rgb(127,0,0)" font-size="10" text-anchor="middle">&#0060;company name&#0062;</text>
<text x="539" y="749" font-family="Arial" fill="rgb(0,0,128)" font-size="10" text-anchor="start">Path:</text>
<text x="539" y="762" font-family="Arial" fill="rgb(0,0,128)" font-size="10" text-anchor="start">Edited:</text>
<text x="589" y="749" font-family="Arial" fill="rgb(0,0,128)" font-size="10" text-anchor="start">alien_game_lib/c5_t1_write_sequencer/fsm</text>
<text x="1309" y="547" font-family="Arial" fill="rgb(0,0,0)" font-size="10" text-anchor="start">write &#0060;= '1';</text>
<text x="1309" y="559" font-family="Arial" fill="rgb(0,0,0)" font-size="10" text-anchor="start">module_select &#0060;= "01";</text>
<text x="1309" y="572" font-family="Arial" fill="rgb(0,0,0)" font-size="10" text-anchor="start">gun_px_idx &#0060;= "10";</text>
<text x="1309" y="584" font-family="Arial" fill="rgb(0,0,0)" font-size="10" text-anchor="start">frame_done &#0060;= '0';</text>
<text x="1309" y="597" font-family="Arial" fill="rgb(0,0,0)" font-size="10" text-anchor="start">enable &#0060;= '0';</text>
<text x="623" y="573" font-family="Arial" fill="rgb(0,0,0)" font-size="10" text-anchor="start">write &#0060;= '0';</text>
<text x="623" y="585" font-family="Arial" fill="rgb(0,0,0)" font-size="10" text-anchor="start">module_select &#0060;= "00";</text>
<text x="623" y="598" font-family="Arial" fill="rgb(0,0,0)" font-size="10" text-anchor="start">gun_px_idx &#0060;= "00";</text>
<text x="623" y="610" font-family="Arial" fill="rgb(0,0,0)" font-size="10" text-anchor="start">frame_done &#0060;= '0';</text>
<text x="623" y="623" font-family="Arial" fill="rgb(0,0,0)" font-size="10" text-anchor="start">enable &#0060;= '1';</text>
<text x="830" y="554" font-family="Arial" fill="rgb(0,0,0)" font-size="10" text-anchor="start">write &#0060;= '0' ;</text>
<text x="830" y="566" font-family="Arial" fill="rgb(0,0,0)" font-size="10" text-anchor="start">module_select &#0060;= "00";</text>
<text x="830" y="579" font-family="Arial" fill="rgb(0,0,0)" font-size="10" text-anchor="start">gun_px_idx &#0060;= "00";</text>
<text x="830" y="591" font-family="Arial" fill="rgb(0,0,0)" font-size="10" text-anchor="start">frame_done &#0060;= '1';</text>
<text x="830" y="604" font-family="Arial" fill="rgb(0,0,0)" font-size="10" text-anchor="start">enable &#0060;= '0';</text>
<text x="1039" y="560" font-family="Arial" fill="rgb(0,0,0)" font-size="10" text-anchor="start">write &#0060;= '1';</text>
<text x="1039" y="573" font-family="Arial" fill="rgb(0,0,0)" font-size="10" text-anchor="start">module_select &#0060;= "01";</text>
<text x="1039" y="585" font-family="Arial" fill="rgb(0,0,0)" font-size="10" text-anchor="start">gun_px_idx &#0060;= "11";</text>
<text x="1039" y="598" font-family="Arial" fill="rgb(0,0,0)" font-size="10" text-anchor="start">frame_done &#0060;= '0';</text>
<text x="1039" y="610" font-family="Arial" fill="rgb(0,0,0)" font-size="10" text-anchor="start">enable &#0060;= '0';</text>
<text x="163" y="563" font-family="Arial" fill="rgb(0,0,0)" font-size="10" text-anchor="start">write &#0060;= '0';</text>
<text x="163" y="575" font-family="Arial" fill="rgb(0,0,0)" font-size="10" text-anchor="start">module_select &#0060;= "00";</text>
<text x="163" y="588" font-family="Arial" fill="rgb(0,0,0)" font-size="10" text-anchor="start">gun_px_idx &#0060;= "00";</text>
<text x="163" y="600" font-family="Arial" fill="rgb(0,0,0)" font-size="10" text-anchor="start">frame_done &#0060;= '0';</text>
<text x="163" y="613" font-family="Arial" fill="rgb(0,0,0)" font-size="10" text-anchor="start">enable &#0060;= '0';</text>
<polyline id="r0"  stroke="rgb(0,0,0)" fill="none" stroke-width="1px" stroke-dasharray="" points="1176, 126,1213, 126" /> 
</g>
</svg>
<!-- Create a "titlebox" group so we can reposition it when the SVG moves -->
<g id="titlebox">
<g id="genTime" class="allText normalText">
  <text class="allText smallText" x="300" y="123">Generated on:  1.12.2022 at: 11:39 ip.</text>
</g>

<rect stroke="none" fill="rgb(200,230,240)" opacity="0.4" y="112" x="0" width="914" height="15" />
<!-- Close the "titlebox" group -->
</g>

</g>
</svg>
