<?xml version="1.0" encoding="UTF-8"?>
<!DOCTYPE svg PUBLIC "-//W3C//DTD SVG 1.1//EN" "http://www.w3.org/Graphics/SVG/1.1/DTD/svg11.dtd">
<!-- Created HDS 2004.1a -->


<svg xmlns="http://www.w3.org/2000/svg" xmlns:xlink="http://www.w3.org/1999/xlink" version="1.1">
<script xlink:href="../../scripts/SVGPan.js" />
<g id="viewport" transform="translate(0,-100)">


<title>SVG Image</title>
<desc></desc>


<defs>
<!-- section for CSS stylesheet definitions -->
<style type="text/css"><![CDATA[
.allText {font-family:Sans-Serif;fill:darkcyan;}
.subTitleText {font-size:20;font-weight:bold;}
.normalText {font-size:15;}
.smallText {font-size:12;}
.boldText {font-weight:bold;}
.rightText {text-anchor:end;}
.centerText {text-anchor:middle;}
.dragRect {fill:darkcyan;stroke:none;opacity:0.4;}
]]></style>
<symbol id="upArrow" overflow="visible" style="stroke:darkcyan;fill:darkcyan;stroke-width:1;" pointer-events="none">
<polygon points="5,0 10,5 0,5 5,0" />
</symbol>
<symbol id="leftArrow" overflow="visible" style="stroke:darkcyan;fill:darkcyan;stroke-width:1;" pointer-events="none">
<polygon points="0,5 5,0 5,10 0,5" />
</symbol>
<symbol id="rightArrow" overflow="visible" style="stroke:darkcyan;fill:darkcyan;stroke-width:1;" pointer-events="none">
<polygon points="5,0 10,5 5,10 5,0" />
</symbol>
<symbol id="downArrow" overflow="visible" style="stroke:darkcyan;fill:darkcyan;stroke-width:1;" pointer-events="none">
<polygon points="0,0 5,5 10,0 0,0" />
</symbol>

</defs>
<svg id="mainMap" x="0" y="150" viewBox="0 0 955 642" width="912" height="512">


<clipPath id="SVG_Clip">
<rect x="0" y="0" width="955" height="642" />
</clipPath>
<g id="hds_models" style="clip-path:url(#SVG_Clip)">
<polyline id="r0"  stroke="rgb(102,102,102)" fill="none" stroke-width="3px" stroke-dasharray="" points="113, 400,88, 400" /> 
<polyline id="r0"  stroke="rgb(102,102,102)" fill="none" stroke-width="3px" stroke-dasharray="" points="88, 387,88, 412" /> 
<rect id="r0"  stroke="rgb(254,254,179)" fill="rgb(254,254,179)" stroke-width="1px" stroke-dasharray="" y="602px" x="51px" width="212px" height="18px" rx="0" ry="0" />
<rect id="r0"  stroke="rgb(0,0,0)" fill="none" stroke-width="1px" stroke-dasharray="" y="602px" x="51px" width="212px" height="18px" rx="0" ry="0" />
<rect id="r0"  stroke="rgb(254,254,179)" fill="rgb(254,254,179)" stroke-width="1px" stroke-dasharray="" y="620px" x="1px" width="50px" height="17px" rx="0" ry="0" />
<rect id="r0"  stroke="rgb(0,0,0)" fill="none" stroke-width="1px" stroke-dasharray="" y="620px" x="1px" width="50px" height="17px" rx="0" ry="0" />
<rect id="r0"  stroke="rgb(254,254,179)" fill="rgb(254,254,179)" stroke-width="1px" stroke-dasharray="" y="602px" x="1px" width="50px" height="18px" rx="0" ry="0" />
<rect id="r0"  stroke="rgb(0,0,0)" fill="none" stroke-width="1px" stroke-dasharray="" y="602px" x="1px" width="50px" height="18px" rx="0" ry="0" />
<rect id="r0"  stroke="rgb(254,254,179)" fill="rgb(254,254,179)" stroke-width="1px" stroke-dasharray="" y="550px" x="1px" width="262px" height="35px" rx="0" ry="0" />
<rect id="r0"  stroke="rgb(0,0,0)" fill="none" stroke-width="1px" stroke-dasharray="" y="550px" x="1px" width="262px" height="35px" rx="0" ry="0" />
<rect id="r0"  stroke="rgb(254,254,179)" fill="rgb(254,254,179)" stroke-width="1px" stroke-dasharray="" y="550px" x="313px" width="200px" height="18px" rx="0" ry="0" />
<rect id="r0"  stroke="rgb(0,0,0)" fill="none" stroke-width="1px" stroke-dasharray="" y="550px" x="313px" width="200px" height="18px" rx="0" ry="0" />
<rect id="r0"  stroke="rgb(254,254,179)" fill="rgb(254,254,179)" stroke-width="1px" stroke-dasharray="" y="568px" x="263px" width="250px" height="69px" rx="0" ry="0" />
<rect id="r0"  stroke="rgb(0,0,0)" fill="none" stroke-width="1px" stroke-dasharray="" y="568px" x="263px" width="250px" height="69px" rx="0" ry="0" />
<rect id="r0"  stroke="rgb(254,254,179)" fill="rgb(254,254,179)" stroke-width="1px" stroke-dasharray="" y="585px" x="1px" width="50px" height="17px" rx="0" ry="0" />
<rect id="r0"  stroke="rgb(0,0,0)" fill="none" stroke-width="1px" stroke-dasharray="" y="585px" x="1px" width="50px" height="17px" rx="0" ry="0" />
<rect id="r0"  stroke="rgb(254,254,179)" fill="rgb(254,254,179)" stroke-width="1px" stroke-dasharray="" y="585px" x="51px" width="212px" height="17px" rx="0" ry="0" />
<rect id="r0"  stroke="rgb(0,0,0)" fill="none" stroke-width="1px" stroke-dasharray="" y="585px" x="51px" width="212px" height="17px" rx="0" ry="0" />
<rect id="r0"  stroke="rgb(254,254,179)" fill="rgb(254,254,179)" stroke-width="1px" stroke-dasharray="" y="550px" x="263px" width="50px" height="18px" rx="0" ry="0" />
<rect id="r0"  stroke="rgb(0,0,0)" fill="none" stroke-width="1px" stroke-dasharray="" y="550px" x="263px" width="50px" height="18px" rx="0" ry="0" />
<rect id="r0"  stroke="rgb(254,254,179)" fill="rgb(254,254,179)" stroke-width="1px" stroke-dasharray="" y="620px" x="51px" width="212px" height="17px" rx="0" ry="0" />
<rect id="r0"  stroke="rgb(0,0,0)" fill="none" stroke-width="1px" stroke-dasharray="" y="620px" x="51px" width="212px" height="17px" rx="0" ry="0" />
<a xlink:href='javascript:parent.location.href="../../tb_lib/hit_testbench/struct_bd.htm"'>
<rect id="r0"  stroke="rgb(0,255,0)" fill="rgb(0,255,0)" stroke-width="1px" stroke-dasharray="" y="326px" x="139px" width="162px" height="174px" rx="0" ry="0" />
</a>
<rect id="r0"  stroke="rgb(0,128,0)" fill="none" stroke-width="3px" stroke-dasharray="" y="326px" x="139px" width="162px" height="174px" rx="0" ry="0" />
<a xlink:href='javascript:parent.location.href="../../tb_lib/hit_testbench/struct_bd.htm"'>
<image xlink:href="BlockDiagram.png" x="142" y="478" width="18" height="19" />
</a>
<a xlink:href='javascript:parent.location.href="../../alien_game_lib/c6_t1_hit_detector/struct_bd.htm"'>
<rect id="r0"  stroke="rgb(0,255,0)" fill="rgb(0,255,0)" stroke-width="1px" stroke-dasharray="" y="338px" x="502px" width="361px" height="187px" rx="0" ry="0" />
</a>
<rect id="r0"  stroke="rgb(0,128,0)" fill="none" stroke-width="3px" stroke-dasharray="" y="338px" x="502px" width="361px" height="187px" rx="0" ry="0" />
<a xlink:href='javascript:parent.location.href="../../alien_game_lib/c6_t1_hit_detector/struct_bd.htm"'>
<image xlink:href="BlockDiagram.png" x="504" y="503" width="19" height="19" />
</a>
<polyline id="r0"  stroke="rgb(0,0,0)" fill="none" stroke-width="1px" stroke-dasharray="" points="113, 400,113, 400" /> 
<a xlink:href='javascript:parent.location.href="../../tb_lib/hit_testbench/struct_bd.htm"'>
<polyline id="r0"  stroke="rgb(0,255,0)" fill="rgb(0,255,0)" stroke-width="1px" stroke-dasharray="" points="310, 450,301, 455,301, 445,310, 450" /> 
</a>
<polyline id="r0"  stroke="rgb(0,0,0)" fill="none" stroke-width="1px" stroke-dasharray="" points="310, 450,301, 455,301, 445,310, 450" /> 
<a xlink:href='javascript:parent.location.href="../../tb_lib/hit_testbench/struct_bd.htm"'>
<polyline id="r0"  stroke="rgb(0,255,0)" fill="rgb(0,255,0)" stroke-width="1px" stroke-dasharray="" points="310, 425,301, 430,301, 420,310, 425" /> 
</a>
<polyline id="r0"  stroke="rgb(0,0,0)" fill="none" stroke-width="1px" stroke-dasharray="" points="310, 425,301, 430,301, 420,310, 425" /> 
<a xlink:href='javascript:parent.location.href="../../tb_lib/hit_testbench/struct_bd.htm"'>
<polyline id="r0"  stroke="rgb(0,255,0)" fill="rgb(0,255,0)" stroke-width="1px" stroke-dasharray="" points="310, 400,301, 405,301, 395,310, 400" /> 
</a>
<polyline id="r0"  stroke="rgb(0,0,0)" fill="none" stroke-width="1px" stroke-dasharray="" points="310, 400,301, 405,301, 395,310, 400" /> 
<a xlink:href='javascript:parent.location.href="../../tb_lib/hit_testbench/struct_bd.htm"'>
<polyline id="r0"  stroke="rgb(0,255,0)" fill="rgb(0,255,0)" stroke-width="1px" stroke-dasharray="" points="310, 412,301, 417,301, 408,310, 412" /> 
</a>
<polyline id="r0"  stroke="rgb(0,0,0)" fill="none" stroke-width="1px" stroke-dasharray="" points="310, 412,301, 417,301, 408,310, 412" /> 
<a xlink:href='javascript:parent.location.href="../../tb_lib/hit_testbench/struct_bd.htm"'>
<polyline id="r0"  stroke="rgb(0,255,0)" fill="rgb(0,255,0)" stroke-width="1px" stroke-dasharray="" points="310, 350,301, 355,301, 345,310, 350" /> 
</a>
<polyline id="r0"  stroke="rgb(0,0,0)" fill="none" stroke-width="1px" stroke-dasharray="" points="310, 350,301, 355,301, 345,310, 350" /> 
<a xlink:href='javascript:parent.location.href="../../tb_lib/hit_testbench/struct_bd.htm"'>
<polyline id="r0"  stroke="rgb(0,255,0)" fill="rgb(0,255,0)" stroke-width="1px" stroke-dasharray="" points="310, 475,301, 480,301, 470,310, 475" /> 
</a>
<polyline id="r0"  stroke="rgb(0,0,0)" fill="none" stroke-width="1px" stroke-dasharray="" points="310, 475,301, 480,301, 470,310, 475" /> 
<a xlink:href='javascript:parent.location.href="../../tb_lib/hit_testbench/struct_bd.htm"'>
<polyline id="r0"  stroke="rgb(0,255,0)" fill="rgb(0,255,0)" stroke-width="1px" stroke-dasharray="" points="138, 350,129, 355,129, 345,138, 350" /> 
</a>
<polyline id="r0"  stroke="rgb(0,0,0)" fill="none" stroke-width="1px" stroke-dasharray="" points="138, 350,129, 355,129, 345,138, 350" /> 
<a xlink:href='javascript:parent.location.href="../../tb_lib/hit_testbench/struct_bd.htm"'>
<polyline id="r0"  stroke="rgb(0,255,0)" fill="rgb(0,255,0)" stroke-width="1px" stroke-dasharray="" points="138, 400,129, 405,129, 395,138, 400" /> 
</a>
<polyline id="r0"  stroke="rgb(0,0,0)" fill="none" stroke-width="1px" stroke-dasharray="" points="138, 400,129, 405,129, 395,138, 400" /> 
<a xlink:href='javascript:parent.location.href="../../tb_lib/hit_testbench/struct_bd.htm"'>
<polyline id="r0"  stroke="rgb(0,255,0)" fill="rgb(0,255,0)" stroke-width="1px" stroke-dasharray="" points="310, 362,301, 367,301, 358,310, 362" /> 
</a>
<polyline id="r0"  stroke="rgb(0,0,0)" fill="none" stroke-width="1px" stroke-dasharray="" points="310, 362,301, 367,301, 358,310, 362" /> 
<a xlink:href='javascript:parent.location.href="../../tb_lib/hit_testbench/struct_bd.htm"'>
<polyline id="r0"  stroke="rgb(0,255,0)" fill="rgb(0,255,0)" stroke-width="1px" stroke-dasharray="" points="310, 487,301, 492,301, 483,310, 487" /> 
</a>
<polyline id="r0"  stroke="rgb(0,0,0)" fill="none" stroke-width="1px" stroke-dasharray="" points="310, 487,301, 492,301, 483,310, 487" /> 
<a xlink:href='javascript:parent.location.href="../../alien_game_lib/c6_t1_hit_detector/struct_bd.htm"'>
<polyline id="r0"  stroke="rgb(0,255,0)" fill="rgb(0,255,0)" stroke-width="1px" stroke-dasharray="" points="501, 350,492, 355,492, 345,501, 350" /> 
</a>
<polyline id="r0"  stroke="rgb(0,0,0)" fill="none" stroke-width="1px" stroke-dasharray="" points="501, 350,492, 355,492, 345,501, 350" /> 
<a xlink:href='javascript:parent.location.href="../../alien_game_lib/c6_t1_hit_detector/struct_bd.htm"'>
<polyline id="r0"  stroke="rgb(0,255,0)" fill="rgb(0,255,0)" stroke-width="1px" stroke-dasharray="" points="501, 362,492, 367,492, 358,501, 362" /> 
</a>
<polyline id="r0"  stroke="rgb(0,0,0)" fill="none" stroke-width="1px" stroke-dasharray="" points="501, 362,492, 367,492, 358,501, 362" /> 
<a xlink:href='javascript:parent.location.href="../../alien_game_lib/c6_t1_hit_detector/struct_bd.htm"'>
<polyline id="r0"  stroke="rgb(0,255,0)" fill="rgb(0,255,0)" stroke-width="1px" stroke-dasharray="" points="501, 450,492, 455,492, 445,501, 450" /> 
</a>
<polyline id="r0"  stroke="rgb(0,0,0)" fill="none" stroke-width="1px" stroke-dasharray="" points="501, 450,492, 455,492, 445,501, 450" /> 
<a xlink:href='javascript:parent.location.href="../../alien_game_lib/c6_t1_hit_detector/struct_bd.htm"'>
<polyline id="r0"  stroke="rgb(0,255,0)" fill="rgb(0,255,0)" stroke-width="1px" stroke-dasharray="" points="501, 487,492, 492,492, 483,501, 487" /> 
</a>
<polyline id="r0"  stroke="rgb(0,0,0)" fill="none" stroke-width="1px" stroke-dasharray="" points="501, 487,492, 492,492, 483,501, 487" /> 
<a xlink:href='javascript:parent.location.href="../../alien_game_lib/c6_t1_hit_detector/struct_bd.htm"'>
<polyline id="r0"  stroke="rgb(0,255,0)" fill="rgb(0,255,0)" stroke-width="1px" stroke-dasharray="" points="873, 375,863, 380,863, 370,873, 375" /> 
</a>
<polyline id="r0"  stroke="rgb(0,0,0)" fill="none" stroke-width="1px" stroke-dasharray="" points="873, 375,863, 380,863, 370,873, 375" /> 
<a xlink:href='javascript:parent.location.href="../../alien_game_lib/c6_t1_hit_detector/struct_bd.htm"'>
<polyline id="r0"  stroke="rgb(0,255,0)" fill="rgb(0,255,0)" stroke-width="1px" stroke-dasharray="" points="501, 475,492, 480,492, 470,501, 475" /> 
</a>
<polyline id="r0"  stroke="rgb(0,0,0)" fill="none" stroke-width="1px" stroke-dasharray="" points="501, 475,492, 480,492, 470,501, 475" /> 
<circle id="r0"  stroke="rgb(255,255,255)" fill="rgb(255,255,255)" stroke-width="1px" stroke-dasharray="" cx="412" cy="399" r="4"/> 
<circle stroke="rgb(255,0,0)" fill="none" stroke-width="1px" stroke-dasharray="" cx="413" cy="400" r="5"/> 
<circle id="r0"  stroke="rgb(255,255,255)" fill="rgb(255,255,255)" stroke-width="1px" stroke-dasharray="" cx="412" cy="411" r="4"/> 
<circle stroke="rgb(255,0,0)" fill="none" stroke-width="1px" stroke-dasharray="" cx="413" cy="412" r="5"/> 
<circle id="r0"  stroke="rgb(255,255,255)" fill="rgb(255,255,255)" stroke-width="1px" stroke-dasharray="" cx="412" cy="424" r="4"/> 
<circle stroke="rgb(255,0,0)" fill="none" stroke-width="1px" stroke-dasharray="" cx="413" cy="425" r="5"/> 
<text x="548" y="397" font-family="courier" fill="rgb(0,0,0)" font-weight="800" font-size="11" text-anchor="start">alien_game_lib</text>
<text x="548" y="409" font-family="courier" fill="rgb(0,0,0)" font-weight="800" font-size="11" text-anchor="start">c6_t1_hit_detector</text>
<text x="513" y="453" font-family="courier" fill="rgb(0,0,0)" font-size="11" text-anchor="start">alien_x_coordinate : (7:0)</text>
<text x="513" y="478" font-family="courier" fill="rgb(0,0,0)" font-size="11" text-anchor="start">gun_x_coordinate1 : (7:0)</text>
<text x="301" y="9" font-family="courier" fill="rgb(0,0,0)" font-weight="800" font-size="11" text-anchor="start">Declarations</text>
<text x="301" y="21" font-family="courier" fill="rgb(0,0,0)" font-weight="800" font-size="11" text-anchor="start">Ports:</text>
<text x="301" y="34" font-family="courier" fill="rgb(0,0,0)" font-weight="800" font-size="11" text-anchor="start">Diagram Signals:</text>
<text x="266" y="580" font-family="courier" fill="rgb(0,0,127)" font-size="11" text-anchor="start">Tests hit module functionality. </text>
<text x="266" y="593" font-family="courier" fill="rgb(0,0,127)" font-size="11" text-anchor="start">mode selects whether </text>
<text x="266" y="605" font-family="courier" fill="rgb(0,0,127)" font-size="11" text-anchor="start">test uses bullet checking or </text>
<text x="266" y="618" font-family="courier" fill="rgb(0,0,127)" font-size="11" text-anchor="start">just gun x-coordinate.</text>
<text x="266" y="630" font-family="courier" fill="rgb(0,0,127)" font-size="11" text-anchor="start">  &#0060;&#0060;-- more --&#0062;&#0062;</text>
<text x="51" y="9" font-family="courier" fill="rgb(0,0,0)" font-weight="800" font-size="11" text-anchor="start">Package List</text>
<text x="51" y="20" font-family="courier" fill="rgb(0,0,0)" font-size="11" text-anchor="start">LIBRARY ieee;</text>
<text x="51" y="31" font-family="courier" fill="rgb(0,0,0)" font-size="11" text-anchor="start">USE ieee.std_logic_1164.all;</text>
<text x="51" y="42" font-family="courier" fill="rgb(0,0,0)" font-size="11" text-anchor="start">USE ieee.std_logic_arith.all;</text>
<text x="326" y="116" font-family="courier" fill="rgb(0,0,0)" font-size="11" text-anchor="start">SIGNAL hit      : std_logic</text>
<text x="326" y="96" font-family="courier" fill="rgb(0,0,0)" font-size="11" text-anchor="start">SIGNAL clk      : std_logic</text>
<text x="326" y="136" font-family="courier" fill="rgb(0,0,0)" font-size="11" text-anchor="start">SIGNAL rst_n    : std_logic</text>
<text x="326" y="76" font-family="courier" fill="rgb(0,0,0)" font-size="11" text-anchor="start">SIGNAL bullet_x : std_logic_vector(7 DOWNTO 0)</text>
<text x="326" y="86" font-family="courier" fill="rgb(0,0,0)" font-size="11" text-anchor="start">SIGNAL bullet_y : std_logic_vector(7 DOWNTO 0)</text>
<text x="326" y="56" font-family="courier" fill="rgb(0,0,0)" font-size="11" text-anchor="start">SIGNAL alien_y  : std_logic_vector(7 DOWNTO 0)</text>
<text x="326" y="46" font-family="courier" fill="rgb(0,0,0)" font-size="11" text-anchor="start">SIGNAL alien_x  : std_logic_vector(7 DOWNTO 0)</text>
<text x="326" y="106" font-family="courier" fill="rgb(0,0,0)" font-size="11" text-anchor="start">SIGNAL gun_x    : std_logic_vector(7 DOWNTO 0)</text>
<text x="326" y="126" font-family="courier" fill="rgb(0,0,0)" font-size="11" text-anchor="start">SIGNAL mode     : std_logic</text>
<text x="326" y="66" font-family="courier" fill="rgb(0,0,0)" font-size="11" text-anchor="start">SIGNAL btn      : std_logic</text>
<text x="53" y="615" font-family="courier" fill="rgb(0,0,127)" font-size="11" text-anchor="start">tb_lib/tb_hit_detect/struct</text>
<text x="4" y="632" font-family="courier" fill="rgb(0,0,127)" font-size="11" text-anchor="start">  &#0060;&#0060;--</text>
<text x="4" y="615" font-family="courier" fill="rgb(0,0,127)" font-size="11" text-anchor="start">Path:</text>
<text x="132" y="571" font-family="courier" fill="rgb(127,0,0)" font-size="11" text-anchor="middle">Tampere University</text>
<text x="4" y="598" font-family="courier" fill="rgb(0,0,127)" font-size="11" text-anchor="start">Title:</text>
<text x="53" y="598" font-family="courier" fill="rgb(0,0,127)" font-size="11" text-anchor="start">  &#0060;&#0060;-- more --&#0062;&#0062;</text>
<text x="266" y="563" font-family="courier" fill="rgb(0,0,127)" font-size="11" text-anchor="start">  &#0060;&#0060;--</text>
<text x="53" y="632" font-family="courier" fill="rgb(0,0,127)" font-size="11" text-anchor="start">by mqange on 11 Nov 2022</text>
<text x="80" y="422" font-family="courier" fill="rgb(0,0,0)" font-size="11" text-anchor="start">constval</text>
<text x="80" y="435" font-family="courier" fill="rgb(0,0,0)" font-size="11" text-anchor="start">mode</text>
<text x="164" y="440" font-family="courier" fill="rgb(0,0,0)" font-weight="800" font-size="11" text-anchor="start">tb_lib</text>
<text x="164" y="452" font-family="courier" fill="rgb(0,0,0)" font-weight="800" font-size="11" text-anchor="start">hit_testbench</text>
<text x="164" y="465" font-family="courier" fill="rgb(0,0,0)" font-weight="800" font-size="11" text-anchor="start">U_2</text>
<text x="288" y="454" font-family="courier" fill="rgb(0,0,0)" font-size="11" text-anchor="end">alien_x</text>
<text x="288" y="429" font-family="courier" fill="rgb(0,0,0)" font-size="11" text-anchor="end">alien_y</text>
<text x="288" y="404" font-family="courier" fill="rgb(0,0,0)" font-size="11" text-anchor="end">bullet_x</text>
<text x="288" y="416" font-family="courier" fill="rgb(0,0,0)" font-size="11" text-anchor="end">bullet_y</text>
<text x="288" y="354" font-family="courier" fill="rgb(0,0,0)" font-size="11" text-anchor="end">clk</text>
<text x="288" y="479" font-family="courier" fill="rgb(0,0,0)" font-size="11" text-anchor="end">gun_x</text>
<text x="151" y="354" font-family="courier" fill="rgb(0,0,0)" font-size="11" text-anchor="start">hit</text>
<text x="151" y="404" font-family="courier" fill="rgb(0,0,0)" font-size="11" text-anchor="start">mode</text>
<text x="288" y="366" font-family="courier" fill="rgb(0,0,0)" font-size="11" text-anchor="end">rst_n</text>
<text x="288" y="491" font-family="courier" fill="rgb(0,0,0)" font-size="11" text-anchor="end">btn</text>
<text x="316" y="563" font-family="courier" fill="rgb(0,0,127)" font-size="11" text-anchor="start">alien_game</text>
<text x="548" y="420" font-family="courier" fill="rgb(0,0,0)" font-weight="800" font-size="11" text-anchor="start">U_0</text>
<text x="513" y="353" font-family="courier" fill="rgb(0,0,0)" font-size="11" text-anchor="start">clk</text>
<text x="513" y="366" font-family="courier" fill="rgb(0,0,0)" font-size="11" text-anchor="start">rst_n</text>
<text x="513" y="491" font-family="courier" fill="rgb(0,0,0)" font-size="11" text-anchor="start">btn</text>
<text x="338" y="346" font-family="courier" fill="rgb(0,0,0)" font-size="11" text-anchor="start">clk</text>
<text x="338" y="359" font-family="courier" fill="rgb(0,0,0)" font-size="11" text-anchor="start">rst_n</text>
<text x="326" y="396" font-family="courier" fill="rgb(0,0,0)" font-size="11" text-anchor="start">bullet_x : (7:0)</text>
<text x="326" y="409" font-family="courier" fill="rgb(0,0,0)" font-size="11" text-anchor="start">bullet_y : (7:0)</text>
<text x="326" y="421" font-family="courier" fill="rgb(0,0,0)" font-size="11" text-anchor="start">alien_y : (7:0)</text>
<text x="401" y="446" font-family="courier" fill="rgb(0,0,0)" font-size="11" text-anchor="start">alien_x : (7:0)</text>
<text x="413" y="471" font-family="courier" fill="rgb(0,0,0)" font-size="11" text-anchor="start">gun_x : (7:0)</text>
<text x="335" y="484" font-family="courier" fill="rgb(0,0,0)" font-size="11" text-anchor="start">btn</text>
<text x="851" y="378" font-family="courier" fill="rgb(0,0,0)" font-size="11" text-anchor="end">hit</text>
<text x="901" y="371" font-family="courier" fill="rgb(0,0,0)" font-size="11" text-anchor="start">hit</text>
<g id="alien_x_net" stroke="rgb(0,0,0)" stroke-width="3px"  >
<polyline id="r0"  fill="none"  stroke-dasharray="" points="310, 450,492, 450" /> 
</g>
<g id="alien_y_net" stroke="rgb(0,0,0)" stroke-width="3px"  >
<polyline id="r0"  fill="none"  stroke-dasharray="" points="310, 425,413, 425" /> 
</g>
<g id="btn_net" stroke="rgb(0,0,0)" stroke-width="1px"  >
<polyline id="r0"  fill="none"  stroke-dasharray="" points="310, 487,492, 487" /> 
</g>
<g id="bullet_x_net" stroke="rgb(0,0,0)" stroke-width="3px"  >
<polyline id="r0"  fill="none"  stroke-dasharray="" points="310, 400,413, 400" /> 
</g>
<g id="bullet_y_net" stroke="rgb(0,0,0)" stroke-width="3px"  >
<polyline id="r0"  fill="none"  stroke-dasharray="" points="310, 412,413, 412" /> 
</g>
<g id="clk_net" stroke="rgb(0,0,0)" stroke-width="1px"  >
<polyline id="r0"  fill="none"  stroke-dasharray="" points="310, 350,492, 350" /> 
</g>
<g id="gun_x_net" stroke="rgb(0,0,0)" stroke-width="3px"  >
<polyline id="r0"  fill="none"  stroke-dasharray="" points="310, 475,492, 475" /> 
</g>
<g id="hit_net" stroke="rgb(0,0,0)" stroke-width="1px"  >
<polyline id="r0"  fill="none"  stroke-dasharray="" points="873, 375,938, 375,938, 200,113, 200,113, 350,129, 350" /> 
</g>
<g id="mode_net" stroke="rgb(0,0,0)" stroke-width="1px"  >
<polyline id="r0"  fill="none"  stroke-dasharray="" points="113, 400,126, 400,129, 400" /> 
</g>
<g id="rst_n_net" stroke="rgb(0,0,0)" stroke-width="1px"  >
<polyline id="r0"  fill="none"  stroke-dasharray="" points="310, 362,492, 362" /> 
</g>
</g>
</svg>
<!-- Create a "titlebox" group so we can reposition it when the SVG moves -->
<g id="titlebox">
<g id="genTime" class="allText normalText">
  <text class="allText smallText" x="300" y="123">Generated on: 11/11/22 at:  4:21 PM</text>
</g>

<rect stroke="none" fill="rgb(200,230,240)" opacity="0.4" y="112" x="0" width="914" height="15" />
<!-- Close the "titlebox" group -->
</g>

</g>
</svg>
