<?xml version="1.0" encoding="UTF-8"?>
<!DOCTYPE svg PUBLIC "-//W3C//DTD SVG 1.1//EN" "http://www.w3.org/Graphics/SVG/1.1/DTD/svg11.dtd">
<!-- Created HDS 2004.1a -->


<svg xmlns="http://www.w3.org/2000/svg" xmlns:xlink="http://www.w3.org/1999/xlink" version="1.1">
<script xlink:href="../../scripts/SVGPan.js" />
<g id="viewport" transform="translate(0,-100)">


<title>SVG Image</title>
<desc></desc>


<defs>
<!-- section for CSS stylesheet definitions -->
<style type="text/css"><![CDATA[
.allText {font-family:Sans-Serif;fill:darkcyan;}
.subTitleText {font-size:20;font-weight:bold;}
.normalText {font-size:15;}
.smallText {font-size:12;}
.boldText {font-weight:bold;}
.rightText {text-anchor:end;}
.centerText {text-anchor:middle;}
.dragRect {fill:darkcyan;stroke:none;opacity:0.4;}
]]></style>
<symbol id="upArrow" overflow="visible" style="stroke:darkcyan;fill:darkcyan;stroke-width:1;" pointer-events="none">
<polygon points="5,0 10,5 0,5 5,0" />
</symbol>
<symbol id="leftArrow" overflow="visible" style="stroke:darkcyan;fill:darkcyan;stroke-width:1;" pointer-events="none">
<polygon points="0,5 5,0 5,10 0,5" />
</symbol>
<symbol id="rightArrow" overflow="visible" style="stroke:darkcyan;fill:darkcyan;stroke-width:1;" pointer-events="none">
<polygon points="5,0 10,5 5,10 5,0" />
</symbol>
<symbol id="downArrow" overflow="visible" style="stroke:darkcyan;fill:darkcyan;stroke-width:1;" pointer-events="none">
<polygon points="0,0 5,5 10,0 0,0" />
</symbol>

</defs>
<svg id="mainMap" x="0" y="150" viewBox="0 0 915 617" width="912" height="512">


<clipPath id="SVG_Clip">
<rect x="0" y="0" width="915" height="617" />
</clipPath>
<g id="hds_models" style="clip-path:url(#SVG_Clip)">
<polyline id="r0"  stroke="rgb(102,102,102)" fill="none" stroke-width="3px" stroke-dasharray="" points="85, 112,60, 112" /> 
<polyline id="r0"  stroke="rgb(102,102,102)" fill="none" stroke-width="3px" stroke-dasharray="" points="60, 100,60, 125" /> 
<polyline id="r0"  stroke="rgb(0,0,128)" fill="rgb(0,0,128)" stroke-width="1px" stroke-dasharray="" points="23, 270,35, 270,41, 275,35, 280,23, 280,23, 270" /> 
<polyline id="r0"  stroke="rgb(0,0,0)" fill="none" stroke-width="1px" stroke-dasharray="" points="23, 270,35, 270,41, 275,35, 280,23, 280,23, 270" /> 
<polyline id="r0"  stroke="rgb(0,0,128)" fill="rgb(0,0,128)" stroke-width="1px" stroke-dasharray="" points="23, 270,35, 270,41, 275,35, 280,23, 280,23, 270" /> 
<polyline id="r0"  stroke="rgb(0,0,0)" fill="none" stroke-width="1px" stroke-dasharray="" points="23, 270,35, 270,41, 275,35, 280,23, 280,23, 270" /> 
<polyline id="r0"  stroke="rgb(0,0,0)" fill="none" stroke-width="1px" stroke-dasharray="" points="41, 275,48, 275" /> 
<polyline id="r0"  stroke="rgb(0,0,128)" fill="rgb(0,0,128)" stroke-width="1px" stroke-dasharray="" points="791, 320,804, 320,810, 325,804, 330,791, 330,791, 320" /> 
<polyline id="r0"  stroke="rgb(0,0,0)" fill="none" stroke-width="1px" stroke-dasharray="" points="791, 320,804, 320,810, 325,804, 330,791, 330,791, 320" /> 
<polyline id="r0"  stroke="rgb(0,0,128)" fill="rgb(0,0,128)" stroke-width="1px" stroke-dasharray="" points="791, 320,804, 320,810, 325,804, 330,791, 330,791, 320" /> 
<polyline id="r0"  stroke="rgb(0,0,0)" fill="none" stroke-width="1px" stroke-dasharray="" points="791, 320,804, 320,810, 325,804, 330,791, 330,791, 320" /> 
<polyline id="r0"  stroke="rgb(0,0,0)" fill="none" stroke-width="1px" stroke-dasharray="" points="785, 325,791, 325" /> 
<rect id="r0"  stroke="rgb(254,254,179)" fill="rgb(254,254,179)" stroke-width="1px" stroke-dasharray="" y="600px" x="447px" width="213px" height="12px" rx="0" ry="0" />
<rect id="r0"  stroke="rgb(0,0,0)" fill="none" stroke-width="1px" stroke-dasharray="" y="600px" x="447px" width="213px" height="12px" rx="0" ry="0" />
<rect id="r0"  stroke="rgb(254,254,179)" fill="rgb(254,254,179)" stroke-width="1px" stroke-dasharray="" y="550px" x="660px" width="50px" height="12px" rx="0" ry="0" />
<rect id="r0"  stroke="rgb(0,0,0)" fill="none" stroke-width="1px" stroke-dasharray="" y="550px" x="660px" width="50px" height="12px" rx="0" ry="0" />
<rect id="r0"  stroke="rgb(254,254,179)" fill="rgb(254,254,179)" stroke-width="1px" stroke-dasharray="" y="575px" x="447px" width="213px" height="12px" rx="0" ry="0" />
<rect id="r0"  stroke="rgb(0,0,0)" fill="none" stroke-width="1px" stroke-dasharray="" y="575px" x="447px" width="213px" height="12px" rx="0" ry="0" />
<rect id="r0"  stroke="rgb(254,254,179)" fill="rgb(254,254,179)" stroke-width="1px" stroke-dasharray="" y="575px" x="397px" width="50px" height="12px" rx="0" ry="0" />
<rect id="r0"  stroke="rgb(0,0,0)" fill="none" stroke-width="1px" stroke-dasharray="" y="575px" x="397px" width="50px" height="12px" rx="0" ry="0" />
<rect id="r0"  stroke="rgb(254,254,179)" fill="rgb(254,254,179)" stroke-width="1px" stroke-dasharray="" y="562px" x="660px" width="250px" height="50px" rx="0" ry="0" />
<rect id="r0"  stroke="rgb(0,0,0)" fill="none" stroke-width="1px" stroke-dasharray="" y="562px" x="660px" width="250px" height="50px" rx="0" ry="0" />
<rect id="r0"  stroke="rgb(254,254,179)" fill="rgb(254,254,179)" stroke-width="1px" stroke-dasharray="" y="550px" x="710px" width="200px" height="12px" rx="0" ry="0" />
<rect id="r0"  stroke="rgb(0,0,0)" fill="none" stroke-width="1px" stroke-dasharray="" y="550px" x="710px" width="200px" height="12px" rx="0" ry="0" />
<rect id="r0"  stroke="rgb(254,254,179)" fill="rgb(254,254,179)" stroke-width="1px" stroke-dasharray="" y="550px" x="397px" width="263px" height="25px" rx="0" ry="0" />
<rect id="r0"  stroke="rgb(0,0,0)" fill="none" stroke-width="1px" stroke-dasharray="" y="550px" x="397px" width="263px" height="25px" rx="0" ry="0" />
<rect id="r0"  stroke="rgb(254,254,179)" fill="rgb(254,254,179)" stroke-width="1px" stroke-dasharray="" y="587px" x="397px" width="50px" height="13px" rx="0" ry="0" />
<rect id="r0"  stroke="rgb(0,0,0)" fill="none" stroke-width="1px" stroke-dasharray="" y="587px" x="397px" width="50px" height="13px" rx="0" ry="0" />
<rect id="r0"  stroke="rgb(254,254,179)" fill="rgb(254,254,179)" stroke-width="1px" stroke-dasharray="" y="600px" x="397px" width="50px" height="12px" rx="0" ry="0" />
<rect id="r0"  stroke="rgb(0,0,0)" fill="none" stroke-width="1px" stroke-dasharray="" y="600px" x="397px" width="50px" height="12px" rx="0" ry="0" />
<rect id="r0"  stroke="rgb(254,254,179)" fill="rgb(254,254,179)" stroke-width="1px" stroke-dasharray="" y="587px" x="447px" width="213px" height="13px" rx="0" ry="0" />
<rect id="r0"  stroke="rgb(0,0,0)" fill="none" stroke-width="1px" stroke-dasharray="" y="587px" x="447px" width="213px" height="13px" rx="0" ry="0" />
<a xlink:href='javascript:parent.location.href="../../alien_game_lib/c1_t1_half_adder/struct_bd.htm"'>
<rect id="r0"  stroke="rgb(0,255,0)" fill="rgb(0,255,0)" stroke-width="1px" stroke-dasharray="" y="101px" x="148px" width="137px" height="136px" rx="0" ry="0" />
</a>
<rect id="r0"  stroke="rgb(0,128,0)" fill="none" stroke-width="3px" stroke-dasharray="" y="101px" x="148px" width="137px" height="136px" rx="0" ry="0" />
<a xlink:href='javascript:parent.location.href="../../alien_game_lib/c1_t1_half_adder/struct_bd.htm"'>
<image xlink:href="BlockDiagram.png" x="151" y="216" width="18" height="18" />
</a>
<a xlink:href='javascript:parent.location.href="../../alien_game_lib/c1_t1_half_adder/struct_bd.htm"'>
<rect id="r0"  stroke="rgb(0,255,0)" fill="rgb(0,255,0)" stroke-width="1px" stroke-dasharray="" y="101px" x="411px" width="136px" height="136px" rx="0" ry="0" />
</a>
<rect id="r0"  stroke="rgb(0,128,0)" fill="none" stroke-width="3px" stroke-dasharray="" y="101px" x="411px" width="136px" height="136px" rx="0" ry="0" />
<a xlink:href='javascript:parent.location.href="../../alien_game_lib/c1_t1_half_adder/struct_bd.htm"'>
<image xlink:href="BlockDiagram.png" x="413" y="216" width="19" height="18" />
</a>
<a xlink:href='javascript:parent.location.href="../../alien_game_lib/c1_t1_half_adder/struct_bd.htm"'>
<rect id="r0"  stroke="rgb(0,255,0)" fill="rgb(0,255,0)" stroke-width="1px" stroke-dasharray="" y="101px" x="673px" width="137px" height="136px" rx="0" ry="0" />
</a>
<rect id="r0"  stroke="rgb(0,128,0)" fill="none" stroke-width="3px" stroke-dasharray="" y="101px" x="673px" width="137px" height="136px" rx="0" ry="0" />
<a xlink:href='javascript:parent.location.href="../../alien_game_lib/c1_t1_half_adder/struct_bd.htm"'>
<image xlink:href="BlockDiagram.png" x="676" y="216" width="18" height="18" />
</a>
<polyline id="r0"  stroke="rgb(0,0,0)" fill="none" stroke-width="1px" stroke-dasharray="" points="41, 275,48, 275" /> 
<polyline id="r0"  stroke="rgb(0,0,0)" fill="none" stroke-width="1px" stroke-dasharray="" points="785, 325,791, 325" /> 
<a xlink:href='javascript:parent.location.href="../../alien_game_lib/c1_t1_half_adder/struct_bd.htm"'>
<polyline id="r0"  stroke="rgb(0,255,0)" fill="rgb(0,255,0)" stroke-width="1px" stroke-dasharray="" points="147, 162,138, 167,138, 158,147, 162" /> 
</a>
<polyline id="r0"  stroke="rgb(0,0,0)" fill="none" stroke-width="1px" stroke-dasharray="" points="147, 162,138, 167,138, 158,147, 162" /> 
<a xlink:href='javascript:parent.location.href="../../alien_game_lib/c1_t1_half_adder/struct_bd.htm"'>
<polyline id="r0"  stroke="rgb(0,255,0)" fill="rgb(0,255,0)" stroke-width="1px" stroke-dasharray="" points="147, 112,138, 117,138, 108,147, 112" /> 
</a>
<polyline id="r0"  stroke="rgb(0,0,0)" fill="none" stroke-width="1px" stroke-dasharray="" points="147, 112,138, 117,138, 108,147, 112" /> 
<a xlink:href='javascript:parent.location.href="../../alien_game_lib/c1_t1_half_adder/struct_bd.htm"'>
<polyline id="r0"  stroke="rgb(0,255,0)" fill="rgb(0,255,0)" stroke-width="1px" stroke-dasharray="" points="294, 112,285, 117,285, 108,294, 112" /> 
</a>
<polyline id="r0"  stroke="rgb(0,0,0)" fill="none" stroke-width="1px" stroke-dasharray="" points="294, 112,285, 117,285, 108,294, 112" /> 
<a xlink:href='javascript:parent.location.href="../../alien_game_lib/c1_t1_half_adder/struct_bd.htm"'>
<polyline id="r0"  stroke="rgb(0,255,0)" fill="rgb(0,255,0)" stroke-width="1px" stroke-dasharray="" points="185, 247,180, 237,190, 237,185, 247" /> 
</a>
<polyline id="r0"  stroke="rgb(0,0,0)" fill="none" stroke-width="1px" stroke-dasharray="" points="185, 247,180, 237,190, 237,185, 247" /> 
<polyline id="r0"  stroke="rgb(0,0,0)" fill="none" stroke-width="1px" stroke-dasharray="" points="85, 112,85, 112" /> 
<a xlink:href='javascript:parent.location.href="../../alien_game_lib/c1_t1_half_adder/struct_bd.htm"'>
<polyline id="r0"  stroke="rgb(0,255,0)" fill="rgb(0,255,0)" stroke-width="1px" stroke-dasharray="" points="410, 162,401, 167,401, 158,410, 162" /> 
</a>
<polyline id="r0"  stroke="rgb(0,0,0)" fill="none" stroke-width="1px" stroke-dasharray="" points="410, 162,401, 167,401, 158,410, 162" /> 
<a xlink:href='javascript:parent.location.href="../../alien_game_lib/c1_t1_half_adder/struct_bd.htm"'>
<polyline id="r0"  stroke="rgb(0,255,0)" fill="rgb(0,255,0)" stroke-width="1px" stroke-dasharray="" points="410, 112,401, 117,401, 108,410, 112" /> 
</a>
<polyline id="r0"  stroke="rgb(0,0,0)" fill="none" stroke-width="1px" stroke-dasharray="" points="410, 112,401, 117,401, 108,410, 112" /> 
<a xlink:href='javascript:parent.location.href="../../alien_game_lib/c1_t1_half_adder/struct_bd.htm"'>
<polyline id="r0"  stroke="rgb(0,255,0)" fill="rgb(0,255,0)" stroke-width="1px" stroke-dasharray="" points="557, 112,547, 117,547, 108,557, 112" /> 
</a>
<polyline id="r0"  stroke="rgb(0,0,0)" fill="none" stroke-width="1px" stroke-dasharray="" points="557, 112,547, 117,547, 108,557, 112" /> 
<a xlink:href='javascript:parent.location.href="../../alien_game_lib/c1_t1_half_adder/struct_bd.htm"'>
<polyline id="r0"  stroke="rgb(0,255,0)" fill="rgb(0,255,0)" stroke-width="1px" stroke-dasharray="" points="447, 247,443, 237,452, 237,447, 247" /> 
</a>
<polyline id="r0"  stroke="rgb(0,0,0)" fill="none" stroke-width="1px" stroke-dasharray="" points="447, 247,443, 237,452, 237,447, 247" /> 
<a xlink:href='javascript:parent.location.href="../../alien_game_lib/c1_t1_half_adder/struct_bd.htm"'>
<polyline id="r0"  stroke="rgb(0,255,0)" fill="rgb(0,255,0)" stroke-width="1px" stroke-dasharray="" points="672, 162,663, 167,663, 158,672, 162" /> 
</a>
<polyline id="r0"  stroke="rgb(0,0,0)" fill="none" stroke-width="1px" stroke-dasharray="" points="672, 162,663, 167,663, 158,672, 162" /> 
<a xlink:href='javascript:parent.location.href="../../alien_game_lib/c1_t1_half_adder/struct_bd.htm"'>
<polyline id="r0"  stroke="rgb(0,255,0)" fill="rgb(0,255,0)" stroke-width="1px" stroke-dasharray="" points="672, 112,663, 117,663, 108,672, 112" /> 
</a>
<polyline id="r0"  stroke="rgb(0,0,0)" fill="none" stroke-width="1px" stroke-dasharray="" points="672, 112,663, 117,663, 108,672, 112" /> 
<a xlink:href='javascript:parent.location.href="../../alien_game_lib/c1_t1_half_adder/struct_bd.htm"'>
<polyline id="r0"  stroke="rgb(0,255,0)" fill="rgb(0,255,0)" stroke-width="1px" stroke-dasharray="" points="819, 112,810, 117,810, 108,819, 112" /> 
</a>
<polyline id="r0"  stroke="rgb(0,0,0)" fill="none" stroke-width="1px" stroke-dasharray="" points="819, 112,810, 117,810, 108,819, 112" /> 
<a xlink:href='javascript:parent.location.href="../../alien_game_lib/c1_t1_half_adder/struct_bd.htm"'>
<polyline id="r0"  stroke="rgb(0,255,0)" fill="rgb(0,255,0)" stroke-width="1px" stroke-dasharray="" points="710, 247,705, 237,715, 237,710, 247" /> 
</a>
<polyline id="r0"  stroke="rgb(0,0,0)" fill="none" stroke-width="1px" stroke-dasharray="" points="710, 247,705, 237,715, 237,710, 247" /> 
<circle id="r0"  stroke="rgb(255,255,255)" fill="rgb(255,255,255)" stroke-width="1px" stroke-dasharray="" cx="647" cy="275" r="5"/> 
<circle stroke="rgb(255,0,0)" fill="none" stroke-width="1px" stroke-dasharray="" cx="647" cy="275" r="5"/> 
<line id="r0" stroke="rgb(0,0,0)" x1="60" y1="275" x2="72" y2="262" stroke-width="1px" />
<line id="r0" stroke="rgb(0,0,0)" x1="360" y1="275" x2="347" y2="262" stroke-width="1px" />
<line id="r0" stroke="rgb(0,0,0)" x1="635" y1="275" x2="622" y2="262" stroke-width="1px" />
<circle id="r0"  stroke="rgb(255,255,255)" fill="rgb(255,255,255)" stroke-width="1px" stroke-dasharray="" cx="48" cy="325" r="5"/> 
<circle stroke="rgb(255,0,0)" fill="none" stroke-width="1px" stroke-dasharray="" cx="48" cy="325" r="5"/> 
<line id="r0" stroke="rgb(0,0,0)" x1="210" y1="325" x2="197" y2="312" stroke-width="1px" />
<line id="r0" stroke="rgb(0,0,0)" x1="460" y1="325" x2="447" y2="312" stroke-width="1px" />
<line id="r0" stroke="rgb(0,0,0)" x1="722" y1="325" x2="710" y2="312" stroke-width="1px" />
<text x="60" y="10" font-family="arial" fill="rgb(0,0,0)" font-weight="800" font-size="10" text-anchor="start">Package List</text>
<text x="60" y="22" font-family="arial" fill="rgb(0,0,0)" font-size="10" text-anchor="start">LIBRARY ieee;</text>
<text x="60" y="35" font-family="arial" fill="rgb(0,0,0)" font-size="10" text-anchor="start">USE ieee.std_logic_1164.all;</text>
<text x="60" y="47" font-family="arial" fill="rgb(0,0,0)" font-size="10" text-anchor="start">USE ieee.std_logic_arith.all;</text>
<text x="10" y="279" font-family="arial" fill="rgb(0,0,0)" font-size="10" text-anchor="end">x</text>
<text x="187" y="185" font-family="arial" fill="rgb(0,0,0)" font-weight="800" font-size="10" text-anchor="start">alien_game_lib</text>
<text x="187" y="197" font-family="arial" fill="rgb(0,0,0)" font-weight="800" font-size="10" text-anchor="start">c1_t1_half_adder</text>
<text x="187" y="210" font-family="arial" fill="rgb(0,0,0)" font-weight="800" font-size="10" text-anchor="start">U_8</text>
<text x="160" y="166" font-family="arial" fill="rgb(0,0,0)" font-size="10" text-anchor="start">sw0</text>
<text x="160" y="116" font-family="arial" fill="rgb(0,0,0)" font-size="10" text-anchor="start">sw1</text>
<text x="272" y="116" font-family="arial" fill="rgb(0,0,0)" font-size="10" text-anchor="end">carry</text>
<text x="172" y="222" font-family="arial" fill="rgb(0,0,0)" font-size="10" text-anchor="start">sum</text>
<text x="52" y="136" font-family="arial" fill="rgb(0,0,0)" font-size="10" text-anchor="start">constval</text>
<text x="52" y="149" font-family="arial" fill="rgb(0,0,0)" font-size="10" text-anchor="start">U_9</text>
<text x="319" y="110" font-family="arial" fill="rgb(0,0,0)" font-size="10" text-anchor="start">carry</text>
<text x="101" y="160" font-family="arial" fill="rgb(0,0,0)" font-size="10" text-anchor="start">x(0)</text>
<text x="363" y="160" font-family="arial" fill="rgb(0,0,0)" font-size="10" text-anchor="start">x(1)</text>
<text x="0" y="0" font-family="arial" fill="rgb(0,0,0)" transform="translate(172,294) rotate(270)" font-size="10" >y(0)</text>
<text x="450" y="172" font-family="arial" fill="rgb(0,0,0)" font-weight="800" font-size="10" text-anchor="start">alien_game_lib</text>
<text x="450" y="185" font-family="arial" fill="rgb(0,0,0)" font-weight="800" font-size="10" text-anchor="start">c1_t1_half_adder</text>
<text x="450" y="197" font-family="arial" fill="rgb(0,0,0)" font-weight="800" font-size="10" text-anchor="start">U_10</text>
<text x="422" y="166" font-family="arial" fill="rgb(0,0,0)" font-size="10" text-anchor="start">sw0</text>
<text x="422" y="116" font-family="arial" fill="rgb(0,0,0)" font-size="10" text-anchor="start">sw1</text>
<text x="535" y="116" font-family="arial" fill="rgb(0,0,0)" font-size="10" text-anchor="end">carry</text>
<text x="435" y="222" font-family="arial" fill="rgb(0,0,0)" font-size="10" text-anchor="start">sum</text>
<text x="712" y="172" font-family="arial" fill="rgb(0,0,0)" font-weight="800" font-size="10" text-anchor="start">alien_game_lib</text>
<text x="712" y="185" font-family="arial" fill="rgb(0,0,0)" font-weight="800" font-size="10" text-anchor="start">c1_t1_half_adder</text>
<text x="712" y="197" font-family="arial" fill="rgb(0,0,0)" font-weight="800" font-size="10" text-anchor="start">U_11</text>
<text x="685" y="166" font-family="arial" fill="rgb(0,0,0)" font-size="10" text-anchor="start">sw0</text>
<text x="685" y="116" font-family="arial" fill="rgb(0,0,0)" font-size="10" text-anchor="start">sw1</text>
<text x="797" y="116" font-family="arial" fill="rgb(0,0,0)" font-size="10" text-anchor="end">carry</text>
<text x="697" y="222" font-family="arial" fill="rgb(0,0,0)" font-size="10" text-anchor="start">sum</text>
<text x="582" y="110" font-family="arial" fill="rgb(0,0,0)" font-size="10" text-anchor="start">carry1</text>
<text x="626" y="160" font-family="arial" fill="rgb(0,0,0)" font-size="10" text-anchor="start">x(2)</text>
<text x="0" y="0" font-family="arial" fill="rgb(0,0,0)" transform="translate(434,294) rotate(270)" font-size="10" >y(1)</text>
<text x="0" y="0" font-family="arial" fill="rgb(0,0,0)" transform="translate(697,294) rotate(270)" font-size="10" >y(2)</text>
<text x="23" y="447" font-family="arial" fill="rgb(0,0,0)" font-weight="800" font-size="10" text-anchor="start">Declarations</text>
<text x="23" y="460" font-family="arial" fill="rgb(0,0,0)" font-weight="800" font-size="10" text-anchor="start">Ports:</text>
<text x="23" y="492" font-family="arial" fill="rgb(0,0,0)" font-weight="800" font-size="10" text-anchor="start">Diagram Signals:</text>
<text x="48" y="522" font-family="Courier New" fill="rgb(0,0,0)" font-size="10" text-anchor="start">SIGNAL dout   : std_logic</text>
<text x="48" y="502" font-family="Courier New" fill="rgb(0,0,0)" font-size="10" text-anchor="start">SIGNAL carry  : std_logic</text>
<text x="48" y="512" font-family="Courier New" fill="rgb(0,0,0)" font-size="10" text-anchor="start">SIGNAL carry1 : std_logic</text>
<text x="48" y="470" font-family="Courier New" fill="rgb(0,0,0)" font-size="10" text-anchor="start">x      : std_logic_vector(2 downto 0)</text>
<text x="48" y="480" font-family="Courier New" fill="rgb(0,0,0)" font-size="10" text-anchor="start">y      : std_logic_vector(2 downto 0)</text>
<text x="822" y="329" font-family="arial" fill="rgb(0,0,0)" font-size="10" text-anchor="start">y</text>
<text x="450" y="610" font-family="Arial" fill="rgb(0,0,128)" font-size="10" text-anchor="start">by bbhiwa on 26 syys 2022</text>
<text x="662" y="560" font-family="Arial" fill="rgb(0,0,128)" font-size="10" text-anchor="start">Project:</text>
<text x="450" y="585" font-family="Arial" fill="rgb(0,0,128)" font-size="10" text-anchor="start">&#0060;enter diagram title here&#0062;</text>
<text x="400" y="585" font-family="Arial" fill="rgb(0,0,128)" font-size="10" text-anchor="start">Title:</text>
<text x="662" y="575" font-family="Arial" fill="rgb(0,0,128)" font-size="10" text-anchor="start">&#0060;enter comments here&#0062;</text>
<text x="712" y="560" font-family="Arial" fill="rgb(0,0,128)" font-size="10" text-anchor="start">alien_game</text>
<text x="529" y="566" font-family="Arial" fill="rgb(127,0,0)" font-size="10" text-anchor="middle">&#0060;company name&#0062;</text>
<text x="400" y="597" font-family="Arial" fill="rgb(0,0,128)" font-size="10" text-anchor="start">Path:</text>
<text x="400" y="610" font-family="Arial" fill="rgb(0,0,128)" font-size="10" text-anchor="start">Edited:</text>
<text x="450" y="597" font-family="Arial" fill="rgb(0,0,128)" font-size="10" text-anchor="start">alien_game_lib/c1_t3_incrementer/struct</text>
<g id="carry_net" stroke="rgb(0,0,0)" stroke-width="1px"  >
<polyline id="r0"  fill="none"  stroke-dasharray="" points="294, 112,401, 112" /> 
</g>
<g id="carry1_net" stroke="rgb(0,0,0)" stroke-width="1px"  >
<polyline id="r0"  fill="none"  stroke-dasharray="" points="557, 112,663, 112" /> 
</g>
<g id="dout_net" stroke="rgb(0,0,0)" stroke-width="1px"  >
<polyline id="r0"  fill="none"  stroke-dasharray="" points="85, 112,138, 112" /> 
</g>
<g id="x_net" stroke="rgb(0,0,0)" stroke-width="3px"  >
<polyline id="r0"  fill="none"  stroke-dasharray="" points="48, 275,647, 275" /> 
<polyline id="r0"  fill="none"  stroke-dasharray="" points="138, 162,72, 162,72, 262" /> 
<polyline id="r0"  fill="none"  stroke-dasharray="" points="401, 162,347, 162,347, 262" /> 
<polyline id="r0"  fill="none"  stroke-dasharray="" points="663, 162,622, 162,622, 262" /> 
</g>
<g id="y_net" stroke="rgb(0,0,0)" stroke-width="3px"  >
<polyline id="r0"  fill="none"  stroke-dasharray="" points="785, 325,48, 325" /> 
<polyline id="r0"  fill="none"  stroke-dasharray="" points="185, 247,185, 312,197, 312" /> 
<polyline id="r0"  fill="none"  stroke-dasharray="" points="447, 247,447, 312" /> 
<polyline id="r0"  fill="none"  stroke-dasharray="" points="710, 247,710, 312" /> 
</g>
</g>
</svg>
<!-- Create a "titlebox" group so we can reposition it when the SVG moves -->
<g id="titlebox">
<g id="genTime" class="allText normalText">
  <text class="allText smallText" x="300" y="123">Generated on: 26.09.2022 at: 12:11 ip.</text>
</g>

<rect stroke="none" fill="rgb(200,230,240)" opacity="0.4" y="112" x="0" width="914" height="15" />
<!-- Close the "titlebox" group -->
</g>

</g>
</svg>
